<?xml version="1.0" encoding="UTF-8"?>
<svg width="20px" height="20px" viewBox="0 0 20 20" version="1.1" xmlns="http://www.w3.org/2000/svg" xmlns:xlink="http://www.w3.org/1999/xlink">
    <title>复制@2x</title>
    <g id="个人中心-二次认证" stroke="none" stroke-width="1" fill="none" fill-rule="evenodd">
        <g id="个人中心/Security/google-2fa" transform="translate(-687.000000, -564.000000)" fill="#318BF5" fill-rule="nonzero">
            <g id="编组-24" transform="translate(468.000000, 518.000000)">
                <g id="复制" transform="translate(219.000000, 46.000000)">
                    <path d="M15.7581579,1.78604913 L15.7581579,3.52558604 L14.3767609,3.52558604 L14.3767609,1.78604913 C14.3767609,1.68372343 14.3255981,1.63256058 14.2744352,1.53023488 C14.2232724,1.47907203 14.1209467,1.42790918 14.018621,1.42790918 L2.20000256,1.42790918 C2.09767686,1.42790918 2.04651401,1.47907203 1.94418831,1.53023488 C1.89302546,1.58139773 1.84186261,1.68372343 1.84186261,1.78604913 L1.84186261,13.6046675 C1.84186261,13.7069932 1.89302546,13.7581561 1.94418831,13.8604818 C1.99535116,13.9116446 2.09767686,13.9628075 2.20000256,13.9628075 L3.93953947,13.9628075 L3.93953947,15.3442044 L2.20000256,15.3442044 C1.73953691,15.3442044 1.33023411,15.1907159 0.972094154,14.8325759 C0.613954203,14.474436 0.460465652,14.0651332 0.460465652,13.6046675 L0.460465652,1.78604913 C0.460465652,1.32558348 0.613954203,0.916280677 0.972094154,0.558140726 C1.33023411,0.200000774 1.73953691,0.0465122233 2.20000256,0.0465122233 L14.018621,0.0465122233 C14.4790866,0.0465122233 14.8883894,0.200000774 15.2465294,0.558140726 C15.5535065,0.916280677 15.7581579,1.32558348 15.7581579,1.78604913 Z M19.9023487,5.93024 L19.9023487,17.7488584 C19.9023487,18.2093241 19.7488602,18.6186269 19.3907202,18.9767668 C19.0325803,19.3349068 18.6232775,19.4883953 18.1628118,19.4883953 L6.39535628,19.4883953 C5.93489063,19.4883953 5.52558783,19.3349068 5.16744787,18.9767668 C4.80930792,18.6186269 4.65581937,18.2093241 4.65581937,17.7488584 L4.65581937,5.93024 C4.65581937,5.46977435 4.80930792,5.06047155 5.16744787,4.70233159 C5.52558783,4.34419164 5.93489063,4.19070309 6.39535628,4.19070309 L18.2139747,4.19070309 C18.6744403,4.19070309 19.0837431,4.34419164 19.4418831,4.70233159 C19.7488602,5.06047155 19.9023487,5.46977435 19.9023487,5.93024 Z" id="形状"></path>
                </g>
            </g>
        </g>
    </g>
</svg>