<?xml version="1.0" encoding="UTF-8"?>
<svg xmlns="http://www.w3.org/2000/svg" xmlns:xlink="http://www.w3.org/1999/xlink" width="20" height="20" viewBox="0 0 20 20">
<path fill-rule="nonzero" fill="rgb(19.215686%, 54.509804%, 96.078431%)" fill-opacity="1" d="M 15.757812 1.785156 L 15.757812 3.527344 L 14.375 3.527344 L 14.375 1.785156 C 14.375 1.683594 14.324219 1.632812 14.273438 1.53125 C 14.222656 1.480469 14.121094 1.429688 14.019531 1.429688 L 2.199219 1.429688 C 2.097656 1.429688 2.046875 1.480469 1.945312 1.53125 C 1.894531 1.582031 1.84375 1.683594 1.84375 1.785156 L 1.84375 13.605469 C 1.84375 13.707031 1.894531 13.757812 1.945312 13.859375 C 1.996094 13.910156 2.097656 13.960938 2.199219 13.960938 L 3.941406 13.960938 L 3.941406 15.34375 L 2.199219 15.34375 C 1.738281 15.34375 1.332031 15.191406 0.972656 14.832031 C 0.613281 14.472656 0.460938 14.066406 0.460938 13.605469 L 0.460938 1.785156 C 0.460938 1.324219 0.613281 0.917969 0.972656 0.558594 C 1.332031 0.199219 1.738281 0.046875 2.199219 0.046875 L 14.019531 0.046875 C 14.480469 0.046875 14.886719 0.199219 15.246094 0.558594 C 15.554688 0.917969 15.757812 1.324219 15.757812 1.785156 Z M 19.902344 5.929688 L 19.902344 17.75 C 19.902344 18.210938 19.75 18.617188 19.390625 18.976562 C 19.03125 19.335938 18.625 19.488281 18.164062 19.488281 L 6.394531 19.488281 C 5.933594 19.488281 5.527344 19.335938 5.167969 18.976562 C 4.808594 18.617188 4.65625 18.210938 4.65625 17.75 L 4.65625 5.929688 C 4.65625 5.46875 4.808594 5.058594 5.167969 4.703125 C 5.527344 4.34375 5.933594 4.191406 6.394531 4.191406 L 18.214844 4.191406 C 18.675781 4.191406 19.082031 4.34375 19.441406 4.703125 C 19.75 5.058594 19.902344 5.46875 19.902344 5.929688 Z M 19.902344 5.929688 "/>
</svg>
