<?xml version="1.0" encoding="UTF-8"?>
<svg width="10px" height="10px" viewBox="0 0 10 10" version="1.1" xmlns="http://www.w3.org/2000/svg" xmlns:xlink="http://www.w3.org/1999/xlink">
    <!-- Generator: Sketch 64 (93537) - https://sketch.com -->
    <title>路径@2x</title>
    <desc>Created with Sketch.</desc>
    <g id="👌稿" stroke="none" stroke-width="1" fill="none" fill-rule="evenodd">
        <g id="个人中心/API-management" transform="translate(-295.000000, -406.000000)" fill="#FFFFFF" fill-rule="nonzero">
            <g id="编组-9" transform="translate(260.000000, 390.000000)">
                <g id="编组-6" transform="translate(35.000000, 12.000000)">
                    <g id="编组-2">
                        <g id="编组-4">
                            <g id="编组-10">
                                <g id="编组-13">
                                    <path d="M9.16666674,9.83333323 L5.83333339,9.83333323 L5.83333339,13.1666666 L5.83333339,13.1666666 C5.83333339,13.6269041 5.46023756,14 5,14 C4.53976255,14 4.16666672,13.6269041 4.16666672,13.1666666 L4.16666672,9.83333323 L0.833333373,9.83333323 L0.833333336,9.83333323 C0.373095835,9.83333321 0,9.46023739 0,9 C0,8.53976239 0.373095835,8.16666656 0.833333336,8.16666656 L4.16666668,8.16666656 L4.16666668,4.83333321 L4.16666668,4.83333334 C4.16666661,4.37309583 4.53976252,4 5,4 C5.46023752,4 5.83333335,4.37309583 5.83333335,4.83333334 C5.83333335,4.83333334 5.83333335,4.83333334 5.83333335,4.83333334 L5.83333335,8.16666668 L9.1666667,8.16666668 L9.16666666,8.16666668 C9.62690417,8.16666666 10,8.53976252 10,9 C10,9.46023752 9.62690417,9.83333335 9.16666666,9.83333335 L9.16666674,9.83333323 Z" id="路径"></path>
                                </g>
                            </g>
                        </g>
                    </g>
                </g>
            </g>
        </g>
    </g>
</svg>