<?xml version="1.0" encoding="UTF-8"?>
<svg xmlns="http://www.w3.org/2000/svg" xmlns:xlink="http://www.w3.org/1999/xlink" width="10" height="10" viewBox="0 0 10 10">
<path fill-rule="nonzero" fill="rgb(100%, 100%, 100%)" fill-opacity="1" d="M 9.167969 5.832031 L 5.832031 5.832031 L 5.832031 9.167969 C 5.832031 9.625 5.460938 10 5 10 C 4.539062 10 4.167969 9.625 4.167969 9.167969 L 4.167969 5.832031 L 0.832031 5.832031 C 0.375 5.832031 0 5.460938 0 5 C 0 4.539062 0.375 4.167969 0.832031 4.167969 L 4.167969 4.167969 L 4.167969 0.832031 C 4.167969 0.375 4.539062 0 5 0 C 5.460938 0 5.832031 0.375 5.832031 0.832031 L 5.832031 4.167969 L 9.167969 4.167969 C 9.625 4.167969 10 4.539062 10 5 C 10 5.460938 9.625 5.832031 9.167969 5.832031 Z M 9.167969 5.832031 "/>
</svg>
