<?xml version="1.0" encoding="UTF-8"?>
<svg xmlns="http://www.w3.org/2000/svg" xmlns:xlink="http://www.w3.org/1999/xlink" width="24" height="24" viewBox="0 0 24 24">
<path fill-rule="nonzero" fill="rgb(66.27451%, 69.411765%, 72.156863%)" fill-opacity="1" d="M 19 21 L 10 21 C 8.300781 21 7 19.699219 7 18 L 7 12 C 7 10.300781 8.300781 9 10 9 L 12 9 C 12.601562 9 13 9.398438 13 10 C 13 10.601562 12.601562 11 12 11 L 10 11 C 9.398438 11 9 11.398438 9 12 L 9 18 C 9 18.601562 9.398438 19 10 19 L 19 19 C 19.601562 19 20 18.601562 20 18 L 20 12 C 20 11.398438 19.601562 11 19 11 L 18.699219 11 C 18.101562 11 17.699219 10.601562 17.699219 10 C 17.699219 9.398438 18.101562 9 18.699219 9 L 19 9 C 20.699219 9 22 10.300781 22 12 L 22 18 C 22 19.699219 20.699219 21 19 21 Z M 19 21 "/>
<path fill-rule="nonzero" fill="rgb(66.27451%, 69.411765%, 72.156863%)" fill-opacity="1" d="M 14 15 L 12 15 C 11.398438 15 11 14.601562 11 14 C 11 13.398438 11.398438 13 12 13 L 14 13 C 14.601562 13 15 12.601562 15 12 L 15 6 C 15 5.398438 14.601562 5 14 5 L 5 5 C 4.398438 5 4 5.398438 4 6 L 4 12 C 4 12.601562 4.398438 13 5 13 L 5.300781 13 C 5.898438 13 6.300781 13.398438 6.300781 14 C 6.300781 14.601562 5.898438 15 5.300781 15 L 5 15 C 3.300781 15 2 13.699219 2 12 L 2 6 C 2 4.300781 3.300781 3 5 3 L 14 3 C 15.699219 3 17 4.300781 17 6 L 17 12 C 17 13.699219 15.699219 15 14 15 Z M 14 15 "/>
</svg>
