<svg width="24" height="24" viewBox="0 0 24 24" fill="none" xmlns="http://www.w3.org/2000/svg">
<g id="Addresslinking">
<path id="Vector" d="M19 21H10C8.3 21 7 19.7 7 18V12C7 10.3 8.3 9 10 9H12C12.6 9 13 9.4 13 10C13 10.6 12.6 11 12 11H10C9.4 11 9 11.4 9 12V18C9 18.6 9.4 19 10 19H19C19.6 19 20 18.6 20 18V12C20 11.4 19.6 11 19 11H18.7C18.1 11 17.7 10.6 17.7 10C17.7 9.4 18.1 9 18.7 9H19C20.7 9 22 10.3 22 12V18C22 19.7 20.7 21 19 21Z" fill="#A9B1B8"/>
<path id="Vector_2" d="M14 15H12C11.4 15 11 14.6 11 14C11 13.4 11.4 13 12 13H14C14.6 13 15 12.6 15 12V6C15 5.4 14.6 5 14 5H5C4.4 5 4 5.4 4 6V12C4 12.6 4.4 13 5 13H5.3C5.9 13 6.3 13.4 6.3 14C6.3 14.6 5.9 15 5.3 15H5C3.3 15 2 13.7 2 12V6C2 4.3 3.3 3 5 3H14C15.7 3 17 4.3 17 6V12C17 13.7 15.7 15 14 15Z" fill="#A9B1B8"/>
</g>
</svg>
