<?xml version="1.0" encoding="UTF-8"?>
<svg xmlns="http://www.w3.org/2000/svg" xmlns:xlink="http://www.w3.org/1999/xlink" width="16" height="19" viewBox="0 0 16 19">
<path fill-rule="nonzero" fill="rgb(19.215686%, 54.509804%, 96.078431%)" fill-opacity="1" d="M 7.089844 0 C 9.902344 0.00390625 12.183594 2.28125 12.1875 5.097656 C 12.183594 7.859375 9.980469 10.117188 7.214844 10.191406 L 4.921875 10.191406 C 3.183594 10.195312 1.777344 11.601562 1.773438 13.339844 L 1.773438 15.285156 C 1.773438 15.898438 2.273438 16.394531 2.886719 16.394531 L 8.910156 16.394531 C 9.402344 16.453125 9.75 16.898438 9.691406 17.386719 C 9.640625 17.804688 9.308594 18.128906 8.890625 18.171875 L 2.886719 18.171875 C 1.292969 18.171875 0 16.878906 0 15.285156 L 0 13.34375 C 0.00390625 11.195312 1.394531 9.296875 3.441406 8.648438 C 2.515625 7.699219 1.992188 6.421875 1.992188 5.09375 C 1.996094 2.28125 4.277344 0.00390625 7.089844 0 Z M 12.292969 9.90625 C 12.703125 9.90625 13.03125 10.238281 13.03125 10.644531 L 13.03125 12.859375 L 15.242188 12.859375 C 15.648438 12.882812 15.960938 13.230469 15.941406 13.636719 C 15.921875 14.015625 15.617188 14.316406 15.242188 14.335938 L 13.035156 14.335938 L 13.035156 16.546875 C 13.035156 16.953125 12.703125 17.28125 12.296875 17.28125 L 12.296875 17.285156 C 11.890625 17.285156 11.558594 16.957031 11.558594 16.550781 L 11.554688 14.335938 L 9.34375 14.335938 C 8.9375 14.335938 8.609375 14 8.609375 13.59375 C 8.613281 13.226562 8.882812 12.917969 9.246094 12.867188 L 9.34375 12.859375 L 11.554688 12.859375 L 11.554688 10.644531 C 11.554688 10.238281 11.886719 9.90625 12.292969 9.90625 Z M 7.089844 1.769531 C 5.253906 1.773438 3.769531 3.261719 3.765625 5.097656 C 3.769531 6.929688 5.253906 8.417969 7.089844 8.421875 C 8.925781 8.417969 10.414062 6.929688 10.414062 5.097656 C 10.414062 3.261719 8.925781 1.773438 7.089844 1.769531 Z M 7.089844 1.769531 "/>
</svg>
