<?xml version="1.0" encoding="UTF-8"?>
<svg width="16px" height="19px" viewBox="0 0 16 19" version="1.1" xmlns="http://www.w3.org/2000/svg" xmlns:xlink="http://www.w3.org/1999/xlink">
    <!-- Generator: Sketch 64 (93537) - https://sketch.com -->
    <title>邀请@2x</title>
    <desc>Created with Sketch.</desc>
    <g id="方案" stroke="none" stroke-width="1" fill="none" fill-rule="evenodd">
        <g id="个人中心/Sub-account-列表" transform="translate(-288.000000, -228.000000)" fill="#318BF5" fill-rule="nonzero">
            <g id="编组-11" transform="translate(260.000000, 213.000000)">
                <g id="编组-2" transform="translate(28.000000, 15.000000)">
                    <g id="编组-10">
                        <g id="邀请" transform="translate(0.000000, 0.000000)">
                            <path d="M7.08889887,0 L7.0888987,0 C9.902578,0.00234946571 12.1830966,2.28238664 12.1860404,5.09606594 L12.1860404,5.09592338 C12.1818808,7.85976981 9.97875212,10.1182872 7.215868,10.1910647 L7.20521123,10.1921304 L4.92239061,10.1921304 L4.92239059,10.1921304 C3.18452374,10.1938927 1.77614627,11.602274 1.77437259,13.3401484 L1.77437259,15.2839508 C1.77437259,15.89778 2.27310879,16.3943859 2.88693985,16.395452 L8.91120654,16.395452 L8.91120657,16.395452 C9.400897,16.4542819 9.75017801,16.898945 9.69134655,17.3886355 C9.64137443,17.8045936 9.30896565,18.1298979 8.8920244,18.1708699 L2.88692855,18.1708699 L2.88692867,18.1708699 C1.29336013,18.1708699 0.0011888978,16.8796534 0,15.2860924 L0,13.34229 L0,13.342418 C0.00256883597,11.1946613 1.39532771,9.29574803 3.44307157,8.64801515 L3.44307155,8.64801514 C2.51389716,7.69837927 1.9936315,6.42257495 1.99375038,5.09397535 L1.99375015,5.09413075 C1.99775318,2.28205531 4.27664625,0.00353680248 7.08872169,0 L7.08889887,0 Z M12.2936688,9.90760611 C12.7018227,9.90760611 13.0321839,10.2379664 13.0321839,10.6461223 L13.0321839,12.8605996 L15.2423968,12.8605996 L15.2423968,12.8605996 C15.649679,12.882503 15.9620883,13.230427 15.9401852,13.6377073 C15.9199281,14.0143766 15.6190642,14.3152399 15.2423949,14.3354957 L15.2423949,14.3365614 L13.0332386,14.3365614 L13.0332386,16.5457177 C13.0332386,16.9528056 12.7028794,17.2821006 12.2968557,17.2821006 L12.29579,17.2821006 L12.29579,17.2852984 L12.2957901,17.2852984 C11.8889229,17.2858873 11.5584505,16.9568461 11.557275,16.5499808 L11.5562093,14.3365602 L9.34492079,14.3365602 L9.34492082,14.3365602 C8.93705742,14.3341104 8.60840582,14.0014856 8.61084141,13.5936241 C8.61305194,13.2278573 8.88266016,12.9188029 9.24474752,12.8669926 L9.3449212,12.8605986 L11.5562097,12.8605986 L11.5562097,10.6461212 C11.5562097,10.2379672 11.887635,9.90760611 12.2947248,9.90760611 L12.2936688,9.90760611 Z M7.09103106,1.77117052 L7.09103092,1.77117052 C5.25570601,1.77351906 3.76847525,3.26075801 3.76611649,5.09608481 L3.76611649,5.09596942 C3.76840135,6.93129433 5.25558888,8.41858169 7.09091756,8.42099691 L7.09091742,8.42099691 C8.92624233,8.41864852 10.4134731,6.93140943 10.4158319,5.09608263 L10.4158319,5.09619819 C10.4135471,3.26087328 8.92635947,1.77358592 7.09103078,1.77117052 L7.09103106,1.77117052 Z" id="形状"></path>
                        </g>
                    </g>
                </g>
            </g>
        </g>
    </g>
</svg>