<svg width="20" height="20" viewBox="0 0 20 20" fill="none" xmlns="http://www.w3.org/2000/svg">
<path fill-rule="evenodd" clip-rule="evenodd" d="M5 0C2.23858 0 0 2.23858 0 5V15C0 17.7614 2.23858 20 5 20H15C17.7614 20 20 17.7614 20 15V5C20 2.23858 17.7614 0 15 0H5ZM2 5C2 3.34315 3.34315 2 5 2H15C16.6569 2 18 3.34315 18 5V15C18 15.9752 17.5347 16.8418 16.8139 17.3897C16.0865 14.2999 13.3118 12 10 12C6.68817 12 3.91351 14.2999 3.18611 17.3897C2.46535 16.8418 2 15.9752 2 15V5ZM5.10002 18H14.9C14.4367 15.7178 12.419 14 10 14C7.58104 14 5.56329 15.7178 5.10002 18ZM10 6C9.17157 6 8.5 6.67157 8.5 7.5C8.5 8.32843 9.17157 9 10 9C10.8284 9 11.5 8.32843 11.5 7.5C11.5 6.67157 10.8284 6 10 6ZM6.5 7.5C6.5 5.567 8.067 4 10 4C11.933 4 13.5 5.567 13.5 7.5C13.5 9.433 11.933 11 10 11C8.067 11 6.5 9.433 6.5 7.5Z" fill="#A9B1B8"/>
</svg>
