<?xml version="1.0" encoding="UTF-8"?>
<svg xmlns="http://www.w3.org/2000/svg" xmlns:xlink="http://www.w3.org/1999/xlink" width="20" height="20" viewBox="0 0 20 20">
<path fill-rule="evenodd" fill="rgb(66.27451%, 69.411765%, 72.156863%)" fill-opacity="1" d="M 5 0 C 2.238281 0 0 2.238281 0 5 L 0 15 C 0 17.761719 2.238281 20 5 20 L 15 20 C 17.761719 20 20 17.761719 20 15 L 20 5 C 20 2.238281 17.761719 0 15 0 Z M 2 5 C 2 3.34375 3.34375 2 5 2 L 15 2 C 16.65625 2 18 3.34375 18 5 L 18 15 C 18 15.976562 17.535156 16.84375 16.8125 17.390625 C 16.085938 14.300781 13.3125 12 10 12 C 6.6875 12 3.914062 14.300781 3.1875 17.390625 C 2.464844 16.84375 2 15.976562 2 15 Z M 5.101562 18 L 14.898438 18 C 14.4375 15.71875 12.417969 14 10 14 C 7.582031 14 5.5625 15.71875 5.101562 18 Z M 10 6 C 9.171875 6 8.5 6.671875 8.5 7.5 C 8.5 8.328125 9.171875 9 10 9 C 10.828125 9 11.5 8.328125 11.5 7.5 C 11.5 6.671875 10.828125 6 10 6 Z M 6.5 7.5 C 6.5 5.566406 8.066406 4 10 4 C 11.933594 4 13.5 5.566406 13.5 7.5 C 13.5 9.433594 11.933594 11 10 11 C 8.066406 11 6.5 9.433594 6.5 7.5 Z M 6.5 7.5 "/>
</svg>
