<svg width="20" height="18" viewBox="0 0 20 18" fill="none" xmlns="http://www.w3.org/2000/svg">
<path fill-rule="evenodd" clip-rule="evenodd" d="M10 2C8.61929 2 7.5 3.11929 7.5 4.5C7.5 5.88071 8.61929 7 10 7C11.3807 7 12.5 5.88071 12.5 4.5C12.5 3.11929 11.3807 2 10 2ZM6.6985 7.55783C2.79791 8.92159 0 12.634 0 17C0 17.5523 0.447715 18 1 18C1.55228 18 2 17.5523 2 17C2 12.5817 5.58172 9 10 9C12.4853 9 14.5 6.98528 14.5 4.5C14.5 2.01472 12.4853 0 10 0C7.51472 0 5.5 2.01472 5.5 4.5C5.5 5.68066 5.95469 6.75512 6.6985 7.55783ZM14.4142 14.9499C14.8048 15.3404 15.4379 15.3404 15.8284 14.9499C16.219 14.5594 16.219 13.9262 15.8284 13.5357L15.2928 13H16.5C17.3284 13 18 13.6716 18 14.5C18 15.3284 17.3284 16 16.5 16H12C11.4477 16 11 16.4477 11 17C11 17.5523 11.4477 18 12 18H16.5C18.433 18 20 16.433 20 14.5C20 12.567 18.433 11 16.5 11H15.5357L15.8284 10.7072C16.219 10.3167 16.219 9.68355 15.8284 9.29302C15.4379 8.9025 14.8048 8.9025 14.4142 9.29302L12.2929 11.4143C11.9024 11.8049 11.9024 12.438 12.2929 12.8286L14.4142 14.9499Z" fill="#A9B1B8"/>
</svg>
