<?xml version="1.0" encoding="UTF-8"?>
<svg xmlns="http://www.w3.org/2000/svg" xmlns:xlink="http://www.w3.org/1999/xlink" width="18" height="20" viewBox="0 0 18 20">
<path fill-rule="evenodd" fill="rgb(66.27451%, 69.411765%, 72.156863%)" fill-opacity="1" d="M 10 2 C 8.621094 2 7.5 3.121094 7.5 4.5 C 7.5 5.878906 8.621094 7 10 7 C 11.378906 7 12.5 5.878906 12.5 4.5 C 12.5 3.121094 11.378906 2 10 2 Z M 6.699219 7.558594 C 2.796875 8.921875 0 12.632812 0 17 C 0 17.550781 0.449219 18 1 18 C 1.550781 18 2 17.550781 2 17 C 2 12.582031 5.582031 9 10 9 C 12.484375 9 14.5 6.984375 14.5 4.5 C 14.5 2.015625 12.484375 0 10 0 C 7.515625 0 5.5 2.015625 5.5 4.5 C 5.5 5.679688 5.953125 6.753906 6.699219 7.558594 Z M 14.414062 14.949219 C 14.804688 15.339844 15.4375 15.339844 15.828125 14.949219 C 16.21875 14.558594 16.21875 13.925781 15.828125 13.535156 L 15.292969 13 L 16.5 13 C 17.328125 13 18 13.671875 18 14.5 C 18 15.328125 17.328125 16 16.5 16 L 12 16 C 11.449219 16 11 16.449219 11 17 C 11 17.550781 11.449219 18 12 18 L 16.5 18 C 18.433594 18 20 16.433594 20 14.5 C 20 12.566406 18.433594 11 16.5 11 L 15.535156 11 L 15.828125 10.707031 C 16.21875 10.316406 16.21875 9.683594 15.828125 9.292969 C 15.4375 8.902344 14.804688 8.902344 14.414062 9.292969 L 12.292969 11.414062 C 11.902344 11.804688 11.902344 12.4375 12.292969 12.828125 Z M 14.414062 14.949219 "/>
</svg>
