<?xml version="1.0" encoding="UTF-8"?>
<svg width="48px" height="48px" viewBox="0 0 48 48" version="1.1" xmlns="http://www.w3.org/2000/svg" xmlns:xlink="http://www.w3.org/1999/xlink">
    <!-- Generator: Sketch 64 (93537) - https://sketch.com -->
    <title>icon/app store</title>
    <desc>Created with Sketch.</desc>
    <g id="icon/app-store" stroke="none" stroke-width="1" fill="none" fill-rule="evenodd">
        <g id="编组-3">
            <g id="pingguo" transform="translate(6.000000, 2.000000)" fill="#318BF5" fill-rule="nonzero">
                <path d="M29.2322225,23.3790821 C29.1784938,17.8062501 33.6715575,15.134625 33.871697,15.00125 C31.3464474,11.218625 27.4135055,10.701625 26.0125293,10.641125 C22.6652304,10.294625 19.4818041,12.65825 17.7826335,12.65825 C16.0888358,12.65825 13.4668745,10.692 10.6904432,10.74425 C7.04226349,10.79925 3.67750276,12.915375 1.79968419,16.2607501 C-1.99087661,22.9940821 0.828537678,32.9683321 4.52373001,38.4298322 C6.32901481,41.1028322 8.48219304,44.1044572 11.3083234,43.9972072 C14.0296828,43.8858322 15.0599309,42.1945822 18.3494714,42.1945822 C21.639012,42.1945822 22.5644891,43.9972072 25.4456914,43.9422072 C28.3739063,43.8858322 30.2302334,41.2183322 32.0234292,38.5370822 C34.0960144,35.4364571 34.9503009,32.4334571 35,32.2794571 C34.9355255,32.2492071 29.2886377,30.0354571 29.2322225,23.3790821 L29.2322225,23.3790821 Z M23.8203978,7.02625002 C25.3207721,5.16312502 26.3335584,2.57812501 26.0568555,0 C23.895618,0.0907500003 21.2763431,1.474 19.7262697,3.33162501 C18.334696,4.98025002 17.1177406,7.61200002 17.4441426,10.13925 C19.8565619,10.33175 22.3186802,8.88387503 23.8203978,7.02625002 Z" id="形状"></path>
            </g>
            <rect id="矩形" x="0" y="0" width="48" height="48"></rect>
        </g>
    </g>
</svg>