<?xml version="1.0" encoding="UTF-8"?>
<svg xmlns="http://www.w3.org/2000/svg" xmlns:xlink="http://www.w3.org/1999/xlink" width="48" height="48" viewBox="0 0 48 48">
<path fill-rule="nonzero" fill="rgb(19.215686%, 54.509804%, 96.078431%)" fill-opacity="1" d="M 35.230469 25.378906 C 35.179688 19.804688 39.671875 17.132812 39.871094 17 C 37.347656 13.21875 33.414062 12.703125 32.011719 12.640625 C 28.664062 12.292969 25.480469 14.660156 23.78125 14.660156 C 22.089844 14.660156 19.46875 12.691406 16.691406 12.746094 C 13.042969 12.800781 9.675781 14.914062 7.800781 18.261719 C 4.007812 24.992188 6.828125 34.96875 10.523438 40.429688 C 12.328125 43.101562 14.480469 46.105469 17.308594 45.996094 C 20.03125 45.886719 21.058594 44.195312 24.347656 44.195312 C 27.640625 44.195312 28.566406 45.996094 31.445312 45.941406 C 34.375 45.886719 36.230469 43.21875 38.023438 40.535156 C 40.097656 37.4375 40.949219 34.433594 41 34.28125 C 40.933594 34.25 35.289062 32.035156 35.230469 25.378906 Z M 29.820312 9.027344 C 31.320312 7.164062 32.332031 4.578125 32.058594 2 C 29.894531 2.089844 27.277344 3.472656 25.726562 5.332031 C 24.335938 6.980469 23.117188 9.613281 23.445312 12.140625 C 25.855469 12.332031 28.320312 10.882812 29.820312 9.027344 Z M 29.820312 9.027344 "/>
</svg>
