<?xml version="1.0" encoding="UTF-8"?>
<svg xmlns="http://www.w3.org/2000/svg" xmlns:xlink="http://www.w3.org/1999/xlink" width="64" height="64" viewBox="0 0 64 64">
<defs>
<filter id="filter-remove-color" x="0%" y="0%" width="100%" height="100%">
<feColorMatrix color-interpolation-filters="sRGB" values="0 0 0 0 1 0 0 0 0 1 0 0 0 0 1 0 0 0 1 0" />
</filter>
<mask id="mask-0">
<g filter="url(#filter-remove-color)">
<rect x="-6.4" y="-6.4" width="76.8" height="76.8" fill="rgb(0%, 0%, 0%)" fill-opacity="0.7"/>
</g>
</mask>
<clipPath id="clip-0">
<rect x="0" y="0" width="64" height="64"/>
</clipPath>
<g id="source-9" clip-path="url(#clip-0)">
<path fill-rule="nonzero" fill="rgb(80%, 80.392157%, 81.568627%)" fill-opacity="1" d="M 64 32 C 64 49.671875 49.671875 64 32 64 C 14.328125 64 0 49.671875 0 32 C 0 14.328125 14.328125 0 32 0 C 49.671875 0 64 14.328125 64 32 Z M 64 32 "/>
</g>
</defs>
<path fill-rule="nonzero" fill="rgb(19.215686%, 54.509804%, 96.078431%)" fill-opacity="1" d="M 64 32 C 64 49.671875 49.671875 64 32 64 C 14.328125 64 0 49.671875 0 32 C 0 14.328125 14.328125 0 32 0 C 49.671875 0 64 14.328125 64 32 Z M 64 32 "/>
<path fill-rule="evenodd" fill="rgb(100%, 100%, 100%)" fill-opacity="1" d="M 48.484375 41.820312 C 43.800781 46.503906 36.199219 46.503906 31.515625 41.820312 L 24.699219 35.003906 C 23.777344 34.082031 23.777344 32.585938 24.699219 31.664062 C 25.621094 30.742188 27.117188 30.742188 28.039062 31.664062 L 34.851562 38.480469 C 37.695312 41.324219 42.304688 41.324219 45.148438 38.480469 C 47.957031 35.667969 47.988281 31.128906 45.238281 28.28125 L 45.148438 28.1875 L 38.332031 21.371094 C 37.410156 20.449219 37.410156 18.953125 38.332031 18.03125 C 39.253906 17.109375 40.746094 17.109375 41.667969 18.03125 L 48.484375 24.847656 C 53.171875 29.535156 53.171875 37.132812 48.484375 41.820312 Z M 48.484375 41.820312 "/>
<path fill-rule="evenodd" fill="rgb(100%, 100%, 100%)" fill-opacity="1" d="M 15.515625 22.179688 C 10.828125 26.867188 10.828125 34.464844 15.515625 39.152344 L 22.332031 45.96875 C 23.253906 46.890625 24.746094 46.890625 25.667969 45.96875 C 26.589844 45.046875 26.589844 43.550781 25.667969 42.628906 L 18.851562 35.8125 C 16.011719 32.972656 16.011719 28.363281 18.851562 25.519531 C 21.664062 22.707031 26.203125 22.679688 29.050781 25.425781 L 29.148438 25.519531 L 35.964844 32.335938 C 36.886719 33.257812 38.378906 33.257812 39.300781 32.335938 C 40.222656 31.414062 40.222656 29.917969 39.300781 28.996094 L 32.484375 22.179688 C 27.800781 17.496094 20.199219 17.496094 15.515625 22.179688 Z M 15.515625 22.179688 "/>
<g mask="url(#mask-0)">
<use xlink:href="#source-9"/>
</g>
</svg>
