<svg width="64" height="64" viewBox="0 0 64 64" fill="none" xmlns="http://www.w3.org/2000/svg">
<circle cx="32" cy="32" r="32" fill="#318BF5"/>
<path fill-rule="evenodd" clip-rule="evenodd" d="M48.4853 41.8188C43.799 46.5051 36.2011 46.5051 31.5148 41.8188L24.6987 35.0027C23.7768 34.0808 23.7768 32.5862 24.6987 31.6643C25.6206 30.7424 27.1153 30.7424 28.0372 31.6643L34.8532 38.4803C37.6957 41.3228 42.3044 41.3228 45.1469 38.4803C47.9581 35.669 47.989 31.1303 45.2395 28.281L45.1469 28.1867L38.3308 21.3706C37.4089 20.4487 37.4089 18.9541 38.3308 18.0322C39.2527 17.1103 40.7474 17.1103 41.6693 18.0322L48.4853 24.8482C53.1716 29.5345 53.1716 37.1325 48.4853 41.8188Z" fill="white"/>
<path fill-rule="evenodd" clip-rule="evenodd" d="M15.5147 22.1816C10.8284 26.8679 10.8284 34.4658 15.5147 39.1521L22.3308 45.9682C23.2527 46.8901 24.7474 46.8901 25.6693 45.9682C26.5911 45.0463 26.5911 43.5516 25.6693 42.6297L18.8532 35.8137C16.0107 32.9712 16.0107 28.3625 18.8532 25.52C21.6645 22.7088 26.2032 22.6779 29.0525 25.4274L29.1468 25.52L35.9629 32.3361C36.8848 33.258 38.3794 33.258 39.3013 32.3361C40.2232 31.4142 40.2232 29.9195 39.3013 28.9976L32.4853 22.1816C27.799 17.4953 20.201 17.4953 15.5147 22.1816Z" fill="white"/>
<g opacity="0.7">
<circle cx="32" cy="32" r="32" fill="#CCCDD0"/>
</g>
</svg>
