<?xml version="1.0" encoding="UTF-8"?>
<svg xmlns="http://www.w3.org/2000/svg" xmlns:xlink="http://www.w3.org/1999/xlink" width="48" height="48" viewBox="0 0 48 48">
<path fill-rule="evenodd" fill="rgb(19.215686%, 54.509804%, 96.078431%)" fill-opacity="1" d="M 48 24 C 48 37.253906 37.253906 48 24 48 C 10.746094 48 0 37.253906 0 24 C 0 10.746094 10.746094 0 24 0 C 37.253906 0 48 10.746094 48 24 Z M 48 24 "/>
<path fill-rule="evenodd" fill="rgb(100%, 100%, 100%)" fill-opacity="1" d="M 36.363281 31.363281 C 32.847656 34.878906 27.152344 34.878906 23.636719 31.363281 L 18.523438 26.25 C 17.832031 25.558594 17.832031 24.441406 18.523438 23.75 C 19.214844 23.058594 20.335938 23.058594 21.027344 23.75 L 26.140625 28.859375 C 28.273438 30.992188 31.726562 30.992188 33.859375 28.859375 C 35.96875 26.75 35.992188 23.347656 33.929688 21.210938 L 33.859375 21.140625 L 28.75 16.027344 C 28.058594 15.335938 28.058594 14.214844 28.75 13.523438 C 29.441406 12.832031 30.558594 12.832031 31.25 13.523438 L 36.363281 18.636719 C 39.878906 22.152344 39.878906 27.847656 36.363281 31.363281 Z M 36.363281 31.363281 "/>
<path fill-rule="evenodd" fill="rgb(100%, 100%, 100%)" fill-opacity="1" d="M 11.636719 16.636719 C 8.121094 20.152344 8.121094 25.847656 11.636719 29.363281 L 16.75 34.476562 C 17.441406 35.167969 18.558594 35.167969 19.25 34.476562 C 19.941406 33.785156 19.941406 32.664062 19.25 31.972656 L 14.140625 26.859375 C 12.007812 24.726562 12.007812 21.273438 14.140625 19.140625 C 16.25 17.03125 19.652344 17.007812 21.789062 19.070312 L 21.859375 19.140625 L 26.972656 24.25 C 27.664062 24.941406 28.785156 24.941406 29.476562 24.25 C 30.167969 23.558594 30.167969 22.441406 29.476562 21.75 L 24.363281 16.636719 C 20.847656 13.121094 15.152344 13.121094 11.636719 16.636719 Z M 11.636719 16.636719 "/>
</svg>
