<?xml version="1.0" encoding="UTF-8"?>
<svg width="48px" height="48px" viewBox="0 0 48 48" version="1.1" xmlns="http://www.w3.org/2000/svg" xmlns:xlink="http://www.w3.org/1999/xlink">
    <title>icon/Authy</title>
    <g id="icon/Authy" stroke="none" stroke-width="1" fill="none" fill-rule="evenodd">
        <g id="Authy">
            <circle id="椭圆形" fill="#318BF5" cx="24" cy="24" r="24"></circle>
            <g id="编组-6" transform="translate(24.000000, 24.000000) scale(-1, -1) rotate(-45.000000) translate(-24.000000, -24.000000) translate(11.000000, 10.000000)" fill="#FFFFFF">
                <path d="M9.46446609,0.0502525317 C14.4350288,0.0502525317 18.4644661,4.07968978 18.4644661,9.05025253 L18.4644661,16.2797607 C18.4644661,17.2575764 17.6717899,18.0502525 16.6939743,18.0502525 C15.7161587,18.0502525 14.9234825,17.2575764 14.9234825,16.2797607 L14.9234825,9.05025253 L14.9234825,9.05025253 C14.9234825,6.03532103 12.4793976,3.59123614 9.46446609,3.59123614 C6.48266571,3.59123614 4.05923479,5.98190002 4.00633265,8.95106847 L4.0054497,9.05025253 L4.0054497,16.2797607 C4.0054497,17.2575764 3.21277352,18.0502525 2.2349579,18.0502525 C1.25714227,18.0502525 0.464466094,17.2575764 0.464466094,16.2797607 L0.464466094,9.05025253 L0.464466094,9.05025253 C0.464466094,4.07968978 4.49390335,0.0502525317 9.46446609,0.0502525317 Z" id="路径"></path>
                <path d="M16.5355339,9.94974747 C21.5060967,9.94974747 25.5355339,13.9791847 25.5355339,18.9497475 L25.5355339,26.1792557 C25.5355339,27.1570713 24.7428577,27.9497475 23.7650421,27.9497475 C22.7872265,27.9497475 21.9945503,27.1570713 21.9945503,26.1792557 L21.9945503,18.9497475 L21.9945503,18.9497475 C21.9945503,15.934816 19.5504654,13.4907311 16.5355339,13.4907311 C13.5537335,13.4907311 11.1303026,15.881395 11.0774005,18.8505634 L11.0765175,18.9497475 L11.0765175,26.1792557 C11.0765175,27.1570713 10.2838413,27.9497475 9.30602571,27.9497475 C8.32821009,27.9497475 7.53553391,27.1570713 7.53553391,26.1792557 L7.53553391,18.9497475 L7.53553391,18.9497475 C7.53553391,13.9791847 11.5649712,9.94974747 16.5355339,9.94974747 Z" id="路径" transform="translate(16.535534, 18.949747) scale(1, -1) translate(-16.535534, -18.949747) "></path>
            </g>
        </g>
    </g>
</svg>