<?xml version="1.0" encoding="UTF-8"?>
<svg xmlns="http://www.w3.org/2000/svg" xmlns:xlink="http://www.w3.org/1999/xlink" width="24" height="24" viewBox="0 0 24 24">
<path fill-rule="nonzero" fill="rgb(89.803922%, 87.45098%, 96.078431%)" fill-opacity="1" stroke-width="0.5" stroke-linecap="butt" stroke-linejoin="miter" stroke="rgb(89.803922%, 87.45098%, 96.078431%)" stroke-opacity="1" stroke-miterlimit="4" d="M 17.847656 9.148438 C 17.648438 8.945313 17.332031 8.949219 17.140625 9.164063 L 12.03125 14.710938 L 6.851562 9.1875 C 6.65625 8.980469 6.339844 8.980469 6.144531 9.191406 C 5.949219 9.402344 5.953125 9.742188 6.148437 9.949219 L 11.65625 15.820312 C 11.664062 15.828125 11.675781 15.828125 11.683594 15.839844 C 11.882812 16.054688 12.199219 16.050781 12.390625 15.84375 L 17.847656 9.921875 C 17.851562 9.917969 17.855469 9.914063 17.859375 9.90625 C 18.050781 9.695313 18.046875 9.355469 17.847656 9.148438 Z M 17.847656 9.148438 " transform="matrix(-0.000000000000000061, 1, 1, 0.000000000000000061, -0.5, 0.5)"/>
</svg>
