<?xml version="1.0" encoding="UTF-8"?>
<svg width="24px" height="24px" viewBox="0 0 24 24" version="1.1" xmlns="http://www.w3.org/2000/svg" xmlns:xlink="http://www.w3.org/1999/xlink">
    <title>➡️备份@2x</title>
    <g id="Personal-center" stroke="none" stroke-width="1" fill="none" fill-rule="evenodd">
        <g id="2FA提示" transform="translate(-1388.000000, -272.000000)">
            <g id="编组-18" transform="translate(216.000000, 204.000000)">
                <g id="➡️备份" transform="translate(1172.000000, 68.000000)">
                    <path d="M17.846961,9.1497539 C17.6484351,8.9444336 17.3327253,8.95106497 17.1418011,9.16457434 L12.0318649,14.7096613 L6.85050638,9.18804376 C6.65476737,8.97934102 6.33878157,8.98079488 6.1446705,9.19129269 C5.95060081,9.40176082 5.95195282,9.74156295 6.14770564,9.95028052 L11.6543899,15.8185986 C11.6628331,15.8278113 11.6738424,15.8299773 11.682258,15.8384779 C11.882329,16.0539604 12.1979975,16.0524768 12.3919017,15.8422016 L17.8495546,9.92015006 C17.8533623,9.91620388 17.8570873,9.91213901 17.8607295,9.90802964 C18.0516674,9.69454994 18.0455144,9.35505936 17.846961,9.1497539 Z" id="路径备份-17" stroke="#E5DFF5" stroke-width="0.5" fill="#E5DFF5" fill-rule="nonzero" transform="translate(12.000000, 12.500000) scale(-1, 1) rotate(90.000000) translate(-12.000000, -12.500000) "></path>
                    <rect id="矩形" x="0" y="0" width="24" height="24"></rect>
                </g>
            </g>
        </g>
    </g>
</svg>