<svg width="88" height="88" viewBox="0 0 88 88" fill="none" xmlns="http://www.w3.org/2000/svg">
<circle cx="44" cy="44" r="44" fill="white" fill-opacity="0.04"/>
<path d="M63.5233 44.4364C64.8382 44.4364 65.9088 43.3658 65.9088 42.0509V39.4851C65.9088 36.0989 62.8543 33.2247 58.9561 32.9426L58.8921 32.9309C58.8193 32.9135 58.7321 32.9135 58.6302 32.9135H30.0979C28.6986 32.9135 27.5612 31.776 27.5612 30.3767C27.5612 29.5156 27.9917 28.7215 28.7102 28.256L28.7364 28.2386C29.2222 27.9767 29.7953 27.84 30.3917 27.84H45.1873C46.5023 27.84 47.5728 26.7695 47.5728 25.4546C47.5728 24.1396 46.5023 23.0691 45.1873 23.0691H30.127C28.7277 23.0691 27.3633 23.4676 26.1764 24.2182C24.0732 25.504 22.8193 27.6073 22.8193 29.8473V59.0866C22.8193 62.7084 26.2288 65.6582 30.4208 65.6582H41.1757C42.4906 65.6582 43.5612 64.5876 43.5612 63.2727C43.5612 61.9404 42.4906 60.8582 41.1757 60.8582H30.4208C28.751 60.8582 27.5873 59.9098 27.5873 59.0575V37.2567L28.0848 37.408C28.6986 37.5942 29.3677 37.6873 30.1241 37.6873H58.3015C59.9713 37.6873 61.135 38.6356 61.135 39.488V42.0538C61.1379 43.3658 62.2084 44.4364 63.5233 44.4364Z" fill="white" fill-opacity="0.3"/>
<path d="M63.5811 52.4073H49.8443C49.3364 52.4071 48.8382 52.2689 48.4027 52.0076C47.9671 51.7463 47.6108 51.3717 47.3716 50.9236C47.1284 50.4715 47.0124 49.9619 47.036 49.4491C47.0595 48.9363 47.2218 48.4395 47.5054 48.0116L50.9527 42.9091C51.6712 41.8444 53.12 41.5651 54.1847 42.2836C55.2494 43.0022 55.5287 44.4509 54.8101 45.5156L53.3003 47.7527H63.5869C64.8727 47.7527 65.9142 48.7942 65.9142 50.08C65.9142 51.3658 64.8669 52.4073 63.5811 52.4073ZM60.0581 65.6582C59.6101 65.6582 59.1563 65.5302 58.7578 65.2596C57.6931 64.5411 57.4138 63.0924 58.1323 62.0276L59.6421 59.7905H49.3556C48.0698 59.7905 47.0283 58.7491 47.0283 57.4633C47.0283 56.1775 48.0698 55.136 49.3556 55.136H63.0923C63.6002 55.1362 64.0985 55.2743 64.534 55.5356C64.9695 55.7969 65.3259 56.1716 65.5651 56.6196C65.8087 57.0715 65.9252 57.5809 65.9022 58.0937C65.8791 58.6065 65.7174 59.1035 65.4342 59.5316L61.9869 64.6342C61.7739 64.9498 61.4866 65.2082 61.1502 65.3868C60.8139 65.5653 60.4389 65.6585 60.0581 65.6582Z" fill="#539EF7 "/>
</svg>
