<?xml version="1.0" encoding="UTF-8"?>
<svg xmlns="http://www.w3.org/2000/svg" xmlns:xlink="http://www.w3.org/1999/xlink" width="88" height="88" viewBox="0 0 88 88">
<path fill-rule="nonzero" fill="rgb(100%, 100%, 100%)" fill-opacity="0.04" d="M 88 44 C 88 68.300781 68.300781 88 44 88 C 19.699219 88 0 68.300781 0 44 C 0 19.699219 19.699219 0 44 0 C 68.300781 0 88 19.699219 88 44 Z M 88 44 "/>
<path fill-rule="nonzero" fill="rgb(100%, 100%, 100%)" fill-opacity="0.3" d="M 63.523438 44.4375 C 64.839844 44.4375 65.910156 43.367188 65.910156 42.050781 L 65.910156 39.484375 C 65.910156 36.097656 62.855469 33.226562 58.957031 32.941406 L 58.890625 32.929688 C 58.820312 32.914062 58.730469 32.914062 58.628906 32.914062 L 30.097656 32.914062 C 28.699219 32.914062 27.5625 31.777344 27.5625 30.375 C 27.5625 29.515625 27.992188 28.722656 28.710938 28.257812 L 28.738281 28.238281 C 29.222656 27.976562 29.796875 27.839844 30.390625 27.839844 L 45.1875 27.839844 C 46.503906 27.839844 47.574219 26.769531 47.574219 25.453125 C 47.574219 24.140625 46.503906 23.070312 45.1875 23.070312 L 30.128906 23.070312 C 28.726562 23.070312 27.363281 23.46875 26.175781 24.21875 C 24.074219 25.503906 22.820312 27.605469 22.820312 29.847656 L 22.820312 59.085938 C 22.820312 62.707031 26.230469 65.65625 30.421875 65.65625 L 41.175781 65.65625 C 42.492188 65.65625 43.5625 64.585938 43.5625 63.273438 C 43.5625 61.941406 42.492188 60.859375 41.175781 60.859375 L 30.421875 60.859375 C 28.75 60.859375 27.585938 59.910156 27.585938 59.058594 L 27.585938 37.257812 L 28.085938 37.40625 C 28.699219 37.59375 29.367188 37.6875 30.125 37.6875 L 58.300781 37.6875 C 59.972656 37.6875 61.136719 38.636719 61.136719 39.488281 L 61.136719 42.054688 C 61.136719 43.367188 62.207031 44.4375 63.523438 44.4375 Z M 63.523438 44.4375 "/>
<path fill-rule="nonzero" fill="rgb(32.54902%, 61.960784%, 96.862745%)" fill-opacity="1" d="M 63.582031 52.40625 L 49.84375 52.40625 C 49.335938 52.40625 48.839844 52.269531 48.402344 52.007812 C 47.96875 51.746094 47.609375 51.371094 47.371094 50.921875 C 47.128906 50.472656 47.011719 49.960938 47.035156 49.449219 C 47.058594 48.9375 47.222656 48.441406 47.503906 48.011719 L 50.953125 42.910156 C 51.671875 41.84375 53.121094 41.566406 54.183594 42.285156 C 55.25 43.003906 55.527344 44.449219 54.808594 45.515625 L 53.300781 47.753906 L 63.585938 47.753906 C 64.871094 47.753906 65.914062 48.792969 65.914062 50.078125 C 65.914062 51.367188 64.867188 52.40625 63.582031 52.40625 Z M 60.058594 65.65625 C 59.609375 65.65625 59.15625 65.53125 58.757812 65.257812 C 57.691406 64.542969 57.414062 63.09375 58.132812 62.027344 L 59.640625 59.789062 L 49.355469 59.789062 C 48.070312 59.789062 47.027344 58.75 47.027344 57.464844 C 47.027344 56.175781 48.070312 55.136719 49.355469 55.136719 L 63.09375 55.136719 C 63.601562 55.136719 64.097656 55.273438 64.535156 55.535156 C 64.96875 55.796875 65.324219 56.171875 65.566406 56.621094 C 65.808594 57.070312 65.925781 57.582031 65.902344 58.09375 C 65.878906 58.605469 65.71875 59.101562 65.433594 59.53125 L 61.988281 64.632812 C 61.773438 64.949219 61.488281 65.207031 61.148438 65.386719 C 60.8125 65.566406 60.4375 65.660156 60.058594 65.65625 Z M 60.058594 65.65625 "/>
</svg>
