<svg width="16" height="16" viewBox="0 0 16 16" fill="none" xmlns="http://www.w3.org/2000/svg">
<path fill-rule="evenodd" clip-rule="evenodd" d="M5.49999 0H14.0556C14.8431 1.08865e-05 15.4815 0.638408 15.4815 1.42592V9.98148C15.4815 10.769 14.8431 11.4074 14.0556 11.4074H5.49999C4.71247 11.4074 4.07405 10.769 4.07405 9.98148V1.42593C4.07405 0.638419 4.71246 1.14583e-05 5.49997 0H5.49999ZM5.49999 1.22222C5.38749 1.22222 5.29629 1.31342 5.29628 1.42592V9.98148C5.29628 10.094 5.38748 10.1852 5.49999 10.1852H14.0556C14.1681 10.1852 14.2592 10.094 14.2592 9.98148V1.42593C14.2592 1.31344 14.1681 1.22224 14.0556 1.22222H5.50001H5.49999ZM10.7963 12.0185C10.4588 12.0185 10.1852 12.2921 10.1852 12.6296V14.0556C10.1852 14.1681 10.0939 14.2593 9.98144 14.2593H1.42588C1.31339 14.2592 1.2222 14.168 1.2222 14.0556V5.50001C1.2222 5.38751 1.3134 5.29631 1.4259 5.2963H2.85183C3.18934 5.2963 3.46294 5.02269 3.46294 4.68518C3.46294 4.34768 3.18934 4.07407 2.85183 4.07407H1.4259C0.638388 4.07409 0 4.7125 0 5.50001V14.0556C1.14583e-05 14.8431 0.638408 15.4815 1.42591 15.4815H9.98148C10.769 15.4815 11.4074 14.8431 11.4074 14.0556V12.6296C11.4074 12.2921 11.1338 12.0185 10.7963 12.0185Z"/>
</svg>
