<?xml version="1.0" encoding="UTF-8"?>
<svg xmlns="http://www.w3.org/2000/svg" xmlns:xlink="http://www.w3.org/1999/xlink" width="24" height="24" viewBox="0 0 24 24">
<path fill-rule="evenodd" fill="rgb(95.686275%, 95.686275%, 96.078431%)" fill-opacity="1" d="M 5.5 3 C 4.121094 3 3 4.121094 3 5.5 L 3 6.5 C 3 7.878906 4.121094 9 5.5 9 L 8.5 9 C 9.878906 9 11 7.878906 11 6.5 L 11 5.5 C 11 4.121094 9.878906 3 8.5 3 Z M 5 5.5 C 5 5.222656 5.222656 5 5.5 5 L 8.5 5 C 8.777344 5 9 5.222656 9 5.5 L 9 6.5 C 9 6.777344 8.777344 7 8.5 7 L 5.5 7 C 5.222656 7 5 6.777344 5 6.5 Z M 5 5.5 "/>
<path fill-rule="evenodd" fill="rgb(95.686275%, 95.686275%, 96.078431%)" fill-opacity="1" d="M 15.5 15 C 14.121094 15 13 16.121094 13 17.5 L 13 18.5 C 13 19.878906 14.121094 21 15.5 21 L 18.5 21 C 19.878906 21 21 19.878906 21 18.5 L 21 17.5 C 21 16.121094 19.878906 15 18.5 15 Z M 15 17.5 C 15 17.222656 15.222656 17 15.5 17 L 18.5 17 C 18.777344 17 19 17.222656 19 17.5 L 19 18.5 C 19 18.777344 18.777344 19 18.5 19 L 15.5 19 C 15.222656 19 15 18.777344 15 18.5 Z M 15 17.5 "/>
<path fill-rule="evenodd" fill="rgb(95.686275%, 95.686275%, 96.078431%)" fill-opacity="1" d="M 3 13.5 C 3 12.121094 4.121094 11 5.5 11 L 8.5 11 C 9.878906 11 11 12.121094 11 13.5 L 11 18.5 C 11 19.878906 9.878906 21 8.5 21 L 5.5 21 C 4.121094 21 3 19.878906 3 18.5 Z M 5.5 13 C 5.222656 13 5 13.222656 5 13.5 L 5 18.5 C 5 18.777344 5.222656 19 5.5 19 L 8.5 19 C 8.777344 19 9 18.777344 9 18.5 L 9 13.5 C 9 13.222656 8.777344 13 8.5 13 Z M 5.5 13 "/>
<path fill-rule="evenodd" fill="rgb(95.686275%, 95.686275%, 96.078431%)" fill-opacity="1" d="M 15.5 3 C 14.121094 3 13 4.121094 13 5.5 L 13 10.5 C 13 11.878906 14.121094 13 15.5 13 L 18.5 13 C 19.878906 13 21 11.878906 21 10.5 L 21 5.5 C 21 4.121094 19.878906 3 18.5 3 Z M 15 5.5 C 15 5.222656 15.222656 5 15.5 5 L 18.5 5 C 18.777344 5 19 5.222656 19 5.5 L 19 10.5 C 19 10.777344 18.777344 11 18.5 11 L 15.5 11 C 15.222656 11 15 10.777344 15 10.5 Z M 15 5.5 "/>
</svg>
