<?xml version="1.0" encoding="UTF-8"?>
<svg xmlns="http://www.w3.org/2000/svg" xmlns:xlink="http://www.w3.org/1999/xlink" width="24" height="24" viewBox="0 0 24 24">
<path fill-rule="evenodd" fill="rgb(19.215686%, 54.509804%, 96.078431%)" fill-opacity="1" d="M 3 20 C 3 20.550781 3.449219 21 4 21 L 10 21 C 10.550781 21 11 20.550781 11 20 L 11 12 C 11 11.449219 10.550781 11 10 11 L 4 11 C 3.449219 11 3 11.449219 3 12 Z M 5 13 L 5 19 L 9 19 L 9 13 Z M 5 13 "/>
<path fill-rule="evenodd" fill="rgb(19.215686%, 54.509804%, 96.078431%)" fill-opacity="1" d="M 13 4 C 13 3.449219 13.449219 3 14 3 L 20 3 C 20.550781 3 21 3.449219 21 4 L 21 12 C 21 12.550781 20.550781 13 20 13 L 14 13 C 13.449219 13 13 12.550781 13 12 Z M 15 11 L 15 5 L 19 5 L 19 11 Z M 15 11 "/>
<path fill-rule="evenodd" fill="rgb(19.215686%, 54.509804%, 96.078431%)" fill-opacity="1" d="M 4 9 C 3.449219 9 3 8.550781 3 8 L 3 4 C 3 3.449219 3.449219 3 4 3 L 10 3 C 10.550781 3 11 3.449219 11 4 L 11 8 C 11 8.550781 10.550781 9 10 9 Z M 5 7 L 5 5 L 9 5 L 9 7 Z M 5 7 "/>
<path fill-rule="evenodd" fill="rgb(19.215686%, 54.509804%, 96.078431%)" fill-opacity="1" d="M 13 16 C 13 15.449219 13.449219 15 14 15 L 20 15 C 20.550781 15 21 15.449219 21 16 L 21 20 C 21 20.550781 20.550781 21 20 21 L 14 21 C 13.449219 21 13 20.550781 13 20 Z M 15 19 L 15 17 L 19 17 L 19 19 Z M 15 19 "/>
</svg>
