<?xml version="1.0" encoding="UTF-8"?>
<svg xmlns="http://www.w3.org/2000/svg" xmlns:xlink="http://www.w3.org/1999/xlink" width="19" height="18" viewBox="0 0 19 18">
<path fill-rule="nonzero" fill="rgb(18.823529%, 18.823529%, 36.470588%)" fill-opacity="1" d="M 9 18.375 C 4.105469 18.375 0.125 14.394531 0.125 9.5 C 0.125 4.605469 4.105469 0.625 9 0.625 C 13.894531 0.625 17.875 4.605469 17.875 9.5 C 17.875 14.394531 13.894531 18.375 9 18.375 Z M 9 1.667969 C 4.683594 1.667969 1.167969 5.183594 1.167969 9.5 C 1.167969 13.816406 4.683594 17.332031 9 17.332031 C 13.316406 17.332031 16.832031 13.816406 16.832031 9.5 C 16.832031 5.183594 13.316406 1.667969 9 1.667969 Z M 9 1.667969 "/>
<path fill="none" stroke-width="1" stroke-linecap="butt" stroke-linejoin="miter" stroke="rgb(18.823529%, 18.823529%, 36.470588%)" stroke-opacity="1" stroke-miterlimit="4" d="M 2.65625 2.863266 L 14.679688 14.886704 " transform="matrix(1, 0, 0, 1, 0.125, 0.625015)"/>
</svg>
