<?xml version="1.0" encoding="UTF-8"?>
<svg width="18px" height="19px" viewBox="0 0 18 19" version="1.1" xmlns="http://www.w3.org/2000/svg" xmlns:xlink="http://www.w3.org/1999/xlink">
    <!-- Generator: Sketch 64 (93537) - https://sketch.com -->
    <title>编组 53@2x</title>
    <desc>Created with Sketch.</desc>
    <g id="Personal-center" stroke="none" stroke-width="1" fill="none" fill-rule="evenodd">
        <g id="Dashboard/Fee" transform="translate(-775.000000, -662.000000)">
            <g id="编组-56" transform="translate(216.000000, 537.000000)">
                <g id="编组-53" transform="translate(559.124998, 125.625016)">
                    <path d="M8.87501228,17.7500246 C3.98101049,17.7500246 0,13.7680121 0,8.87501228 C0,3.98101049 3.98101049,0 8.87501228,0 C13.7680121,0 17.7500246,3.98101049 17.7500246,8.87501228 C17.7500246,13.7680121 13.7680121,17.7500246 8.87501228,17.7500246 Z M8.87501228,1.04400121 C4.55701116,1.04400121 1.04400121,4.55701116 1.04400121,8.87501228 C1.04400121,13.1930134 4.55701116,16.7060233 8.87501228,16.7060233 C13.1930134,16.7060233 16.7060233,13.1930134 16.7060233,8.87501228 C16.7060233,4.55701116 13.1930134,1.04400121 8.87501228,1.04400121 Z" id="形状" fill="#30305D" fill-rule="nonzero"></path>
                    <line x1="2.65748739" y1="2.86457659" x2="14.6783027" y2="14.8853919" id="直线-6" stroke="#30305D" transform="translate(8.375002, 8.874984) rotate(-0.000000) translate(-8.375002, -8.874984) "></line>
                </g>
            </g>
        </g>
    </g>
</svg>