<?xml version="1.0" encoding="UTF-8"?>
<svg xmlns="http://www.w3.org/2000/svg" xmlns:xlink="http://www.w3.org/1999/xlink" width="16" height="16" viewBox="0 0 16 16">
<path fill-rule="nonzero" fill="rgb(2.352941%, 69.411765%, 58.823529%)" fill-opacity="1" d="M 1.871094 8.941406 C 1.351562 8.421875 1.351562 7.578125 1.871094 7.058594 L 3 5.929688 L 3 4.332031 C 3 3.597656 3.597656 3 4.332031 3 L 5.929688 3 L 7.058594 1.871094 C 7.578125 1.351562 8.421875 1.351562 8.941406 1.871094 L 10.070312 3 L 11.667969 3 C 12.402344 3 13 3.597656 13 4.332031 L 13 5.929688 L 14.128906 7.058594 C 14.648438 7.578125 14.648438 8.421875 14.128906 8.941406 L 13 10.070312 L 13 11.667969 C 13 12.402344 12.402344 13 11.667969 13 L 10.070312 13 L 8.941406 14.128906 C 8.421875 14.648438 7.578125 14.648438 7.058594 14.128906 L 5.929688 13 L 4.332031 13 C 3.597656 13 3 12.402344 3 11.667969 L 3 10.070312 Z M 1.871094 8.941406 "/>
<path fill-rule="evenodd" fill="rgb(100%, 100%, 100%)" fill-opacity="1" d="M 10.789062 5.847656 C 11.058594 6.097656 11.070312 6.519531 10.820312 6.789062 L 7.710938 10.121094 C 7.582031 10.257812 7.40625 10.332031 7.222656 10.332031 C 7.039062 10.332031 6.859375 10.257812 6.734375 10.121094 L 5.179688 8.453125 C 4.929688 8.1875 4.941406 7.765625 5.210938 7.511719 C 5.480469 7.261719 5.902344 7.277344 6.152344 7.546875 L 7.222656 8.691406 L 9.847656 5.878906 C 10.097656 5.609375 10.519531 5.59375 10.789062 5.847656 Z M 10.789062 5.847656 "/>
</svg>
