<svg width="24" height="24" viewBox="0 0 24 24" fill="none" xmlns="http://www.w3.org/2000/svg">
<path fill-rule="evenodd" clip-rule="evenodd" d="M3 20C3 20.5523 3.44772 21 4 21H10C10.5523 21 11 20.5523 11 20V12C11 11.4477 10.5523 11 10 11H4C3.44772 11 3 11.4477 3 12V20ZM5 13V19H9V13H5Z" fill="#318BF5"/>
<path fill-rule="evenodd" clip-rule="evenodd" d="M13 4C13 3.44772 13.4477 3 14 3H20C20.5523 3 21 3.44772 21 4V12C21 12.5523 20.5523 13 20 13H14C13.4477 13 13 12.5523 13 12V4ZM15 11V5H19V11H15Z" fill="#318BF5"/>
<path fill-rule="evenodd" clip-rule="evenodd" d="M4 9C3.44772 9 3 8.55228 3 8V4C3 3.44772 3.44772 3 4 3H10C10.5523 3 11 3.44772 11 4V8C11 8.55228 10.5523 9 10 9H4ZM5 7V5H9V7H5Z" fill="#318BF5"/>
<path fill-rule="evenodd" clip-rule="evenodd" d="M13 16C13 15.4477 13.4477 15 14 15H20C20.5523 15 21 15.4477 21 16V20C21 20.5523 20.5523 21 20 21H14C13.4477 21 13 20.5523 13 20V16ZM15 19V17H19V19H15Z" fill="#318BF5"/>
</svg>
