<?xml version="1.0" encoding="UTF-8"?>
<svg width="18px" height="19px" viewBox="0 0 18 19" version="1.1" xmlns="http://www.w3.org/2000/svg" xmlns:xlink="http://www.w3.org/1999/xlink">
    <!-- Generator: Sketch 64 (93537) - https://sketch.com -->
    <title>选中@2x</title>
    <desc>Created with Sketch.</desc>
    <g id="Personal-center" stroke="none" stroke-width="1" fill="none" fill-rule="evenodd">
        <g id="Dashboard/Fee" transform="translate(-775.000000, -613.000000)" fill="#318BF5" fill-rule="nonzero">
            <g id="编组-56" transform="translate(216.000000, 537.000000)">
                <g id="选中" transform="translate(559.000000, 76.500000)">
                    <path d="M9.00001047,17.8750403 C4.10600868,17.8750403 0.124998192,13.8930279 0.124998192,9.00002805 C0.124998192,4.10602626 4.10600868,0.12501577 9.00001047,0.12501577 C13.8930103,0.12501577 17.8750228,4.10602626 17.8750228,9.00002805 C17.8750228,13.8930279 13.8930103,17.8750403 9.00001047,17.8750403 Z M9.00001047,1.16901699 C4.68200935,1.16901699 1.16899941,4.68202693 1.16899941,9.00002805 C1.16899941,13.3180292 4.68200935,16.8310391 9.00001047,16.8310391 C13.3180116,16.8310391 16.8310215,13.3180292 16.8310215,9.00002805 C16.8310215,4.68202693 13.3180116,1.16901699 9.00001047,1.16901699 Z M9.00001047,9.00002805 L4.82400561,9.00002805 L4.82400561,9.00002749 C4.82400561,11.3063681 6.6936699,13.1760324 9.00001047,13.1760324 C11.306351,13.1760324 13.1760153,11.3063681 13.1760153,9.00002749 C13.1760153,9.00002746 13.1760153,9.00002739 13.1760153,9.00002735 L13.1760153,9.00002735 C13.1760153,6.69368678 11.306351,4.82402249 9.00001047,4.82402249 C6.6936699,4.82402249 4.82400561,6.69368678 4.82400561,9.00002735 L9.00001047,9.00002805 Z" id="形状"></path>
                </g>
            </g>
        </g>
    </g>
</svg>