<svg width="16" height="16" viewBox="0 0 16 16" fill="none" xmlns="http://www.w3.org/2000/svg">
<path d="M1.87173 8.94279C1.35103 8.42209 1.35103 7.57787 1.87173 7.05717L3 5.9289V4.33333C3 3.59695 3.59695 3 4.33333 3H5.9289L7.05718 1.87173C7.57787 1.35103 8.42209 1.35103 8.94279 1.87173L10.0711 3H11.6667C12.403 3 13 3.59695 13 4.33333V5.92893L14.1282 7.05717C14.6489 7.57787 14.6489 8.42209 14.1282 8.94279L13 10.071V11.6667C13 12.403 12.403 13 11.6667 13H10.071L8.94279 14.1282C8.42209 14.6489 7.57787 14.6489 7.05717 14.1282L5.92893 13H4.33333C3.59695 13 3 12.403 3 11.6667V10.0711L1.87173 8.94279Z" fill="#06B196"/>
<path fill-rule="evenodd" clip-rule="evenodd" d="M10.7882 5.84596C11.0574 6.09718 11.0719 6.51904 10.8207 6.7882L7.70959 10.1215C7.58351 10.2566 7.40701 10.3333 7.22222 10.3333C7.03744 10.3333 6.86094 10.2566 6.73485 10.1215L5.1793 8.45487C4.92808 8.1857 4.94262 7.76384 5.21179 7.51262C5.48096 7.2614 5.90282 7.27595 6.15404 7.54511L7.22222 8.6896L9.84597 5.87845C10.0972 5.60928 10.519 5.59473 10.7882 5.84596Z" fill="white"/>
</svg>
