<?xml version="1.0" encoding="UTF-8"?>
<svg width="11px" height="10px" viewBox="0 0 11 10" version="1.1" xmlns="http://www.w3.org/2000/svg" xmlns:xlink="http://www.w3.org/1999/xlink">
    <!-- Generator: Sketch 64 (93537) - https://sketch.com -->
    <title>编组 57@2x</title>
    <desc>Created with Sketch.</desc>
    <g id="Personal-center" stroke="none" stroke-width="1" fill="none" fill-rule="evenodd">
        <g id="Dashboard/Fee" transform="translate(-290.000000, -129.000000)">
            <g id="编组-23" transform="translate(285.000000, 124.000000)">
                <g id="编组-18">
                    <g id="编组-57" transform="translate(4.000000, 4.000000)">
                        <rect id="矩形" x="0" y="0" width="13" height="13"></rect>
                        <g id="会员" transform="translate(1.000000, 1.000000)" fill="#FFBE00" fill-rule="nonzero">
                            <path d="M10.8960886,3.51730676 L8.15128921,0.166171973 C8.06327961,0.0609297233 7.93676581,2.04964251e-13 7.80475141,2.04964251e-13 L3.18974799,2.04964251e-13 C3.06323419,2.04964251e-13 2.92571919,0.0609297233 2.84321019,0.166171973 L0.103911378,3.51730676 C-0.0391042222,3.68901779 -0.0336036222,3.94935388 0.114912578,4.11552586 C2.27314068,6.54188814 3.89181175,8.36165986 4.9709258,9.574841 C5.01515651,9.62456685 5.08150258,9.69915562 5.169964,9.79860732 C5.3459832,9.99801369 5.6595174,9.99801369 5.8465378,9.79860732 C5.9107209,9.72628447 5.95885822,9.67204234 5.99094977,9.63588091 C7.07853592,8.41036625 8.70991513,6.57209425 10.8850874,4.12106492 C11.0336036,3.94935388 11.0391042,3.69455686 10.8960886,3.51730676 Z M8.22279701,3.61700994 C8.22279701,3.67793966 8.18429281,3.72225219 8.12928681,3.72225219 L8.03577661,3.72225219 C7.89826161,3.72225219 7.91476341,3.74440845 7.84325561,3.82749444 C7.37020401,4.45894793 5.5,6.97922285 5.5,6.97922285 C5.5,6.97922285 3.62979599,4.47002607 3.15674439,3.8330335 C3.09073719,3.74994752 3.10173839,3.72779125 2.96422339,3.72779125 L2.87071319,3.72779125 C2.81570719,3.72779125 2.77720299,3.68347873 2.77720299,3.622549 L2.77720299,3.10741589 C2.77720299,3.04648617 2.82120779,3.00217364 2.87071319,3.00217364 L3.81131579,3.00217364 C3.86632179,3.00217364 3.93232899,3.00771271 4.00383679,3.10741589 L5.5055006,5.21226088 L7.00166381,3.10741589 C7.06217041,3.00771271 7.13917881,3.00217364 7.19418481,3.00217364 L8.13478741,3.00217364 C8.18979341,3.00217364 8.22829761,3.04648617 8.22829761,3.10741589 L8.22279701,3.61700994 L8.22279701,3.61700994 Z" id="形状"></path>
                        </g>
                    </g>
                </g>
            </g>
        </g>
    </g>
</svg>