<?xml version="1.0" encoding="UTF-8"?>
<svg xmlns="http://www.w3.org/2000/svg" xmlns:xlink="http://www.w3.org/1999/xlink" width="18" height="19" viewBox="0 0 18 19">
<path fill-rule="nonzero" fill="rgb(19.215686%, 54.509804%, 96.078431%)" fill-opacity="1" d="M 9 18.375 C 4.105469 18.375 0.125 14.394531 0.125 9.5 C 0.125 4.605469 4.105469 0.625 9 0.625 C 13.894531 0.625 17.875 4.605469 17.875 9.5 C 17.875 14.394531 13.894531 18.375 9 18.375 Z M 9 1.667969 C 4.683594 1.667969 1.167969 5.183594 1.167969 9.5 C 1.167969 13.816406 4.683594 17.332031 9 17.332031 C 13.316406 17.332031 16.832031 13.816406 16.832031 9.5 C 16.832031 5.183594 13.316406 1.667969 9 1.667969 Z M 9 9.5 L 4.824219 9.5 C 4.824219 11.804688 6.695312 13.675781 9 13.675781 C 11.304688 13.675781 13.175781 11.804688 13.175781 9.5 C 13.175781 7.195312 11.304688 5.324219 9 5.324219 C 6.695312 5.324219 4.824219 7.195312 4.824219 9.5 Z M 9 9.5 "/>
</svg>
