<?xml version="1.0" encoding="UTF-8"?>
<svg xmlns="http://www.w3.org/2000/svg" xmlns:xlink="http://www.w3.org/1999/xlink" width="11" height="10" viewBox="0 0 11 10">
<path fill-rule="nonzero" fill="rgb(100%, 74.509804%, 0%)" fill-opacity="1" d="M 10.894531 3.515625 L 8.152344 0.167969 C 8.0625 0.0625 7.9375 0 7.804688 0 L 3.191406 0 C 3.0625 0 2.925781 0.0625 2.84375 0.167969 L 0.105469 3.515625 C -0.0390625 3.6875 -0.0351562 3.949219 0.113281 4.117188 C 2.273438 6.542969 3.890625 8.363281 4.972656 9.574219 C 5.015625 9.625 5.082031 9.699219 5.171875 9.796875 C 5.347656 9.996094 5.660156 9.996094 5.847656 9.796875 C 5.910156 9.726562 5.957031 9.671875 5.992188 9.636719 C 7.078125 8.410156 8.710938 6.570312 10.886719 4.121094 C 11.035156 3.949219 11.039062 3.695312 10.894531 3.515625 Z M 8.222656 3.617188 C 8.222656 3.679688 8.183594 3.722656 8.128906 3.722656 L 8.035156 3.722656 C 7.898438 3.722656 7.914062 3.746094 7.84375 3.828125 C 7.371094 4.457031 5.5 6.980469 5.5 6.980469 C 5.5 6.980469 3.628906 4.46875 3.15625 3.832031 C 3.089844 3.75 3.101562 3.726562 2.964844 3.726562 L 2.871094 3.726562 C 2.816406 3.726562 2.777344 3.683594 2.777344 3.621094 L 2.777344 3.105469 C 2.777344 3.046875 2.820312 3.003906 2.871094 3.003906 L 3.8125 3.003906 C 3.867188 3.003906 3.933594 3.007812 4.003906 3.105469 L 5.503906 5.210938 L 7 3.105469 C 7.0625 3.007812 7.140625 3.003906 7.195312 3.003906 L 8.136719 3.003906 C 8.191406 3.003906 8.226562 3.046875 8.226562 3.105469 Z M 8.222656 3.617188 "/>
</svg>
