<svg width="24" height="24" viewBox="0 0 24 24" fill="none" xmlns="http://www.w3.org/2000/svg">
<path fill-rule="evenodd" clip-rule="evenodd" d="M5.5 3C4.11929 3 3 4.11929 3 5.5V6.5C3 7.88071 4.11929 9 5.5 9H8.5C9.88071 9 11 7.88071 11 6.5V5.5C11 4.11929 9.88071 3 8.5 3H5.5ZM5 5.5C5 5.22386 5.22386 5 5.5 5H8.5C8.77614 5 9 5.22386 9 5.5V6.5C9 6.77614 8.77614 7 8.5 7H5.5C5.22386 7 5 6.77614 5 6.5V5.5Z" fill="#F4F4F5"/>
<path fill-rule="evenodd" clip-rule="evenodd" d="M15.5 15C14.1193 15 13 16.1193 13 17.5V18.5C13 19.8807 14.1193 21 15.5 21H18.5C19.8807 21 21 19.8807 21 18.5V17.5C21 16.1193 19.8807 15 18.5 15H15.5ZM15 17.5C15 17.2239 15.2239 17 15.5 17H18.5C18.7761 17 19 17.2239 19 17.5V18.5C19 18.7761 18.7761 19 18.5 19H15.5C15.2239 19 15 18.7761 15 18.5V17.5Z" fill="#F4F4F5"/>
<path fill-rule="evenodd" clip-rule="evenodd" d="M3 13.5C3 12.1193 4.11929 11 5.5 11H8.5C9.88071 11 11 12.1193 11 13.5V18.5C11 19.8807 9.88071 21 8.5 21H5.5C4.11929 21 3 19.8807 3 18.5V13.5ZM5.5 13C5.22386 13 5 13.2239 5 13.5V18.5C5 18.7761 5.22386 19 5.5 19H8.5C8.77614 19 9 18.7761 9 18.5V13.5C9 13.2239 8.77614 13 8.5 13H5.5Z" fill="#F4F4F5"/>
<path fill-rule="evenodd" clip-rule="evenodd" d="M15.5 3C14.1193 3 13 4.11929 13 5.5V10.5C13 11.8807 14.1193 13 15.5 13H18.5C19.8807 13 21 11.8807 21 10.5V5.5C21 4.11929 19.8807 3 18.5 3H15.5ZM15 5.5C15 5.22386 15.2239 5 15.5 5H18.5C18.7761 5 19 5.22386 19 5.5V10.5C19 10.7761 18.7761 11 18.5 11H15.5C15.2239 11 15 10.7761 15 10.5V5.5Z" fill="#F4F4F5"/>
</svg>
