<?xml version="1.0" encoding="UTF-8"?>
<svg xmlns="http://www.w3.org/2000/svg" xmlns:xlink="http://www.w3.org/1999/xlink" width="20" height="19" viewBox="0 0 20 19">
<path fill-rule="nonzero" fill="rgb(20%, 20%, 20%)" fill-opacity="0.6" d="M 9.085938 11.183594 L 10.484375 11.183594 C 10.875 11.183594 11.183594 10.875 11.183594 10.484375 C 11.183594 10.09375 10.875 9.785156 10.484375 9.785156 L 9.085938 9.785156 C 8.695312 9.785156 8.386719 10.09375 8.386719 10.484375 C 8.386719 10.875 8.695312 11.183594 9.085938 11.183594 Z M 9.085938 13.976562 L 10.484375 13.976562 C 10.875 13.976562 11.183594 13.671875 11.183594 13.277344 C 11.183594 12.886719 10.875 12.582031 10.484375 12.582031 L 9.085938 12.582031 C 8.695312 12.582031 8.386719 12.886719 8.386719 13.277344 C 8.386719 13.671875 8.695312 13.976562 9.085938 13.976562 Z M 16.773438 1.398438 L 13.976562 1.398438 L 13.976562 0.699219 C 13.976562 0.308594 13.671875 0 13.277344 0 C 12.886719 0 12.582031 0.308594 12.582031 0.699219 L 12.582031 1.398438 L 6.988281 1.398438 L 6.988281 0.699219 C 6.988281 0.308594 6.679688 0 6.289062 0 C 5.898438 0 5.589844 0.308594 5.589844 0.699219 L 5.589844 1.398438 L 2.796875 1.398438 C 1.257812 1.398438 0 2.65625 0 4.195312 L 0 15.375 C 0 16.914062 1.257812 18.171875 2.796875 18.171875 L 16.773438 18.171875 C 18.3125 18.171875 19.570312 16.914062 19.570312 15.375 L 19.570312 4.195312 C 19.570312 2.65625 18.3125 1.398438 16.773438 1.398438 Z M 18.171875 15.375 C 18.171875 16.144531 17.542969 16.773438 16.773438 16.773438 L 2.796875 16.773438 C 2.027344 16.773438 1.398438 16.144531 1.398438 15.375 L 1.398438 6.988281 L 18.171875 6.988281 Z M 18.171875 5.589844 L 1.398438 5.589844 L 1.398438 4.195312 C 1.398438 3.425781 2.027344 2.796875 2.796875 2.796875 L 5.589844 2.796875 L 5.589844 3.496094 C 5.589844 3.886719 5.898438 4.195312 6.289062 4.195312 C 6.679688 4.195312 6.988281 3.886719 6.988281 3.496094 L 6.988281 2.796875 L 12.582031 2.796875 L 12.582031 3.496094 C 12.582031 3.886719 12.886719 4.195312 13.277344 4.195312 C 13.671875 4.195312 13.976562 3.886719 13.976562 3.496094 L 13.976562 2.796875 L 16.773438 2.796875 C 17.542969 2.796875 18.171875 3.425781 18.171875 4.195312 Z M 4.890625 13.976562 L 6.289062 13.976562 C 6.679688 13.976562 6.988281 13.671875 6.988281 13.277344 C 6.988281 12.886719 6.679688 12.582031 6.289062 12.582031 L 4.890625 12.582031 C 4.5 12.582031 4.195312 12.886719 4.195312 13.277344 C 4.195312 13.671875 4.5 13.976562 4.890625 13.976562 Z M 13.277344 11.183594 L 14.675781 11.183594 C 15.066406 11.183594 15.375 10.875 15.375 10.484375 C 15.375 10.09375 15.066406 9.785156 14.675781 9.785156 L 13.277344 9.785156 C 12.886719 9.785156 12.582031 10.09375 12.582031 10.484375 C 12.582031 10.875 12.886719 11.183594 13.277344 11.183594 Z M 4.890625 11.183594 L 6.289062 11.183594 C 6.679688 11.183594 6.988281 10.875 6.988281 10.484375 C 6.988281 10.09375 6.679688 9.785156 6.289062 9.785156 L 4.890625 9.785156 C 4.5 9.785156 4.195312 10.09375 4.195312 10.484375 C 4.195312 10.875 4.5 11.183594 4.890625 11.183594 Z M 13.277344 13.976562 L 14.675781 13.976562 C 15.066406 13.976562 15.375 13.671875 15.375 13.277344 C 15.375 12.886719 15.066406 12.582031 14.675781 12.582031 L 13.277344 12.582031 C 12.886719 12.582031 12.582031 12.886719 12.582031 13.277344 C 12.582031 13.671875 12.886719 13.976562 13.277344 13.976562 Z M 13.277344 13.976562 "/>
</svg>
