<?xml version="1.0" encoding="UTF-8"?>
<svg width="20px" height="19px" viewBox="0 0 20 19" version="1.1" xmlns="http://www.w3.org/2000/svg" xmlns:xlink="http://www.w3.org/1999/xlink">
    <title>日历 日期@2x</title>
    <g id="Personal-center" stroke="none" stroke-width="1" fill="none" fill-rule="evenodd" fill-opacity="0.6">
        <g id="History" transform="translate(-1001.000000, -236.000000)" fill="#E5DFF5" fill-rule="nonzero">
            <g id="编组-3" transform="translate(224.000000, 195.000000)">
                <g id="日历-日期" transform="translate(777.000000, 41.000000)">
                    <path d="M9.08570169,11.1824048 L10.4835014,11.1824048 C10.8748857,11.1824048 11.1824013,10.8748893 11.1824013,10.483505 C11.1824013,10.0921206 10.8748857,9.78460509 10.4835014,9.78460509 L9.08570169,9.78460509 C8.69431734,9.78460509 8.38680183,10.0921206 8.38680183,10.483505 C8.38680183,10.8748893 8.69431734,11.1824048 9.08570169,11.1824048 L9.08570169,11.1824048 Z M9.08570169,13.9779971 L10.4835014,13.9779971 C10.8748857,13.9779971 11.1824013,13.6704816 11.1824013,13.2790973 C11.1824013,12.8877129 10.8748857,12.5801974 10.4835014,12.5801974 L9.08570169,12.5801974 C8.69431734,12.5801974 8.38680183,12.8877129 8.38680183,13.2790973 C8.38680183,13.6704816 8.69431734,13.9779971 9.08570169,13.9779971 L9.08570169,13.9779971 Z M16.7736072,1.39779616 L13.9780149,1.39779616 L13.9780149,0.698896308 C13.9780149,0.307511962 13.6704994,-3.54910222e-06 13.279115,-3.54910222e-06 C12.8877307,-3.54910222e-06 12.5802152,0.307511962 12.5802152,0.698896308 L12.5802152,1.39779616 L6.98901277,1.39779616 L6.98901277,0.698896308 C6.98901277,0.307511962 6.68149725,-3.54910222e-06 6.29011291,-3.54910222e-06 C5.89872856,-3.54910222e-06 5.59121305,0.307511962 5.59121305,0.698896308 L5.59121305,1.39779616 L2.79562072,1.39779616 C1.25803962,1.39779616 2.83928178e-05,2.65581626 2.83928178e-05,4.19338849 L2.83928178e-05,15.3757933 C2.83928178e-05,16.9133744 1.25804849,18.1713856 2.79562072,18.1713856 L16.7736179,18.1713856 C18.311199,18.1713856 19.5692102,16.9133655 19.5692102,15.3757933 L19.5692102,4.19338849 C19.5692102,2.65580739 18.3111901,1.39779616 16.7736179,1.39779616 L16.7736072,1.39779616 Z M18.1714176,15.3757933 C18.1714176,16.1445839 17.542396,16.773593 16.7736072,16.773593 L2.79561007,16.773593 C2.02681952,16.773593 1.39781036,16.1445821 1.39781036,15.3757933 L1.39781036,6.98899857 L18.1714176,6.98899857 L18.1714176,15.3757933 L18.1714176,15.3757933 Z M18.1714069,5.59118466 L1.39779971,5.59118466 L1.39779971,4.19338495 C1.39779971,3.42459439 2.02681065,2.79558523 2.79559943,2.79558523 L5.59119176,2.79558523 L5.59119176,3.49448509 C5.59119176,3.88586943 5.89870727,4.19338495 6.29009161,4.19338495 C6.68147596,4.19338495 6.98899147,3.88586943 6.98899147,3.49448509 L6.98899147,2.79558523 L12.5801939,2.79558523 L12.5801939,3.49448509 C12.5801939,3.88586943 12.8877094,4.19338495 13.2790937,4.19338495 C13.6704781,4.19338495 13.9779936,3.88586943 13.9779936,3.49448509 L13.9779936,2.79558523 L16.7735859,2.79558523 C17.5423765,2.79558523 18.1714069,3.42459617 18.1714069,4.19338495 L18.1714069,5.59118466 L18.1714069,5.59118466 Z M4.892299,13.9779794 L6.29009871,13.9779794 C6.68148306,13.9779794 6.98899857,13.6704639 6.98899857,13.2790795 C6.98899857,12.8876952 6.68148306,12.5801797 6.29009871,12.5801797 L4.892299,12.5801797 C4.50091465,12.5801797 4.19339914,12.8876952 4.19339914,13.2790795 C4.19339914,13.6704639 4.50091465,13.9779794 4.892299,13.9779794 Z M13.2790937,11.1823871 L14.6768934,11.1823871 C15.0682778,11.1823871 15.3757933,10.8748716 15.3757933,10.4834872 C15.3757933,10.0921029 15.0682778,9.78458735 14.6768934,9.78458735 L13.2790937,9.78458735 C12.8877094,9.78458735 12.5801939,10.0921029 12.5801939,10.4834872 C12.5801939,10.8748716 12.8877094,11.1823871 13.2790937,11.1823871 Z M4.892299,11.1823871 L6.29009871,11.1823871 C6.68148306,11.1823871 6.98899857,10.8748716 6.98899857,10.4834872 C6.98899857,10.0921029 6.68148306,9.78458735 6.29009871,9.78458735 L4.892299,9.78458735 C4.50091465,9.78458735 4.19339914,10.0921029 4.19339914,10.4834872 C4.19339914,10.8748716 4.50091465,11.1823871 4.892299,11.1823871 Z M13.2790937,13.9779794 L14.6768934,13.9779794 C15.0682778,13.9779794 15.3757933,13.6704639 15.3757933,13.2790795 C15.3757933,12.8876952 15.0682778,12.5801797 14.6768934,12.5801797 L13.2790937,12.5801797 C12.8877094,12.5801797 12.5801939,12.8876952 12.5801939,13.2790795 C12.5801939,13.6704639 12.8877094,13.9779794 13.2790937,13.9779794 Z" id="形状"></path>
                </g>
            </g>
        </g>
    </g>
</svg>