<?xml version="1.0" encoding="UTF-8"?>
<svg width="14px" height="13px" viewBox="0 0 14 13" version="1.1" xmlns="http://www.w3.org/2000/svg" xmlns:xlink="http://www.w3.org/1999/xlink">
    <!-- Generator: Sketch 64 (93537) - https://sketch.com -->
    <title>垃圾桶备份 6@2x</title>
    <desc>Created with Sketch.</desc>
    <g id="👌稿" stroke="none" stroke-width="1" fill="none" fill-rule="evenodd">
        <g id="个人中心/API-management" transform="translate(-1356.000000, -677.000000)" fill="#66666C">
            <g id="编组-8备份" transform="translate(261.000000, 672.000000)">
                <g id="垃圾桶" transform="translate(1095.000000, 5.000000)">
                    <g>
                        <path d="M9.70773762,12.7318016 L4.61524078,12.7318016 L4.61524063,12.7318016 C3.12792002,12.6584644 1.94846283,11.4512111 1.9097825,9.96258501 L1.9097825,3.50132003 L1.9097825,3.50132101 C1.91824245,3.14970694 2.21014112,2.87152454 2.56175519,2.87998422 C2.90146676,2.88815777 3.17491825,3.16160944 3.18309197,3.50131976 L3.18309197,9.96258474 L3.18309192,9.9625839 C3.23071047,10.7442258 3.83641363,11.3768956 4.61524553,11.458496 L9.70774237,11.458496 C10.4079703,11.458496 10.8218422,10.6945108 10.8218422,9.9625839 L10.8218422,3.50131892 L10.8218421,3.50131964 C10.8303021,3.14970558 11.1222008,2.87152317 11.4738148,2.87998286 C11.8135251,2.8881564 12.0869766,3.16160683 12.0951516,3.5013184 L12.0951516,9.96258338 C12.0947831,11.3313391 11.2036507,12.7318016 9.70773987,12.7318016 L9.70773762,12.7318016 Z" id="路径" fill-rule="nonzero"></path>
                        <path d="M13.368143,3.81973942 L0.636465746,3.81973942 L0.636465771,3.81973942 C0.284851706,3.8112791 0.00666930123,3.5193808 0.0151302299,3.16776549 C0.0233041336,2.82805516 0.296755443,2.55460366 0.636465771,2.54642995 L13.368143,2.54642995 L13.368143,2.54642995 C13.7197571,2.55489028 13.9979395,2.84678856 13.9894786,3.19840387 C13.9813047,3.5381142 13.7078534,3.8115657 13.368143,3.81973942 L13.368143,3.81973942 Z M10.820415,1.27349099 L3.18277633,1.27349099 L3.18277631,1.27349099 C2.83116225,1.2650305 2.55297984,0.973132377 2.56144077,0.621517069 C2.56961485,0.281805497 2.84306598,0.00835524432 3.18277756,0.000181527165 L10.8204162,0.000181527165 L10.8204162,0.00018152764 C11.1720303,-0.00827896589 11.4639292,0.269903004 11.4723901,0.621517069 C11.4808506,0.973131135 11.2026687,1.26503007 10.8510546,1.27349099 C10.8408439,1.27373668 10.8306288,1.2737367 10.8204181,1.27349103 L10.820415,1.27349099 Z" id="形状" fill-rule="nonzero"></path>
                        <path d="M8.27522344,9.54871443 L8.27522346,9.54871443 C7.92413036,9.54770236 7.63976482,9.26333682 7.63875272,8.91224371 L7.63875272,5.0926908 L7.63875272,5.09269177 C7.64721267,4.74107771 7.93911134,4.4628953 8.2907254,4.47135499 C8.63043697,4.47952853 8.90388847,4.7529802 8.91206219,5.09269053 L8.91206219,8.91224344 L8.91206219,8.91224634 C8.91104756,9.26348243 8.62645704,9.54790515 8.27522095,9.54871443 L8.27522344,9.54871443 Z M5.72897502,9.54871443 L5.72897504,9.54871443 C5.37788194,9.54770236 5.0935164,9.26333682 5.09250431,8.91224371 L5.09250431,5.0926908 L5.09250431,5.09269152 C5.10096425,4.74107745 5.39286292,4.46289505 5.74447699,4.47135473 C6.08418732,4.47952827 6.35763881,4.7529787 6.36581377,5.09269027 L6.36581377,8.91224319 L6.36581377,8.91224608 C6.36479914,9.26348217 6.08020862,9.5479049 5.72897253,9.54871443 L5.72897502,9.54871443 Z" id="形状" fill-rule="nonzero"></path>
                    </g>
                </g>
            </g>
        </g>
    </g>
</svg>