<?xml version="1.0" encoding="UTF-8"?>
<svg xmlns="http://www.w3.org/2000/svg" xmlns:xlink="http://www.w3.org/1999/xlink" width="13" height="14" viewBox="0 0 13 14">
<path fill-rule="nonzero" fill="rgb(40%, 40%, 42.352941%)" fill-opacity="1" d="M 9.707031 12.730469 L 4.617188 12.730469 C 3.128906 12.660156 1.949219 11.453125 1.910156 9.960938 L 1.910156 3.5 C 1.917969 3.148438 2.210938 2.871094 2.5625 2.878906 C 2.902344 2.886719 3.175781 3.160156 3.183594 3.5 L 3.183594 9.960938 C 3.230469 10.746094 3.835938 11.375 4.617188 11.457031 L 9.707031 11.457031 C 10.40625 11.457031 10.820312 10.695312 10.820312 9.960938 L 10.820312 3.5 C 10.832031 3.148438 11.121094 2.871094 11.472656 2.878906 C 11.8125 2.886719 12.085938 3.160156 12.09375 3.5 L 12.09375 9.960938 C 12.09375 11.332031 11.203125 12.730469 9.707031 12.730469 Z M 9.707031 12.730469 "/>
<path fill-rule="nonzero" fill="rgb(40%, 40%, 42.352941%)" fill-opacity="1" d="M 13.367188 3.820312 L 0.636719 3.820312 C 0.285156 3.8125 0.0078125 3.519531 0.015625 3.167969 C 0.0234375 2.828125 0.296875 2.554688 0.636719 2.546875 L 13.367188 2.546875 C 13.71875 2.554688 13.996094 2.847656 13.988281 3.199219 C 13.980469 3.539062 13.707031 3.8125 13.367188 3.820312 Z M 10.820312 1.273438 L 3.183594 1.273438 C 2.832031 1.265625 2.554688 0.972656 2.5625 0.621094 C 2.570312 0.28125 2.84375 0.0078125 3.183594 0 L 10.820312 0 C 11.171875 -0.0078125 11.464844 0.269531 11.472656 0.621094 C 11.480469 0.972656 11.203125 1.265625 10.851562 1.273438 C 10.839844 1.273438 10.832031 1.273438 10.820312 1.273438 Z M 10.820312 1.273438 "/>
<path fill-rule="nonzero" fill="rgb(40%, 40%, 42.352941%)" fill-opacity="1" d="M 8.273438 9.546875 C 7.925781 9.546875 7.640625 9.261719 7.640625 8.914062 L 7.640625 5.09375 C 7.648438 4.742188 7.9375 4.464844 8.289062 4.472656 C 8.628906 4.480469 8.902344 4.753906 8.910156 5.09375 L 8.910156 8.914062 C 8.910156 9.261719 8.625 9.546875 8.273438 9.546875 Z M 5.730469 9.546875 C 5.378906 9.546875 5.09375 9.261719 5.09375 8.914062 L 5.09375 5.09375 C 5.101562 4.742188 5.394531 4.464844 5.746094 4.472656 C 6.085938 4.480469 6.359375 4.753906 6.367188 5.09375 L 6.367188 8.914062 C 6.363281 9.261719 6.082031 9.546875 5.730469 9.546875 Z M 5.730469 9.546875 "/>
</svg>
