<svg width="20" height="20" viewBox="0 0 20 20" fill="none" xmlns="http://www.w3.org/2000/svg">
<path fill-rule="evenodd" clip-rule="evenodd" d="M6.80144 1.66666L10.565 1.66666C10.6651 1.66666 10.7579 1.66666 10.8413 1.66742C11.0853 1.66964 11.317 1.67763 11.5597 1.73591C11.8143 1.79702 12.0586 1.89787 12.2828 2.03523C12.5374 2.19123 12.7488 2.40305 12.9882 2.64287C13.0044 2.65912 13.0207 2.67549 13.0372 2.69199L15.6418 5.29655C15.6574 5.31214 15.6728 5.32758 15.6882 5.34291C15.9299 5.58421 16.1412 5.79518 16.2977 6.05057C16.4344 6.27359 16.5359 6.51739 16.5973 6.77323C16.6556 7.01593 16.6636 7.24833 16.6659 7.49239C16.6666 7.57631 16.6667 7.66945 16.6667 7.77139V14.8684C16.6667 15.3068 16.6667 15.6851 16.6413 15.9968C16.6143 16.3258 16.5549 16.6532 16.3944 16.9682C16.1545 17.4391 15.7712 17.8216 15.3012 18.061C14.9861 18.2215 14.6588 18.281 14.3298 18.3079C14.0181 18.3334 13.6398 18.3333 13.2014 18.3333L6.79872 18.3333C6.36031 18.3333 5.98184 18.3334 5.67002 18.3079C5.34093 18.281 5.01337 18.2216 4.69821 18.061C4.22734 17.8211 3.8453 17.4382 3.60586 16.9682C3.44522 16.6529 3.38577 16.3253 3.35885 15.9959C3.33335 15.6838 3.33336 15.3049 3.33337 14.8656V5.13472C3.33336 4.69541 3.33335 4.31636 3.35885 4.00414C3.38576 3.67467 3.44517 3.34686 3.60586 3.0315C3.84554 2.56109 4.22781 2.17883 4.69821 1.93914C5.01358 1.77845 5.34139 1.71904 5.67086 1.69213C5.98308 1.66663 6.36213 1.66664 6.80144 1.66666ZM5.80654 3.35327C5.58 3.37177 5.49602 3.40318 5.45487 3.42415C5.29806 3.50405 5.17076 3.63135 5.09087 3.78815C5.0699 3.8293 5.03849 3.91328 5.01998 4.13982C5.00069 4.37604 5.00004 4.68637 5.00004 5.16682V14.8335C5.00004 15.314 5.00069 15.6241 5.01998 15.8602C5.03847 16.0864 5.06986 16.1703 5.09087 16.2116C5.171 16.3688 5.29853 16.4964 5.45487 16.576C5.49588 16.5969 5.57966 16.6283 5.80576 16.6467C6.04155 16.666 6.35128 16.6667 6.83082 16.6667L13.1693 16.6667C13.6488 16.6667 13.9584 16.666 14.1939 16.6467C14.4197 16.6283 14.5034 16.597 14.5445 16.576C14.7018 16.4959 14.8297 16.3679 14.9094 16.2116C14.9303 16.1705 14.9617 16.0868 14.9801 15.861C14.9994 15.6254 15 15.3159 15 14.8363V8.33332L13.4654 8.33333C13.027 8.33334 12.6485 8.33335 12.3367 8.30787C12.0076 8.28098 11.68 8.2216 11.3649 8.06102C10.8941 7.82114 10.512 7.43831 10.2725 6.9683C10.1119 6.653 10.0524 6.32539 10.0255 5.99594C10 5.68384 10 5.30491 10 4.86564L10.0002 3.33332H6.83354C6.35308 3.33332 6.04275 3.33397 5.80654 3.35327ZM11.6669 3.68018C11.7181 3.73037 11.7808 3.79261 11.8587 3.8705L14.4633 6.47507C14.5411 6.55285 14.6032 6.61548 14.6533 6.66666H13.4975C13.0179 6.66666 12.7082 6.66601 12.4724 6.64674C12.2463 6.62826 12.1625 6.5969 12.1215 6.57601C11.9651 6.49631 11.8376 6.36884 11.7575 6.21164C11.7365 6.17042 11.7051 6.08651 11.6866 5.8602C11.6674 5.62416 11.6667 5.31401 11.6667 4.83361C11.6667 4.83357 11.6667 4.83365 11.6667 4.83361L11.6669 3.68018ZM6.66671 11.6667C6.66671 11.2064 7.0398 10.8333 7.50004 10.8333H12.5C12.9603 10.8333 13.3334 11.2064 13.3334 11.6667C13.3334 12.1269 12.9603 12.5 12.5 12.5H7.50004C7.0398 12.5 6.66671 12.1269 6.66671 11.6667ZM6.66671 14.1667C6.66671 13.7064 7.0398 13.3333 7.50004 13.3333H12.5C12.9603 13.3333 13.3334 13.7064 13.3334 14.1667C13.3334 14.6269 12.9603 15 12.5 15H7.50004C7.0398 15 6.66671 14.6269 6.66671 14.1667Z" fill="#318BF5"/>
</svg>
