<?xml version="1.0" encoding="UTF-8"?>
<svg xmlns="http://www.w3.org/2000/svg" xmlns:xlink="http://www.w3.org/1999/xlink" width="20" height="20" viewBox="0 0 20 20">
<path fill-rule="evenodd" fill="rgb(19.215686%, 54.509804%, 96.078431%)" fill-opacity="1" d="M 6.800781 1.667969 L 10.566406 1.667969 C 10.664062 1.667969 10.757812 1.667969 10.839844 1.667969 C 11.085938 1.667969 11.316406 1.675781 11.558594 1.734375 C 11.8125 1.796875 12.058594 1.898438 12.28125 2.035156 C 12.539062 2.191406 12.75 2.402344 12.988281 2.644531 C 13.003906 2.660156 13.019531 2.675781 13.039062 2.691406 L 15.640625 5.296875 C 15.65625 5.3125 15.671875 5.328125 15.6875 5.34375 C 15.929688 5.585938 16.140625 5.796875 16.296875 6.050781 C 16.433594 6.273438 16.535156 6.515625 16.597656 6.773438 C 16.65625 7.015625 16.664062 7.25 16.664062 7.492188 C 16.667969 7.578125 16.667969 7.667969 16.667969 7.769531 L 16.667969 14.867188 C 16.667969 15.308594 16.667969 15.683594 16.640625 15.996094 C 16.613281 16.324219 16.554688 16.652344 16.394531 16.96875 C 16.15625 17.4375 15.769531 17.820312 15.300781 18.0625 C 14.984375 18.222656 14.660156 18.28125 14.328125 18.308594 C 14.019531 18.332031 13.640625 18.332031 13.203125 18.332031 L 6.796875 18.332031 C 6.359375 18.332031 5.980469 18.332031 5.671875 18.308594 C 5.339844 18.28125 5.011719 18.222656 4.699219 18.0625 C 4.226562 17.820312 3.84375 17.4375 3.605469 16.96875 C 3.445312 16.652344 3.386719 16.324219 3.359375 15.996094 C 3.332031 15.683594 3.332031 15.304688 3.332031 14.867188 L 3.332031 5.132812 C 3.332031 4.695312 3.332031 4.316406 3.359375 4.003906 C 3.386719 3.675781 3.445312 3.347656 3.605469 3.03125 C 3.84375 2.5625 4.226562 2.179688 4.699219 1.9375 C 5.011719 1.777344 5.339844 1.71875 5.671875 1.691406 C 5.984375 1.667969 6.363281 1.667969 6.800781 1.667969 Z M 5.804688 3.351562 C 5.578125 3.371094 5.496094 3.402344 5.453125 3.425781 C 5.296875 3.503906 5.171875 3.632812 5.089844 3.789062 C 5.070312 3.828125 5.039062 3.914062 5.019531 4.140625 C 5 4.375 5 4.6875 5 5.167969 L 5 14.832031 C 5 15.3125 5 15.625 5.019531 15.859375 C 5.039062 16.085938 5.070312 16.171875 5.089844 16.210938 C 5.171875 16.367188 5.296875 16.496094 5.453125 16.574219 C 5.496094 16.597656 5.578125 16.628906 5.804688 16.648438 C 6.042969 16.664062 6.351562 16.667969 6.832031 16.667969 L 13.167969 16.667969 C 13.648438 16.667969 13.957031 16.664062 14.195312 16.648438 C 14.417969 16.628906 14.503906 16.597656 14.542969 16.574219 C 14.703125 16.496094 14.828125 16.367188 14.910156 16.210938 C 14.929688 16.171875 14.960938 16.085938 14.980469 15.859375 C 15 15.625 15 15.316406 15 14.835938 L 15 8.332031 L 13.464844 8.332031 C 13.027344 8.332031 12.648438 8.332031 12.335938 8.308594 C 12.007812 8.28125 11.679688 8.222656 11.363281 8.0625 C 10.894531 7.820312 10.511719 7.4375 10.273438 6.96875 C 10.113281 6.652344 10.050781 6.324219 10.027344 5.996094 C 10 5.683594 10 5.304688 10 4.867188 L 10 3.332031 L 6.832031 3.332031 C 6.351562 3.332031 6.042969 3.332031 5.804688 3.351562 Z M 11.667969 3.679688 C 11.71875 3.730469 11.78125 3.792969 11.859375 3.871094 L 14.464844 6.476562 C 14.542969 6.554688 14.601562 6.617188 14.652344 6.667969 L 13.496094 6.667969 C 13.019531 6.667969 12.707031 6.664062 12.472656 6.648438 C 12.246094 6.628906 12.164062 6.597656 12.121094 6.574219 C 11.964844 6.496094 11.835938 6.367188 11.757812 6.210938 C 11.738281 6.171875 11.707031 6.085938 11.6875 5.859375 C 11.667969 5.625 11.667969 5.3125 11.667969 4.832031 Z M 6.667969 11.667969 C 6.667969 11.207031 7.039062 10.832031 7.5 10.832031 L 12.5 10.832031 C 12.960938 10.832031 13.332031 11.207031 13.332031 11.667969 C 13.332031 12.125 12.960938 12.5 12.5 12.5 L 7.5 12.5 C 7.039062 12.5 6.667969 12.125 6.667969 11.667969 Z M 6.667969 14.167969 C 6.667969 13.707031 7.039062 13.332031 7.5 13.332031 L 12.5 13.332031 C 12.960938 13.332031 13.332031 13.707031 13.332031 14.167969 C 13.332031 14.625 12.960938 15 12.5 15 L 7.5 15 C 7.039062 15 6.667969 14.625 6.667969 14.167969 Z M 6.667969 14.167969 "/>
</svg>
