<?xml version="1.0" encoding="UTF-8"?>
<svg xmlns="http://www.w3.org/2000/svg" xmlns:xlink="http://www.w3.org/1999/xlink" width="12" height="18" viewBox="0 0 12 18">
<path fill-rule="evenodd" fill="rgb(66.27451%, 69.411765%, 72.156863%)" fill-opacity="1" d="M 6 0.667969 C 6.460938 0.667969 6.832031 1.039062 6.832031 1.5 L 6.832031 11.15625 L 9.578125 8.410156 C 9.902344 8.085938 10.429688 8.085938 10.753906 8.410156 C 11.082031 8.734375 11.082031 9.265625 10.753906 9.589844 L 6.589844 13.757812 C 6.261719 14.082031 5.734375 14.082031 5.410156 13.757812 L 1.242188 9.589844 C 0.917969 9.265625 0.917969 8.734375 1.242188 8.410156 C 1.570312 8.085938 2.097656 8.085938 2.421875 8.410156 L 5.167969 11.15625 L 5.167969 1.5 C 5.167969 1.039062 5.539062 0.667969 6 0.667969 Z M 0.167969 16.5 C 0.167969 16.039062 0.539062 15.667969 1 15.667969 L 11 15.667969 C 11.460938 15.667969 11.832031 16.039062 11.832031 16.5 C 11.832031 16.960938 11.460938 17.332031 11 17.332031 L 1 17.332031 C 0.539062 17.332031 0.167969 16.960938 0.167969 16.5 Z M 0.167969 16.5 "/>
</svg>
