<?xml version="1.0" encoding="UTF-8"?>
<svg xmlns="http://www.w3.org/2000/svg" xmlns:xlink="http://www.w3.org/1999/xlink" width="16" height="16" viewBox="0 0 16 16">
<path fill-rule="nonzero" fill="rgb(57.254902%, 56.078431%, 64.705882%)" fill-opacity="1" stroke-width="0.5" stroke-linecap="butt" stroke-linejoin="miter" stroke="rgb(57.254902%, 56.078431%, 64.705882%)" stroke-opacity="1" stroke-miterlimit="4" d="M 13.198351 4.578993 C 13.02257 4.3954 12.74132 4.399306 12.569445 4.590712 L 8.026476 9.5204 L 3.421007 4.610243 C 3.249132 4.42665 2.967882 4.42665 2.796007 4.61415 C 2.624132 4.80165 2.624132 5.102431 2.799913 5.289931 L 7.694445 10.504775 C 7.698351 10.512587 7.71007 10.516493 7.717882 10.524306 C 7.893663 10.715712 8.174913 10.711806 8.346788 10.528212 L 13.198351 5.262587 C 13.202257 5.258681 13.206163 5.254775 13.21007 5.250868 C 13.378038 5.063368 13.374132 4.758681 13.198351 4.578993 Z M 13.198351 4.578993 " transform="matrix(-1, 0, 0, 1, 16.444445, 0.444444)"/>
</svg>
