<svg width="12" height="18" viewBox="0 0 12 18" fill="none" xmlns="http://www.w3.org/2000/svg">
<path fill-rule="evenodd" clip-rule="evenodd" d="M5.99984 0.666687C6.46007 0.666687 6.83317 1.03978 6.83317 1.50002V11.1548L9.57725 8.41077C9.90269 8.08533 10.4303 8.08533 10.7558 8.41077C11.0812 8.7362 11.0812 9.26384 10.7558 9.58928L6.58909 13.7559C6.26366 14.0814 5.73602 14.0814 5.41058 13.7559L1.24391 9.58928C0.918478 9.26384 0.918478 8.7362 1.24391 8.41077C1.56935 8.08533 2.09699 8.08533 2.42243 8.41077L5.1665 11.1548V1.50002C5.1665 1.03978 5.5396 0.666687 5.99984 0.666687ZM0.166504 16.5C0.166504 16.0398 0.5396 15.6667 0.999837 15.6667H10.9998C11.4601 15.6667 11.8332 16.0398 11.8332 16.5C11.8332 16.9603 11.4601 17.3334 10.9998 17.3334H0.999837C0.5396 17.3334 0.166504 16.9603 0.166504 16.5Z" fill="#A9B1B8"/>
</svg>
