<?xml version="1.0" encoding="UTF-8"?>
<svg width="16px" height="16px" viewBox="0 0 16 16" version="1.1" xmlns="http://www.w3.org/2000/svg" xmlns:xlink="http://www.w3.org/1999/xlink">
    <title>➡️备份 7@2x</title>
    <g id="History" stroke="none" stroke-width="1" fill="none" fill-rule="evenodd">
        <g id="Trade-History-Repo" transform="translate(-418.000000, -283.000000)">
            <g id="编组-28备份" transform="translate(242.000000, 252.000000)">
                <g id="编组-7备份-2" transform="translate(0.000000, 1.000000)">
                    <g id="➡️备份-7" transform="translate(184.000000, 38.000000) rotate(-270.000000) translate(-184.000000, -38.000000) translate(176.000000, 30.000000)">
                        <path d="M13.1972986,4.57755902 C13.0208312,4.39505209 12.7402002,4.40094664 12.5704899,4.59073275 L8.02832438,9.51969897 L3.42267234,4.61159445 C3.2486821,4.42608091 2.96780584,4.42737322 2.79526266,4.61448239 C2.62275627,4.80156518 2.62395807,5.10361151 2.79796057,5.28913824 L7.69279105,10.505421 C7.70029613,10.5136101 7.71008216,10.5155354 7.71756271,10.5230915 C7.89540359,10.7146314 8.1759978,10.7133128 8.34835703,10.5264014 L13.1996041,5.26235561 C13.2029888,5.25884789 13.2062998,5.25523468 13.2095373,5.2515819 C13.3792599,5.06182217 13.3737906,4.76005276 13.1972986,4.57755902 Z" id="路径备份-17" stroke="#928FA5" stroke-width="0.5" fill="#928FA5" fill-rule="nonzero" transform="translate(8.000000, 7.555556) scale(-1, 1) rotate(90.000000) translate(-8.000000, -7.555556) "></path>
                        <rect id="矩形" x="0" y="0" width="16" height="16"></rect>
                    </g>
                </g>
            </g>
        </g>
    </g>
</svg>