<?xml version="1.0" encoding="UTF-8"?>
<svg xmlns="http://www.w3.org/2000/svg" xmlns:xlink="http://www.w3.org/1999/xlink" width="16" height="16" viewBox="0 0 16 16">
<path fill-rule="nonzero" fill="rgb(57.254902%, 56.078431%, 64.705882%)" fill-opacity="1" stroke-width="0.5" stroke-linecap="butt" stroke-linejoin="miter" stroke="rgb(57.254902%, 56.078431%, 64.705882%)" stroke-opacity="1" stroke-miterlimit="4" d="M 13.19835 4.578993 C 13.022569 4.3954 12.741319 4.399306 12.569444 4.590712 L 8.026475 9.5204 L 3.421007 4.610243 C 3.249132 4.42665 2.967882 4.42665 2.796007 4.61415 C 2.624132 4.80165 2.624132 5.102431 2.799913 5.289931 L 7.694444 10.504775 C 7.69835 10.512587 7.710069 10.516493 7.717882 10.524306 C 7.893663 10.715712 8.174913 10.711806 8.346788 10.528212 L 13.19835 5.262587 C 13.202257 5.258681 13.206163 5.254775 13.210069 5.250868 C 13.378038 5.063368 13.374132 4.758681 13.19835 4.578993 Z M 13.19835 4.578993 " transform="matrix(-1, 0, 0, 1, 16.444444, 0.444444)"/>
</svg>
