<?xml version="1.0" encoding="UTF-8"?>
<svg width="12px" height="12px" viewBox="0 0 12 12" version="1.1" xmlns="http://www.w3.org/2000/svg" xmlns:xlink="http://www.w3.org/1999/xlink">
    <!-- Generator: Sketch 64 (93537) - https://sketch.com -->
    <title>修改@2x</title>
    <desc>Created with Sketch.</desc>
    <g id="修改" stroke="none" stroke-width="1" fill="none" fill-rule="evenodd">
        <g fill="#66666C" fill-rule="nonzero" id="形状">
            <path d="M11.5023143,2.88226957 L5.68576751,8.70260526 L3.29921787,8.70260526 L3.29921787,6.31478881 L9.11597198,0.494453121 L9.11597196,0.494453143 C9.77534797,-0.164516341 10.8440761,-0.164185823 11.5030514,0.495190144 C12.1620208,1.15456615 12.1616903,2.2232943 11.5023144,2.88226954 L11.5023143,2.88226957 Z M4.20494174,6.60244341 L4.19399137,7.8072 L5.39811457,7.79624963 L5.98396004,7.21019456 L4.79078886,6.01618269 L4.20494174,6.60244341 Z M6.58053937,6.61234087 L9.56346156,3.62857799 L8.37029038,2.43477341 L5.3871609,5.41937698 L6.58053937,6.61234087 Z M10.7566327,1.24076155 L10.7566327,1.24076155 C10.4213317,0.911275079 9.88241406,0.915988708 9.55292413,1.25128999 C9.55278598,1.25143058 9.55264787,1.25157122 9.55250981,1.25171191 L9.1159688,1.68846367 L10.30914,2.88247554 L10.745681,2.44551303 L10.745681,2.44551302 C11.0811018,2.11573173 11.086002,1.57658493 10.7566314,1.24075643 L10.7566327,1.24076155 Z M5.90604013,1.87251336 L2.95301431,1.87251336 L2.95301429,1.87251336 C1.7877817,1.87286207 0.843455127,2.81775318 0.843800616,3.98298232 C0.843800679,3.98319306 0.843800774,3.98340381 0.8438009,3.98361455 L0.8438009,8.83799603 L0.843800931,8.83789917 C0.843398482,10.0031318 1.78768067,10.9480687 2.95291096,10.9484718 C2.95291102,10.9484718 2.95291109,10.9484718 2.95291115,10.9484718 L7.80434444,10.9484718 L7.8043445,10.9484718 C8.96957709,10.9481229 9.91390366,10.003232 9.91355817,8.83800282 C9.91355817,8.83800275 9.91355817,8.83800269 9.91355817,8.83800263 L9.91355817,5.67208615 L9.91355817,5.67208621 C9.91355814,5.43907424 10.1024511,5.25018129 10.3354631,5.25018129 C10.5684751,5.25018125 10.7573681,5.43907424 10.7573681,5.67208621 C10.7573681,5.67208621 10.7573681,5.67208621 10.7573681,5.67208621 L10.7573681,9.04901619 L10.7573681,9.04891166 C10.757891,10.5637451 9.53029276,11.7921908 8.0154593,11.7927206 C8.0154213,11.7927206 8.0153833,11.7927206 8.01534529,11.7927206 L2.74200016,11.7927206 L2.74200029,11.7927206 C1.22716683,11.7922555 -0.000484201425,10.5638603 -1.2168535e-05,9.04901534 C-1.2168535e-05,9.04901527 -1.2168535e-05,9.0490152 -1.2168535e-05,9.04901513 L-1.2168535e-05,3.77261817 L-1.2168535e-05,3.77272305 C-0.000535194795,2.25788959 1.22706322,1.02944393 2.74189668,1.02891418 C2.74189676,1.02891418 2.74189685,1.02891418 2.74189693,1.02891418 L5.90592473,1.02891418 L5.90592472,1.02891418 C6.139053,1.02891418 6.32804039,1.21790156 6.32804039,1.45102985 C6.3280404,1.68415813 6.139053,1.87314552 5.90592472,1.87314552 L5.90604013,1.87251336 Z"></path>
        </g>
    </g>
</svg>