<?xml version="1.0" encoding="UTF-8"?>
<svg xmlns="http://www.w3.org/2000/svg" xmlns:xlink="http://www.w3.org/1999/xlink" width="12" height="12" viewBox="0 0 12 12">
<path fill-rule="nonzero" fill="rgb(40%, 40%, 42.352941%)" fill-opacity="1" d="M 11.503906 2.882812 L 5.6875 8.703125 L 3.300781 8.703125 L 3.300781 6.316406 L 9.117188 0.496094 C 9.773438 -0.164062 10.84375 -0.164062 11.503906 0.496094 C 12.160156 1.15625 12.160156 2.222656 11.503906 2.882812 Z M 4.203125 6.601562 L 4.195312 7.808594 L 5.398438 7.796875 L 5.984375 7.210938 L 4.789062 6.015625 Z M 6.582031 6.613281 L 9.5625 3.628906 L 8.371094 2.433594 L 5.386719 5.417969 Z M 10.757812 1.242188 C 10.421875 0.910156 9.882812 0.914062 9.554688 1.25 C 9.554688 1.25 9.550781 1.25 9.550781 1.25 L 9.117188 1.6875 L 10.308594 2.882812 L 10.746094 2.445312 C 11.082031 2.117188 11.085938 1.578125 10.757812 1.242188 Z M 5.90625 1.871094 L 2.953125 1.871094 C 1.789062 1.871094 0.84375 2.816406 0.84375 3.984375 L 0.84375 8.839844 C 0.84375 10.003906 1.789062 10.949219 2.953125 10.949219 L 7.804688 10.949219 C 8.96875 10.949219 9.914062 10.003906 9.914062 8.839844 L 9.914062 5.671875 C 9.914062 5.4375 10.101562 5.25 10.335938 5.25 C 10.570312 5.25 10.757812 5.4375 10.757812 5.671875 L 10.757812 9.050781 C 10.757812 10.5625 9.53125 11.792969 8.015625 11.792969 L 2.742188 11.792969 C 1.226562 11.792969 0 10.5625 0 9.050781 L 0 3.773438 C 0 2.257812 1.226562 1.03125 2.742188 1.027344 L 5.90625 1.027344 C 6.140625 1.027344 6.328125 1.21875 6.328125 1.449219 C 6.328125 1.683594 6.140625 1.875 5.90625 1.875 Z M 5.90625 1.871094 "/>
</svg>
