<?xml version="1.0" encoding="UTF-8"?>
<svg xmlns="http://www.w3.org/2000/svg" xmlns:xlink="http://www.w3.org/1999/xlink" width="16" height="16" viewBox="0 0 16 16">
<path fill-rule="nonzero" fill="rgb(96.862745%, 38.431373%, 37.647059%)" fill-opacity="1" d="M 11.359375 5.324219 C 11.167969 5.125 10.824219 5.15625 10.628906 5.367188 L 8.207031 7.855469 L 5.679688 5.351562 C 5.484375 5.171875 5.160156 5.15625 4.976562 5.339844 C 4.800781 5.519531 4.746094 5.785156 4.949219 6.007812 L 7.492188 8.578125 L 5.015625 11.113281 C 4.828125 11.300781 4.800781 11.582031 5.019531 11.78125 C 5.257812 12 5.585938 11.898438 5.746094 11.738281 L 8.207031 9.25 L 10.847656 11.753906 C 11.039062 11.925781 11.34375 11.953125 11.523438 11.757812 C 11.726562 11.535156 11.683594 11.324219 11.472656 11.105469 L 8.925781 8.582031 L 11.410156 5.957031 C 11.597656 5.757812 11.507812 5.46875 11.359375 5.324219 Z M 11.359375 5.324219 "/>
<path fill-rule="nonzero" fill="rgb(96.862745%, 38.431373%, 37.647059%)" fill-opacity="1" d="M 15.984375 8.199219 C 15.984375 12.5 12.5 15.984375 8.199219 15.984375 C 3.894531 15.984375 0.410156 12.5 0.410156 8.199219 C 0.410156 3.894531 3.894531 0.410156 8.199219 0.410156 C 12.5 0.410156 15.984375 3.894531 15.984375 8.199219 Z M 8.214844 1.589844 C 4.683594 1.589844 1.570312 4.695312 1.570312 8.214844 C 1.570312 11.882812 4.542969 14.863281 8.214844 14.863281 C 11.890625 14.863281 14.863281 11.890625 14.863281 8.214844 C 14.855469 4.714844 11.796875 1.589844 8.214844 1.589844 Z M 8.214844 1.589844 "/>
</svg>
