<?xml version="1.0" encoding="UTF-8"?>
<svg xmlns="http://www.w3.org/2000/svg" xmlns:xlink="http://www.w3.org/1999/xlink" width="100" height="100" viewBox="0 0 100 100">
<path fill-rule="nonzero" fill="rgb(19.215686%, 54.509804%, 96.078431%)" fill-opacity="1" d="M 50 0 C 22.386719 0 0 22.386719 0 50 C 0 77.613281 22.386719 100 50 100 C 77.613281 100 100 77.613281 100 50 C 100 22.386719 77.613281 0 50 0 Z M 50 77.777344 C 46.929688 77.777344 44.441406 75.292969 44.441406 72.222656 C 44.441406 69.152344 46.929688 66.664062 50 66.664062 C 53.070312 66.664062 55.558594 69.152344 55.554688 72.222656 C 55.554688 75.289062 53.070312 77.777344 50 77.777344 Z M 55.292969 55.535156 C 55.097656 58.386719 52.890625 60.683594 50.050781 60.992188 C 50.25 61.015625 50.429688 61.113281 50.636719 61.113281 L 49.480469 61.113281 C 49.679688 61.113281 49.855469 61.015625 50.050781 60.992188 C 47.207031 60.710938 45 58.390625 44.855469 55.535156 L 43.585938 27.785156 C 43.433594 24.867188 45.671875 22.375 48.59375 22.222656 C 48.703125 22.214844 48.8125 22.214844 48.921875 22.214844 L 51.492188 22.214844 C 54.570312 22.214844 56.949219 24.644531 56.777344 27.785156 Z M 55.292969 55.535156 "/>
</svg>
