<?xml version="1.0" encoding="UTF-8"?>
<svg width="100px" height="100px" viewBox="0 0 100 100" version="1.1" xmlns="http://www.w3.org/2000/svg" xmlns:xlink="http://www.w3.org/1999/xlink">
    <!-- Generator: Sketch 64 (93537) - https://sketch.com -->
    <title>疑问@2x</title>
    <desc>Created with Sketch.</desc>
    <g id="方案" stroke="none" stroke-width="1" fill="none" fill-rule="evenodd">
        <g id="邮箱失效" transform="translate(-670.000000, -311.000000)" fill="#318BF5" fill-rule="nonzero">
            <g id="编组-3" transform="translate(521.000000, 311.000000)">
                <g id="疑问" transform="translate(149.000000, 0.000000)">
                    <path d="M50.0000582,-4.44089727e-14 L50.000056,-4.44089727e-14 C22.3857661,-4.44089727e-14 -2.18556895e-06,22.3857682 -2.18556895e-06,50.0000582 C-2.18556895e-06,77.6143481 22.3857661,100.000116 50.000056,100.000116 L50.0000577,100.000116 C77.6143476,100.000116 100.000116,77.6143481 100.000116,50.0000582 C100.000116,22.3857682 77.6143476,-4.44089727e-14 50.0000577,-4.44089727e-14 L50.0000582,-4.44089727e-14 Z M50.0000582,77.7787038 L50.0000579,77.7787038 C46.9309333,77.7791105 44.4425808,75.2914157 44.4421706,72.2222911 C44.4417639,69.1531664 46.9294586,66.6648139 49.9985833,66.6644037 C49.9990744,66.6644037 49.9995655,66.6644037 50.0000567,66.6644037 L50.0000564,66.6644037 C53.0691811,66.6648105 55.5568793,69.1531566 55.5564691,72.2222911 C55.5560625,75.2908493 53.0686147,77.7782936 50.0000564,77.7787038 L50.0000582,77.7787038 Z M55.2929257,55.5358068 L55.2929258,55.5358047 C55.0984725,58.3849291 52.8891242,60.6845802 50.0500681,60.9929595 C50.2500684,61.0143881 50.4286399,61.1143884 50.6357827,61.1143884 L49.4786427,61.1143884 C49.6786429,61.1143884 49.8572144,61.0143882 50.0500721,60.9929595 L50.050072,60.9929595 C47.2069534,60.7100441 44.9987575,58.3894604 44.8572046,55.5358145 L43.5857676,27.7857822 L43.5857676,27.785782 C43.431785,24.866677 45.6733677,22.3754436 48.5924726,22.2214591 C48.702044,22.2156792 48.8117688,22.2133079 48.9214886,22.2141106 L51.4929174,22.2141106 C54.5714952,22.2141106 56.9500624,24.6429258 56.7786364,27.785781 L55.2929218,55.5358133 L55.2929257,55.5358068 Z" id="形状"></path>
                </g>
            </g>
        </g>
    </g>
</svg>