<?xml version="1.0" encoding="UTF-8"?>
<svg width="16px" height="16px" viewBox="0 0 16 16" version="1.1" xmlns="http://www.w3.org/2000/svg" xmlns:xlink="http://www.w3.org/1999/xlink">
    <!-- Generator: Sketch 64 (93537) - https://sketch.com -->
    <title>错误备份 2@2x</title>
    <desc>Created with Sketch.</desc>
    <g id="Personal-center" stroke="none" stroke-width="1" fill="none" fill-rule="evenodd">
        <g id="个人中心/Login-management" transform="translate(-845.000000, -512.000000)" fill="#F76260" fill-rule="nonzero">
            <g id="编组-13" transform="translate(216.000000, 289.000000)">
                <g id="编组-5" transform="translate(0.000000, 39.000000)">
                    <g id="编组-4">
                        <g id="错误备份-2" transform="translate(629.000000, 184.000000)">
                            <path d="M11.359573,5.32321946 C11.1685609,5.12664389 10.8236264,5.15446119 10.6289053,5.36587265 L8.20880043,7.85459351 L5.67928086,5.35103676 C5.4827053,5.17115157 5.16187914,5.15446119 4.97643049,5.33990984 C4.80210876,5.51979503 4.74461968,5.78684108 4.94861319,6.00937946 L7.49296865,8.57969773 L5.0153747,11.1129263 C4.82992605,11.3020839 4.80210876,11.5802569 5.01908368,11.7805414 C5.25831243,12.0012253 5.58470205,11.8992285 5.74418789,11.7397427 L8.20880043,9.24916735 L10.8495892,11.7527241 C11.0406013,11.9251914 11.3447371,11.9530086 11.5227678,11.7564331 C11.7249068,11.5338947 11.6822536,11.3224832 11.4726966,11.1073628 L8.9264867,8.5834067 L11.4114986,5.95745384 C11.5969472,5.75902378 11.5079319,5.46786941 11.359573,5.32321946 Z" id="路径"></path>
                            <path d="M15.9835496,8.19767351 C15.9835496,12.4988953 12.4988953,15.9835496 8.19767351,15.9835496 C3.89645174,15.9835496 0.411797449,12.4988953 0.411797449,8.19767351 C0.411797449,3.89645174 3.89645174,0.411797449 8.19767351,0.411797449 C12.4988953,0.411797449 15.9835496,3.89645174 15.9835496,8.19767351 L15.9835496,8.19767351 Z M8.21666346,1.58917383 C4.68453431,1.58917383 1.57018389,4.69402928 1.57018389,8.21666346 C1.57018389,11.8817222 4.54210975,14.863143 8.21666346,14.863143 C11.8912172,14.863143 14.863143,11.8912172 14.863143,8.21666346 C14.8536481,4.71301923 11.7962675,1.58917383 8.21666346,1.58917383 Z" id="形状"></path>
                        </g>
                    </g>
                </g>
            </g>
        </g>
    </g>
</svg>