<?xml version="1.0" encoding="UTF-8"?>
<svg xmlns="http://www.w3.org/2000/svg" xmlns:xlink="http://www.w3.org/1999/xlink" width="24" height="24" viewBox="0 0 24 24">
<path fill-rule="nonzero" fill="rgb(96.862745%, 38.431373%, 37.647059%)" fill-opacity="1" d="M 23 11.5 C 23 17.851562 17.851562 23 11.5 23 C 5.148438 23 0 17.851562 0 11.5 C 0 5.148438 5.148438 0 11.5 0 C 17.851562 0 23 5.148438 23 11.5 Z M 23 11.5 "/>
<path fill-rule="nonzero" fill="rgb(100%, 100%, 100%)" fill-opacity="1" d="M 15.710938 7.292969 C 16.238281 7.816406 16.238281 8.667969 15.710938 9.195312 L 9.195312 15.710938 C 8.667969 16.238281 7.816406 16.238281 7.292969 15.710938 C 6.765625 15.1875 6.765625 14.335938 7.292969 13.808594 L 13.8125 7.292969 C 14.335938 6.765625 15.1875 6.765625 15.710938 7.292969 Z M 15.710938 7.292969 "/>
<path fill-rule="nonzero" fill="rgb(100%, 100%, 100%)" fill-opacity="1" d="M 7.292969 7.292969 C 7.816406 6.765625 8.667969 6.765625 9.195312 7.292969 L 15.710938 13.808594 C 16.238281 14.335938 16.238281 15.1875 15.710938 15.710938 C 15.1875 16.238281 14.335938 16.238281 13.808594 15.710938 L 7.292969 9.191406 C 6.765625 8.667969 6.765625 7.816406 7.292969 7.292969 Z M 7.292969 7.292969 "/>
</svg>
