<?xml version="1.0" encoding="UTF-8"?>
<svg width="12px" height="12px" viewBox="0 0 12 12" version="1.1" xmlns="http://www.w3.org/2000/svg" xmlns:xlink="http://www.w3.org/1999/xlink">
    <title>ewm@2x</title>
    <g id="Personal-center" stroke="none" stroke-width="1" fill="none" fill-rule="evenodd">
        <g id="Address-Management" transform="translate(-766.000000, -349.000000)" fill="#E5DFF5" fill-rule="nonzero">
            <g id="编组-7" transform="translate(224.000000, 346.000000)">
                <g id="编组-6">
                    <g id="编组-3">
                        <g id="编组-2">
                            <g id="编组-15" transform="translate(540.000000, 1.000000)">
                                <g id="ewm" transform="translate(2.000000, 2.000000)">
                                    <path d="M1.53572054,0.196571713 L4.03571954,0.196571713 C4.75000631,0.196571713 5.37515079,0.821429081 5.37515079,1.53572171 L5.37515079,4.03572071 C5.37515079,4.75000748 4.75000748,5.37515196 4.03571954,5.37515196 L1.53572054,5.37515196 C0.821433768,5.37515196 0.196289291,4.75000865 0.196289291,4.03572071 L0.196289291,1.53572171 C0.196575006,0.732006711 0.732290305,0.196290463 1.53572054,0.196290463 L1.53572054,0.196571713 Z M1.53572054,1.08943017 C1.26772062,1.08943017 1.08914892,1.26771593 1.08914892,1.53571585 L1.08914892,4.03571485 C1.08914892,4.21428654 1.26800655,4.48228647 1.53572054,4.48228647 L4.03571954,4.48228647 C4.21429123,4.48228647 4.48229115,4.21428654 4.48229115,4.03571485 L4.48229115,1.53571585 C4.48229115,1.26771593 4.30343352,1.08914424 4.03571954,1.08914424 L1.53572054,1.08914424 L1.53572054,1.08943017 Z M1.53572054,6.62515146 L4.03571954,6.62515146 C4.75000631,6.62515146 5.37515079,7.25000883 5.37515079,7.96430146 L5.37515079,10.4643005 C5.37515079,11.1785872 4.75000748,11.8037317 4.03571954,11.8037317 L1.53572054,11.8037317 C0.821433768,11.8037317 0.196289291,11.1785884 0.196289291,10.4643005 L0.196289291,7.96430146 C0.196289291,7.25001469 0.732004367,6.62487021 1.53572054,6.62487021 L1.53572054,6.62515146 Z M1.53572054,7.51800992 C1.26772062,7.51800992 1.08914892,7.69658161 1.08914892,7.9642956 L1.08914892,10.4642946 C1.08914892,10.7322945 1.26800655,10.9108662 1.53572054,10.9108662 L4.03571954,10.9108662 C4.30371946,10.9108662 4.48229115,10.7320086 4.48229115,10.4642946 L4.48229115,7.9642956 C4.48229115,7.69629567 4.30343352,7.51772398 4.03571954,7.51772398 L1.53572054,7.51772398 L1.53572054,7.51800992 Z M7.07144182,6.62515146 L11.3571577,6.62515146 C11.6251577,6.62515146 11.8037294,6.80372315 11.8037294,7.07143713 C11.8037294,7.33943706 11.6248702,7.51800875 11.3571577,7.51800875 L7.07144182,7.51800875 C6.8034419,7.51800875 6.62487021,7.33943706 6.62487021,7.07143713 C6.62487021,6.80343721 6.8034419,6.62486552 7.07144182,6.62486552 L7.07144182,6.62515146 Z M6.62487021,11.3571531 L6.62487021,9.03572458 C6.62487021,8.76772466 6.8034419,8.58915296 7.07144182,8.58915296 C7.33944174,8.58915296 7.51801344,8.76772466 7.51801344,9.03572458 L7.51801344,11.3571531 C7.51801344,11.625153 7.33944174,11.8037247 7.07144182,11.8037247 C6.8034419,11.8037247 6.62487021,11.624867 6.62487021,11.3571531 Z M8.58915765,10.4642946 L8.58915765,9.12486335 C8.58915765,8.8571482 8.76772934,8.67857768 9.03572926,8.67857768 C9.30372919,8.67857768 9.48230088,8.85714937 9.48230088,9.12514929 L9.48230088,10.4642993 C9.48230088,10.7322992 9.30344325,10.9108709 9.03572926,10.9108709 C8.76772934,10.9108709 8.58915765,10.642871 8.58915765,10.4642993 L8.58915765,10.4642946 Z M10.5534451,10.9108662 L10.5534451,9.0357234 C10.5534451,8.76772348 10.7323027,8.58915179 11.0000167,8.58915179 C11.2680166,8.58915179 11.4465883,8.76772348 11.4465883,9.0357234 L11.4465883,10.9108662 C11.4465883,11.1785814 11.2677307,11.3571519 11.0000167,11.3571519 C10.7320168,11.3571519 10.5534451,11.1785802 10.5534451,10.9105803 L10.5534451,10.9108662 Z M7.96458271,1.08913603 C7.69658278,1.08913603 7.51801109,1.26799366 7.51801109,1.53570765 L7.51801109,4.03570665 C7.51801109,4.30370657 7.69658278,4.48227826 7.96458271,4.48227826 L10.4645817,4.48227826 C10.7325816,4.48227826 10.9111533,4.30342063 10.9111533,4.03570665 L10.9111533,1.53570765 C10.9111533,1.26770773 10.7322957,1.08913603 10.4645817,1.08913603 L7.96458271,1.08913603 Z M7.96458271,0.19656351 L10.4645817,0.19656351 C11.1788685,0.19656351 11.804013,0.821420878 11.804013,1.53571351 L11.804013,4.03571251 C11.804013,4.74999928 11.1788696,5.37514375 10.4645817,5.37514375 L7.96458271,5.37514375 C7.25029594,5.37514375 6.62515146,4.75000045 6.62515146,4.03571251 L6.62515146,1.53571351 C6.62515146,0.731998508 7.25029476,0.19628226 7.96458271,0.19628226 L7.96458271,0.19656351 Z" id="形状"></path>
                                </g>
                            </g>
                        </g>
                    </g>
                </g>
            </g>
        </g>
    </g>
</svg>