<?xml version="1.0" encoding="UTF-8"?>
<svg xmlns="http://www.w3.org/2000/svg" xmlns:xlink="http://www.w3.org/1999/xlink" width="12" height="12" viewBox="0 0 12 12">
<path fill-rule="nonzero" fill="rgb(89.803922%, 87.45098%, 96.078431%)" fill-opacity="1" d="M 1.535156 0.195312 L 4.035156 0.195312 C 4.75 0.195312 5.375 0.820312 5.375 1.535156 L 5.375 4.035156 C 5.375 4.75 4.75 5.375 4.035156 5.375 L 1.535156 5.375 C 0.820312 5.375 0.195312 4.75 0.195312 4.035156 L 0.195312 1.535156 C 0.195312 0.730469 0.730469 0.195312 1.535156 0.195312 Z M 1.535156 1.089844 C 1.269531 1.089844 1.089844 1.269531 1.089844 1.535156 L 1.089844 4.035156 C 1.089844 4.214844 1.269531 4.480469 1.535156 4.480469 L 4.035156 4.480469 C 4.214844 4.480469 4.480469 4.214844 4.480469 4.035156 L 4.480469 1.535156 C 4.480469 1.269531 4.304688 1.089844 4.035156 1.089844 Z M 1.535156 6.625 L 4.035156 6.625 C 4.75 6.625 5.375 7.25 5.375 7.964844 L 5.375 10.464844 C 5.375 11.179688 4.75 11.804688 4.035156 11.804688 L 1.535156 11.804688 C 0.820312 11.804688 0.195312 11.179688 0.195312 10.464844 L 0.195312 7.964844 C 0.195312 7.25 0.730469 6.625 1.535156 6.625 Z M 1.535156 7.519531 C 1.269531 7.519531 1.089844 7.695312 1.089844 7.964844 L 1.089844 10.464844 C 1.089844 10.730469 1.269531 10.910156 1.535156 10.910156 L 4.035156 10.910156 C 4.304688 10.910156 4.480469 10.730469 4.480469 10.464844 L 4.480469 7.964844 C 4.480469 7.695312 4.304688 7.519531 4.035156 7.519531 Z M 7.070312 6.625 L 11.355469 6.625 C 11.625 6.625 11.804688 6.804688 11.804688 7.070312 C 11.804688 7.339844 11.625 7.519531 11.355469 7.519531 L 7.070312 7.519531 C 6.804688 7.519531 6.625 7.339844 6.625 7.070312 C 6.625 6.804688 6.804688 6.625 7.070312 6.625 Z M 6.625 11.355469 L 6.625 9.035156 C 6.625 8.769531 6.804688 8.589844 7.070312 8.589844 C 7.339844 8.589844 7.519531 8.769531 7.519531 9.035156 L 7.519531 11.355469 C 7.519531 11.625 7.339844 11.804688 7.070312 11.804688 C 6.804688 11.804688 6.625 11.625 6.625 11.355469 Z M 8.589844 10.464844 L 8.589844 9.125 C 8.589844 8.855469 8.769531 8.679688 9.035156 8.679688 C 9.304688 8.679688 9.480469 8.855469 9.480469 9.125 L 9.480469 10.464844 C 9.480469 10.730469 9.304688 10.910156 9.035156 10.910156 C 8.769531 10.910156 8.589844 10.644531 8.589844 10.464844 Z M 10.554688 10.910156 L 10.554688 9.035156 C 10.554688 8.769531 10.730469 8.589844 11 8.589844 C 11.269531 8.589844 11.445312 8.769531 11.445312 9.035156 L 11.445312 10.910156 C 11.445312 11.179688 11.269531 11.355469 11 11.355469 C 10.730469 11.355469 10.554688 11.179688 10.554688 10.910156 Z M 7.964844 1.089844 C 7.695312 1.089844 7.519531 1.269531 7.519531 1.535156 L 7.519531 4.035156 C 7.519531 4.304688 7.695312 4.480469 7.964844 4.480469 L 10.464844 4.480469 C 10.734375 4.480469 10.910156 4.304688 10.910156 4.035156 L 10.910156 1.535156 C 10.910156 1.269531 10.730469 1.089844 10.464844 1.089844 Z M 7.964844 0.195312 L 10.464844 0.195312 C 11.179688 0.195312 11.804688 0.820312 11.804688 1.535156 L 11.804688 4.035156 C 11.804688 4.75 11.179688 5.375 10.464844 5.375 L 7.964844 5.375 C 7.25 5.375 6.625 4.75 6.625 4.035156 L 6.625 1.535156 C 6.625 0.730469 7.25 0.195312 7.964844 0.195312 Z M 7.964844 0.195312 "/>
</svg>
