<?xml version="1.0" encoding="UTF-8"?>
<svg xmlns="http://www.w3.org/2000/svg" xmlns:xlink="http://www.w3.org/1999/xlink" width="12" height="12" viewBox="0 0 12 12">
<path fill-rule="nonzero" fill="rgb(89.803922%, 87.45098%, 96.078431%)" fill-opacity="1" d="M 11.871094 4.816406 L 7.433594 0.125 C 7.253906 -0.0429688 6.976562 -0.0429688 6.796875 0.125 C 6.699219 0.21875 6.65625 0.347656 6.671875 0.480469 L 6.671875 3.007812 C 2.988281 3.007812 0 5.886719 0 9.4375 C 0 10.347656 0.199219 11.214844 0.554688 12 C 1.082031 9.320312 3.519531 7.292969 6.453125 7.292969 L 6.671875 7.292969 L 6.671875 9.808594 C 6.65625 9.9375 6.699219 10.070312 6.796875 10.160156 L 6.800781 10.164062 C 6.972656 10.339844 7.253906 10.339844 7.425781 10.167969 C 7.4375 10.15625 7.449219 10.148438 7.457031 10.136719 L 11.871094 5.472656 C 11.960938 5.386719 12.007812 5.265625 12 5.144531 C 12.007812 5.023438 11.960938 4.902344 11.871094 4.816406 Z M 7.5625 8.738281 L 7.5625 6.4375 L 6.671875 6.4375 C 6.1875 6.4375 6.074219 6.421875 5.785156 6.4375 C 3.929688 6.515625 1.847656 7.824219 0.890625 9.007812 C 0.902344 7.398438 2.855469 3.957031 5.992188 3.863281 C 6.222656 3.855469 6.449219 3.835938 6.671875 3.863281 L 7.5625 3.863281 L 7.5625 1.546875 L 10.964844 5.144531 Z M 7.5625 8.738281 "/>
</svg>
