<?xml version="1.0" encoding="UTF-8"?>
<svg width="12px" height="12px" viewBox="0 0 12 12" version="1.1" xmlns="http://www.w3.org/2000/svg" xmlns:xlink="http://www.w3.org/1999/xlink">
    <title>形状@2x</title>
    <g id="Personal-center" stroke="none" stroke-width="1" fill="none" fill-rule="evenodd">
        <g id="History" transform="translate(-1369.000000, -147.000000)" fill="#E5DFF5" fill-rule="nonzero">
            <g id="编组-7" transform="translate(1227.000000, 144.000000)">
                <path d="M153.870801,7.81691073 L149.432663,3.12652807 L149.432663,3.12652807 C149.253626,2.95782398 148.974678,2.95782398 148.795641,3.12652807 L148.795641,3.12652812 C148.700151,3.21760255 148.654569,3.3494403 148.673339,3.48026365 L148.673339,6.00608589 C144.987771,6.00683852 142,8.88639629 142,12.4380516 C142,13.3494851 142.198835,14.2150082 142.553736,15 C143.08046,12.3206415 145.518247,10.2945648 148.451245,10.2945648 L148.673339,10.2945648 L148.673339,12.8068397 L148.673339,12.8068398 C148.654571,12.9378878 148.700134,13.0699494 148.795641,13.161328 L148.799393,13.1643385 L148.799393,13.1643385 C148.971735,13.3394599 149.252974,13.3412815 149.427558,13.1684091 C149.438047,13.1580227 149.448014,13.147119 149.457423,13.1357386 L153.871551,8.47094528 L153.871551,8.47094527 C153.960413,8.38653266 154.007169,8.26680059 153.999105,8.14430438 L153.999105,8.14430441 C154.006468,8.0215483 153.95953,7.90177566 153.870801,7.81691088 L153.870801,7.81691073 Z M149.563218,11.739612 L149.563218,9.4365679 L148.673339,9.4365679 C148.188633,9.4365679 148.074585,9.42377321 147.783461,9.4365679 C145.930172,9.51634655 143.848036,10.8229101 142.889879,12.0090531 C142.904135,10.3976749 144.854965,6.95740864 147.9928,6.86408267 C148.223898,6.85655638 148.450495,6.83548278 148.673339,6.86408267 L149.563968,6.86408267 L149.563968,4.54749124 L152.966666,8.14355162 L149.563218,11.739612 Z" id="形状"></path>
            </g>
        </g>
    </g>
</svg>