<?xml version="1.0" encoding="UTF-8"?>
<svg width="16px" height="16px" viewBox="0 0 16 16" version="1.1" xmlns="http://www.w3.org/2000/svg" xmlns:xlink="http://www.w3.org/1999/xlink">
    <title>火</title>
    <defs>
        <linearGradient x1="50%" y1="0%" x2="72.4875093%" y2="100%" id="linearGradient-1">
            <stop stop-color="#FFE482" offset="0%"></stop>
            <stop stop-color="#F76B1C" offset="100%"></stop>
        </linearGradient>
    </defs>
    <g id="homepage" stroke="none" stroke-width="1" fill="none" fill-rule="evenodd">
        <g transform="translate(-348.000000, -26.000000)" fill-rule="nonzero" id="Homepage/Top-navigation/Not-logged-in">
            <g>
                <g id="编组-2">
                    <g>
                        <g id="火" transform="translate(348.000000, 26.000000)">
                            <rect id="矩形" fill="#000000" opacity="0" x="0" y="0" width="16" height="16"></rect>
                            <path d="M6.16992188,12.9427187 C5.40932813,12.4198125 5.02903125,11.4690781 5.31426563,10.6134062 C5.59948438,9.66267187 6.36007813,9.282375 6.36007813,7.85626562 C6.36007813,7.85626562 7.3108125,8.56932812 7.12067188,9.6626875 C8.07140625,8.56934375 7.64357813,7.14323437 7.4534375,6.47770312 C9.87782813,7.76120312 11.9694531,10.5658906 9.5450625,12.9427344 C9.25984375,13.1804062 9.5450625,13.60825 9.97290625,13.4656406 C16.5805469,9.71021875 11.5891719,4.10084375 10.7335,3.43532812 C11.0187188,4.10084375 11.0662656,5.14665625 10.4958281,5.66957812 C9.49753125,1.91415625 7.07315625,1.1535625 7.07315625,1.1535625 C7.358375,3.10257812 5.9798125,5.19421875 4.69629687,6.81046875 C4.64876563,6.00234375 4.60123437,5.4794375 4.22092188,4.766375 C4.12585938,6.14495312 3.0325,7.28582812 2.74729687,8.7119375 C2.367,10.6134062 3.03251562,11.9919844 5.6470625,13.4656406 C6.21746875,13.6557812 6.40760937,13.1328594 6.16992188,12.9427187 Z" id="路径" fill="url(#linearGradient-1)"></path>
                        </g>
                    </g>
                </g>
            </g>
        </g>
    </g>
</svg>