<?xml version="1.0" encoding="UTF-8"?>
<svg xmlns="http://www.w3.org/2000/svg" xmlns:xlink="http://www.w3.org/1999/xlink" width="16" height="16" viewBox="0 0 16 16">
<defs>
<linearGradient id="linear-pattern-0" gradientUnits="userSpaceOnUse" x1="0.5" y1="0" x2="0.724875" y2="1" gradientTransform="matrix(10.695312, 0, 0, 12.355469, 2.648438, 1.152344)">
<stop offset="0" stop-color="rgb(100%, 89.411765%, 50.980392%)" stop-opacity="1"/>
<stop offset="1" stop-color="rgb(96.862745%, 41.960784%, 10.980392%)" stop-opacity="1"/>
</linearGradient>
</defs>
<path fill-rule="nonzero" fill="url(#linear-pattern-0)" d="M 6.171875 12.941406 C 5.410156 12.417969 5.027344 11.46875 5.3125 10.613281 C 5.597656 9.664062 6.359375 9.28125 6.359375 7.855469 C 6.359375 7.855469 7.3125 8.570312 7.121094 9.664062 C 8.070312 8.570312 7.644531 7.144531 7.453125 6.476562 C 9.878906 7.761719 11.96875 10.566406 9.546875 12.941406 C 9.261719 13.179688 9.546875 13.609375 9.972656 13.464844 C 16.582031 9.710938 11.589844 4.101562 10.734375 3.433594 C 11.019531 4.101562 11.066406 5.148438 10.496094 5.667969 C 9.496094 1.914062 7.074219 1.152344 7.074219 1.152344 C 7.359375 3.101562 5.980469 5.195312 4.695312 6.808594 C 4.648438 6.003906 4.601562 5.480469 4.222656 4.765625 C 4.125 6.144531 3.03125 7.285156 2.746094 8.710938 C 2.367188 10.613281 3.03125 11.992188 5.648438 13.464844 C 6.21875 13.65625 6.40625 13.132812 6.171875 12.941406 Z M 6.171875 12.941406 "/>
</svg>
