<?xml version="1.0" encoding="UTF-8"?>
<svg xmlns="http://www.w3.org/2000/svg" xmlns:xlink="http://www.w3.org/1999/xlink" width="12" height="12" viewBox="0 0 12 12">
<path fill-rule="nonzero" fill="rgb(21.568627%, 20.392157%, 30.588235%)" fill-opacity="0.85" d="M 10.976562 12 L 6.847656 7.871094 C 5.011719 9.175781 2.480469 8.855469 1.023438 7.136719 C -0.429688 5.414062 -0.324219 2.863281 1.269531 1.269531 C 2.863281 -0.324219 5.414062 -0.429688 7.136719 1.023438 C 8.855469 2.480469 9.175781 5.011719 7.871094 6.847656 L 12 10.976562 Z M 4.335938 1.445312 C 2.964844 1.445312 1.78125 2.40625 1.503906 3.75 C 1.226562 5.089844 1.929688 6.445312 3.183594 6.988281 C 4.441406 7.53125 5.910156 7.121094 6.699219 6 C 7.488281 4.878906 7.378906 3.359375 6.441406 2.359375 L 6.878906 2.792969 L 6.378906 2.292969 C 5.839844 1.75 5.101562 1.445312 4.335938 1.445312 Z M 4.335938 1.445312 "/>
</svg>
