<?xml version="1.0" encoding="UTF-8"?>
<svg xmlns="http://www.w3.org/2000/svg" xmlns:xlink="http://www.w3.org/1999/xlink" width="12" height="12" viewBox="0 0 12 12">
<path fill-rule="nonzero" fill="rgb(98.039216%, 97.647059%, 100%)" fill-opacity="1" d="M 3.519531 12 C 2.09375 12 0.8125 11.144531 0.269531 9.828125 C -0.277344 8.515625 0.0234375 7 1.03125 5.996094 L 2.523438 4.503906 L 3.519531 5.496094 L 2.027344 6.988281 C 1.492188 7.523438 1.285156 8.300781 1.480469 9.027344 C 1.675781 9.757812 2.242188 10.324219 2.972656 10.519531 C 3.699219 10.714844 4.476562 10.507812 5.011719 9.972656 L 6.503906 8.480469 L 7.496094 9.476562 L 6.003906 10.96875 C 5.347656 11.632812 4.453125 12.003906 3.519531 12 Z M 4.015625 8.980469 L 3.019531 7.984375 L 7.996094 3.011719 L 8.988281 4.003906 Z M 9.488281 7.488281 L 8.492188 6.492188 L 9.984375 5 C 10.527344 4.46875 10.738281 3.6875 10.546875 2.953125 C 10.351562 2.222656 9.777344 1.648438 9.046875 1.457031 C 8.3125 1.261719 7.53125 1.476562 7 2.015625 L 5.507812 3.507812 L 4.511719 2.511719 L 6.003906 1.019531 C 7.382812 -0.34375 9.601562 -0.339844 10.96875 1.03125 C 12.339844 2.398438 12.34375 4.617188 10.980469 5.996094 Z M 9.488281 7.488281 "/>
</svg>
