<svg width="12" height="12" viewBox="0 0 12 12" fill="none" xmlns="http://www.w3.org/2000/svg">
<path d="M3.51786 12C2.09515 12 0.812511 11.1429 0.267972 9.82857C-0.276567 8.51419 0.0242096 7.00122 1.03007 5.99505L2.52302 4.5021L3.51786 5.49693L2.02561 6.98918C1.49235 7.52244 1.28409 8.29968 1.47928 9.02812C1.67446 9.75656 2.24344 10.3255 2.97188 10.5207C3.70032 10.7159 4.47756 10.5076 5.01082 9.97439L6.50307 8.48214L7.4979 9.47768L6.00565 10.9699C5.34717 11.6317 4.45138 12.0025 3.51786 12ZM4.01528 8.97956L3.02044 7.98472L7.99532 3.00984L8.99016 4.00468L4.01598 8.97886L4.01528 8.97956ZM9.48828 7.48731L8.49274 6.49247L9.98499 5.00022C10.5255 4.46856 10.7393 3.68784 10.5452 2.95495C10.351 2.22207 9.77872 1.64961 9.04588 1.45529C8.31304 1.26096 7.53227 1.47462 7.00048 2.01501L5.50753 3.50726L4.51269 2.51243L6.00565 1.01947C7.38117 -0.344054 9.60012 -0.339194 10.9697 1.03034C12.3392 2.39988 12.3441 4.61883 10.9805 5.99435L9.48828 7.4866V7.48731Z" fill="#FAF9FF"/>
</svg>
