<svg width="12" height="12" viewBox="0 0 12 12" fill="none" xmlns="http://www.w3.org/2000/svg">
<path d="M10.9775 12.0007L6.84784 7.87032C5.01074 9.1764 2.4793 8.85693 1.02429 7.13539C-0.430717 5.41384 -0.323879 2.86456 1.27007 1.27079C2.8636 -0.323671 5.41313 -0.43097 7.13499 1.02396C8.85686 2.47889 9.17651 5.01058 7.87032 6.84784L12 10.9782L10.9782 12L10.9775 12.0007ZM4.33535 1.44565C2.96508 1.44534 1.78289 2.40721 1.50453 3.74891C1.22618 5.09061 1.92815 6.44338 3.18546 6.9882C4.44276 7.53302 5.90983 7.12014 6.69844 5.99954C7.48705 4.87895 7.38045 3.35862 6.44318 2.35903L6.88036 2.79259L6.38754 2.30122L6.37887 2.29255C5.83821 1.74856 5.10232 1.44358 4.33535 1.44565Z" fill="#37344E" fill-opacity="0.85"/>
</svg>
