<?xml version="1.0" encoding="UTF-8"?>
<svg xmlns="http://www.w3.org/2000/svg" xmlns:xlink="http://www.w3.org/1999/xlink" width="24" height="24" viewBox="0 0 24 24">
<path fill-rule="evenodd" fill="rgb(19.215686%, 54.509804%, 96.078431%)" fill-opacity="1" d="M 9.5 4 C 8.671875 4 8 4.671875 8 5.5 C 8 6.328125 8.671875 7 9.5 7 L 11 7 L 11 5.5 C 11 4.671875 10.328125 4 9.5 4 Z M 12 3.050781 C 11.363281 2.402344 10.480469 2 9.5 2 C 7.566406 2 6 3.566406 6 5.5 C 6 6.035156 6.121094 6.546875 6.335938 7 L 6.160156 7 C 5.632812 7 5.179688 7 4.804688 7.03125 C 4.410156 7.0625 4.015625 7.132812 3.636719 7.328125 C 3.074219 7.613281 2.613281 8.074219 2.328125 8.636719 C 2.132812 9.015625 2.0625 9.410156 2.03125 9.804688 C 2 10.179688 2 10.632812 2 11.160156 L 2 16.839844 C 2 17.367188 2 17.820312 2.03125 18.195312 C 2.0625 18.589844 2.132812 18.984375 2.328125 19.363281 C 2.613281 19.925781 3.074219 20.386719 3.636719 20.671875 C 4.015625 20.867188 4.410156 20.9375 4.804688 20.96875 C 5.179688 21 5.632812 21 6.160156 21 L 17.839844 21 C 18.367188 21 18.820312 21 19.195312 20.96875 C 19.589844 20.9375 19.984375 20.867188 20.363281 20.671875 C 20.925781 20.386719 21.386719 19.925781 21.671875 19.363281 C 21.867188 18.984375 21.9375 18.589844 21.96875 18.195312 C 22 17.820312 22 17.367188 22 16.84375 L 22 11.160156 C 22 10.632812 22 10.179688 21.96875 9.804688 C 21.9375 9.410156 21.867188 9.015625 21.671875 8.636719 C 21.386719 8.070312 20.925781 7.613281 20.363281 7.328125 C 19.984375 7.132812 19.589844 7.0625 19.195312 7.03125 C 18.820312 7 18.367188 7 17.839844 7 L 17.664062 7 C 17.878906 6.546875 18 6.035156 18 5.5 C 18 3.566406 16.433594 2 14.5 2 C 13.519531 2 12.636719 2.402344 12 3.050781 Z M 13 5.5 L 13 7 L 14.5 7 C 15.328125 7 16 6.328125 16 5.5 C 16 4.671875 15.328125 4 14.5 4 C 13.671875 4 13 4.671875 13 5.5 Z M 11 9 L 6.199219 9 C 5.625 9 5.25 9 4.96875 9.023438 C 4.695312 9.046875 4.59375 9.082031 4.546875 9.109375 C 4.359375 9.203125 4.203125 9.359375 4.109375 9.546875 C 4.082031 9.59375 4.046875 9.695312 4.023438 9.96875 C 4 10.25 4 10.625 4 11.199219 L 4 13 L 11 13 Z M 13 13 L 13 9 L 17.800781 9 C 18.375 9 18.75 9 19.03125 9.023438 C 19.304688 9.046875 19.402344 9.082031 19.453125 9.109375 C 19.644531 9.207031 19.796875 9.359375 19.890625 9.546875 C 19.917969 9.59375 19.953125 9.695312 19.976562 9.96875 C 20 10.25 20 10.621094 20 11.195312 L 20 13 Z M 11 15 L 4 15 L 4 16.800781 C 4 17.375 4 17.75 4.023438 18.03125 C 4.046875 18.304688 4.082031 18.40625 4.109375 18.453125 C 4.207031 18.644531 4.359375 18.796875 4.546875 18.890625 C 4.59375 18.917969 4.695312 18.953125 4.96875 18.976562 C 5.25 19 5.621094 19 6.195312 19 L 11 19 Z M 13 19 L 13 15 L 20 15 L 20 16.804688 C 20 17.378906 20 17.75 19.976562 18.03125 C 19.953125 18.304688 19.917969 18.40625 19.890625 18.453125 C 19.796875 18.640625 19.640625 18.796875 19.453125 18.890625 C 19.402344 18.917969 19.304688 18.953125 19.03125 18.976562 C 18.75 19 18.378906 19 17.804688 19 Z M 13 19 "/>
</svg>
