<svg width="24" height="24" viewBox="0 0 24 24" fill="none" xmlns="http://www.w3.org/2000/svg">
<g id="Interface / Gift">
<path id="Vector (Stroke)" fill-rule="evenodd" clip-rule="evenodd" d="M9.5 4C8.67158 4 8 4.67157 8 5.5C8 6.32843 8.67158 7 9.5 7H11V5.5C11 4.67157 10.3284 4 9.5 4ZM12 3.05051C11.3647 2.40223 10.4793 2 9.5 2C7.56701 2 6 3.567 6 5.5C6 6.0368 6.12085 6.54537 6.33682 7L6.16167 7C5.6345 6.99998 5.17965 6.99997 4.80499 7.03057C4.40962 7.06286 4.01625 7.13416 3.63781 7.32698C3.07332 7.6146 2.6146 8.07332 2.32698 8.63781C2.13416 9.01624 2.06286 9.40962 2.03057 9.80498C1.99997 10.1796 1.99998 10.6345 2 11.1617V16.8388C1.99998 17.3659 1.99997 17.8206 2.03057 18.1951C2.06288 18.5904 2.13421 18.9835 2.32698 19.3619C2.61431 19.9258 3.07276 20.3853 3.63781 20.6732C4.016 20.8659 4.40906 20.9372 4.80397 20.9695C5.17815 21 5.6323 21 6.15839 21H17.8416C18.3677 21 18.8217 21 19.1957 20.9695C19.5905 20.9372 19.9833 20.8659 20.3614 20.6732C20.9254 20.3859 21.3854 19.9269 21.6732 19.3619C21.8659 18.9838 21.9372 18.591 21.9695 18.1962C22 17.8221 22 17.3682 22 16.8421V11.1584C22 10.6323 22 10.1781 21.9695 9.80396C21.9372 9.40906 21.8659 9.016 21.6732 8.63781C21.3851 8.07224 20.9248 7.61405 20.3614 7.32698C19.9831 7.13424 19.5902 7.06289 19.1949 7.03057C18.8205 6.99997 18.3659 6.99998 17.8388 7L17.6632 7C17.8792 6.54537 18 6.0368 18 5.5C18 3.567 16.433 2 14.5 2C13.5207 2 12.6353 2.40223 12 3.05051ZM13 5.5V7H14.5C15.3284 7 16 6.32843 16 5.5C16 4.67157 15.3284 4 14.5 4C13.6716 4 13 4.67157 13 5.5ZM11 9H6.2002C5.62365 9 5.25126 9.00078 4.9678 9.02393C4.69595 9.04613 4.59517 9.08383 4.54579 9.10899C4.35763 9.20487 4.20487 9.35763 4.109 9.54579C4.08383 9.59517 4.04614 9.69595 4.02393 9.9678C4.00078 10.2513 4 10.6237 4 11.2002V13H11V9ZM13 13V9H17.8002C18.3768 9 18.7488 9.00078 19.0319 9.02392C19.3032 9.0461 19.4039 9.08374 19.4534 9.10899C19.6427 9.20542 19.7959 9.3587 19.8912 9.54579C19.9163 9.595 19.9539 9.69554 19.9761 9.96686C19.9992 10.2498 20 10.6215 20 11.1969V13H13ZM11 15H4V16.8002C4 17.3768 4.00078 17.7489 4.02393 18.0322C4.04612 18.3037 4.08378 18.4044 4.109 18.4539C4.20516 18.6426 4.35819 18.7956 4.54579 18.8912C4.595 18.9163 4.69554 18.9539 4.96686 18.9761C5.2498 18.9992 5.62146 19 6.19691 19H11V15ZM13 19V15H20V16.8036C20 17.379 19.9992 17.7505 19.9761 18.0332C19.954 18.3041 19.9164 18.4046 19.8912 18.4539C19.7956 18.6415 19.6421 18.7951 19.4534 18.8912C19.4041 18.9164 19.3036 18.9539 19.0327 18.9761C18.75 18.9992 18.3786 19 17.8031 19H13Z" fill="#318BF5"/>
</g>
</svg>
