<?xml version="1.0" encoding="UTF-8"?>
<svg xmlns="http://www.w3.org/2000/svg" xmlns:xlink="http://www.w3.org/1999/xlink" width="48" height="48" viewBox="0 0 48 48">
<defs>
<linearGradient id="linear-pattern-0" gradientUnits="userSpaceOnUse" x1="0.94213" y1="0.128825" x2="0" y2="0.341329" gradientTransform="matrix(30.453125, 0, 0, 27.871094, 17.546875, 19.449219)">
<stop offset="0" stop-color="rgb(23.137255%, 11.372549%, 59.607843%)" stop-opacity="0.157124"/>
<stop offset="1" stop-color="rgb(23.137255%, 11.372549%, 59.607843%)" stop-opacity="1"/>
</linearGradient>
</defs>
<path fill-rule="evenodd" fill="rgb(37.254902%, 25.098039%, 74.509804%)" fill-opacity="1" d="M 48 24 C 48 37.253906 37.253906 48 24 48 C 10.746094 48 0 37.253906 0 24 C 0 10.746094 10.746094 0 24 0 C 37.253906 0 48 10.746094 48 24 Z M 48 24 "/>
<path fill-rule="evenodd" fill="rgb(23.137255%, 11.372549%, 59.607843%)" fill-opacity="1" d="M 32 24 C 32 28.417969 28.417969 32 24 32 C 19.582031 32 16 28.417969 16 24 C 16 19.582031 19.582031 16 24 16 C 28.417969 16 32 19.582031 32 24 Z M 32 24 "/>
<path fill-rule="evenodd" fill="url(#linear-pattern-0)" d="M 44.128906 24 L 47.824219 26.863281 C 46.613281 36.90625 39.203125 45.039062 29.527344 47.320312 L 17.546875 28 L 22 24 Z M 47.578125 19.449219 C 47.855469 20.910156 48 22.417969 48 23.960938 C 48 24.574219 47.976562 25.179688 47.933594 25.78125 Z M 47.578125 19.449219 "/>
<path fill-rule="evenodd" fill="rgb(100%, 100%, 100%)" fill-opacity="1" d="M 23.5 24 L 43.5 24 C 44.328125 24 45 24.671875 45 25.5 C 45 26.328125 44.328125 27 43.5 27 L 23.5 27 C 22.671875 27 22 26.328125 22 25.5 C 22 24.671875 22.671875 24 23.5 24 Z M 23.5 24 "/>
<path fill-rule="evenodd" fill="rgb(100%, 100%, 100%)" fill-opacity="1" d="M 26 4.5 C 26 5.328125 25.328125 6 24.5 6 C 23.671875 6 23 5.328125 23 4.5 C 23 3.671875 23.671875 3 24.5 3 C 25.328125 3 26 3.671875 26 4.5 Z M 26 4.5 "/>
<path fill-rule="evenodd" fill="rgb(100%, 100%, 100%)" fill-opacity="1" d="M 26 43.5 C 26 44.328125 25.328125 45 24.5 45 C 23.671875 45 23 44.328125 23 43.5 C 23 42.671875 23.671875 42 24.5 42 C 25.328125 42 26 42.671875 26 43.5 Z M 26 43.5 "/>
<path fill-rule="evenodd" fill="rgb(100%, 100%, 100%)" fill-opacity="1" d="M 41 37.5 C 41 38.328125 40.328125 39 39.5 39 C 38.671875 39 38 38.328125 38 37.5 C 38 36.671875 38.671875 36 39.5 36 C 40.328125 36 41 36.671875 41 37.5 Z M 41 37.5 "/>
<path fill-rule="evenodd" fill="rgb(100%, 100%, 100%)" fill-opacity="1" d="M 12 38.5 C 12 39.328125 11.328125 40 10.5 40 C 9.671875 40 9 39.328125 9 38.5 C 9 37.671875 9.671875 37 10.5 37 C 11.328125 37 12 37.671875 12 38.5 Z M 12 38.5 "/>
<path fill-rule="evenodd" fill="rgb(100%, 100%, 100%)" fill-opacity="1" d="M 6 25.5 C 6 26.328125 5.328125 27 4.5 27 C 3.671875 27 3 26.328125 3 25.5 C 3 24.671875 3.671875 24 4.5 24 C 5.328125 24 6 24.671875 6 25.5 Z M 6 25.5 "/>
<path fill-rule="evenodd" fill="rgb(100%, 100%, 100%)" fill-opacity="1" d="M 11 10.5 C 11 11.328125 10.328125 12 9.5 12 C 8.671875 12 8 11.328125 8 10.5 C 8 9.671875 8.671875 9 9.5 9 C 10.328125 9 11 9.671875 11 10.5 Z M 11 10.5 "/>
</svg>
