<?xml version="1.0" encoding="UTF-8"?>
<svg xmlns="http://www.w3.org/2000/svg" xmlns:xlink="http://www.w3.org/1999/xlink" width="48" height="48" viewBox="0 0 48 48">
<path fill-rule="nonzero" fill="rgb(0%, 34.901961%, 100%)" fill-opacity="1" d="M 40.707031 11.023438 C 40.707031 11.023438 40.695312 11.019531 40.683594 11.007812 L 40.707031 11.023438 C 39.46875 9.414062 37.269531 7.578125 37.269531 7.578125 C 34.746094 5.59375 31.691406 4.152344 28.234375 3.449219 C 22.417969 2.269531 16.820312 3.457031 12.382812 6.402344 C 7.933594 9.328125 4.644531 14.023438 3.453125 19.875 C 2.15625 26.273438 3.707031 32.378906 7.292969 36.972656 C 7.292969 36.972656 7.621094 37.421875 8.261719 38.121094 L 8.265625 38.117188 C 10.765625 35.636719 11.628906 31.976562 10.59375 28.613281 C 9.878906 26.28125 9.738281 23.726562 10.257812 21.167969 C 11.085938 17.105469 13.441406 13.695312 16.671875 11.628906 C 19.523438 9.832031 23.050781 9.078125 26.816406 9.84375 C 34.910156 11.484375 39.300781 19.144531 37.738281 26.832031 C 36.914062 30.894531 34.558594 34.300781 31.324219 36.371094 C 28.472656 38.167969 24.945312 38.921875 21.179688 38.15625 C 20.453125 38.011719 19.757812 37.816406 19.089844 37.574219 C 15.863281 36.410156 12.25 37.226562 9.816406 39.644531 C 10.097656 39.894531 10.402344 40.15625 10.726562 40.421875 C 13.25 42.40625 16.308594 43.847656 19.765625 44.550781 C 25.578125 45.730469 31.179688 44.542969 35.613281 41.597656 C 40.066406 38.671875 43.355469 33.976562 44.546875 28.125 C 45.84375 21.726562 44.292969 15.621094 40.707031 11.027344 Z M 10.730469 40.417969 L 10.816406 40.332031 C 10.816406 40.332031 10.820312 40.335938 10.824219 40.339844 C 10.792969 40.367188 10.761719 40.390625 10.730469 40.417969 Z M 10.730469 40.417969 "/>
</svg>
