<?xml version="1.0" encoding="UTF-8"?>
<svg width="15px" height="16px" viewBox="0 0 15 16" version="1.1" xmlns="http://www.w3.org/2000/svg" xmlns:xlink="http://www.w3.org/1999/xlink">
    <!-- Generator: Sketch 64 (93537) - https://sketch.com -->
    <title>æˆ‘ çš„-01-01@2x</title>
    <desc>Created with Sketch.</desc>
    <g id="ðŸ‘Œç¨¿" stroke="none" stroke-width="1" fill="none" fill-rule="evenodd">
        <g id="ä¸ªäººä¸­å¿ƒ/Dashboard--sub" transform="translate(-998.000000, -26.000000)" fill="#EBEAED" stroke="#EBEAED">
            <g id="å¯¼èˆªæ¡å¤‡ä»½-3">
                <g id="ç¼–ç»„-2" transform="translate(999.000000, 23.000000)">
                    <g id="æˆ‘-çš„-01" transform="translate(0.000000, 3.000000)">
                        <g id="æˆ‘-çš„-01-01">
                            <path d="M6.90808594,9.38284204 L6.90808595,9.38284204 C4.38932868,9.3867415 2.34431762,7.34804892 2.340408,4.82930683 C2.340408,4.8269481 2.340408,4.82458936 2.340408,4.82223063 L2.340408,4.49697786 L2.340408,4.49697845 C2.55289349,2.07632459 4.59497877,0.228431818 7.02476241,0.25808463 L11.4651647,0.25808463 L11.4651647,4.69848693 L11.4651647,4.69848751 C11.4942535,7.12742045 9.64312701,9.16673489 7.2227314,9.37222341 C7.12020604,9.37929413 7.01768038,9.38284204 6.90808498,9.38284204 L6.90808594,9.38284204 Z M7.02475274,1.31868426 L7.02475265,1.31868426 C5.15433163,1.28903798 3.57806895,2.7079732 3.41162127,4.57121191 L3.41162123,4.57121252 C3.27384806,6.49872127 4.7227586,8.17383173 6.65000607,8.31515351 L6.65000605,8.31515351 C6.81717834,8.32576288 6.98485496,8.32576288 7.15202725,8.31515351 L7.15202735,8.3151535 C9.01498959,8.14530152 10.4326128,6.5689644 10.404555,4.69848263 L10.404555,1.31868486 L7.02475274,1.31868426 Z" id="å½¢çŠ¶" stroke-width="0.5" fill-rule="nonzero"></path>
                            <path d="M12.4479969,15.4000347 L1.35758686,15.4000347 L1.35758679,15.4000347 C0.674203397,15.4000347 0.120212301,14.8460268 0.120212301,14.1626434 C0.120212301,14.1626434 0.120212301,14.1626434 0.120212301,14.1626434 L0.120212288,14.1626429 C0.11838062,14.0831411 0.125496079,14.0036859 0.141424531,13.9257743 L0.141424631,13.9257738 C0.853903324,10.1915702 4.4586432,7.74197753 8.19284676,8.45446533 C10.9660987,8.98359486 13.1350378,11.152537 13.6641552,13.925789 L13.6641552,13.925789 C13.7956908,14.5963938 13.3586887,15.2466578 12.688084,15.3781935 C12.6870102,15.3784041 12.6859361,15.3786133 12.6848617,15.3788211 L12.6848618,15.3788211 C12.6067107,15.39305 12.5274284,15.4001498 12.4479932,15.4000347 L12.4479969,15.4000347 Z M6.90456163,9.38991544 L6.90456142,9.38991544 C4.10508985,9.39704892 1.70489825,11.3907663 1.1843486,14.1414292 L1.18434861,14.1414292 C1.17452605,14.1936985 1.18737868,14.2476795 1.21970214,14.2899143 L1.21970213,14.2899143 C1.25462135,14.3296343 1.30470012,14.3527475 1.35758102,14.3535507 L12.4479911,14.3535507 L12.4479911,14.3535507 C12.5475698,14.3535507 12.6282944,14.2728262 12.6282944,14.1732473 C12.6282944,14.1732473 12.6282944,14.1732473 12.6282944,14.1732473 L12.6282944,14.1732473 C12.6300101,14.1627106 12.6300101,14.1519658 12.6282944,14.141429 L12.6282947,14.1414306 C12.1045139,11.3922715 9.70316328,9.40176575 6.90455759,9.39698059 L6.90456163,9.38991544 Z" id="å½¢çŠ¶" stroke-width="0.5" fill-rule="nonzero"></path>
                        </g>
                    </g>
                </g>
            </g>
        </g>
    </g>
</svg>