<?xml version="1.0" encoding="UTF-8"?>
<svg xmlns="http://www.w3.org/2000/svg" xmlns:xlink="http://www.w3.org/1999/xlink" width="16" height="15" viewBox="0 0 16 15">
<path fill-rule="nonzero" fill="rgb(92.156863%, 91.764706%, 92.941176%)" fill-opacity="1" stroke-width="0.5" stroke-linecap="butt" stroke-linejoin="miter" stroke="rgb(92.156863%, 91.764706%, 92.941176%)" stroke-opacity="1" stroke-miterlimit="4" d="M 6.90625 9.382812 C 4.390625 9.386719 2.34375 7.347656 2.339844 4.828125 C 2.339844 4.828125 2.339844 4.824219 2.339844 4.820312 L 2.339844 4.496094 C 2.554688 2.078125 4.59375 0.226562 7.023438 0.257812 L 11.464844 0.257812 L 11.464844 4.699219 C 11.496094 7.128906 9.644531 9.167969 7.222656 9.371094 C 7.121094 9.378906 7.019531 9.382812 6.90625 9.382812 Z M 7.023438 1.320312 C 5.15625 1.289062 3.578125 2.707031 3.410156 4.570312 C 3.273438 6.5 4.722656 8.175781 6.648438 8.316406 C 6.816406 8.324219 6.984375 8.324219 7.152344 8.316406 C 9.015625 8.144531 10.433594 6.570312 10.40625 4.699219 L 10.40625 1.320312 Z M 7.023438 1.320312 " transform="matrix(1, 0, 0, 1, 1, 0)"/>
<path fill-rule="nonzero" fill="rgb(92.156863%, 91.764706%, 92.941176%)" fill-opacity="1" stroke-width="0.5" stroke-linecap="butt" stroke-linejoin="miter" stroke="rgb(92.156863%, 91.764706%, 92.941176%)" stroke-opacity="1" stroke-miterlimit="4" d="M 12.449219 15.398438 L 1.359375 15.398438 C 0.675781 15.398438 0.121094 14.847656 0.121094 14.164062 C 0.117188 14.082031 0.125 14.003906 0.140625 13.925781 C 0.855469 10.191406 4.457031 7.742188 8.191406 8.453125 C 10.964844 8.984375 13.136719 11.152344 13.664062 13.925781 C 13.796875 14.597656 13.359375 15.246094 12.6875 15.378906 C 12.6875 15.378906 12.6875 15.378906 12.683594 15.378906 C 12.605469 15.394531 12.527344 15.398438 12.449219 15.398438 Z M 6.90625 9.390625 C 4.105469 9.398438 1.703125 11.390625 1.183594 14.140625 C 1.175781 14.195312 1.1875 14.246094 1.21875 14.289062 C 1.253906 14.328125 1.304688 14.351562 1.359375 14.355469 L 12.449219 14.355469 C 12.546875 14.355469 12.628906 14.273438 12.628906 14.171875 C 12.628906 14.164062 12.628906 14.152344 12.628906 14.140625 C 12.105469 11.390625 9.703125 9.402344 6.90625 9.398438 Z M 6.90625 9.390625 " transform="matrix(1, 0, 0, 1, 1, 0)"/>
</svg>
