<?xml version="1.0" encoding="UTF-8"?>
<svg xmlns="http://www.w3.org/2000/svg" xmlns:xlink="http://www.w3.org/1999/xlink" width="200" height="200" viewBox="0 0 200 200">
<path fill-rule="nonzero" fill="rgb(0%, 0%, 0%)" fill-opacity="1" d="M 510.542969 958.683594 C 263.453125 958.683594 62.386719 757.617188 62.386719 510.523438 C 62.386719 263.433594 263.453125 62.367188 510.542969 62.367188 C 757.636719 62.367188 958.707031 263.433594 958.707031 510.523438 C 958.707031 757.617188 757.636719 958.683594 510.542969 958.683594 Z M 510.542969 151.996094 C 312.859375 151.996094 152.015625 312.839844 152.015625 510.523438 C 152.015625 708.207031 312.859375 869.050781 510.542969 869.050781 C 708.226562 869.050781 869.070312 708.207031 869.070312 510.523438 C 869.070312 312.839844 708.226562 151.996094 510.542969 151.996094 Z M 415.464844 716.5 L 352.097656 653.128906 L 257.042969 558.070312 L 320.433594 494.679688 L 415.464844 589.734375 L 700.652344 304.550781 L 764.046875 367.945312 Z M 415.464844 716.5 "/>
</svg>
