<svg t="1610016421404" class="icon" viewBox="0 0 1024 1024" version="1.1" xmlns="http://www.w3.org/2000/svg" p-id="938" width="200" height="200"><path d="M510.5423 958.684412c-247.087515 0-448.15695-201.067388-448.15695-448.162066 0-247.088538 201.068412-448.15695 448.15695-448.15695 247.094678 0 448.163089 201.068412 448.163089 448.15695C958.70539 757.617024 757.636978 958.684412 510.5423 958.684412L510.5423 958.684412zM510.5423 151.995763c-197.682291 0-358.52556 160.843268-358.52556 358.526583 0 197.684338 160.843268 358.527606 358.52556 358.527606 197.684338 0 358.526583-160.844292 358.526583-358.527606C869.068883 312.839031 708.226638 151.995763 510.5423 151.995763L510.5423 151.995763zM415.465898 716.498534l-63.367213-63.370283-95.055936-95.057983 63.391772-63.390749 95.031377 95.055936 285.185204-285.184181 63.395866 63.392796L415.465898 716.498534 415.465898 716.498534zM415.465898 716.498534" p-id="939"></path></svg>