<?xml version="1.0" encoding="UTF-8"?>
<svg xmlns="http://www.w3.org/2000/svg" xmlns:xlink="http://www.w3.org/1999/xlink" width="24" height="24" viewBox="0 0 24 24">
<path fill-rule="nonzero" fill="rgb(100%, 74.509804%, 0%)" fill-opacity="1" d="M 23 11.5 C 23 17.851562 17.851562 23 11.5 23 C 5.148438 23 0 17.851562 0 11.5 C 0 5.148438 5.148438 0 11.5 0 C 17.851562 0 23 5.148438 23 11.5 Z M 23 11.5 "/>
<path fill-rule="nonzero" fill="rgb(100%, 100%, 100%)" fill-opacity="1" d="M 11.5 5 C 12.328125 5 13 5.671875 13 6.5 L 13 12.5 C 13 13.328125 12.328125 14 11.5 14 C 10.671875 14 10 13.328125 10 12.5 L 10 6.5 C 10 5.671875 10.671875 5 11.5 5 Z M 11.5 5 "/>
<path fill-rule="nonzero" fill="rgb(100%, 100%, 100%)" fill-opacity="1" d="M 11.5 15 C 12.328125 15 13 15.671875 13 16.5 C 13 17.328125 12.328125 18 11.5 18 C 10.671875 18 10 17.328125 10 16.5 C 10 15.671875 10.671875 15 11.5 15 Z M 11.5 15 "/>
</svg>
