<?xml version="1.0" encoding="UTF-8"?>
<svg xmlns="http://www.w3.org/2000/svg" xmlns:xlink="http://www.w3.org/1999/xlink" width="16" height="17" viewBox="0 0 16 17">
<path fill-rule="nonzero" fill="rgb(80%, 80%, 80%)" fill-opacity="1" d="M 7.683594 0 C 10.382812 0 12.570312 2.1875 12.570312 4.890625 C 12.570312 7.589844 10.382812 9.777344 7.683594 9.777344 C 4.210938 9.777344 1.398438 12.59375 1.398438 16.0625 C 1.398438 16.449219 1.085938 16.761719 0.699219 16.761719 C 0.3125 16.761719 0 16.449219 0 16.0625 C 0 12.804688 2.027344 10.019531 4.894531 8.902344 C 2.675781 7.363281 2.128906 4.316406 3.667969 2.097656 C 4.582031 0.785156 6.082031 0 7.683594 0 Z M 11.871094 9.777344 C 12.257812 9.777344 12.570312 10.089844 12.570312 10.476562 L 12.570312 12.570312 L 14.667969 12.570312 C 15.050781 12.570312 15.363281 12.882812 15.363281 13.269531 C 15.363281 13.65625 15.050781 13.96875 14.667969 13.96875 L 12.570312 13.96875 L 12.570312 16.0625 C 12.570312 16.449219 12.257812 16.761719 11.871094 16.761719 C 11.488281 16.761719 11.175781 16.449219 11.175781 16.0625 L 11.175781 13.96875 L 9.078125 13.96875 C 8.695312 13.96875 8.382812 13.65625 8.382812 13.269531 C 8.382812 12.882812 8.695312 12.570312 9.078125 12.570312 L 11.175781 12.570312 L 11.175781 10.476562 C 11.175781 10.089844 11.488281 9.777344 11.871094 9.777344 Z M 7.683594 1.398438 C 5.753906 1.398438 4.191406 2.960938 4.191406 4.890625 C 4.191406 6.816406 5.753906 8.382812 7.683594 8.382812 C 9.609375 8.382812 11.175781 6.816406 11.175781 4.890625 C 11.175781 2.960938 9.609375 1.398438 7.683594 1.398438 Z M 7.683594 1.398438 "/>
</svg>
