<?xml version="1.0" encoding="UTF-8"?>
<svg width="16px" height="17px" viewBox="0 0 16 17" version="1.1" xmlns="http://www.w3.org/2000/svg" xmlns:xlink="http://www.w3.org/1999/xlink">
    <!-- Generator: Sketch 64 (93537) - https://sketch.com -->
    <title>邀请@2x</title>
    <desc>Created with Sketch.</desc>
    <g id="方案" stroke="none" stroke-width="1" fill="none" fill-rule="evenodd">
        <g id="个人中心/Sub-accountICON" transform="translate(-273.000000, -537.000000)" fill="#FFFFFF" fill-rule="nonzero">
            <g id="邀请" transform="translate(273.000000, 537.000000)">
                <path d="M7.68254984,0 L7.68254998,0 C10.3826112,0 12.5713191,2.18912391 12.5711554,4.88918509 C12.5709991,7.58903347 10.382382,9.77764316 7.68254998,9.77779048 L7.68254971,9.77779048 C4.21104715,9.77779063 1.39682811,12.5920095 1.39682811,16.0635121 C1.39682811,16.0635121 1.39682811,16.0635121 1.39682811,16.0635121 L1.39682811,16.0634052 C1.39682811,16.4491275 1.08413802,16.7618192 0.698414057,16.7618192 C0.312775215,16.7618192 0,16.4492584 0,16.0636196 C0,12.8048167 2.02889671,10.0195545 4.89309052,8.90347882 L4.89309093,8.90347911 C2.67590085,7.36257866 2.1276517,4.31603181 3.66855052,2.09884173 C4.58219489,0.784202698 6.08161285,0.000180059733 7.68255668,0 L7.68254984,0 Z M11.8730309,9.77779037 L11.8730309,9.77779037 C12.2587532,9.77779037 12.5714449,10.0904806 12.5714449,10.4762045 L12.5714449,12.5714451 L14.6666855,12.5714451 L14.6666855,12.5714451 C15.0524078,12.5715041 15.3649915,12.8842432 15.3649915,13.2699655 C15.3649915,13.6556044 15.0523243,13.9682126 14.6666855,13.9682715 L12.571445,13.9682715 L12.571445,16.0635121 L12.571445,16.0635121 C12.571445,16.4492344 12.2587549,16.7619261 11.8730309,16.7619261 C11.4873086,16.7619261 11.1746169,16.449236 11.1746169,16.0635121 L11.1746169,13.9682715 L9.07937632,13.9682715 L9.07937631,13.9682715 C8.69365399,13.9682125 8.38107029,13.6554751 8.38107029,13.2697511 C8.38107029,12.8841122 8.69373747,12.571504 9.07937631,12.5714451 L11.1746168,12.5714451 L11.1746168,10.4762045 L11.1746168,10.4762044 C11.1746169,10.0904821 11.4873069,9.77779037 11.8730309,9.77779037 L11.8730309,9.77779037 Z M7.68254984,1.39682835 L7.68254969,1.39682835 C5.75392989,1.39682835 4.19048759,2.96028046 4.19048759,4.88889045 C4.19048759,6.81751025 5.75393971,8.38095255 7.68254969,8.38095255 L7.68254954,8.38095255 C9.61116934,8.38095255 11.1746116,6.81750043 11.1746116,4.88889045 C11.1746116,2.96027064 9.61115952,1.39682835 7.68254954,1.39682835 L7.68254984,1.39682835 Z" id="形状"></path>
            </g>
        </g>
    </g>
</svg>