<?xml version="1.0" encoding="UTF-8"?>
<svg width="18px" height="16px" viewBox="0 0 18 16" version="1.1" xmlns="http://www.w3.org/2000/svg" xmlns:xlink="http://www.w3.org/1999/xlink">
    <!-- Generator: Sketch 64 (93537) - https://sketch.com -->
    <title>编组备份 2@2x</title>
    <desc>Created with Sketch.</desc>
    <defs>
        <polygon id="path-1" points="9e-05 0.800322222 17.5194 0.800322222 17.5194 14.97428 9e-05 14.97428"></polygon>
        <polygon id="path-3" points="0.28854 0.1283925 16.54614 0.1283925 16.54614 14.3555556 0.28854 14.3555556"></polygon>
    </defs>
    <g id="Personal-center" stroke="none" stroke-width="1" fill="none" fill-rule="evenodd">
        <g id="Wallet-mmanagement/Balance-数据隐藏" transform="translate(-396.000000, -200.000000)">
            <g id="编组备份-2" transform="translate(396.000000, 200.000000)">
                <g id="编组" transform="translate(0.000000, 0.096721)">
                    <mask id="mask-2" fill="white">
                        <use xlink:href="#path-1"></use>
                    </mask>
                    <g id="Clip-2"></g>
                    <path d="M15.31449,4.62033556 L12.74949,6.80058556 L12.74949,6.80866056 C12.92049,7.25727167 13.01949,7.73369667 13.01949,8.24511333 C13.01949,10.4782994 11.20239,12.2826133 8.96949,12.2826133 C8.24139,12.2826133 7.54749,12.0941967 6.96249,11.7433828 L4.68549,13.690355 C5.84649,14.4538911 7.26939,14.97428 8.96949,14.97428 C15.08049,14.97428 17.51949,8.24511333 17.51949,8.24511333 C17.51949,8.24511333 16.84449,6.38786333 15.31449,4.62033556 M8.55009,0.799963333 C2.43909,0.799963333 9e-05,7.52913 9e-05,7.52913 C9e-05,7.52913 0.68409,9.39535222 2.21409,11.1727494 L4.77009,8.99249944 C4.59909,8.54388833 4.50009,8.04951889 4.50009,7.52913 C4.50009,5.30491611 6.31809,3.49163 8.55009,3.49163 C9.28809,3.49163 9.98109,3.68991611 10.57509,4.03983278 L12.85209,2.10093556 C11.69109,1.33022167 10.26909,0.799963333 8.55009,0.799963333" id="Fill-1" fill-opacity="0.6" fill="#E5DFF5" mask="url(#mask-2)"></path>
                </g>
                <path d="M8.84484,5.62477583 L6.10884,7.95755361 C6.09984,7.9126925 6.09984,7.85885917 6.09984,7.80502583 C6.09984,6.56685917 7.10784,5.56197028 8.34984,5.56197028 C8.52084,5.56197028 8.68284,5.57991472 8.84484,5.62477583" id="Fill-3" fill-opacity="0.6" fill="#E5DFF5"></path>
                <path d="M11.23983,8.36112417 C11.23983,9.59929083 10.23183,10.6041797 8.98983,10.6041797 C8.82693,10.6041797 8.67393,10.5862353 8.52093,10.5503464 L11.22993,8.23551306 C11.23983,8.27140194 11.23983,8.31626306 11.23983,8.36112417" id="Fill-5" fill-opacity="0.6" fill="#E5DFF5"></path>
                <line x1="15.17562" y1="2.38723917" x2="1.45602" y2="14.0843253" id="Fill-7" fill-opacity="0.6" fill="#E5DFF5"></line>
                <g id="编组" transform="translate(0.000000, 0.993943)">
                    <mask id="mask-4" fill="white">
                        <use xlink:href="#path-3"></use>
                    </mask>
                    <g id="Clip-10"></g>
                    <polygon id="Fill-9" fill-opacity="0.6" fill="#E5DFF5" mask="url(#mask-4)" points="1.45854 14.3556453 0.28854 12.9909703 15.37614 0.1283925 16.54614 1.49217028"></polygon>
                </g>
            </g>
        </g>
    </g>
</svg>