<?xml version="1.0" encoding="UTF-8"?>
<svg xmlns="http://www.w3.org/2000/svg" xmlns:xlink="http://www.w3.org/1999/xlink" width="22" height="18" viewBox="0 0 22 18">
<path fill-rule="evenodd" fill="rgb(19.215686%, 54.509804%, 96.078431%)" fill-opacity="1" d="M 17.5 2 L 4.5 2 C 3.394531 2 2.5 2.894531 2.5 4 L 2.5 14 C 2.5 15.105469 3.394531 16 4.5 16 L 17.5 16 C 18.605469 16 19.5 15.105469 19.5 14 L 19.5 4 C 19.5 2.894531 18.605469 2 17.5 2 Z M 4.5 0 C 2.289062 0 0.5 1.789062 0.5 4 L 0.5 14 C 0.5 16.210938 2.289062 18 4.5 18 L 17.5 18 C 19.710938 18 21.5 16.210938 21.5 14 L 21.5 4 C 21.5 1.789062 19.710938 0 17.5 0 Z M 8.5 5.5 C 7.949219 5.5 7.5 5.949219 7.5 6.5 C 7.5 7.050781 7.949219 7.5 8.5 7.5 C 9.050781 7.5 9.5 7.050781 9.5 6.5 C 9.5 5.949219 9.050781 5.5 8.5 5.5 Z M 5.5 6.5 C 5.5 4.84375 6.84375 3.5 8.5 3.5 C 10.15625 3.5 11.5 4.84375 11.5 6.5 C 11.5 7.457031 11.054688 8.308594 10.355469 8.855469 C 12.199219 9.59375 13.5 11.394531 13.5 13.5 C 13.5 14.050781 13.050781 14.5 12.5 14.5 C 11.949219 14.5 11.5 14.050781 11.5 13.5 C 11.5 11.84375 10.15625 10.5 8.5 10.5 C 6.84375 10.5 5.5 11.84375 5.5 13.5 C 5.5 14.050781 5.050781 14.5 4.5 14.5 C 3.949219 14.5 3.5 14.050781 3.5 13.5 C 3.5 11.394531 4.800781 9.59375 6.644531 8.855469 C 5.945312 8.308594 5.5 7.457031 5.5 6.5 Z M 13 7 C 13 6.449219 13.449219 6 14 6 L 17 6 C 17.550781 6 18 6.449219 18 7 C 18 7.550781 17.550781 8 17 8 L 14 8 C 13.449219 8 13 7.550781 13 7 Z M 15 10 C 14.449219 10 14 10.449219 14 11 C 14 11.550781 14.449219 12 15 12 L 17 12 C 17.550781 12 18 11.550781 18 11 C 18 10.449219 17.550781 10 17 10 Z M 15 10 "/>
</svg>
