<svg width="107" height="104" viewBox="0 0 107 104" fill="none" xmlns="http://www.w3.org/2000/svg">
<circle cx="52" cy="53" r="48" fill="#30305D"/>
<g filter="url(#filter0_d_17_2741)">
<mask id="mask0_17_2741" style="mask-type:alpha" maskUnits="userSpaceOnUse" x="4" y="5" width="96" height="96">
<circle cx="52" cy="53" r="48" fill="#30305D"/>
</mask>
<g mask="url(#mask0_17_2741)">
<rect x="25" y="35" width="55" height="36" rx="4" fill="url(#paint0_linear_17_2741)"/>
<rect x="31" y="47" width="17" height="4" rx="2" fill="#30305D"/>
<rect x="31" y="56" width="24" height="4" rx="2" fill="#30305D"/>
<circle cx="66" cy="48" r="6" fill="#30305D"/>
<path d="M66 54C61.0294 54 57 58.0294 57 63H75C75 58.0294 70.9706 54 66 54Z" fill="#30305D"/>
<rect x="-37" y="35" width="55" height="36" rx="4" fill="url(#paint1_linear_17_2741)" fill-opacity="0.5"/>
<circle cx="4" cy="48" r="6" fill="#30305D"/>
<path d="M4 54C-0.970563 54 -5 58.0294 -5 63H13C13 58.0294 8.97056 54 4 54Z" fill="#30305D"/>
<g opacity="0.5">
<rect x="87" y="35" width="55" height="36" rx="4" fill="url(#paint2_linear_17_2741)"/>
<rect x="93" y="47" width="17" height="4" rx="2" fill="#30305D"/>
<rect x="93" y="56" width="24" height="4" rx="2" fill="#30305D"/>
</g>
</g>
</g>
<circle cx="88" cy="21" r="18" fill="url(#paint3_linear_17_2741)"/>
<rect x="95.9723" y="26.1846" width="3.942" height="18.6457" rx="1.314" transform="rotate(135 95.9723 26.1846)" fill="white"/>
<rect x="82.7876" y="28.9719" width="3.942" height="18.6457" rx="1.314" transform="rotate(-135 82.7876 28.9719)" fill="white"/>
<defs>
<filter id="filter0_d_17_2741" x="0" y="35" width="104" height="44" filterUnits="userSpaceOnUse" color-interpolation-filters="sRGB">
<feFlood flood-opacity="0" result="BackgroundImageFix"/>
<feColorMatrix in="SourceAlpha" type="matrix" values="0 0 0 0 0 0 0 0 0 0 0 0 0 0 0 0 0 0 127 0" result="hardAlpha"/>
<feOffset dy="4"/>
<feGaussianBlur stdDeviation="2"/>
<feColorMatrix type="matrix" values="0 0 0 0 0 0 0 0 0 0 0 0 0 0 0 0 0 0 0.25 0"/>
<feBlend mode="normal" in2="BackgroundImageFix" result="effect1_dropShadow_17_2741"/>
<feBlend mode="normal" in="SourceGraphic" in2="effect1_dropShadow_17_2741" result="shape"/>
</filter>
<linearGradient id="paint0_linear_17_2741" x1="52.5" y1="35" x2="53" y2="86" gradientUnits="userSpaceOnUse">
<stop stop-color="#4C4C86"/>
<stop offset="1" stop-color="#4C4C86" stop-opacity="0"/>
</linearGradient>
<linearGradient id="paint1_linear_17_2741" x1="-9.5" y1="35" x2="-9" y2="79.5" gradientUnits="userSpaceOnUse">
<stop stop-color="#4C4C86"/>
<stop offset="1" stop-color="#4C4C86" stop-opacity="0"/>
</linearGradient>
<linearGradient id="paint2_linear_17_2741" x1="114.5" y1="35" x2="117" y2="91.5" gradientUnits="userSpaceOnUse">
<stop stop-color="#4C4C86"/>
<stop offset="1" stop-color="#4C4C86" stop-opacity="0"/>
</linearGradient>
<linearGradient id="paint3_linear_17_2741" x1="88" y1="3" x2="88" y2="39" gradientUnits="userSpaceOnUse">
<stop stop-color="#FE8E95"/>
<stop offset="1" stop-color="#CD414A"/>
</linearGradient>
</defs>
</svg>
