<svg width="22" height="18" viewBox="0 0 22 18" fill="none" xmlns="http://www.w3.org/2000/svg">
<path fill-rule="evenodd" clip-rule="evenodd" d="M17.5 2H4.5C3.39543 2 2.5 2.89543 2.5 4V14C2.5 15.1046 3.39543 16 4.5 16H17.5C18.6046 16 19.5 15.1046 19.5 14V4C19.5 2.89543 18.6046 2 17.5 2ZM4.5 0C2.29086 0 0.5 1.79086 0.5 4V14C0.5 16.2091 2.29086 18 4.5 18H17.5C19.7091 18 21.5 16.2091 21.5 14V4C21.5 1.79086 19.7091 0 17.5 0H4.5ZM8.5 5.5C7.94772 5.5 7.5 5.94772 7.5 6.5C7.5 7.05228 7.94772 7.5 8.5 7.5C9.05228 7.5 9.5 7.05228 9.5 6.5C9.5 5.94772 9.05228 5.5 8.5 5.5ZM5.5 6.5C5.5 4.84315 6.84315 3.5 8.5 3.5C10.1569 3.5 11.5 4.84315 11.5 6.5C11.5 7.45561 11.0532 8.30686 10.3571 8.85625C12.199 9.5935 13.5 11.3948 13.5 13.5C13.5 14.0523 13.0523 14.5 12.5 14.5C11.9477 14.5 11.5 14.0523 11.5 13.5C11.5 11.8431 10.1569 10.5 8.5 10.5C6.84315 10.5 5.5 11.8431 5.5 13.5C5.5 14.0523 5.05228 14.5 4.5 14.5C3.94772 14.5 3.5 14.0523 3.5 13.5C3.5 11.3948 4.80103 9.5935 6.64289 8.85625C5.9468 8.30686 5.5 7.45561 5.5 6.5ZM13 7C13 6.44772 13.4477 6 14 6H17C17.5523 6 18 6.44772 18 7C18 7.55228 17.5523 8 17 8H14C13.4477 8 13 7.55228 13 7ZM15 10C14.4477 10 14 10.4477 14 11C14 11.5523 14.4477 12 15 12H17C17.5523 12 18 11.5523 18 11C18 10.4477 17.5523 10 17 10H15Z" fill="#A9B1B8"/>
</svg>
