<svg width="20" height="20" viewBox="0 0 20 20" fill="none" xmlns="http://www.w3.org/2000/svg">
<path fill-rule="evenodd" clip-rule="evenodd" d="M10.0002 19.1668C15.0628 19.1668 19.1668 15.0628 19.1668 10.0002C19.1668 4.93755 15.0628 0.833496 10.0002 0.833496C4.93755 0.833496 0.833496 4.93755 0.833496 10.0002C0.833496 15.0628 4.93755 19.1668 10.0002 19.1668ZM11.5424 7.64067C12.1532 7.0126 12.9688 6.66664 13.8394 6.66664H13.839C14.7066 6.66664 15.5255 7.0126 16.1361 7.64032C16.4389 7.94701 16.679 8.31431 16.8417 8.72008C17.0045 9.12585 17.0866 9.5617 17.0832 10.0014C17.0843 10.441 17.0002 10.8764 16.836 11.2815C16.6718 11.6867 16.4307 12.0532 16.1273 12.3593C15.5161 12.9873 14.7005 13.3333 13.8303 13.3333C12.9712 13.3356 12.1458 12.9856 11.5329 12.3593L7.69953 8.43505C7.28702 8.0154 6.74329 7.78453 6.16314 7.78453C5.58862 7.78236 5.0365 8.01614 4.62674 8.43505C4.22029 8.85154 3.9943 9.40593 3.9943 9.9954C3.99357 10.2877 4.04916 10.5772 4.15778 10.8467C4.26641 11.1163 4.42587 11.3605 4.62674 11.5649C5.03658 11.9839 5.58884 12.2176 6.16347 12.2154C6.73799 12.2176 7.29011 11.9838 7.69987 11.5649L8.64667 10.607C8.66958 10.5838 8.70025 10.5709 8.73217 10.5709C8.7641 10.5709 8.79477 10.5838 8.81768 10.607L9.41031 11.2126C9.4219 11.2245 9.43109 11.2387 9.43737 11.2544C9.44364 11.2701 9.44688 11.2868 9.44688 11.3038C9.44688 11.3208 9.44364 11.3376 9.43737 11.3532C9.43109 11.3689 9.4219 11.3831 9.41031 11.395L8.46351 12.3564C7.85267 12.9842 7.03674 13.3301 6.16651 13.3301C5.29898 13.3301 4.48035 12.9845 3.8695 12.3564C3.56729 12.0496 3.32727 11.6828 3.16361 11.2778C2.99995 10.8729 2.91597 10.4379 2.91663 9.99856C2.91566 9.5592 2.9995 9.12411 3.16318 8.71908C3.32686 8.31405 3.56705 7.94734 3.8695 7.64067C4.48035 7.0126 5.29628 6.66664 6.16651 6.66664C7.02552 6.66445 7.85077 7.0144 8.46351 7.64067L12.3 11.5621C12.7098 11.9808 13.2619 12.2145 13.8363 12.2122C14.4108 12.2145 14.9629 11.9808 15.3727 11.5621C15.7789 11.1487 16.0048 10.5912 16.0048 10.0017C16.0057 9.70939 15.9502 9.41986 15.8416 9.15023C15.733 8.8806 15.5736 8.63634 15.3727 8.43189C14.9602 8.01225 14.4165 7.78172 13.8363 7.78172C13.2619 7.77946 12.7098 8.01311 12.3 8.43189L11.3532 9.3961C11.3302 9.41923 11.2996 9.43217 11.2676 9.43217C11.2357 9.43217 11.2051 9.41923 11.1821 9.3961L10.5895 8.78452C10.5779 8.77258 10.5687 8.75837 10.5625 8.74272C10.5562 8.72706 10.5529 8.71026 10.5529 8.6933C10.5529 8.67633 10.5562 8.65954 10.5625 8.64388C10.5687 8.62822 10.5779 8.61401 10.5895 8.60207L11.5424 7.64067Z" fill="#70757A"/>
</svg>
