<?xml version="1.0" encoding="UTF-8"?>
<svg xmlns="http://www.w3.org/2000/svg" xmlns:xlink="http://www.w3.org/1999/xlink" width="20" height="20" viewBox="0 0 20 20">
<path fill-rule="evenodd" fill="rgb(43.921569%, 45.882353%, 47.843137%)" fill-opacity="1" d="M 10 19.167969 C 15.0625 19.167969 19.167969 15.0625 19.167969 10 C 19.167969 4.9375 15.0625 0.832031 10 0.832031 C 4.9375 0.832031 0.832031 4.9375 0.832031 10 C 0.832031 15.0625 4.9375 19.167969 10 19.167969 Z M 11.542969 7.640625 C 12.152344 7.011719 12.96875 6.667969 13.839844 6.667969 C 14.707031 6.667969 15.527344 7.011719 16.136719 7.640625 C 16.4375 7.945312 16.679688 8.3125 16.839844 8.71875 C 17.003906 9.125 17.085938 9.5625 17.082031 10 C 17.085938 10.441406 17 10.875 16.835938 11.28125 C 16.671875 11.6875 16.429688 12.054688 16.128906 12.359375 C 15.515625 12.988281 14.699219 13.332031 13.832031 13.332031 C 12.972656 13.335938 12.144531 12.984375 11.53125 12.359375 L 7.699219 8.433594 C 7.285156 8.015625 6.742188 7.785156 6.164062 7.785156 C 5.589844 7.78125 5.035156 8.015625 4.625 8.433594 C 4.21875 8.851562 3.996094 9.40625 3.996094 9.996094 C 3.992188 10.289062 4.050781 10.578125 4.15625 10.847656 C 4.265625 11.117188 4.425781 11.359375 4.625 11.566406 C 5.035156 11.984375 5.589844 12.21875 6.164062 12.214844 C 6.738281 12.21875 7.289062 11.984375 7.699219 11.566406 L 8.648438 10.605469 C 8.667969 10.582031 8.699219 10.570312 8.730469 10.570312 C 8.765625 10.570312 8.792969 10.582031 8.816406 10.605469 L 9.410156 11.210938 C 9.421875 11.222656 9.429688 11.238281 9.4375 11.253906 C 9.445312 11.269531 9.445312 11.285156 9.445312 11.304688 C 9.445312 11.320312 9.445312 11.335938 9.4375 11.351562 C 9.429688 11.367188 9.421875 11.382812 9.410156 11.394531 L 8.464844 12.355469 C 7.851562 12.984375 7.035156 13.332031 6.167969 13.332031 C 5.300781 13.332031 4.480469 12.984375 3.871094 12.355469 C 3.566406 12.050781 3.328125 11.683594 3.164062 11.277344 C 3 10.871094 2.914062 10.4375 2.917969 10 C 2.914062 9.558594 3 9.125 3.164062 8.71875 C 3.328125 8.3125 3.566406 7.949219 3.871094 7.640625 C 4.480469 7.011719 5.296875 6.667969 6.167969 6.667969 C 7.027344 6.664062 7.851562 7.015625 8.464844 7.640625 L 12.300781 11.5625 C 12.710938 11.980469 13.261719 12.214844 13.835938 12.210938 C 14.410156 12.214844 14.964844 11.980469 15.371094 11.5625 C 15.777344 11.148438 16.003906 10.589844 16.003906 10 C 16.003906 9.710938 15.949219 9.417969 15.839844 9.148438 C 15.734375 8.878906 15.574219 8.636719 15.371094 8.433594 C 14.960938 8.011719 14.417969 7.78125 13.835938 7.78125 C 13.261719 7.78125 12.710938 8.011719 12.300781 8.433594 L 11.351562 9.394531 C 11.332031 9.417969 11.300781 9.433594 11.269531 9.433594 C 11.234375 9.433594 11.207031 9.417969 11.183594 9.394531 L 10.589844 8.785156 C 10.578125 8.773438 10.570312 8.757812 10.5625 8.742188 C 10.554688 8.726562 10.554688 8.710938 10.554688 8.691406 C 10.554688 8.675781 10.554688 8.660156 10.5625 8.644531 C 10.570312 8.628906 10.578125 8.613281 10.589844 8.601562 Z M 11.542969 7.640625 "/>
</svg>
