<svg width="20" height="20" viewBox="0 0 20 20" fill="none" xmlns="http://www.w3.org/2000/svg">
<path d="M2.33972 11.1786C1.68884 10.5277 1.68884 9.4724 2.33972 8.82153L3.75006 7.41119V5.41673C3.75006 4.49625 4.49625 3.75006 5.41673 3.75006H7.41119L8.82153 2.33972C9.4724 1.68884 10.5277 1.68884 11.1786 2.33972L12.5889 3.75006H14.5834C15.5039 3.75006 16.2501 4.49625 16.2501 5.41673V7.41123L17.6604 8.82153C18.3112 9.4724 18.3112 10.5277 17.6604 11.1786L16.2501 12.5889V14.5834C16.2501 15.5039 15.5039 16.2501 14.5834 16.2501H12.5889L11.1786 17.6604C10.5277 18.3112 9.4724 18.3112 8.82153 17.6604L7.41123 16.2501H5.41673C4.49625 16.2501 3.75006 15.5039 3.75006 14.5834V12.5889L2.33972 11.1786Z" fill="#06B196"/>
<path fill-rule="evenodd" clip-rule="evenodd" d="M13.4853 7.30738C13.8217 7.6214 13.8399 8.14873 13.5259 8.48519L9.63699 12.6519C9.47939 12.8207 9.25877 12.9166 9.02778 12.9166C8.7968 12.9166 8.57617 12.8207 8.41857 12.6519L6.47412 10.5685C6.1601 10.2321 6.17828 9.70474 6.51474 9.39071C6.8512 9.07668 7.37852 9.09486 7.69255 9.43132L9.02778 10.8619L12.3075 7.34799C12.6215 7.01153 13.1488 6.99335 13.4853 7.30738Z" fill="white"/>
</svg>
