<?xml version="1.0" encoding="UTF-8"?>
<svg xmlns="http://www.w3.org/2000/svg" xmlns:xlink="http://www.w3.org/1999/xlink" width="20" height="20" viewBox="0 0 20 20">
<path fill-rule="nonzero" fill="rgb(2.352941%, 69.411765%, 58.823529%)" fill-opacity="1" d="M 2.339844 11.179688 C 1.6875 10.527344 1.6875 9.472656 2.339844 8.820312 L 3.75 7.410156 L 3.75 5.417969 C 3.75 4.496094 4.496094 3.75 5.417969 3.75 L 7.410156 3.75 L 8.820312 2.339844 C 9.472656 1.6875 10.527344 1.6875 11.179688 2.339844 L 12.589844 3.75 L 14.582031 3.75 C 15.503906 3.75 16.25 4.496094 16.25 5.417969 L 16.25 7.410156 L 17.660156 8.820312 C 18.3125 9.472656 18.3125 10.527344 17.660156 11.179688 L 16.25 12.589844 L 16.25 14.582031 C 16.25 15.503906 15.503906 16.25 14.582031 16.25 L 12.589844 16.25 L 11.179688 17.660156 C 10.527344 18.3125 9.472656 18.3125 8.820312 17.660156 L 7.410156 16.25 L 5.417969 16.25 C 4.496094 16.25 3.75 15.503906 3.75 14.582031 L 3.75 12.589844 Z M 2.339844 11.179688 "/>
<path fill-rule="evenodd" fill="rgb(100%, 100%, 100%)" fill-opacity="1" d="M 13.484375 7.308594 C 13.820312 7.621094 13.839844 8.148438 13.527344 8.484375 L 9.636719 12.652344 C 9.480469 12.820312 9.257812 12.917969 9.027344 12.917969 C 8.796875 12.917969 8.574219 12.820312 8.417969 12.652344 L 6.472656 10.570312 C 6.160156 10.230469 6.179688 9.703125 6.515625 9.390625 C 6.851562 9.078125 7.378906 9.09375 7.691406 9.429688 L 9.027344 10.863281 L 12.308594 7.347656 C 12.621094 7.011719 13.148438 6.992188 13.484375 7.308594 Z M 13.484375 7.308594 "/>
</svg>
