<?xml version="1.0" encoding="UTF-8"?>
<svg xmlns="http://www.w3.org/2000/svg" xmlns:xlink="http://www.w3.org/1999/xlink" width="16" height="16" viewBox="0 0 16 16">
<path fill-rule="evenodd" fill="rgb(89.803922%, 87.45098%, 96.078431%)" fill-opacity="0.6" d="M 0 7.921875 C 0 7.921875 2.144531 2 7.5 2 C 12.855469 2 15 7.921875 15 7.921875 C 15 7.921875 12.855469 13.84375 7.5 13.84375 C 2.144531 13.84375 0 7.921875 0 7.921875 Z M 3.949219 7.921875 C 3.949219 9.882812 5.539062 11.472656 7.5 11.472656 C 9.460938 11.472656 11.050781 9.882812 11.050781 7.921875 C 11.050781 5.957031 9.460938 4.367188 7.5 4.367188 C 5.539062 4.367188 3.949219 5.957031 3.949219 7.921875 Z M 3.949219 7.921875 "/>
<path fill-rule="nonzero" fill="rgb(89.803922%, 87.45098%, 96.078431%)" fill-opacity="0.6" d="M 9.472656 7.921875 C 9.472656 9.011719 8.589844 9.894531 7.5 9.894531 C 6.410156 9.894531 5.527344 9.011719 5.527344 7.921875 C 5.527344 6.832031 6.410156 5.949219 7.5 5.949219 C 8.589844 5.949219 9.472656 6.832031 9.472656 7.921875 Z M 9.472656 7.921875 "/>
</svg>
