<svg width="16" height="16" viewBox="0 0 16 16" fill="none" xmlns="http://www.w3.org/2000/svg">
<path fill-rule="evenodd" clip-rule="evenodd" d="M0 7.92105C0 7.92105 2.14286 2 7.5 2C12.8571 2 15 7.92105 15 7.92105C15 7.92105 12.8571 13.8421 7.5 13.8421C2.14286 13.8421 0 7.92105 0 7.92105ZM3.94737 7.92101C3.94737 9.88421 5.53865 11.4736 7.5 11.4736C9.46135 11.4736 11.0526 9.88421 11.0526 7.92101C11.0526 5.95781 9.46135 4.36838 7.5 4.36838C5.53865 4.36838 3.94737 5.95781 3.94737 7.92101Z" fill="#E5DFF5" fill-opacity="0.6"/>
<path d="M9.47369 7.92095C9.47369 9.01059 8.58964 9.89463 7.50001 9.89463C6.41037 9.89463 5.52632 9.01059 5.52632 7.92095C5.52632 6.83131 6.41037 5.94727 7.50001 5.94727C8.58964 5.94727 9.47369 6.83131 9.47369 7.92095Z" fill="#E5DFF5" fill-opacity="0.6"/>
</svg>
