<?xml version="1.0" encoding="UTF-8"?>
<svg xmlns="http://www.w3.org/2000/svg" xmlns:xlink="http://www.w3.org/1999/xlink" width="26" height="120" viewBox="0 0 26 120">
<path fill-rule="evenodd" fill="rgb(92.156863%, 91.764706%, 92.941176%)" fill-opacity="1" d="M 0.195312 10.636719 C -1.019531 17.632812 3.53125 24.308594 10.238281 25.804688 C 10.359375 25.832031 10.480469 25.855469 10.601562 25.878906 C 11.617188 26.066406 12.234375 24.964844 11.652344 24.113281 L 9.535156 21.15625 C 5.683594 19.617188 3.300781 15.550781 4.035156 11.300781 C 4.71875 7.359375 8.285156 5.136719 9.980469 4.515625 L 14.796875 11.351562 C 15.242188 11.988281 15.355469 12.757812 15.171875 13.457031 C 15.019531 14.226562 14.519531 14.839844 13.871094 15.175781 C 13.464844 15.6875 13.421875 16.421875 13.816406 16.980469 L 13.996094 17.238281 C 14.578125 18.058594 15.714844 18.257812 16.535156 17.679688 L 16.84375 17.464844 C 19.320312 15.71875 19.914062 12.292969 18.167969 9.8125 L 11.304688 0.0664062 C 5.820312 0.734375 1.503906 4.972656 0.195312 10.636719 Z M 0.195312 10.636719 "/>
<path fill-rule="evenodd" fill="rgb(92.156863%, 91.764706%, 92.941176%)" fill-opacity="1" d="M 25.453125 15.265625 C 26.667969 8.265625 22.121094 1.589844 15.414062 0.0976562 C 15.289062 0.0703125 15.167969 0.0429688 15.046875 0.0234375 C 14.035156 -0.167969 13.417969 0.933594 14 1.785156 L 16.117188 4.742188 C 19.964844 6.28125 22.351562 10.351562 21.613281 14.597656 C 20.929688 18.539062 17.363281 20.765625 15.667969 21.382812 L 10.945312 14.679688 C 10.421875 14.128906 10.15625 13.347656 10.296875 12.542969 C 10.449219 11.65625 11.054688 10.964844 11.832031 10.65625 C 12.1875 10.152344 12.210938 9.453125 11.832031 8.917969 L 11.652344 8.660156 C 11.074219 7.839844 9.9375 7.640625 9.113281 8.222656 L 8.808594 8.4375 C 6.328125 10.183594 5.734375 13.605469 7.480469 16.085938 L 14.347656 25.835938 C 19.828125 25.164062 24.148438 20.925781 25.453125 15.265625 Z M 25.453125 15.265625 "/>
</svg>
