<?xml version="1.0" encoding="UTF-8"?>
<svg width="27px" height="14px" viewBox="0 0 27 14" version="1.1" xmlns="http://www.w3.org/2000/svg" xmlns:xlink="http://www.w3.org/1999/xlink">
    <title>4.数据展示/8.Tag标签/Long(特殊标签)</title>
    <g id="4.数据展示/8.Tag标签/Long(特殊标签)" stroke="none" stroke-width="1" fill="none" fill-rule="evenodd">
        <g id="long">
            <rect id="矩形" fill="#22C6B9" x="0" y="0" width="27" height="14" rx="2"></rect>
            <path d="M7.64243902,9.18308227 L7.64243902,8.49710313 L4.76926829,8.49710313 L4.76926829,3 L4,3 L4,9.18308227 L7.64243902,9.18308227 Z M10.5990244,9.29432213 C11.9614634,9.29432213 12.8141463,8.23754345 12.8141463,6.93974508 C12.8141463,5.6419467 11.9614634,4.59443801 10.5990244,4.59443801 C9.23658537,4.59443801 8.38390244,5.6419467 8.38390244,6.93974508 C8.38390244,8.23754345 9.23658537,9.29432213 10.5990244,9.29432213 Z M10.5990244,8.67323291 C9.64439024,8.67323291 9.11609756,7.85747393 9.11609756,6.93974508 C9.11609756,6.03128621 9.64439024,5.21552723 10.5990244,5.21552723 C11.5536585,5.21552723 12.0819512,6.03128621 12.0819512,6.93974508 C12.0819512,7.85747393 11.5536585,8.67323291 10.5990244,8.67323291 Z M14.64,9.18308227 L14.64,5.91077636 C14.9087805,5.54924681 15.4185366,5.21552723 15.9653659,5.21552723 C16.5678049,5.21552723 16.9756098,5.45654693 16.9756098,6.25376593 L16.9756098,9.18308227 L17.6614634,9.18308227 L17.6614634,6.0405562 C17.6614634,5.06720742 17.1702439,4.59443801 16.2434146,4.59443801 C15.5668293,4.59443801 14.955122,4.97450753 14.64,5.35457706 L14.64,4.70567787 L13.944878,4.70567787 L13.944878,9.18308227 L14.64,9.18308227 Z M20.8590244,11 C21.9526829,11 23,10.5365006 23,9.11819235 L23,4.70567787 L22.304878,4.70567787 L22.304878,5.38238702 C21.9434146,4.89107764 21.3965854,4.59443801 20.7941463,4.59443801 C19.6170732,4.59443801 18.8014634,5.48435689 18.8014634,6.9212051 C18.8014634,8.36732329 19.6263415,9.2387022 20.7941463,9.2387022 C21.4243902,9.2387022 21.9712195,8.89571263 22.304878,8.4414832 L22.304878,9.11819235 C22.304878,10.0637312 21.6004878,10.4252607 20.8590244,10.4252607 C20.2195122,10.4252607 19.7746341,10.2584009 19.4039024,9.82271147 L19.0517073,10.3232908 C19.5892683,10.8516802 20.1082927,11 20.8590244,11 Z M20.9702439,8.61761298 C20.0619512,8.61761298 19.5243902,7.90382387 19.5243902,6.9212051 C19.5243902,5.92931634 20.0619512,5.21552723 20.9702439,5.21552723 C21.5170732,5.21552723 22.0546341,5.54924681 22.304878,5.92931634 L22.304878,7.89455388 C22.0546341,8.2838934 21.5170732,8.61761298 20.9702439,8.61761298 Z" id="Long" fill="#FFFFFF" fill-rule="nonzero"></path>
        </g>
    </g>
</svg>