<?xml version="1.0" encoding="UTF-8"?>
<svg xmlns="http://www.w3.org/2000/svg" xmlns:xlink="http://www.w3.org/1999/xlink" width="14" height="27" viewBox="0 0 14 27">
<path fill-rule="evenodd" fill="rgb(13.333333%, 77.647059%, 72.54902%)" fill-opacity="1" d="M 2 0 L 25 0 C 26.105469 0 27 0.894531 27 2 L 27 12 C 27 13.105469 26.105469 14 25 14 L 2 14 C 0.894531 14 0 13.105469 0 12 L 0 2 C 0 0.894531 0.894531 0 2 0 Z M 2 0 "/>
<path fill-rule="nonzero" fill="rgb(100%, 100%, 100%)" fill-opacity="1" d="M 7.640625 9.183594 L 7.640625 8.496094 L 4.769531 8.496094 L 4.769531 3 L 4 3 L 4 9.183594 Z M 10.597656 9.292969 C 11.960938 9.292969 12.8125 8.238281 12.8125 6.941406 C 12.8125 5.640625 11.960938 4.59375 10.597656 4.59375 C 9.238281 4.59375 8.382812 5.640625 8.382812 6.941406 C 8.382812 8.238281 9.238281 9.292969 10.597656 9.292969 Z M 10.597656 8.671875 C 9.644531 8.671875 9.117188 7.859375 9.117188 6.941406 C 9.117188 6.03125 9.644531 5.214844 10.597656 5.214844 C 11.554688 5.214844 12.082031 6.03125 12.082031 6.941406 C 12.082031 7.859375 11.554688 8.671875 10.597656 8.671875 Z M 14.640625 9.183594 L 14.640625 5.910156 C 14.910156 5.550781 15.417969 5.214844 15.964844 5.214844 C 16.566406 5.214844 16.976562 5.457031 16.976562 6.253906 L 16.976562 9.183594 L 17.660156 9.183594 L 17.660156 6.039062 C 17.660156 5.066406 17.171875 4.59375 16.242188 4.59375 C 15.566406 4.59375 14.957031 4.972656 14.640625 5.355469 L 14.640625 4.707031 L 13.945312 4.707031 L 13.945312 9.183594 Z M 20.859375 11 C 21.953125 11 23 10.535156 23 9.117188 L 23 4.707031 L 22.304688 4.707031 L 22.304688 5.382812 C 21.945312 4.890625 21.398438 4.59375 20.792969 4.59375 C 19.617188 4.59375 18.800781 5.484375 18.800781 6.921875 C 18.800781 8.367188 19.625 9.238281 20.792969 9.238281 C 21.425781 9.238281 21.972656 8.894531 22.304688 8.441406 L 22.304688 9.117188 C 22.304688 10.0625 21.601562 10.425781 20.859375 10.425781 C 20.21875 10.425781 19.773438 10.257812 19.402344 9.824219 L 19.050781 10.324219 C 19.589844 10.851562 20.109375 11 20.859375 11 Z M 20.96875 8.617188 C 20.0625 8.617188 19.523438 7.902344 19.523438 6.921875 C 19.523438 5.929688 20.0625 5.214844 20.96875 5.214844 C 21.515625 5.214844 22.054688 5.550781 22.304688 5.929688 L 22.304688 7.894531 C 22.054688 8.285156 21.515625 8.617188 20.96875 8.617188 Z M 20.96875 8.617188 "/>
</svg>
