<?xml version="1.0" encoding="UTF-8"?>
<svg xmlns="http://www.w3.org/2000/svg" xmlns:xlink="http://www.w3.org/1999/xlink" width="16" height="16" viewBox="0 0 16 16">
<path fill-rule="evenodd" fill="rgb(100%, 74.509804%, 0%)" fill-opacity="1" d="M 2.34375 13.65625 C -0.78125 10.53125 -0.78125 5.464844 2.34375 2.34375 C 3.84375 0.84375 5.878906 0 8 0 C 12.417969 0 16 3.582031 16 8 C 16 10.121094 15.15625 12.15625 13.65625 13.65625 C 10.53125 16.78125 5.464844 16.78125 2.34375 13.65625 Z M 7.914062 3.109375 C 7.347656 3.113281 6.886719 3.527344 6.890625 4.042969 C 6.890625 4.0625 6.890625 4.078125 6.890625 4.097656 L 7.210938 9.171875 C 7.234375 9.523438 7.566406 9.796875 7.957031 9.777344 C 8.316406 9.757812 8.601562 9.496094 8.625 9.171875 L 8.945312 4.097656 C 8.976562 3.582031 8.542969 3.140625 7.980469 3.113281 C 7.957031 3.113281 7.9375 3.109375 7.914062 3.109375 Z M 6.890625 12.113281 C 6.890625 11.558594 7.339844 11.109375 7.894531 11.109375 C 8.445312 11.113281 8.894531 11.5625 8.894531 12.113281 L 8.894531 12.117188 C 8.894531 12.667969 8.445312 13.117188 7.890625 13.117188 C 7.335938 13.117188 6.886719 12.667969 6.890625 12.113281 Z M 6.890625 12.113281 "/>
</svg>
