<svg width="16" height="16" viewBox="0 0 16 16" fill="none" xmlns="http://www.w3.org/2000/svg">
<path fill-rule="evenodd" clip-rule="evenodd" d="M2.34224 13.656C-0.78145 10.5313 -0.780646 5.46595 2.34404 2.34225C3.84408 0.842691 5.87822 0.000201092 7.99928 3.40275e-08C12.4175 -0.000403084 15.9996 3.58099 16 7.99928C16.0002 10.1217 15.157 12.1572 13.656 13.6578C10.5312 16.7815 5.46594 16.7806 2.34224 13.656ZM7.91411 3.11112C7.34765 3.11135 6.88864 3.52881 6.88889 4.04355C6.8889 4.06124 6.88947 4.07893 6.89058 4.09659L7.21144 9.17068C7.23291 9.52493 7.56634 9.79629 7.95619 9.77678C8.31604 9.75878 8.60338 9.49767 8.6232 9.17068L8.94406 4.09659C8.97655 3.5827 8.54445 3.14217 7.97892 3.11264C7.95734 3.11151 7.93573 3.11101 7.91411 3.11112ZM6.88889 12.1132C6.88948 11.5592 7.33912 11.1105 7.89317 11.1111C8.44608 11.1135 8.89355 11.5614 8.89531 12.1143L8.89531 12.1154C8.89472 12.6694 8.44509 13.1181 7.89103 13.1175C7.33698 13.1169 6.8883 12.6673 6.88889 12.1132Z" fill="#FFBE00"/>
</svg>
