<?xml version="1.0" encoding="UTF-8"?>
<svg xmlns="http://www.w3.org/2000/svg" xmlns:xlink="http://www.w3.org/1999/xlink" width="18" height="18" viewBox="0 0 18 18">
<path fill-rule="evenodd" fill="rgb(43.921569%, 45.882353%, 47.843137%)" fill-opacity="1" d="M 1.339844 7.820312 C 0.6875 8.472656 0.6875 9.527344 1.339844 10.179688 L 2.75 11.589844 L 2.75 13.582031 C 2.75 14.503906 3.496094 15.25 4.417969 15.25 L 6.410156 15.25 L 7.820312 16.660156 C 8.472656 17.3125 9.527344 17.3125 10.179688 16.660156 L 11.589844 15.25 L 13.582031 15.25 C 14.503906 15.25 15.25 14.503906 15.25 13.582031 L 15.25 11.589844 L 16.660156 10.179688 C 17.3125 9.527344 17.3125 8.472656 16.660156 7.820312 L 15.25 6.410156 L 15.25 4.417969 C 15.25 3.496094 14.503906 2.75 13.582031 2.75 L 11.589844 2.75 L 10.179688 1.339844 C 9.527344 0.6875 8.472656 0.6875 7.820312 1.339844 L 6.410156 2.75 L 4.417969 2.75 C 3.496094 2.75 2.75 3.496094 2.75 4.417969 L 2.75 6.410156 Z M 12.527344 7.484375 C 12.839844 7.148438 12.820312 6.621094 12.484375 6.308594 C 12.148438 5.992188 11.621094 6.011719 11.308594 6.347656 L 8.027344 9.863281 L 6.691406 8.429688 C 6.378906 8.09375 5.851562 8.078125 5.515625 8.390625 C 5.179688 8.703125 5.160156 9.230469 5.472656 9.570312 L 7.417969 11.652344 C 7.578125 11.820312 7.796875 11.917969 8.027344 11.917969 C 8.257812 11.917969 8.480469 11.820312 8.636719 11.652344 Z M 12.527344 7.484375 "/>
</svg>
