<svg width="18" height="18" viewBox="0 0 18 18" fill="none" xmlns="http://www.w3.org/2000/svg">
<path fill-rule="evenodd" clip-rule="evenodd" d="M1.33972 7.82153C0.688844 8.4724 0.688844 9.52768 1.33972 10.1786L2.75006 11.5889V13.5834C2.75006 14.5039 3.49625 15.2501 4.41673 15.2501H6.41123L7.82153 16.6604C8.4724 17.3112 9.52768 17.3112 10.1786 16.6604L11.5889 15.2501H13.5834C14.5039 15.2501 15.2501 14.5039 15.2501 13.5834V11.5889L16.6604 10.1786C17.3112 9.52768 17.3112 8.4724 16.6604 7.82153L15.2501 6.41123V4.41673C15.2501 3.49625 14.5039 2.75006 13.5834 2.75006H11.5889L10.1786 1.33972C9.52768 0.688844 8.4724 0.688844 7.82153 1.33972L6.41119 2.75006H4.41673C3.49625 2.75006 2.75006 3.49625 2.75006 4.41673V6.41119L1.33972 7.82153ZM12.5259 7.48543C12.84 7.14897 12.8218 6.62165 12.4853 6.30762C12.1489 5.99359 11.6215 6.01178 11.3075 6.34823L8.02784 9.86217L6.69261 8.43157C6.37858 8.09511 5.85126 8.07692 5.5148 8.39095C5.17834 8.70498 5.16016 9.23231 5.47418 9.56876L7.41863 11.6521C7.57623 11.821 7.79686 11.9168 8.02784 11.9168C8.25883 11.9168 8.47945 11.821 8.63705 11.6521L12.5259 7.48543Z" fill="#70757A"/>
</svg>
