<?xml version="1.0" encoding="UTF-8"?>
<svg width="12px" height="12px" viewBox="0 0 12 12" version="1.1" xmlns="http://www.w3.org/2000/svg" xmlns:xlink="http://www.w3.org/1999/xlink">
    <title>五角星 星型 收藏备份 2@2x</title>
    <g id="History" stroke="none" stroke-width="1" fill="none" fill-rule="evenodd" stroke-opacity="0.6">
        <g id="Address-Management" transform="translate(-1162.000000, -412.000000)" fill-rule="nonzero" stroke="#E5DFF5" stroke-width="0.5">
            <g id="Address-list备份" transform="translate(240.000000, 410.000000)">
                <g id="Address-list">
                    <g id="五角星-星型-收藏" transform="translate(922.000000, 2.000000)">
                        <g id="五角星-星型-收藏备份-2">
                            <path d="M5.686077,0.281134897 C5.55498037,0.327275572 5.44148576,0.423427914 5.37666628,0.558655337 L3.93945656,3.50342828 L0.72288655,3.97538503 C0.603953626,3.99312499 0.493698066,4.05002266 0.409919244,4.13710887 C0.302971653,4.24842862 0.250486295,4.39250467 0.25218618,4.53593823 C0.25388605,4.6793706 0.309770355,4.82216041 0.419445002,4.93103038 L2.74369912,7.21901016 L2.19545178,10.4581014 C2.17463839,10.5809265 2.19541541,10.7070379 2.25591333,10.8236567 C2.3253978,10.9547876 2.44314239,11.0466685 2.57652663,11.0876651 C2.70991095,11.1286618 2.85893494,11.118774 2.99198314,11.0482848 L5.86844264,9.51909612 L8.74849161,11.0514322 C8.85623931,11.1092824 8.97934976,11.129065 9.09886332,11.1080453 C9.24790586,11.0816323 9.37241231,10.996233 9.45320062,10.8799745 C9.53466153,10.7627481 9.57179516,10.6141187 9.54550748,10.4618532 L8.99637979,7.22208318 L11.3212487,4.93040499 C11.4068015,4.84509764 11.4624116,4.73229165 11.479413,4.61074438 C11.5005947,4.4575237 11.4584813,4.30968945 11.3729487,4.19487881 C11.2882552,4.08119455 11.1608621,3.99988895 11.0105082,3.97846382 L7.7939775,3.50634704 L6.3568173,0.560201008 C6.30259993,0.447104509 6.21264795,0.357153624 5.686077,0.281134897 Z" id="路径"></path>
                        </g>
                    </g>
                </g>
            </g>
        </g>
    </g>
</svg>