<?xml version="1.0" encoding="UTF-8"?>
<svg xmlns="http://www.w3.org/2000/svg" xmlns:xlink="http://www.w3.org/1999/xlink" width="12" height="12" viewBox="0 0 12 12">
<path fill="none" stroke-width="0.5" stroke-linecap="butt" stroke-linejoin="miter" stroke="rgb(89.803922%, 87.45098%, 96.078431%)" stroke-opacity="0.6" stroke-miterlimit="4" d="M 5.6875 0.28125 C 5.554688 0.328125 5.441406 0.421875 5.375 0.558594 L 3.941406 3.503906 L 0.722656 3.976562 C 0.605469 3.992188 0.492188 4.050781 0.410156 4.136719 C 0.304688 4.25 0.25 4.390625 0.253906 4.535156 C 0.253906 4.679688 0.308594 4.820312 0.417969 4.929688 L 2.742188 7.21875 L 2.195312 10.457031 C 2.175781 10.582031 2.195312 10.707031 2.257812 10.824219 C 2.324219 10.953125 2.441406 11.046875 2.578125 11.085938 C 2.710938 11.128906 2.859375 11.117188 2.992188 11.046875 L 5.867188 9.519531 L 8.75 11.050781 C 8.855469 11.109375 8.980469 11.128906 9.097656 11.109375 C 9.246094 11.082031 9.371094 10.996094 9.453125 10.878906 C 9.535156 10.761719 9.570312 10.613281 9.546875 10.460938 L 8.996094 7.222656 L 11.320312 4.929688 C 11.40625 4.84375 11.460938 4.730469 11.480469 4.609375 C 11.5 4.457031 11.457031 4.308594 11.371094 4.195312 C 11.289062 4.082031 11.160156 4 11.011719 3.976562 L 7.792969 3.507812 L 6.355469 0.558594 C 6.300781 0.445312 6.210938 0.355469 5.6875 0.28125 Z M 5.6875 0.28125 "/>
</svg>
