<?xml version="1.0" encoding="UTF-8"?>
<svg width="72px" height="72px" viewBox="0 0 72 72" version="1.1" xmlns="http://www.w3.org/2000/svg" xmlns:xlink="http://www.w3.org/1999/xlink">
    <title>形状@2x</title>
    <g id="History" stroke="none" stroke-width="1" fill="none" fill-rule="evenodd">
        <g id="退出登陆" transform="translate(-684.000000, -240.000000)" fill="#318BF5" fill-rule="nonzero">
            <g id="编组-34" transform="translate(508.000000, 200.000000)">
                <path d="M186.540096,101.451805 C172.483476,87.3906616 172.487095,64.596761 186.548193,50.5401412 C193.298371,43.79211 202.452007,40.0009048 211.996746,40 C231.878961,39.998186 247.99819,56.1144584 248,75.9967546 C248.000871,85.5476626 244.206385,94.707467 237.451798,101.459948 C223.390616,115.516522 200.596716,115.512903 186.540096,101.451805 Z M211.613478,54 L211.613478,54 C209.064403,54.0010865 206.998874,55.8796651 207,58.1959873 C207,58.2756012 207.002572,58.3551971 207.007597,58.4346802 L208.451448,81.2680709 L208.451448,81.2680691 C208.548055,82.8622008 210.048525,84.0833385 211.80284,83.9955479 C213.422174,83.9145162 214.71521,82.7395436 214.804386,81.2680691 L216.248237,58.4346784 L216.248237,58.4346797 C216.394474,56.1221693 214.449991,54.139789 211.90512,54.0069074 C211.808011,54.0018367 211.71075,53.9995568 211.613483,54 L211.613478,54 Z M211.519253,90 L211.519253,90 C209.026002,89.9973447 207.002659,92.0163703 207,94.5096295 C206.997345,97.0028805 209.01637,99.0262231 211.50963,99.0288824 C214.00288,99.0315377 216.026223,97.0125121 216.028882,94.5192529 C216.028882,94.5176495 216.028882,94.5160461 216.028882,94.5144427 L216.028882,94.514424 C216.020962,92.0263301 214.007325,90.0105547 211.519239,90 L211.519253,90 Z" id="形状"></path>
            </g>
        </g>
    </g>
</svg>