<?xml version="1.0" encoding="UTF-8"?>
<svg xmlns="http://www.w3.org/2000/svg" xmlns:xlink="http://www.w3.org/1999/xlink" width="72" height="72" viewBox="0 0 72 72">
<path fill-rule="nonzero" fill="rgb(19.215686%, 54.509804%, 96.078431%)" fill-opacity="1" d="M 10.539062 61.453125 C -3.515625 47.390625 -3.511719 24.597656 10.546875 10.539062 C 17.296875 3.792969 26.453125 0 35.996094 0 C 55.878906 0 72 16.113281 72 35.996094 C 72 45.546875 68.207031 54.707031 61.453125 61.460938 C 47.390625 75.515625 24.597656 75.511719 10.539062 61.453125 Z M 35.613281 14 C 33.0625 14 31 15.878906 31 18.195312 C 31 18.277344 31.003906 18.355469 31.007812 18.433594 L 32.453125 41.269531 C 32.546875 42.863281 34.046875 44.082031 35.804688 43.996094 C 37.421875 43.914062 38.714844 42.738281 38.804688 41.269531 L 40.25 18.433594 C 40.394531 16.121094 38.449219 14.140625 35.90625 14.007812 C 35.808594 14 35.710938 14 35.613281 14 Z M 35.519531 50 C 33.027344 49.996094 31.003906 52.015625 31 54.507812 C 30.996094 57.003906 33.015625 59.027344 35.507812 59.027344 C 38.003906 59.03125 40.027344 57.011719 40.027344 54.519531 C 40.027344 54.519531 40.027344 54.515625 40.027344 54.515625 C 40.019531 52.027344 38.007812 50.011719 35.519531 50 Z M 35.519531 50 "/>
</svg>
