<?xml version="1.0" encoding="UTF-8"?>
<svg xmlns="http://www.w3.org/2000/svg" xmlns:xlink="http://www.w3.org/1999/xlink" width="154" height="154" viewBox="0 0 154 154">
<path fill-rule="nonzero" fill="rgb(19.215686%, 54.509804%, 96.078431%)" fill-opacity="1" d="M 81.402344 140.503906 L 76.359375 140.503906 L 76.359375 116.671875 L 90.214844 116.671875 L 90.214844 120.8125 L 81.402344 120.8125 L 81.402344 126.957031 L 89.601562 126.957031 L 89.601562 131.082031 L 81.402344 131.082031 Z M 81.402344 140.503906 "/>
<path fill-rule="nonzero" fill="rgb(19.215686%, 54.509804%, 96.078431%)" fill-opacity="1" d="M 92.328125 140.503906 L 92.328125 116.671875 L 97.453125 116.671875 L 97.453125 136.328125 L 107.257812 136.328125 L 107.257812 140.503906 Z M 92.328125 140.503906 "/>
<path fill-rule="nonzero" fill="rgb(19.215686%, 54.509804%, 96.078431%)" fill-opacity="1" d="M 123.847656 140.503906 L 109.925781 140.503906 L 109.925781 116.671875 L 123.847656 116.671875 L 123.847656 120.8125 L 115.050781 120.8125 L 115.050781 126.042969 L 123.234375 126.042969 L 123.234375 130.183594 L 115.050781 130.183594 L 115.050781 136.328125 L 123.847656 136.328125 Z M 123.847656 140.503906 "/>
<path fill-rule="nonzero" fill="rgb(19.215686%, 54.509804%, 96.078431%)" fill-opacity="1" d="M 147.09375 140.503906 L 141.242188 140.503906 L 135.621094 131.488281 L 130 140.503906 L 124.511719 140.503906 L 132.527344 128.210938 L 125.023438 116.671875 L 130.675781 116.671875 L 135.886719 125.246094 L 140.992188 116.671875 L 146.515625 116.671875 L 138.925781 128.488281 Z M 147.09375 140.503906 "/>
<path fill-rule="nonzero" fill="rgb(19.215686%, 54.509804%, 96.078431%)" fill-opacity="1" d="M 18.425781 140.496094 C 10.9375 140.496094 5.832031 135.054688 5.832031 128.046875 C 5.832031 121.207031 11.144531 116 18.253906 116 C 21.394531 116 26.257812 116.863281 27.535156 121.304688 L 23.707031 122.523438 C 23.265625 121.117188 20.421875 120.070312 18.355469 120.070312 C 13.976562 120.070312 10.523438 123.109375 10.523438 128.046875 C 10.523438 132.6875 14.042969 136.425781 18.496094 136.425781 C 22.859375 136.425781 25.59375 133.628906 25.886719 133.316406 C 25.898438 133.300781 25.925781 133.300781 25.9375 133.320312 L 28.277344 136.402344 C 28.285156 136.414062 28.289062 136.429688 28.277344 136.441406 C 28.019531 136.722656 24.5 140.496094 18.425781 140.496094 Z M 18.425781 140.496094 "/>
<path fill-rule="nonzero" fill="rgb(19.215686%, 54.509804%, 96.078431%)" fill-opacity="1" d="M 61.40625 140.496094 L 57.039062 140.496094 L 57.039062 123.421875 L 58.949219 123.421875 C 61.269531 123.421875 61.269531 123.414062 61.269531 123.414062 L 61.269531 125.769531 C 61.269531 124.539062 63.273438 123.03125 67.507812 123.03125 C 71.421875 123.03125 73.675781 124.953125 73.675781 129.351562 L 73.675781 140.496094 L 69.273438 140.496094 L 69.273438 130.199219 C 69.273438 128.179688 68.71875 126.8125 66.5 126.8125 C 64.144531 126.8125 62.378906 128.210938 61.753906 130.199219 C 61.511719 130.882812 61.40625 131.632812 61.40625 132.414062 Z M 61.40625 140.496094 "/>
<path fill-rule="nonzero" fill="rgb(19.215686%, 54.509804%, 96.078431%)" fill-opacity="1" d="M 49.914062 124.324219 L 54.375 124.324219 L 54.375 140.492188 L 49.914062 140.492188 Z M 49.914062 124.324219 "/>
<path fill-rule="nonzero" fill="rgb(19.215686%, 54.509804%, 96.078431%)" fill-opacity="1" d="M 49.378906 118.464844 C 49.378906 119.824219 50.496094 120.929688 51.875 120.929688 C 53.253906 120.929688 54.371094 119.824219 54.371094 118.464844 C 54.371094 117.101562 53.253906 116 51.875 116 C 50.496094 116 49.378906 117.101562 49.378906 118.464844 Z M 49.378906 118.464844 "/>
<path fill-rule="evenodd" fill="rgb(19.215686%, 54.509804%, 96.078431%)" fill-opacity="1" d="M 51.875 116.652344 C 50.859375 116.652344 50.039062 117.464844 50.039062 118.464844 C 50.039062 119.464844 50.859375 120.277344 51.875 120.277344 C 52.890625 120.277344 53.710938 119.464844 53.710938 118.464844 C 53.710938 117.464844 52.890625 116.652344 51.875 116.652344 Z M 51.875 120.929688 C 50.496094 120.929688 49.378906 119.824219 49.378906 118.464844 C 49.378906 117.101562 50.496094 116 51.875 116 C 53.253906 116 54.371094 117.101562 54.371094 118.464844 C 54.371094 119.824219 53.253906 120.929688 51.875 120.929688 Z M 51.875 120.929688 "/>
<path fill-rule="evenodd" fill="rgb(19.215686%, 54.509804%, 96.078431%)" fill-opacity="1" d="M 30.21875 131.761719 C 30.21875 136.527344 34.003906 139.882812 38.816406 139.882812 C 43.660156 139.882812 47.445312 136.527344 47.445312 131.761719 C 47.445312 127.03125 43.660156 123.644531 38.816406 123.644531 C 34.007812 123.644531 30.21875 127.03125 30.21875 131.761719 Z M 33.199219 131.761719 C 33.199219 128.367188 35.742188 125.949219 38.816406 125.949219 C 41.917969 125.949219 44.464844 128.363281 44.464844 131.761719 C 44.464844 135.195312 41.917969 137.574219 38.816406 137.574219 C 35.746094 137.574219 33.199219 135.195312 33.199219 131.761719 Z M 38.816406 140.496094 C 33.691406 140.496094 29.59375 136.898438 29.59375 131.761719 C 29.59375 126.660156 33.691406 123.03125 38.816406 123.03125 C 43.972656 123.03125 48.070312 126.660156 48.070312 131.761719 C 48.070312 136.898438 43.972656 140.496094 38.816406 140.496094 Z M 38.816406 126.5625 C 36.105469 126.5625 33.824219 128.6875 33.824219 131.761719 C 33.824219 134.871094 36.105469 136.964844 38.816406 136.964844 C 41.558594 136.964844 43.839844 134.871094 43.839844 131.761719 C 43.839844 128.6875 41.558594 126.5625 38.816406 126.5625 Z M 38.816406 126.5625 "/>
<path fill-rule="nonzero" fill="rgb(19.215686%, 54.509804%, 96.078431%)" fill-opacity="1" d="M 29.59375 131.761719 C 29.59375 136.898438 33.691406 140.496094 38.816406 140.496094 C 43.972656 140.496094 48.070312 136.898438 48.070312 131.761719 C 48.070312 126.660156 43.972656 123.03125 38.816406 123.03125 C 33.691406 123.03125 29.59375 126.660156 29.59375 131.761719 Z M 33.824219 131.761719 C 33.824219 128.6875 36.105469 126.5625 38.816406 126.5625 C 41.558594 126.5625 43.839844 128.6875 43.839844 131.761719 C 43.839844 134.871094 41.558594 136.964844 38.816406 136.964844 C 36.105469 136.964844 33.824219 134.871094 33.824219 131.761719 Z M 33.824219 131.761719 "/>
<path fill-rule="evenodd" fill="rgb(19.215686%, 54.509804%, 96.078431%)" fill-opacity="1" d="M 40.070312 51.816406 C 36.613281 71.460938 49.558594 90.207031 68.644531 94.402344 C 68.992188 94.476562 69.339844 94.546875 69.683594 94.609375 C 72.566406 95.144531 74.324219 92.046875 72.667969 89.660156 L 66.644531 81.351562 C 55.683594 77.035156 48.898438 65.613281 50.996094 53.683594 C 52.945312 42.617188 63.089844 36.375 67.917969 34.636719 L 81.617188 53.824219 C 82.890625 55.609375 83.214844 57.777344 82.691406 59.738281 C 82.25 61.894531 80.835938 63.625 78.980469 64.5625 C 77.828125 65.996094 77.710938 68.0625 78.835938 69.632812 L 79.347656 70.351562 C 80.996094 72.664062 84.230469 73.214844 86.570312 71.589844 L 87.441406 70.984375 C 94.496094 66.082031 96.1875 56.46875 91.21875 49.507812 L 71.679688 22.140625 C 56.078125 24.019531 43.785156 35.917969 40.070312 51.816406 Z M 40.070312 51.816406 "/>
<path fill-rule="evenodd" fill="rgb(19.215686%, 54.509804%, 96.078431%)" fill-opacity="1" d="M 111.945312 64.8125 C 115.402344 45.164062 102.457031 26.417969 83.371094 22.226562 C 83.027344 22.152344 82.679688 22.082031 82.332031 22.019531 C 79.449219 21.484375 77.691406 24.582031 79.347656 26.964844 L 85.375 35.273438 C 96.332031 39.59375 103.117188 51.015625 101.019531 62.941406 C 99.070312 74.011719 88.925781 80.253906 84.097656 81.992188 L 70.660156 63.164062 C 69.171875 61.621094 68.414062 59.429688 68.8125 57.167969 C 69.25 54.683594 70.96875 52.738281 73.179688 51.878906 C 74.199219 50.453125 74.257812 48.496094 73.183594 46.992188 L 72.667969 46.273438 C 71.019531 43.964844 67.785156 43.410156 65.445312 45.039062 L 64.574219 45.644531 C 57.519531 50.542969 55.832031 60.160156 60.796875 67.117188 L 80.335938 94.488281 C 95.9375 92.609375 108.230469 80.710938 111.945312 64.8125 Z M 111.945312 64.8125 "/>
</svg>
