<svg width="154" height="154" viewBox="0 0 154 154" fill="none" xmlns="http://www.w3.org/2000/svg">
<path d="M81.4018 140.503H76.3594V116.671H90.2145V120.811H81.4018V126.957H89.6026V131.081H81.4018V140.503Z" fill="#318BF5"/>
<path d="M92.3262 140.503V116.671H97.4515V136.33H107.256V140.503H92.3262Z" fill="#318BF5"/>
<path d="M123.846 140.503H109.925V116.671H123.846V120.811H115.05V126.044H123.234V130.185H115.05V136.33H123.846V140.503Z" fill="#318BF5"/>
<path d="M147.094 140.503H141.242L135.62 131.489L129.999 140.503H124.51L132.528 128.212L125.022 116.671H130.677L135.885 125.245L140.994 116.671H146.516L138.927 128.489L147.094 140.503Z" fill="#318BF5"/>
<path d="M18.4254 140.495C10.9384 140.495 5.83203 135.055 5.83203 128.047C5.83203 121.206 11.1455 116 18.2528 116C21.3928 116 26.2587 116.864 27.5341 121.306L23.7069 122.522C23.2656 121.119 20.4234 120.071 18.3566 120.071C13.9747 120.071 10.5243 123.108 10.5243 128.047C10.5243 132.686 14.0435 136.424 18.4943 136.424C22.8597 136.424 25.5953 133.627 25.8862 133.315C25.9003 133.3 25.9241 133.302 25.9367 133.319L28.278 136.404C28.2867 136.415 28.2877 136.43 28.278 136.441C28.0214 136.724 24.5017 140.495 18.4254 140.495Z" fill="#318BF5"/>
<path d="M61.4074 140.495H57.041V127.657V123.423H58.9473C61.2687 123.423 61.2687 123.415 61.2687 123.415V125.768C61.2687 124.539 63.2725 123.032 67.5065 123.032C71.4224 123.032 73.6744 124.954 73.6744 129.351V135.833V140.495H69.2736V137.82V130.198C69.2736 128.179 68.7193 126.811 66.5012 126.811C64.1449 126.811 62.3778 128.211 61.7541 130.198C61.5112 130.882 61.4074 131.631 61.4074 132.413V140.495Z" fill="#318BF5"/>
<path d="M49.9131 124.324H54.3745V140.494H49.9131V124.324Z" fill="#318BF5"/>
<path d="M49.3779 118.464C49.3779 119.825 50.4962 120.928 51.8753 120.928C53.255 120.928 54.3728 119.825 54.3728 118.464C54.3728 117.103 53.255 116 51.8753 116C50.4962 116 49.3779 117.103 49.3779 118.464Z" fill="#318BF5"/>
<path fill-rule="evenodd" clip-rule="evenodd" d="M51.8753 116.651C50.8609 116.651 50.0379 117.463 50.0379 118.464C50.0379 119.465 50.8609 120.277 51.8753 120.277C52.8903 120.277 53.7128 119.465 53.7128 118.464C53.7128 117.463 52.8903 116.651 51.8753 116.651ZM51.8753 120.928C50.4962 120.928 49.3779 119.825 49.3779 118.464C49.3779 117.103 50.4962 116 51.8753 116C53.255 116 54.3728 117.103 54.3728 118.464C54.3728 119.825 53.255 120.928 51.8753 120.928Z" fill="#318BF5"/>
<path fill-rule="evenodd" clip-rule="evenodd" d="M30.2203 131.763C30.2203 136.527 34.0052 139.882 38.8154 139.882C43.6604 139.882 47.4439 136.526 47.4439 131.763C47.4439 127.032 43.6589 123.645 38.8154 123.645C34.0067 123.645 30.2203 127.03 30.2203 131.763ZM33.1983 131.763C33.1983 128.368 35.7423 125.951 38.8154 125.951C41.9195 125.951 44.4659 128.365 44.4659 131.763C44.4659 135.197 41.9166 137.576 38.8154 137.576C35.7447 137.576 33.1983 135.194 33.1983 131.763ZM38.8154 140.495C33.6925 140.495 29.5938 136.897 29.5938 131.763C29.5938 126.662 33.6925 123.032 38.8154 123.032C43.9717 123.032 48.07 126.662 48.07 131.763C48.07 136.897 43.9717 140.495 38.8154 140.495ZM38.8154 126.564C36.105 126.564 33.8244 128.689 33.8244 131.763C33.8244 134.87 36.105 136.963 38.8154 136.963C41.5587 136.963 43.8393 134.87 43.8393 131.763C43.8393 128.689 41.5587 126.564 38.8154 126.564Z" fill="#318BF5"/>
<path d="M29.5938 131.763C29.5938 136.897 33.6925 140.495 38.8154 140.495C43.9717 140.495 48.07 136.897 48.07 131.763C48.07 126.662 43.9717 123.032 38.8154 123.032C33.6925 123.032 29.5938 126.662 29.5938 131.763ZM33.8244 131.763C33.8244 128.689 36.105 126.564 38.8154 126.564C41.5587 126.564 43.8393 128.689 43.8393 131.763C43.8393 134.87 41.5587 136.963 38.8154 136.963C36.105 136.963 33.8244 134.87 33.8244 131.763Z" fill="#318BF5"/>
<g clip-path="url(#clip0)">
<path fill-rule="evenodd" clip-rule="evenodd" d="M40.0705 51.8146C36.6148 71.4622 49.5588 90.2084 68.6448 94.4011C68.9911 94.476 69.3388 94.5453 69.6851 94.6095C72.567 95.1427 74.3261 92.0464 72.6679 89.6608L66.6427 81.3529C55.6849 77.0348 48.8998 65.6129 50.9977 53.6853C52.9444 42.6174 63.0891 36.3744 67.9182 34.6363L81.6153 53.8235C82.8912 55.6107 83.215 57.7776 82.6902 59.7377C82.2494 61.8938 80.835 63.6251 78.9806 64.561C77.8262 65.9949 77.7115 68.0616 78.8343 69.6346L79.3469 70.3526C80.9957 72.6622 84.23 73.2158 86.5711 71.5893L87.4412 70.9847C94.4953 66.0836 96.1863 56.4689 91.2184 49.5097L71.6795 22.1394C56.0788 24.0188 43.7869 35.9169 40.0705 51.8146Z" fill="#318BF5"/>
<path fill-rule="evenodd" clip-rule="evenodd" d="M111.946 64.8127C115.402 45.1652 102.458 26.4189 83.3718 22.2262C83.0254 22.1513 82.6778 22.082 82.3315 22.0179C79.4496 21.4846 77.6904 24.5809 79.3487 26.9666L85.3738 35.2745C96.3317 39.5924 103.117 51.0145 101.019 62.9421C99.0722 74.0098 88.9275 80.253 84.0985 81.991L70.6598 63.166C69.1704 61.623 68.4152 59.428 68.8128 57.1674C69.2494 54.6855 70.9671 52.7399 73.1797 51.8772C74.198 50.4549 74.2567 48.4978 73.1822 46.9928L72.6697 46.2747C71.0209 43.9652 67.7866 43.4114 65.4455 45.038L64.5754 45.6426C57.5214 50.5438 55.8303 60.1585 60.7982 67.1176L80.3371 94.4879C95.9378 92.6085 108.23 80.7104 111.946 64.8127Z" fill="#318BF5"/>
</g>
<defs>
<clipPath id="clip0">
<rect width="74.6667" height="74.6667" fill="white" transform="translate(38.498 21.0002)"/>
</clipPath>
</defs>
</svg>
