<?xml version="1.0" encoding="UTF-8"?>
<svg xmlns="http://www.w3.org/2000/svg" xmlns:xlink="http://www.w3.org/1999/xlink" width="24" height="24" viewBox="0 0 24 24">
<path fill-rule="nonzero" fill="rgb(19.215686%, 54.509804%, 96.078431%)" fill-opacity="1" d="M 12 2.832031 C 17.042969 2.832031 21.167969 6.957031 21.167969 12 C 21.167969 17.042969 17.042969 21.167969 12 21.167969 C 6.957031 21.167969 2.832031 17.042969 2.832031 12 C 2.832031 6.957031 6.957031 2.832031 12 2.832031 Z M 12 1 C 5.949219 1 1 5.949219 1 12 C 1 18.050781 5.949219 23 12 23 C 18.050781 23 23 18.050781 23 12 C 23 5.949219 18.050781 1 12 1 Z M 12 1 "/>
<path fill-rule="nonzero" fill="rgb(19.215686%, 54.509804%, 96.078431%)" fill-opacity="1" d="M 9.707031 5.675781 L 9.707031 19.792969 C 10.71875 19.792969 11.542969 19.148438 11.542969 18.324219 L 11.542969 4.207031 C 10.535156 4.207031 9.707031 4.851562 9.707031 5.675781 Z M 9.707031 5.675781 "/>
<path fill-rule="nonzero" fill="rgb(19.215686%, 54.509804%, 96.078431%)" fill-opacity="1" d="M 12.457031 4.207031 L 12.457031 18.324219 C 12.457031 19.148438 13.285156 19.792969 14.292969 19.792969 L 14.292969 5.675781 C 14.292969 4.851562 13.46875 4.207031 12.457031 4.207031 Z M 12.457031 4.207031 "/>
<path fill-rule="nonzero" fill="rgb(19.215686%, 54.509804%, 96.078431%)" fill-opacity="1" d="M 5.582031 12 C 5.582031 14.382812 6.867188 16.398438 8.792969 17.589844 L 8.792969 16.03125 C 8.792969 15.667969 8.699219 15.207031 8.425781 14.933594 C 7.785156 14.015625 7.417969 13.101562 7.417969 12 C 7.417969 10.714844 7.96875 9.523438 8.792969 8.699219 L 8.792969 6.40625 C 6.867188 7.601562 5.582031 9.617188 5.582031 12 Z M 5.582031 12 "/>
<path fill-rule="nonzero" fill="rgb(19.215686%, 54.509804%, 96.078431%)" fill-opacity="1" d="M 15.207031 6.40625 L 15.207031 8.699219 C 16.035156 9.523438 16.582031 10.714844 16.582031 12 C 16.582031 13.101562 16.21875 14.015625 15.574219 14.839844 C 15.300781 15.207031 15.207031 15.574219 15.207031 16.03125 L 15.207031 17.589844 C 17.132812 16.492188 18.417969 14.382812 18.417969 12 C 18.417969 9.617188 17.132812 7.601562 15.207031 6.40625 Z M 15.207031 6.40625 "/>
</svg>
