<svg width="24" height="24" viewBox="0 0 24 24" fill="none" xmlns="http://www.w3.org/2000/svg">
<g id="Coins">
<g id="Group">
<path id="Vector" d="M12 2.83333C17.0417 2.83333 21.1667 6.95833 21.1667 12C21.1667 17.0417 17.0417 21.1667 12 21.1667C6.95833 21.1667 2.83333 17.0417 2.83333 12C2.83333 6.95833 6.95833 2.83333 12 2.83333ZM12 1C5.95 1 1 5.95 1 12C1 18.05 5.95 23 12 23C18.05 23 23 18.05 23 12C23 5.95 18.05 1 12 1Z" fill="#318BF5"/>
<path id="Vector_2" d="M9.7085 5.67504V19.7917C10.7168 19.7917 11.5418 19.15 11.5418 18.325V4.20837C10.5335 4.20837 9.7085 4.85004 9.7085 5.67504Z" fill="#318BF5"/>
<path id="Vector_3" d="M12.4585 4.20837V18.325C12.4585 19.15 13.2835 19.7917 14.2918 19.7917V5.67504C14.2918 4.85004 13.4668 4.20837 12.4585 4.20837Z" fill="#318BF5"/>
<path id="Vector_4" d="M5.5835 11.9999C5.5835 14.3832 6.86683 16.3999 8.79183 17.5915V16.0332C8.79183 15.6665 8.70016 15.2082 8.42516 14.9332C7.7835 14.0165 7.41683 13.0999 7.41683 11.9999C7.41683 10.7165 7.96683 9.52487 8.79183 8.69987V6.4082C6.86683 7.59987 5.5835 9.61654 5.5835 11.9999Z" fill="#318BF5"/>
<path id="Vector_5" d="M15.2085 6.4082V8.69987C16.0335 9.52487 16.5835 10.7165 16.5835 11.9999C16.5835 13.0999 16.2168 14.0165 15.5752 14.8415C15.3002 15.2082 15.2085 15.5749 15.2085 16.0332V17.5915C17.1335 16.4915 18.4168 14.3832 18.4168 11.9999C18.4168 9.61654 17.1335 7.59987 15.2085 6.4082Z" fill="#318BF5"/>
</g>
</g>
</svg>
