<?xml version="1.0" encoding="UTF-8"?>
<svg width="6px" height="9px" viewBox="0 0 6 9" version="1.1" xmlns="http://www.w3.org/2000/svg" xmlns:xlink="http://www.w3.org/1999/xlink">
    <!-- Generator: Sketch 64 (93537) - https://sketch.com -->
    <title>路径备份@2x</title>
    <desc>Created with Sketch.</desc>
    <g id="方案" stroke="none" stroke-width="1" fill="none" fill-rule="evenodd">
        <g id="个人中心/Sub-account-列表" transform="translate(-701.000000, -1043.000000)" fill="#C0BFC7" fill-rule="nonzero" stroke="#C0BFC7" stroke-width="0.5">
            <path d="M707.76802,1045.09131 C707.637847,1044.96612 707.430837,1044.97016 707.305649,1045.10035 L703.955078,1048.48156 L700.557675,1045.11466 C700.429329,1044.9874 700.222138,1044.98829 700.09486,1045.11664 C699.967609,1045.24498 699.968496,1045.45218 700.09685,1045.57945 L703.707568,1049.15776 C703.713104,1049.16337 703.720323,1049.16469 703.725841,1049.16988 C703.857027,1049.30127 704.06401,1049.30037 704.191153,1049.17215 L707.769721,1045.56108 C707.772218,1045.55867 707.77466,1045.55619 707.777048,1045.55369 C707.902246,1045.42351 707.898211,1045.2165 707.76802,1045.09131 Z" id="路径备份" transform="translate(703.934184, 1047.134184) rotate(90.000000) translate(-703.934184, -1047.134184) "></path>
        </g>
    </g>
</svg>