<?xml version="1.0" encoding="UTF-8"?>
<svg xmlns="http://www.w3.org/2000/svg" xmlns:xlink="http://www.w3.org/1999/xlink" width="6" height="9" viewBox="0 0 6 9">
<path fill-rule="nonzero" fill="rgb(75.294118%, 74.901961%, 78.039216%)" fill-opacity="1" stroke-width="0.5" stroke-linecap="butt" stroke-linejoin="miter" stroke="rgb(75.294118%, 74.901961%, 78.039216%)" stroke-opacity="1" stroke-miterlimit="4" d="M 856.768799 1045.090576 C 856.635986 1044.965576 856.428955 1044.969482 856.303955 1045.102295 L 852.956299 1048.481201 L 849.557861 1045.114014 C 849.428955 1044.989014 849.221924 1044.989014 849.093018 1045.11792 C 848.968018 1045.246826 848.968018 1045.453857 849.096924 1045.578857 L 852.706299 1049.156982 C 852.714111 1049.164795 852.721924 1049.164795 852.72583 1049.168701 C 852.858643 1049.301514 853.065674 1049.301514 853.190674 1049.172607 L 856.768799 1045.559326 C 856.772705 1045.559326 856.776611 1045.55542 856.776611 1045.55542 C 856.901611 1045.422607 856.897705 1045.215576 856.768799 1045.090576 Z M 856.768799 1045.090576 " transform="matrix(-0.000000000000000061, 1, 1, 0.000000000000000061, -1044.199951, -848.800049)"/>
</svg>
