<?xml version="1.0" encoding="UTF-8"?>
<svg xmlns="http://www.w3.org/2000/svg" xmlns:xlink="http://www.w3.org/1999/xlink" width="6" height="9" viewBox="0 0 6 9">
<path fill-rule="nonzero" fill="rgb(75.294118%, 74.901961%, 78.039216%)" fill-opacity="1" stroke-width="0.5" stroke-linecap="butt" stroke-linejoin="miter" stroke="rgb(75.294118%, 74.901961%, 78.039216%)" stroke-opacity="1" stroke-miterlimit="4" d="M 707.768799 1045.091797 C 707.635986 1044.966797 707.428955 1044.970703 707.303955 1045.099609 L 703.956299 1048.482422 L 700.557861 1045.115234 C 700.428955 1044.986328 700.221924 1044.990234 700.093018 1045.115234 C 699.968018 1045.244141 699.968018 1045.451172 700.096924 1045.580078 L 703.706299 1049.158203 C 703.714111 1049.162109 703.721924 1049.166016 703.72583 1049.169922 C 703.858643 1049.302734 704.065674 1049.298828 704.190674 1049.173828 L 707.768799 1045.560547 C 707.772705 1045.560547 707.776611 1045.556641 707.776611 1045.552734 C 707.901611 1045.423828 707.897705 1045.216797 707.768799 1045.091797 Z M 707.768799 1045.091797 " transform="matrix(0.000000000000000061, 1, -1, 0.000000000000000061, 1050.068359, -699.800049)"/>
</svg>
