<?xml version="1.0" encoding="UTF-8"?>
<svg xmlns="http://www.w3.org/2000/svg" xmlns:xlink="http://www.w3.org/1999/xlink" width="22" height="24" viewBox="0 0 22 24">
<path fill-rule="nonzero" fill="rgb(17.254902%, 17.254902%, 17.254902%)" fill-opacity="1" d="M 21.546875 12.664062 L 21.546875 12.558594 C 21.503906 12.34375 21.449219 12.128906 21.378906 11.921875 L 21.339844 11.8125 C 21.265625 11.605469 21.171875 11.40625 21.066406 11.214844 C 20.953125 11.003906 20.824219 10.804688 20.679688 10.613281 C 20.535156 10.433594 20.378906 10.261719 20.207031 10.105469 L 20.171875 10.074219 C 19.984375 9.898438 19.785156 9.738281 19.570312 9.601562 C 19.160156 9.324219 18.707031 9.121094 18.226562 9 L 18.226562 7.542969 C 18.226562 6.773438 18.113281 6.011719 17.886719 5.28125 L 17.886719 5.242188 C 17.164062 2.910156 15.347656 1.078125 13.019531 0.34375 C 12.816406 0.28125 12.613281 0.226562 12.417969 0.179688 L 12.257812 0.144531 C 12.082031 0.109375 11.914062 0.0859375 11.734375 0.0664062 L 11.550781 0.0664062 C 11.273438 0 11.039062 0 10.804688 0 C 10.570312 0 10.335938 0 10.109375 0.0351562 L 9.921875 0.0351562 C 9.75 0.0351562 9.574219 0.0859375 9.402344 0.113281 L 9.238281 0.148438 C 9.03125 0.199219 8.824219 0.246094 8.640625 0.3125 C 6.316406 1.050781 4.5 2.878906 3.78125 5.207031 L 3.78125 5.242188 C 3.550781 5.976562 3.4375 6.742188 3.4375 7.511719 L 3.4375 9.003906 C 2.957031 9.128906 2.503906 9.332031 2.09375 9.605469 C 1.898438 9.734375 1.710938 9.875 1.535156 10.03125 L 1.445312 10.078125 C 1.273438 10.238281 1.117188 10.40625 0.972656 10.589844 C 0.828125 10.777344 0.699219 10.980469 0.585938 11.191406 C 0.480469 11.382812 0.390625 11.582031 0.3125 11.789062 L 0.277344 11.898438 C 0.203125 12.105469 0.148438 12.316406 0.109375 12.535156 L 0.109375 12.640625 C 0.0546875 12.878906 0.0195312 13.125 0.00390625 13.367188 L 0.00390625 19.546875 C 0 19.699219 0 19.851562 0.00390625 20.003906 C 0.117188 21.171875 0.683594 22.25 1.582031 23.003906 C 1.910156 23.277344 2.277344 23.5 2.667969 23.667969 C 3.214844 23.894531 3.800781 24.007812 4.390625 24 L 17.21875 24 C 17.804688 24 18.386719 23.882812 18.921875 23.652344 C 19.316406 23.484375 19.683594 23.257812 20.007812 22.984375 C 20.910156 22.230469 21.476562 21.152344 21.585938 19.984375 C 21.59375 19.832031 21.59375 19.679688 21.585938 19.53125 L 21.585938 13.367188 C 21.589844 13.132812 21.578125 12.898438 21.546875 12.664062 Z M 5.40625 7.542969 C 5.394531 5.15625 6.929688 3.039062 9.199219 2.304688 C 9.347656 2.257812 9.496094 2.21875 9.652344 2.183594 L 9.765625 2.183594 L 10.152344 2.125 L 11.449219 2.125 L 11.832031 2.183594 L 11.945312 2.183594 C 12.101562 2.21875 12.25 2.257812 12.402344 2.304688 C 14.675781 3.035156 16.214844 5.152344 16.207031 7.542969 L 16.207031 8.914062 L 5.40625 8.914062 Z M 4.390625 21.941406 C 3.265625 21.925781 2.304688 21.128906 2.074219 20.027344 C 2.042969 19.871094 2.027344 19.707031 2.027344 19.546875 L 2.027344 13.367188 C 2.023438 12.410156 2.59375 11.539062 3.472656 11.160156 C 3.765625 11.035156 4.078125 10.972656 4.390625 10.972656 L 17.21875 10.972656 C 18.53125 10.992188 19.582031 12.0625 19.582031 13.375 L 19.582031 19.554688 C 19.582031 20.867188 18.53125 21.933594 17.21875 21.953125 L 4.390625 21.953125 Z M 4.390625 21.941406 "/>
<path fill-rule="nonzero" fill="rgb(17.254902%, 17.254902%, 17.254902%)" fill-opacity="1" d="M 10.804688 12.339844 C 9.101562 12.335938 7.71875 13.710938 7.710938 15.414062 C 7.707031 16.734375 8.542969 17.910156 9.792969 18.339844 L 9.792969 19.589844 C 9.796875 20.144531 10.25 20.59375 10.804688 20.597656 C 11.367188 20.59375 11.824219 20.136719 11.820312 19.570312 L 11.820312 18.324219 C 13.421875 17.742188 14.246094 15.972656 13.664062 14.371094 C 13.226562 13.167969 12.085938 12.359375 10.804688 12.339844 Z M 9.792969 15.425781 C 9.800781 14.867188 10.261719 14.417969 10.824219 14.429688 C 11.382812 14.441406 11.828125 14.902344 11.820312 15.460938 C 11.808594 16.015625 11.359375 16.457031 10.804688 16.457031 C 10.242188 16.453125 9.789062 15.996094 9.792969 15.433594 C 9.792969 15.429688 9.792969 15.425781 9.792969 15.425781 Z M 9.792969 15.425781 "/>
</svg>
