<?xml version="1.0" encoding="UTF-8"?>
<svg width="22px" height="24px" viewBox="0 0 22 24" version="1.1" xmlns="http://www.w3.org/2000/svg" xmlns:xlink="http://www.w3.org/1999/xlink">
    <title>密码@2x</title>
    <g id="History" stroke="none" stroke-width="1" fill="none" fill-rule="evenodd">
        <g id="登陆注册验证" transform="translate(-1408.000000, -244.000000)" fill="#2C2C2C" fill-rule="nonzero">
            <g id="密码" transform="translate(1408.000000, 244.000000)">
                <path d="M21.5453056,12.6657402 L21.5453056,12.5577425 L21.5453056,12.5577424 C21.5050453,12.3418987 21.4488937,12.1293255 21.3773089,11.9217557 L21.3413095,11.8137579 L21.3413095,11.8137578 C21.2642523,11.6072214 21.1720017,11.4066761 21.0653139,11.2137689 L21.0653138,11.2137688 C20.9534817,11.0038759 20.8250768,10.8032418 20.6813204,10.6137798 L20.6813205,10.6137799 C20.5368607,10.4316862 20.3783811,10.2611693 20.2073293,10.103791 L20.17133,10.0737917 L20.1713299,10.0737917 C19.9854342,9.89872153 19.7846834,9.74012798 19.571341,9.59980048 L19.5713409,9.59980047 C19.1609123,9.32450328 18.7063415,9.12156945 18.2273675,8.99981149 L18.2273675,7.54184026 L18.2273676,7.54171231 C18.227742,6.77482001 18.1124344,6.01225897 17.8853367,5.27976358 L17.8853367,5.24376424 L17.8853369,5.24376493 C17.1651298,2.91089425 15.3469824,1.07931477 13.0194719,0.341993601 C12.8154759,0.281994703 12.6114808,0.227995812 12.4194829,0.179996694 L12.2574862,0.143997355 C12.0834898,0.107998016 11.9154929,0.0839984571 11.7354973,0.0659989049 L11.5495011,0.0659989049 C11.2735055,-8.34887715e-14 11.0395099,-8.34887715e-14 10.8055143,-8.34887715e-14 C10.571519,-8.34887715e-14 10.3375231,-8.34887715e-14 10.1095276,0.0359993388 L9.92353132,0.0359993388 C9.74953487,0.0359993388 9.57553795,0.0839984571 9.40154244,0.113997789 L9.23954553,0.149997128 C9.02954974,0.197996246 8.82555442,0.24599513 8.63955655,0.311993801 L8.63955658,0.311993791 C6.31570466,1.04983293 4.5003252,2.87866084 3.77964467,5.20790574 L3.77964467,5.24390508 L3.77964415,5.24390678 C3.55196123,5.97832638 3.43665937,6.74295696 3.43765078,7.5118602 L3.43765078,9.00583147 L3.4376504,9.00583157 C2.9586764,9.12758905 2.5041079,9.33052101 2.0936793,9.6058182 L2.09367976,9.60581791 C1.89667328,9.73278251 1.71008712,9.87522994 1.53569083,10.031809 L1.4456926,10.0798081 L1.44569298,10.0798078 C1.27465997,10.2372044 1.11618244,10.4077199 0.971704147,10.5897967 L0.971704217,10.5897966 C0.827970066,10.7792733 0.6995664,10.9799048 0.587710802,11.1897856 L0.58771092,11.1897853 C0.481024233,11.3826921 0.388773657,11.5832358 0.311715286,11.7897743 L0.275715947,11.8977721 L0.27571587,11.8977723 C0.204131333,12.1053412 0.147979705,12.3179158 0.107719659,12.533759 L0.107719659,12.6417568 L0.10771958,12.6417571 C0.054056314,12.8805809 0.019942993,13.1233819 0.00571852334,13.3677463 L0.00571852334,19.5476128 L0.0057186274,19.5476108 C-0.00190613929,19.6995122 -0.0019062096,19.851701 0.00571841928,20.0036019 L0.00571825716,20.0036002 C0.117449637,21.171968 0.684237015,22.249513 1.58368494,23.0035334 L1.5836849,23.0035334 C1.91133684,23.277197 2.27718727,23.5015597 2.66966272,23.6695201 L2.66966288,23.6695201 C3.21501195,23.8962309 3.80110248,24.0085487 4.39162973,23.9995135 L17.2193868,23.9995135 L17.2193866,23.9995135 C17.8051092,24.0003971 18.3848786,23.8819937 18.9233535,23.6515201 L18.9233534,23.6515201 C19.3158289,23.4835598 19.6816793,23.2591994 20.0093313,22.9855334 L20.0093313,22.9855334 C20.9092925,22.2319184 21.4761994,21.1541484 21.5873003,19.9856002 L21.5873002,19.9856024 C21.594925,19.8337009 21.5949251,19.6815122 21.5873004,19.5296112 L21.5873004,13.3677447 L21.5873006,13.3677343 C21.5916095,13.1330028 21.5775667,12.8982947 21.5453004,12.6657522 L21.5453056,12.6657402 Z M5.40557226,7.54185147 L5.40557226,7.54182417 C5.39626324,5.15710264 6.92915252,3.03968612 9.19757235,2.30393526 C9.34756948,2.25593614 9.49756567,2.21993704 9.6535635,2.1839377 L9.76756129,2.1839377 L10.1515547,2.1239388 L11.4475281,2.1239388 L11.8315215,2.1839377 L11.9455193,2.1839377 C12.1015162,2.21993704 12.2515126,2.25593638 12.4015105,2.30393526 L12.4015101,2.30393514 C14.6746596,3.03547427 16.2131083,5.15389158 16.2054262,7.54184748 L16.2054262,8.91582096 L5.40557226,8.91582096 L5.40557226,7.54184748 L5.40557226,7.54185147 Z M4.39163483,21.9415635 L4.39163496,21.9415635 C3.26639224,21.9254672 2.30344972,21.1296688 2.07568148,20.0276012 L2.07568135,20.0276005 C2.04360218,19.869622 2.02767553,19.7088127 2.02767553,19.5476117 L2.02767553,13.3677451 L2.02767553,13.367734 C2.02538917,12.4089962 2.59391904,11.5408772 3.47366303,11.1597854 L3.47366313,11.1597853 C3.7638455,11.0360734 4.07619274,10.9727871 4.39164545,10.9737774 L17.2194026,10.9737774 L17.2194025,10.9737774 C18.530779,10.9934619 19.5833584,12.0622161 19.5833584,13.373745 L19.5833584,19.5536116 L19.5833584,19.5538816 C19.5833584,20.8654058 18.5305142,21.9340328 17.2191447,21.9535797 L4.39166885,21.9535797 L4.39163483,21.9415635 Z" id="形状"></path>
                <path d="M10.8055275,12.3417231 L10.8055275,12.3417231 C9.10232473,12.3361864 7.71709421,13.712404 7.71152298,15.4156184 C7.70723566,16.7355848 8.54346158,17.911926 9.79153803,18.3416297 L9.79153803,19.5896053 L9.79153799,19.5896014 C9.79807155,20.1459005 10.2491862,20.5943494 10.8055134,20.5975861 L10.8055133,20.5975861 C11.3688226,20.5942823 11.8227981,20.1349504 11.8194934,19.5716412 C11.8194933,19.5716294 11.8194933,19.5716177 11.8194932,19.5716059 L11.8194932,18.3236302 L11.8194931,18.3236303 C13.4201262,17.7414749 14.2457693,15.9719791 13.6636116,14.3713366 C13.2254048,13.166486 12.0874731,12.3584187 10.8055223,12.3417231 L10.8055275,12.3417231 Z M9.79154737,15.4256731 L9.79154733,15.4256752 C9.80148714,14.8657573 10.2634479,14.4199123 10.8233657,14.4298522 C11.3832836,14.439792 11.8291286,14.9017527 11.8191888,15.4616705 C11.8093746,16.0145102 11.3584562,16.4575639 10.8055298,16.457653 L10.8055297,16.457653 C10.2422205,16.4543784 9.78822149,15.9950712 9.79147811,15.4317619 C9.79150751,15.4297326 9.79152536,15.4277033 9.79154927,15.425674 L9.79154737,15.4256731 Z" id="形状"></path>
            </g>
        </g>
    </g>
</svg>