<svg width="62" height="62" viewBox="0 0 62 62" fill="none" xmlns="http://www.w3.org/2000/svg">
<g filter="url(#filter0_i)">
<path d="M0 0H58C60.2091 0 62 1.79086 62 4V62L0 0Z" fill="#318BF5"/>
<path d="M58 0H0L16.6489 16.6489V9.73838C16.6489 9.33056 16.9799 8.99995 17.3882 8.99995H52.9096C53.3179 8.99995 53.6489 9.33632 53.6489 9.73838V33.392C53.6489 33.7998 53.3179 34.1304 52.9096 34.1304H35.8889V35.8889L40.7827 40.7827H44.3946C45.0103 40.7827 45.5089 41.2749 45.5089 41.8913C45.5089 42.5034 45.0176 43 44.3946 43H43L62 62V4C62 1.79086 60.2091 0 58 0Z" fill="white"/>
<path d="M34.409 34.409V34.1304H34.1304L34.409 34.409Z" fill="white"/>
<path d="M30.4347 30.4347H50.3175C50.9302 30.4347 51.4289 29.9382 51.4289 29.3261C51.4289 28.7096 50.931 28.2174 50.3175 28.2174H28.2174L30.4347 30.4347Z" fill="white"/>
</g>
<defs>
<filter id="filter0_i" x="0" y="0" width="62" height="62" filterUnits="userSpaceOnUse" color-interpolation-filters="sRGB">
<feFlood flood-opacity="0" result="BackgroundImageFix"/>
<feBlend mode="normal" in="SourceGraphic" in2="BackgroundImageFix" result="shape"/>
<feColorMatrix in="SourceAlpha" type="matrix" values="0 0 0 0 0 0 0 0 0 0 0 0 0 0 0 0 0 0 127 0" result="hardAlpha"/>
<feOffset/>
<feGaussianBlur stdDeviation="2"/>
<feComposite in2="hardAlpha" operator="arithmetic" k2="-1" k3="1"/>
<feColorMatrix type="matrix" values="0 0 0 0 0 0 0 0 0 0 0 0 0 0 0 0 0 0 0.1 0"/>
<feBlend mode="normal" in2="shape" result="effect1_innerShadow"/>
</filter>
</defs>
</svg>
