<?xml version="1.0" encoding="UTF-8"?>
<svg width="19px" height="19px" viewBox="0 0 19 19" version="1.1" xmlns="http://www.w3.org/2000/svg" xmlns:xlink="http://www.w3.org/1999/xlink">
    <!-- Generator: Sketch 64 (93537) - https://sketch.com -->
    <title>提示 (2)@2x</title>
    <desc>Created with Sketch.</desc>
    <g id="👌稿" stroke="none" stroke-width="1" fill="none" fill-rule="evenodd">
        <g id="个人中心/API-management/弹窗02" transform="translate(-306.000000, -491.000000)" fill="#318BF5" fill-rule="nonzero">
            <g id="编组-33">
                <g id="编组-32" transform="translate(267.000000, 179.000000)">
                    <g id="编组-25" transform="translate(31.000000, 228.000000)">
                        <g id="提示-(2)" transform="translate(8.000000, 84.000000)">
                            <path d="M9.5,0 C4.25274148,0 0,4.25274148 0,9.5 C0,14.7472585 4.25274148,19 9.5,19 C14.7472585,19 19,14.7472585 19,9.5 C19,4.25274148 14.7454029,0 9.5,0 Z M9.5,17.5750093 C5.03944428,17.5750093 1.42499072,13.9605557 1.42499072,9.5 C1.42499072,5.03944428 5.03944428,1.42499072 9.5,1.42499072 C13.9605557,1.42499072 17.5750093,5.03944428 17.5750093,9.5 C17.5750093,13.9605557 13.9587001,17.5750093 9.5,17.5750093 Z M11.3183588,12.0030306 C11.0882805,12.0030306 10.184668,13.337113 9.69111339,13.337113 C9.55937505,13.337113 9.49443305,13.2276404 9.49443305,13.1181686 C9.49443305,12.8676799 9.67441347,12.4743211 9.77275271,12.2386758 L10.9565423,9.17715031 C11.5484372,7.65381014 10.7914056,7.24560426 10.0863279,7.24560426 C9.13261656,7.24560426 8.27910108,7.70019396 7.62041029,8.29765573 C7.40703096,8.50175681 6.87636703,9.29404327 6.87636703,9.59462887 C6.87636703,9.69482413 6.97656229,9.8117195 7.09345766,9.8117195 C7.39404327,9.8117195 7.98222678,8.28095859 8.58896494,8.28095859 C8.72070328,8.28095859 8.86914025,8.42197426 8.75410164,8.70400596 L7.60371186,11.4667904 C7.48867288,11.733978 6.93017587,12.6487244 6.93017587,13.4039034 C6.93017587,13.9995095 7.34023368,14.6396457 7.9321285,14.6396457 C9.59277378,14.6396457 11.515036,12.6932544 11.515036,12.2368202 C11.515036,12.09766 11.3999968,12.0030306 11.3183557,12.0030306 L11.3183588,12.0030306 Z M10.9880847,4.35663932 C10.2644517,4.35663932 9.64101455,4.92255689 9.64101455,5.61279187 C9.64101455,6.25663932 10.0844722,6.68154234 10.7580063,6.68154234 C11.4964827,6.68154234 12.1217809,6.14716711 12.1217809,5.42538978 C12.1236309,4.78154234 11.6467755,4.35663932 10.9880847,4.35663932 Z" id="形状"></path>
                        </g>
                    </g>
                </g>
            </g>
        </g>
    </g>
</svg>