<?xml version="1.0" encoding="UTF-8"?>
<svg xmlns="http://www.w3.org/2000/svg" xmlns:xlink="http://www.w3.org/1999/xlink" width="19" height="19" viewBox="0 0 19 19">
<path fill-rule="nonzero" fill="rgb(19.215686%, 54.509804%, 96.078431%)" fill-opacity="1" d="M 9.5 0 C 4.253906 0 0 4.253906 0 9.5 C 0 14.746094 4.253906 19 9.5 19 C 14.746094 19 19 14.746094 19 9.5 C 19 4.253906 14.746094 0 9.5 0 Z M 9.5 17.574219 C 5.039062 17.574219 1.425781 13.960938 1.425781 9.5 C 1.425781 5.039062 5.039062 1.425781 9.5 1.425781 C 13.960938 1.425781 17.574219 5.039062 17.574219 9.5 C 17.574219 13.960938 13.957031 17.574219 9.5 17.574219 Z M 11.316406 12.003906 C 11.089844 12.003906 10.183594 13.335938 9.691406 13.335938 C 9.558594 13.335938 9.496094 13.226562 9.496094 13.117188 C 9.496094 12.867188 9.675781 12.472656 9.773438 12.238281 L 10.957031 9.175781 C 11.546875 7.652344 10.792969 7.246094 10.085938 7.246094 C 9.132812 7.246094 8.277344 7.699219 7.621094 8.296875 C 7.40625 8.5 6.875 9.292969 6.875 9.59375 C 6.875 9.695312 6.976562 9.8125 7.09375 9.8125 C 7.394531 9.8125 7.980469 8.28125 8.589844 8.28125 C 8.722656 8.28125 8.867188 8.421875 8.753906 8.703125 L 7.605469 11.464844 C 7.488281 11.734375 6.929688 12.648438 6.929688 13.402344 C 6.929688 14 7.339844 14.640625 7.933594 14.640625 C 9.59375 14.640625 11.515625 12.691406 11.515625 12.238281 C 11.515625 12.097656 11.398438 12.003906 11.316406 12.003906 Z M 10.988281 4.355469 C 10.265625 4.355469 9.640625 4.921875 9.640625 5.613281 C 9.640625 6.257812 10.085938 6.679688 10.757812 6.679688 C 11.496094 6.679688 12.121094 6.148438 12.121094 5.425781 C 12.125 4.78125 11.648438 4.355469 10.988281 4.355469 Z M 10.988281 4.355469 "/>
</svg>
