<?xml version="1.0" encoding="UTF-8"?>
<svg xmlns="http://www.w3.org/2000/svg" xmlns:xlink="http://www.w3.org/1999/xlink" width="12" height="12" viewBox="0 0 12 12">
<path fill-rule="nonzero" fill="rgb(89.803922%, 87.45098%, 96.078431%)" fill-opacity="1" d="M 10.5 2.25 L 6.5 2.25 L 6.851562 2.25 L 7.152344 1.75 C 7.25 1.597656 7.402344 1.5 7.574219 1.5 C 7.652344 1.5 7.75 1.523438 7.824219 1.574219 L 8.476562 1.949219 C 8.601562 2 8.675781 2.125 8.699219 2.25 L 9.699219 2.25 C 9.699219 2.148438 9.675781 2.074219 9.652344 1.976562 C 9.550781 1.597656 9.300781 1.273438 8.949219 1.074219 L 8.300781 0.699219 C 8.074219 0.574219 7.824219 0.5 7.550781 0.5 C 7.027344 0.5 6.527344 0.773438 6.25 1.25 L 6 1.726562 L 5.726562 1.25 C 5.449219 0.800781 4.949219 0.5 4.425781 0.5 C 4.175781 0.5 3.898438 0.574219 3.675781 0.699219 L 3.023438 1.074219 C 2.675781 1.273438 2.425781 1.597656 2.324219 1.976562 C 2.300781 2.074219 2.273438 2.148438 2.273438 2.25 L 3.273438 2.25 C 3.300781 2.125 3.398438 2 3.5 1.949219 L 4.148438 1.574219 C 4.25 1.523438 4.324219 1.5 4.425781 1.5 C 4.601562 1.5 4.773438 1.597656 4.851562 1.75 L 5.152344 2.25 L 5.5 2.25 L 1.5 2.25 C 0.675781 2.25 0 2.925781 0 3.75 L 0 4.75 C 0 5.300781 0.300781 5.773438 0.75 6.050781 L 0.75 9.5 C 0.75 10.601562 1.648438 11.5 2.75 11.5 L 9.25 11.5 C 10.351562 11.5 11.25 10.601562 11.25 9.5 L 11.25 6.050781 C 11.699219 5.800781 12 5.300781 12 4.75 L 12 3.75 C 12 2.925781 11.324219 2.25 10.5 2.25 Z M 10.5 3.25 C 10.777344 3.25 11 3.476562 11 3.75 L 11 4.75 C 11 5.023438 10.777344 5.25 10.5 5.25 L 6.5 5.25 L 6.5 3.25 Z M 1 3.75 C 1 3.476562 1.226562 3.25 1.5 3.25 L 5.5 3.25 L 5.5 5.25 L 1.5 5.25 C 1.226562 5.25 1 5.023438 1 4.75 Z M 9.25 10.5 L 2.75 10.5 C 2.199219 10.5 1.75 10.050781 1.75 9.5 L 1.75 6.25 L 5.5 6.25 L 5.5 10.5 L 6.5 10.5 L 6.5 6.25 L 10.25 6.25 L 10.25 9.5 C 10.25 10.050781 9.800781 10.5 9.25 10.5 Z M 9.25 10.5 "/>
</svg>
