<svg width="12" height="12" viewBox="0 0 12 12" fill="none" xmlns="http://www.w3.org/2000/svg">
<g clip-path="url(#clip0)">
<path d="M10.5009 2.24965H6.50053H6.85056L7.15058 1.74961C7.25059 1.5996 7.4006 1.49959 7.57562 1.49959C7.65062 1.49959 7.75063 1.5246 7.82564 1.5746L8.47569 1.94963C8.6007 1.99963 8.67571 2.12464 8.70071 2.24965H9.70079C9.70079 2.14965 9.67579 2.07464 9.65078 1.97463C9.55078 1.5996 9.30076 1.27457 8.95073 1.07456L8.30067 0.699528C8.07566 0.574518 7.82564 0.499512 7.55061 0.499512C7.02557 0.499512 6.52553 0.774534 6.25051 1.24957L6.00049 1.72461L5.72547 1.24957C5.45044 0.799536 4.9504 0.499512 4.42536 0.499512C4.17534 0.499512 3.90032 0.574518 3.6753 0.699528L3.02525 1.07456C2.67522 1.27457 2.4252 1.5996 2.32519 1.97463C2.30019 2.07464 2.27518 2.14965 2.27518 2.24965H3.27527C3.30027 2.12464 3.40028 1.99963 3.50028 1.94963L4.15034 1.5746C4.25035 1.5246 4.32535 1.49959 4.42536 1.49959C4.60037 1.49959 4.77539 1.5996 4.85039 1.74961L5.15042 2.24965H5.50045H1.50012C0.675055 2.24965 0 2.92471 0 3.74978V4.74986C0 5.2999 0.300024 5.77494 0.750061 6.04996V9.50024C0.750061 10.6003 1.65013 11.5004 2.75022 11.5004H9.25075C10.3508 11.5004 11.2509 10.6003 11.2509 9.50024V6.04996C11.701 5.79994 12.001 5.2999 12.001 4.74986V3.74978C12.001 2.92471 11.3259 2.24965 10.5009 2.24965V2.24965ZM10.5009 3.24974C10.7759 3.24974 11.0009 3.47475 11.0009 3.74978V4.74986C11.0009 5.02488 10.7759 5.2499 10.5009 5.2499H6.50053V3.24974H10.5009ZM1.00008 3.74978C1.00008 3.47475 1.2251 3.24974 1.50012 3.24974H5.50045V5.2499H1.50012C1.2251 5.2499 1.00008 5.02488 1.00008 4.74986V3.74978V3.74978ZM9.25075 10.5003H2.75022C2.20018 10.5003 1.75014 10.0503 1.75014 9.50024V6.24998H5.50045V10.5003H6.50053V6.24998H10.2508V9.50024C10.2508 10.0503 9.8008 10.5003 9.25075 10.5003Z" fill="#318BF5"/>
</g>
<defs>
<clipPath id="clip0">
<rect width="12" height="12" fill="white"/>
</clipPath>
</defs>
</svg>
