<?xml version="1.0" encoding="UTF-8"?>
<svg xmlns="http://www.w3.org/2000/svg" xmlns:xlink="http://www.w3.org/1999/xlink" width="6" height="9" viewBox="0 0 6 9">
<path fill-rule="nonzero" fill="rgb(19.215686%, 54.509804%, 96.078431%)" fill-opacity="1" stroke-width="0.5" stroke-linecap="butt" stroke-linejoin="miter" stroke="rgb(19.215686%, 54.509804%, 96.078431%)" stroke-opacity="1" stroke-miterlimit="4" d="M 91.898438 30.085938 C 91.765625 29.96875 91.554688 29.972656 91.429688 30.09375 L 88.019531 33.261719 L 84.566406 30.109375 C 84.4375 29.988281 84.226562 29.988281 84.097656 30.109375 C 83.96875 30.230469 83.96875 30.421875 84.097656 30.542969 L 87.769531 33.894531 C 87.773438 33.902344 87.78125 33.902344 87.789062 33.90625 C 87.921875 34.03125 88.132812 34.03125 88.261719 33.910156 L 91.898438 30.527344 C 91.902344 30.523438 91.90625 30.519531 91.90625 30.519531 C 92.035156 30.398438 92.03125 30.203125 91.898438 30.085938 Z M 91.898438 30.085938 " transform="matrix(-0.000000000000000061, 1, 1, 0.000000000000000061, -29, -83.5)"/>
</svg>
