<?xml version="1.0" encoding="UTF-8"?>
<svg width="6px" height="9px" viewBox="0 0 6 9" version="1.1" xmlns="http://www.w3.org/2000/svg" xmlns:xlink="http://www.w3.org/1999/xlink">
    <!-- Generator: Sketch 64 (93537) - https://sketch.com -->
    <title>路径备份 19@2x</title>
    <desc>Created with Sketch.</desc>
    <g id="Personal-center" stroke="none" stroke-width="1" fill="none" fill-rule="evenodd">
        <g id="个人中心/Dashboard--最多的币情况" transform="translate(-964.000000, -664.000000)" fill="#318BF5" fill-rule="nonzero" stroke="#318BF5" stroke-width="0.5">
            <g id="编组-9" transform="translate(870.000000, 636.500000)">
                <g id="编组-8" transform="translate(9.000000, 0.000000)">
                    <path d="M91.897974,30.0855737 C91.7656234,29.9682478 91.5551502,29.9720371 91.4278674,30.0940425 L88.0212433,33.2626636 L84.5670043,30.1074536 C84.4365116,29.9881949 84.2258544,29.9890256 84.096447,30.1093101 C83.9670672,30.2295776 83.9679685,30.4237503 84.0984704,30.5430174 L87.7695933,33.8963421 C87.7752221,33.9016065 87.7825616,33.9028442 87.788172,33.9077017 C87.9215527,34.0308345 88.1319983,34.0299868 88.2612678,33.9098295 L91.8997031,30.5258 C91.9022416,30.5235451 91.9047249,30.5212223 91.907153,30.5188741 C92.034445,30.3968857 92.0303429,30.2028911 91.897974,30.0855737 Z" id="路径备份-19" transform="translate(88.000000, 32.000000) scale(-1, 1) rotate(90.000000) translate(-88.000000, -32.000000) "></path>
                </g>
            </g>
        </g>
    </g>
</svg>