<?xml version="1.0" encoding="UTF-8"?>
<svg width="7px" height="12px" viewBox="0 0 7 12" version="1.1" xmlns="http://www.w3.org/2000/svg" xmlns:xlink="http://www.w3.org/1999/xlink">
    <!-- Generator: Sketch 64 (93537) - https://sketch.com -->
    <title>è·¯å¾„å¤‡ä»½ 16@2x</title>
    <desc>Created with Sketch.</desc>
    <g id="ðŸ‘Œç¨¿" stroke="none" stroke-width="1" fill="none" fill-rule="evenodd">
        <g id="ä¸ªäººä¸­å¿ƒ/Dashboard--æœ€å¤šçš„å¸æƒ…å†µ" transform="translate(-1402.000000, -221.000000)" fill="#FFFFFF" fill-rule="nonzero">
            <g id="ç¼–ç»„-15" transform="translate(1222.000000, 212.000000)">
                <path d="M189.346961,11.6497539 C189.148435,11.4444336 188.832725,11.451065 188.641801,11.6645743 L183.531865,17.2096613 L178.350506,11.6880438 C178.154767,11.479341 177.838782,11.4807949 177.64467,11.6912927 C177.450601,11.9017608 177.451953,12.2415629 177.647706,12.4502805 L183.15439,18.3185986 C183.162833,18.3278113 183.173842,18.3299773 183.182258,18.3384779 C183.382329,18.5539604 183.697998,18.5524768 183.891902,18.3422016 L189.349555,12.4201501 C189.353362,12.4162039 189.357087,12.412139 189.360729,12.4080296 C189.551667,12.1945499 189.545514,11.8550594 189.346961,11.6497539 Z" id="è·¯å¾„å¤‡ä»½-16" transform="translate(183.500000, 15.000000) scale(-1, 1) rotate(90.000000) translate(-183.500000, -15.000000) "></path>
            </g>
        </g>
    </g>
</svg>