<?xml version="1.0" encoding="UTF-8"?>
<svg xmlns="http://www.w3.org/2000/svg" xmlns:xlink="http://www.w3.org/1999/xlink" width="137" height="1200" viewBox="0 0 137 1200">
<defs>
<filter id="filter-remove-color" x="0%" y="0%" width="100%" height="100%">
<feColorMatrix color-interpolation-filters="sRGB" values="0 0 0 0 1 0 0 0 0 1 0 0 0 0 1 0 0 0 1 0" />
</filter>
<mask id="mask-0">
<g filter="url(#filter-remove-color)">
<rect x="-13.7" y="-120" width="164.4" height="1440" fill="rgb(0%, 0%, 0%)" fill-opacity="0.2"/>
</g>
</mask>
<clipPath id="clip-0">
<rect x="0" y="0" width="1200" height="137"/>
</clipPath>
<g id="source-6" clip-path="url(#clip-0)">
<path fill-rule="nonzero" fill="rgb(19.215686%, 54.509804%, 96.078431%)" fill-opacity="1" d="M 0 32 L 1200 32 L 1200 137 L 0 137 Z M 0 32 "/>
</g>
<clipPath id="clip-1">
<path clip-rule="nonzero" d="M 33 0 L 137 0 L 137 136 L 33 136 Z M 33 0 "/>
</clipPath>
<mask id="mask-1">
<g filter="url(#filter-remove-color)">
<rect x="-13.7" y="-120" width="164.4" height="1440" fill="rgb(0%, 0%, 0%)" fill-opacity="0.7"/>
</g>
</mask>
<linearGradient id="linear-pattern-0" gradientUnits="userSpaceOnUse" x1="41.2258" y1="127.834999" x2="41.2603" y2="86.553596">
<stop offset="0" stop-color="rgb(40.392157%, 30.588235%, 80.784314%)" stop-opacity="0"/>
<stop offset="0.9969" stop-color="rgb(40.392157%, 30.588235%, 80.784314%)" stop-opacity="1"/>
</linearGradient>
<clipPath id="clip-2">
<rect x="0" y="0" width="1200" height="137"/>
</clipPath>
<g id="source-28" clip-path="url(#clip-2)">
<path fill-rule="nonzero" fill="url(#linear-pattern-0)" d="M 49.507812 85.320312 L 33 85.320312 L 33 129.003906 L 49.507812 129.003906 Z M 49.507812 85.320312 "/>
</g>
<linearGradient id="linear-pattern-1" gradientUnits="userSpaceOnUse" x1="44.701698" y1="88.561302" x2="36.2393" y2="80.580902">
<stop offset="0" stop-color="rgb(19.215686%, 54.509804%, 96.078431%)" stop-opacity="1"/>
<stop offset="0.0388644" stop-color="rgb(50.196078%, 35.294118%, 94.901961%)" stop-opacity="1"/>
<stop offset="0.6418" stop-color="rgb(43.137255%, 31.764706%, 84.705882%)" stop-opacity="1"/>
<stop offset="1" stop-color="rgb(40.392157%, 30.588235%, 80.784314%)" stop-opacity="1"/>
</linearGradient>
<clipPath id="clip-3">
<path clip-rule="nonzero" d="M 33 0 L 137 0 L 137 136 L 33 136 Z M 33 0 "/>
</clipPath>
<mask id="mask-2">
<g filter="url(#filter-remove-color)">
<rect x="-13.7" y="-120" width="164.4" height="1440" fill="rgb(0%, 0%, 0%)" fill-opacity="0.7"/>
</g>
</mask>
<linearGradient id="linear-pattern-2" gradientUnits="userSpaceOnUse" x1="152.574997" y1="101.617996" x2="152.617996" y2="50.8694">
<stop offset="0" stop-color="rgb(40.392157%, 30.588235%, 80.784314%)" stop-opacity="0"/>
<stop offset="0.9969" stop-color="rgb(40.392157%, 30.588235%, 80.784314%)" stop-opacity="1"/>
</linearGradient>
<clipPath id="clip-4">
<rect x="0" y="0" width="1200" height="137"/>
</clipPath>
<g id="source-34" clip-path="url(#clip-4)">
<path fill-rule="nonzero" fill="url(#linear-pattern-2)" d="M 161.042969 49.375 L 144.1875 49.375 L 144.1875 103.097656 L 161.042969 103.097656 Z M 161.042969 49.375 "/>
</g>
</defs>
<g mask="url(#mask-0)">
<use xlink:href="#source-6"/>
</g>
<path fill-rule="nonzero" fill="rgb(19.215686%, 54.509804%, 96.078431%)" fill-opacity="1" d="M 100.035156 0 C 93.441406 0 88.113281 15.691406 88.113281 22.167969 L 88.113281 97.1875 L 100.035156 97.1875 Z M 100.035156 0 "/>
<path fill-rule="nonzero" fill="rgb(89.803922%, 87.45098%, 96.078431%)" fill-opacity="1" d="M 100.035156 0 C 106.628906 0 111.957031 15.691406 111.957031 22.167969 L 111.957031 97.1875 L 100.035156 97.1875 Z M 100.035156 0 "/>
<path fill-rule="nonzero" fill="rgb(40.392157%, 30.588235%, 80.784314%)" fill-opacity="1" d="M 88.113281 44.984375 L 70.644531 73.410156 C 69.902344 74.628906 70.777344 76.191406 72.214844 76.191406 L 88.113281 76.191406 Z M 88.113281 44.984375 "/>
<path fill-rule="nonzero" fill="rgb(19.215686%, 54.509804%, 96.078431%)" fill-opacity="1" d="M 111.957031 44.984375 L 129.46875 73.5 C 130.210938 74.671875 129.339844 76.238281 127.941406 76.238281 L 111.957031 76.238281 Z M 111.957031 44.984375 "/>
<path fill-rule="nonzero" fill="rgb(19.215686%, 54.509804%, 96.078431%)" fill-opacity="1" d="M 88.113281 104.835938 L 88.113281 82.015625 L 78.375 104.835938 Z M 88.113281 104.835938 "/>
<path fill-rule="nonzero" fill="rgb(19.215686%, 54.509804%, 96.078431%)" fill-opacity="1" d="M 88.113281 82.015625 L 111.957031 82.015625 L 121.78125 104.835938 L 88.113281 104.835938 "/>
<path fill-rule="nonzero" fill="rgb(40.392157%, 30.588235%, 80.784314%)" fill-opacity="1" d="M 88.113281 82.015625 L 81.648438 97.144531 L 118.464844 97.144531 L 111.957031 82.015625 Z M 88.113281 82.015625 "/>
<path fill-rule="nonzero" fill="rgb(89.803922%, 87.45098%, 96.078431%)" fill-opacity="1" d="M 100.035156 97.144531 L 96.410156 97.144531 L 96.410156 127.960938 L 100.035156 127.960938 Z M 100.035156 97.144531 "/>
<path fill-rule="nonzero" fill="rgb(40.392157%, 30.588235%, 80.784314%)" fill-opacity="1" d="M 103.660156 97.144531 L 100.035156 97.144531 L 100.035156 136 L 103.660156 136 Z M 103.660156 97.144531 "/>
<path fill-rule="nonzero" fill="rgb(40.392157%, 30.588235%, 80.784314%)" fill-opacity="1" d="M 96.410156 97.144531 L 92.785156 97.144531 L 92.785156 124.351562 L 96.410156 124.351562 Z M 96.410156 97.144531 "/>
<path fill-rule="nonzero" fill="rgb(89.803922%, 87.45098%, 96.078431%)" fill-opacity="1" d="M 107.285156 97.144531 L 103.660156 97.144531 L 103.660156 126.132812 L 107.285156 126.132812 Z M 107.285156 97.144531 "/>
<path fill-rule="nonzero" fill="rgb(19.215686%, 54.509804%, 96.078431%)" fill-opacity="1" d="M 112.917969 84.234375 L 100.035156 84.234375 L 100.035156 82.015625 L 111.957031 82.015625 Z M 112.917969 84.234375 "/>
<path fill-rule="nonzero" fill="rgb(19.215686%, 54.509804%, 96.078431%)" fill-opacity="1" d="M 115.582031 90.40625 L 100.035156 90.40625 L 100.035156 87.492188 L 114.316406 87.449219 Z M 115.582031 90.40625 "/>
<path fill-rule="nonzero" fill="rgb(19.215686%, 54.509804%, 96.078431%)" fill-opacity="1" d="M 118.464844 97.144531 L 100.035156 97.144531 L 100.035156 93.492188 L 116.890625 93.492188 Z M 118.464844 97.144531 "/>
<path fill-rule="nonzero" fill="rgb(40.392157%, 30.588235%, 80.784314%)" fill-opacity="1" d="M 100.035156 11.996094 C 96.761719 11.996094 94.097656 14.648438 94.097656 17.90625 L 106.019531 17.90625 C 106.019531 14.648438 103.355469 11.996094 100.035156 11.996094 Z M 100.035156 11.996094 "/>
<path fill-rule="nonzero" fill="rgb(19.215686%, 54.509804%, 96.078431%)" fill-opacity="1" d="M 111.957031 28.296875 L 100.035156 28.296875 L 100.035156 25.382812 L 111.957031 25.382812 Z M 111.957031 28.296875 "/>
<path fill-rule="nonzero" fill="rgb(19.215686%, 54.509804%, 96.078431%)" fill-opacity="1" d="M 111.957031 33.726562 L 100.035156 33.726562 L 100.035156 30.773438 L 111.957031 30.773438 Z M 111.957031 33.726562 "/>
<g clip-path="url(#clip-1)">
<g mask="url(#mask-1)">
<use xlink:href="#source-28"/>
</g>
</g>
<path fill-rule="nonzero" fill="rgb(40.392157%, 30.588235%, 80.784314%)" fill-opacity="1" d="M 41.253906 93.535156 C 45.8125 93.535156 49.507812 89.855469 49.507812 85.320312 C 49.507812 80.785156 45.8125 77.105469 41.253906 77.105469 C 36.695312 77.105469 33 80.785156 33 85.320312 C 33 89.855469 36.695312 93.535156 41.253906 93.535156 Z M 41.253906 93.535156 "/>
<path fill-rule="nonzero" fill="url(#linear-pattern-1)" d="M 41.253906 91.101562 C 44.460938 91.101562 47.0625 88.511719 47.0625 85.320312 C 47.0625 82.128906 44.460938 79.539062 41.253906 79.539062 C 38.046875 79.539062 35.445312 82.128906 35.445312 85.320312 C 35.445312 88.511719 38.046875 91.101562 41.253906 91.101562 Z M 41.253906 91.101562 "/>
<g clip-path="url(#clip-3)">
<g mask="url(#mask-2)">
<use xlink:href="#source-34"/>
</g>
</g>
</svg>
