<svg width="15" height="15" viewBox="0 0 15 15" fill="none" xmlns="http://www.w3.org/2000/svg">
<path d="M13.564 14.3391L8.80149 9.57581C6.68288 11.082 3.76352 10.7136 2.08555 8.72825C0.407578 6.7429 0.530787 3.80297 2.36899 1.96498C4.2067 0.126181 7.14693 0.00243929 9.13264 1.68032C11.1184 3.3582 11.487 6.27785 9.98065 8.39664L14.7432 13.16L13.5648 14.3383L13.564 14.3391ZM5.90399 2.16663C4.32374 2.16628 2.9604 3.27554 2.63938 4.82284C2.31837 6.37014 3.12791 7.9302 4.57789 8.55851C6.02786 9.18681 7.71974 8.71067 8.62919 7.41835C9.53864 6.12604 9.41571 4.37274 8.33482 3.21998L8.83899 3.71998L8.27065 3.15331L8.26065 3.14331C7.63714 2.51596 6.78848 2.16425 5.90399 2.16663Z" fill="white" fill-opacity="0.5"/>
</svg>
