<?xml version="1.0" encoding="UTF-8"?>
<svg xmlns="http://www.w3.org/2000/svg" xmlns:xlink="http://www.w3.org/1999/xlink" width="55" height="60" viewBox="0 0 55 60">
<path fill-rule="nonzero" fill="rgb(14.509804%, 14.509804%, 27.843137%)" fill-opacity="1" d="M 44 0 C 46.210938 0 48 1.789062 48 4 L 48 56 C 48 58.210938 46.210938 60 44 60 L 4 60 C 1.789062 60 0 58.210938 0 56 L 0 4 C 0 1.789062 1.789062 0 4 0 Z M 10.855469 30 L 10.746094 30.003906 C 9.722656 30.066406 8.941406 30.949219 9.003906 31.976562 L 9.003906 32.371094 C 9 32.445312 9 32.519531 9.003906 32.59375 C 9.066406 33.621094 9.945312 34.40625 10.96875 34.34375 L 28.644531 34.34375 C 28.71875 34.347656 28.792969 34.347656 28.867188 34.34375 C 29.890625 34.28125 30.671875 33.398438 30.609375 32.371094 C 30.609375 30.792969 29.824219 30.003906 28.644531 30.003906 L 10.96875 30.003906 C 10.894531 30 10.820312 30 10.746094 30.003906 Z M 39.648438 20.796875 C 39.488281 19.652344 38.433594 18.859375 37.292969 19.019531 L 10.96875 19.019531 C 10.894531 19.015625 10.820312 19.015625 10.746094 19.019531 C 9.722656 19.082031 8.941406 19.964844 9.003906 20.996094 L 9.003906 21.390625 C 9.003906 22.179688 10.183594 22.96875 11.359375 23.363281 L 37.6875 23.363281 C 37.761719 23.367188 37.835938 23.367188 37.910156 23.363281 C 38.929688 23.300781 39.710938 22.417969 39.648438 21.390625 C 39.679688 21.191406 39.679688 20.992188 39.648438 20.796875 Z M 10.855469 9 L 10.746094 9.003906 C 9.722656 9.066406 8.941406 9.949219 9.003906 10.976562 L 9.003906 11.371094 C 9 11.445312 9 11.519531 9.003906 11.59375 C 9.066406 12.621094 9.945312 13.40625 10.96875 13.34375 L 37.292969 13.34375 C 37.367188 13.347656 37.441406 13.347656 37.515625 13.34375 C 38.539062 13.28125 39.316406 12.398438 39.257812 11.371094 C 39.257812 9.792969 38.472656 9.003906 37.292969 9.003906 L 10.96875 9.003906 C 10.894531 9 10.820312 9 10.746094 9.003906 Z M 10.855469 9 "/>
<path fill-rule="evenodd" fill="rgb(89.803922%, 87.45098%, 96.078431%)" fill-opacity="1" d="M 54.941406 58.5625 L 48.449219 52.070312 C 49.453125 50.765625 50 49.175781 50 47.5 C 50 45.496094 49.21875 43.613281 47.800781 42.199219 C 46.386719 40.78125 44.503906 40 42.5 40 C 40.496094 40 38.613281 40.78125 37.199219 42.199219 C 35.78125 43.613281 35 45.496094 35 47.5 C 35 49.503906 35.78125 51.386719 37.199219 52.800781 C 38.613281 54.21875 40.496094 55 42.5 55 C 44.175781 55 45.765625 54.453125 47.066406 53.449219 L 53.558594 59.941406 C 53.640625 60.019531 53.769531 60.019531 53.851562 59.941406 L 54.941406 58.851562 C 55.019531 58.773438 55.019531 58.640625 54.941406 58.5625 Z M 46.460938 51.460938 C 45.398438 52.515625 43.996094 53.101562 42.5 53.101562 C 41.003906 53.101562 39.601562 52.515625 38.539062 51.460938 C 37.484375 50.398438 36.898438 48.996094 36.898438 47.5 C 36.898438 46.003906 37.484375 44.597656 38.539062 43.539062 C 39.601562 42.484375 41.003906 41.898438 42.5 41.898438 C 43.996094 41.898438 45.402344 42.480469 46.460938 43.539062 C 47.515625 44.601562 48.101562 46.003906 48.101562 47.5 C 48.101562 48.996094 47.515625 50.402344 46.460938 51.460938 Z M 46.460938 51.460938 "/>
</svg>
