<?xml version="1.0" encoding="UTF-8"?>
<svg width="55px" height="60px" viewBox="0 0 55 60" version="1.1" xmlns="http://www.w3.org/2000/svg" xmlns:xlink="http://www.w3.org/1999/xlink">
    <!-- Generator: Sketch 64 (93537) - https://sketch.com -->
    <title>编组 23@2x</title>
    <desc>Created with Sketch.</desc>
    <g id="Personal-center" stroke="none" stroke-width="1" fill="none" fill-rule="evenodd">
        <g id="Wallet-mmanagement/Balance搜索空状态" transform="translate(-800.000000, -473.000000)">
            <g id="编组-49" transform="translate(791.000000, 473.000000)">
                <g id="编组-23" transform="translate(9.000000, 0.000000)">
                    <path d="M44,0 C46.209139,-4.05812251e-16 48,1.790861 48,4 L48,56 C48,58.209139 46.209139,60 44,60 L4,60 C1.790861,60 2.705415e-16,58.209139 0,56 L0,4 C-2.705415e-16,1.790861 1.790861,4.05812251e-16 4,0 L44,0 Z M10.8563086,30 L10.7452905,30.0033381 C9.72194581,30.0649339 8.94206772,30.9482477 9.00338132,31.9762827 L9.00338132,31.9762827 L9.00338132,32.3714727 C8.99895085,32.4457575 8.99895085,32.5202418 9.00338132,32.5945266 C9.06469611,33.6225618 9.94397965,34.4060146 10.9673244,34.3444199 L10.9673244,34.3444199 L28.6457795,34.3444199 C28.7197253,34.3488707 28.7938698,34.3488706 28.8678157,34.3444198 C29.8911545,34.282824 30.6710326,33.3995102 30.6097248,32.3714729 C30.6097248,30.7922155 29.8244467,30.0033381 28.6457818,30.0033381 L28.6457818,30.0033381 L10.9673267,30.0033381 C10.8933808,29.9988873 10.8192363,29.9988873 10.7452905,30.0033381 Z M39.650168,20.7974052 C39.4874273,19.6530046 38.4320171,18.857818 37.2928383,19.021304 L37.2928383,19.021304 L10.9673267,19.021304 C10.8933808,19.0168532 10.8192363,19.0168532 10.7452905,19.021304 C9.72194581,19.0828998 8.94206772,19.9662136 9.00338132,20.9942486 L9.00338132,20.9942486 L9.00338132,21.3894386 C9.00338132,22.178316 10.1820463,22.9671934 11.3607112,23.3623835 L11.3607112,23.3623835 L37.6862228,23.3623835 C37.7601687,23.3668342 37.8343132,23.3668342 37.908259,23.3623834 C38.9315978,23.3007876 39.7114759,22.4174738 39.650168,21.3894389 C39.6780899,21.1930918 39.6780898,20.9937535 39.650168,20.7974052 Z M10.8563086,9 L10.7452905,9.0033381 C9.72194581,9.06493393 8.94206772,9.94824773 9.00338132,10.9762827 L9.00338132,10.9762827 L9.00338132,11.3714727 C8.99895085,11.4457575 8.99895085,11.5202418 9.00338132,11.5945266 C9.06469611,12.6225618 9.94397965,13.4060146 10.9673244,13.3444199 L10.9673244,13.3444199 L37.292836,13.3444199 C37.3667818,13.3488707 37.4409263,13.3488706 37.5148722,13.3444198 C38.538211,13.282824 39.3180891,12.3995102 39.2567813,11.3714729 C39.2567813,9.79221548 38.4715032,9.00333806 37.2928383,9.00333806 L37.2928383,9.00333806 L10.9673267,9.00333806 C10.8933808,8.9988873 10.8192363,8.99888732 10.7452905,9.0033381 Z" id="形状结合备份" fill="#252547" fill-rule="nonzero"></path>
                    <g id="编组-21" transform="translate(35.000000, 40.000000)" fill="#E5DFF5">
                        <path d="M19.94,18.5625 L13.4475,12.07 C14.455,10.7675 15,9.175 15,7.5 C15,5.495 14.2175,3.615 12.8025,2.1975 C11.3875,0.78 9.5025,0 7.5,0 C5.4975,0 3.6125,0.7825 2.1975,2.1975 C0.78,3.6125 0,5.495 0,7.5 C0,9.5025 0.7825,11.3875 2.1975,12.8025 C3.6125,14.22 5.495,15 7.5,15 C9.175,15 10.765,14.455 12.0675,13.45 L18.56,19.94 C18.64,20.02 18.77,20.02 18.85,19.94 L19.94,18.8525 C20.02,18.7725 20.02,18.6425 19.94,18.5625 Z M11.46,11.46 C10.4,12.5175 8.995,13.1 7.5,13.1 C6.005,13.1 4.6,12.5175 3.54,11.46 C2.4825,10.4 1.9,8.995 1.9,7.5 C1.9,6.005 2.4825,4.5975 3.54,3.54 C4.6,2.4825 6.005,1.9 7.5,1.9 C8.995,1.9 10.4025,2.48 11.46,3.54 C12.5175,4.6 13.1,6.005 13.1,7.5 C13.1,8.995 12.5175,10.4025 11.46,11.46 Z" id="形状"></path>
                    </g>
                </g>
            </g>
        </g>
    </g>
</svg>