<?xml version="1.0" encoding="UTF-8"?>
<svg xmlns="http://www.w3.org/2000/svg" xmlns:xlink="http://www.w3.org/1999/xlink" width="15" height="15" viewBox="0 0 15 15">
<path fill-rule="nonzero" fill="rgb(100%, 100%, 100%)" fill-opacity="0.5" d="M 13.5625 14.339844 L 8.800781 9.574219 C 6.683594 11.082031 3.761719 10.714844 2.085938 8.726562 C 0.40625 6.742188 0.53125 3.804688 2.367188 1.964844 C 4.207031 0.125 7.148438 0.00390625 9.132812 1.679688 C 11.117188 3.359375 11.488281 6.277344 9.980469 8.398438 L 14.742188 13.160156 L 13.566406 14.339844 Z M 5.902344 2.167969 C 4.324219 2.167969 2.960938 3.277344 2.640625 4.824219 C 2.320312 6.371094 3.128906 7.929688 4.578125 8.558594 C 6.027344 9.1875 7.71875 8.710938 8.628906 7.417969 C 9.539062 6.125 9.414062 4.371094 8.335938 3.21875 L 8.839844 3.71875 L 8.269531 3.152344 L 8.261719 3.144531 C 7.636719 2.515625 6.789062 2.164062 5.902344 2.167969 Z M 5.902344 2.167969 "/>
</svg>
