<svg width="24" height="24" viewBox="0 0 24 24" fill="none" xmlns="http://www.w3.org/2000/svg">
<path fill-rule="evenodd" clip-rule="evenodd" d="M12.5858 1.60377L19.9212 3.64705L19.9764 3.66983C20.5761 3.91707 21.0034 4.50079 21 5.18741L20.9999 5.1926L20 5.18441H21V5.18741V12.827C21 16.1267 18.844 18.5128 16.8641 20.0155C14.8658 21.5322 12.837 22.3142 12.6355 22.3899L12.2831 21.454L12.6344 22.3903C12.4487 22.46 12.2461 22.5 12.0356 22.5C11.8401 22.5 11.6433 22.4666 11.455 22.3986L11.4525 22.3977C11.255 22.3258 9.20145 21.5589 7.17877 20.046C5.17717 18.549 3 16.1613 3 12.829V5.18441C3.00001 4.85298 3.10198 4.53281 3.28752 4.26369C3.47265 3.99517 3.73124 3.79102 4.02619 3.66961L4.08119 3.64698L11.4163 1.60377C11.7935 1.46541 12.2086 1.46541 12.5858 1.60377ZM12.001 3.51702L5 5.46718V12.829C5 15.2174 6.5607 17.0862 8.37666 18.4445C9.96869 19.6352 11.5991 20.3105 12.0319 20.4787C12.4552 20.3096 14.074 19.6223 15.6549 18.4224C17.4548 17.0563 19 15.188 19 12.827V5.4666L12.001 3.51702ZM11.9307 20.5181L11.9318 20.5177L11.9307 20.5181Z" fill="#318BF5"/>
<path fill-rule="evenodd" clip-rule="evenodd" d="M16.2071 8.79289C16.5976 9.18342 16.5976 9.81658 16.2071 10.2071L12.2071 14.2071C11.8166 14.5976 11.1834 14.5976 10.7929 14.2071L8.29289 11.7071C7.90237 11.3166 7.90237 10.6834 8.29289 10.2929C8.68342 9.90237 9.31658 9.90237 9.70711 10.2929L11.5 12.0858L14.7929 8.79289C15.1834 8.40237 15.8166 8.40237 16.2071 8.79289Z" fill="#318BF5"/>
</svg>
