<?xml version="1.0" encoding="UTF-8"?>
<svg xmlns="http://www.w3.org/2000/svg" xmlns:xlink="http://www.w3.org/1999/xlink" width="18" height="22" viewBox="0 0 18 22">
<path fill-rule="evenodd" fill="rgb(66.27451%, 69.411765%, 72.156863%)" fill-opacity="1" d="M 9.585938 0.605469 L 16.921875 2.648438 L 16.976562 2.667969 C 17.574219 2.917969 18.003906 3.5 18 4.1875 L 18 4.191406 L 17 4.183594 L 18 4.183594 L 18 11.828125 C 18 15.125 15.84375 17.511719 13.863281 19.015625 C 11.867188 20.53125 9.835938 21.3125 9.636719 21.390625 L 9.28125 20.453125 L 9.632812 21.390625 C 9.449219 21.460938 9.246094 21.5 9.035156 21.5 C 8.839844 21.5 8.644531 21.464844 8.453125 21.398438 C 8.253906 21.324219 6.203125 20.558594 4.179688 19.046875 C 2.175781 17.550781 0 15.160156 0 11.828125 L 0 4.183594 C 0 3.851562 0.101562 3.53125 0.289062 3.265625 C 0.472656 2.996094 0.730469 2.792969 1.027344 2.667969 L 1.082031 2.648438 L 8.417969 0.605469 C 8.792969 0.464844 9.207031 0.464844 9.585938 0.605469 Z M 9 2.515625 L 2 4.46875 L 2 11.828125 C 2 14.21875 3.5625 16.085938 5.375 17.445312 C 6.96875 18.636719 8.597656 19.308594 9.03125 19.480469 C 9.457031 19.308594 11.074219 18.621094 12.65625 17.421875 C 14.453125 16.054688 16 14.1875 16 11.828125 L 16 4.464844 Z M 8.929688 19.519531 L 8.933594 19.519531 Z M 8.929688 19.519531 "/>
</svg>
