<svg width="18" height="22" viewBox="0 0 18 22" fill="none" xmlns="http://www.w3.org/2000/svg">
<path fill-rule="evenodd" clip-rule="evenodd" d="M9.58582 0.603768L16.9212 2.64705L16.9764 2.66983C17.5761 2.91707 18.0034 3.50079 18 4.18741L17.9999 4.1926L17 4.18441H18V4.18741V11.827C18 15.1267 15.844 17.5128 13.8641 19.0155C11.8658 20.5322 9.83696 21.3142 9.63545 21.3899L9.28308 20.454L9.63436 21.3903C9.44869 21.46 9.24608 21.5 9.03564 21.5C8.84011 21.5 8.64333 21.4666 8.455 21.3986L8.45247 21.3977C8.25502 21.3258 6.20145 20.5589 4.17877 19.046C2.17717 17.549 0 15.1613 0 11.829V4.18441C6.25849e-06 3.85298 0.101981 3.53281 0.287525 3.26369C0.472651 2.99517 0.731245 2.79102 1.02619 2.66961L1.08119 2.64698L8.41626 0.603768C8.79345 0.465411 9.20863 0.465411 9.58582 0.603768ZM9.00104 2.51702L2 4.46718V11.829C2 14.2174 3.5607 16.0862 5.37666 17.4445C6.96869 18.6352 8.59911 19.3105 9.03195 19.4787C9.45521 19.3096 11.074 18.6223 12.6549 17.4224C14.4548 16.0563 16 14.188 16 11.827V4.4666L9.00104 2.51702ZM8.93071 19.5181L8.93181 19.5177L8.93071 19.5181Z" fill="#A9B1B8"/>
</svg>
