<?xml version="1.0" encoding="UTF-8"?>
<svg xmlns="http://www.w3.org/2000/svg" xmlns:xlink="http://www.w3.org/1999/xlink" width="24" height="24" viewBox="0 0 24 24">
<path fill-rule="evenodd" fill="rgb(19.215686%, 54.509804%, 96.078431%)" fill-opacity="1" d="M 12.585938 1.605469 L 19.921875 3.648438 L 19.976562 3.667969 C 20.574219 3.917969 21.003906 4.5 21 5.1875 L 21 5.191406 L 20 5.183594 L 21 5.183594 L 21 12.828125 C 21 16.125 18.84375 18.511719 16.863281 20.015625 C 14.867188 21.53125 12.835938 22.3125 12.636719 22.390625 L 12.28125 21.453125 L 12.632812 22.390625 C 12.449219 22.460938 12.246094 22.5 12.035156 22.5 C 11.839844 22.5 11.644531 22.464844 11.453125 22.398438 C 11.253906 22.324219 9.203125 21.558594 7.179688 20.046875 C 5.175781 18.550781 3 16.160156 3 12.828125 L 3 5.183594 C 3 4.851562 3.101562 4.53125 3.289062 4.265625 C 3.472656 3.996094 3.730469 3.792969 4.027344 3.667969 L 4.082031 3.648438 L 11.417969 1.605469 C 11.792969 1.464844 12.207031 1.464844 12.585938 1.605469 Z M 12 3.515625 L 5 5.46875 L 5 12.828125 C 5 15.21875 6.5625 17.085938 8.375 18.445312 C 9.96875 19.636719 11.597656 20.308594 12.03125 20.480469 C 12.457031 20.308594 14.074219 19.621094 15.65625 18.421875 C 17.453125 17.054688 19 15.1875 19 12.828125 L 19 5.464844 Z M 11.929688 20.519531 L 11.933594 20.519531 Z M 11.929688 20.519531 "/>
<path fill-rule="evenodd" fill="rgb(19.215686%, 54.509804%, 96.078431%)" fill-opacity="1" d="M 16.207031 8.792969 C 16.597656 9.183594 16.597656 9.816406 16.207031 10.207031 L 12.207031 14.207031 C 11.816406 14.597656 11.183594 14.597656 10.792969 14.207031 L 8.292969 11.707031 C 7.902344 11.316406 7.902344 10.683594 8.292969 10.292969 C 8.683594 9.902344 9.316406 9.902344 9.707031 10.292969 L 11.5 12.085938 L 14.792969 8.792969 C 15.183594 8.402344 15.816406 8.402344 16.207031 8.792969 Z M 16.207031 8.792969 "/>
</svg>
