<?xml version="1.0" encoding="UTF-8"?>
<svg xmlns="http://www.w3.org/2000/svg" xmlns:xlink="http://www.w3.org/1999/xlink" width="16" height="16" viewBox="0 0 16 16">
<path fill-rule="nonzero" fill="rgb(80%, 80%, 80%)" fill-opacity="1" d="M 7.148438 3.371094 L 15.285156 3.371094 C 15.679688 3.371094 16 3.050781 16 2.65625 C 16 2.261719 15.679688 1.941406 15.285156 1.941406 L 7.148438 1.941406 C 6.828125 0.796875 5.789062 0.00390625 4.597656 0 C 3.382812 0 2.367188 0.828125 2.050781 1.941406 L 0.714844 1.941406 C 0.320312 1.941406 0 2.261719 0 2.65625 C 0 3.050781 0.320312 3.371094 0.714844 3.371094 L 2.050781 3.371094 C 2.371094 4.515625 3.410156 5.308594 4.601562 5.3125 C 5.789062 5.308594 6.828125 4.515625 7.148438 3.371094 Z M 3.371094 2.65625 C 3.402344 1.980469 3.972656 1.453125 4.652344 1.480469 C 5.289062 1.507812 5.800781 2.019531 5.828125 2.65625 C 5.800781 3.335938 5.226562 3.863281 4.546875 3.832031 C 3.910156 3.804688 3.398438 3.292969 3.371094 2.65625 Z M 14.917969 8.714844 L 15.285156 8.714844 C 15.679688 8.714844 16 8.394531 16 8 C 16 7.605469 15.679688 7.285156 15.285156 7.285156 L 14.917969 7.285156 C 14.601562 6.140625 13.558594 5.347656 12.371094 5.34375 C 11.15625 5.34375 10.136719 6.167969 9.824219 7.285156 L 0.714844 7.285156 C 0.320312 7.285156 0 7.605469 0 8 C 0 8.394531 0.320312 8.714844 0.714844 8.714844 L 9.824219 8.714844 C 10.140625 9.859375 11.183594 10.652344 12.371094 10.65625 C 13.5625 10.652344 14.601562 9.859375 14.917969 8.714844 Z M 11.144531 8 C 11.140625 7.320312 11.691406 6.769531 12.371094 6.769531 C 13.050781 6.769531 13.601562 7.320312 13.601562 7.996094 C 13.601562 8.675781 13.054688 9.226562 12.375 9.230469 C 12.371094 9.230469 12.371094 9.230469 12.371094 9.230469 C 11.695312 9.230469 11.144531 8.675781 11.144531 8 Z M 7.515625 16 C 8.703125 15.996094 9.742188 15.203125 10.0625 14.058594 L 15.285156 14.058594 C 15.679688 14.058594 16 13.738281 16 13.34375 C 16 12.949219 15.679688 12.628906 15.285156 12.628906 L 10.0625 12.628906 C 9.742188 11.484375 8.703125 10.691406 7.515625 10.6875 C 6.296875 10.6875 5.28125 11.511719 4.96875 12.628906 L 0.714844 12.628906 C 0.320312 12.628906 0 12.949219 0 13.34375 C 0 13.738281 0.320312 14.058594 0.714844 14.058594 L 4.96875 14.058594 C 5.285156 15.203125 6.328125 15.996094 7.515625 16 Z M 6.285156 13.34375 C 6.316406 12.664062 6.890625 12.136719 7.566406 12.167969 C 8.203125 12.195312 8.714844 12.707031 8.742188 13.34375 C 8.714844 14.019531 8.140625 14.546875 7.460938 14.519531 C 6.824219 14.492188 6.3125 13.980469 6.285156 13.34375 Z M 6.285156 13.34375 "/>
</svg>
