<?xml version="1.0" encoding="UTF-8"?>
<svg width="16px" height="16px" viewBox="0 0 16 16" version="1.1" xmlns="http://www.w3.org/2000/svg" xmlns:xlink="http://www.w3.org/1999/xlink">
    <!-- Generator: Sketch 64 (93537) - https://sketch.com -->
    <title>设置@2x</title>
    <desc>Created with Sketch.</desc>
    <g id="方案" stroke="none" stroke-width="1" fill="none" fill-rule="evenodd">
        <g id="个人中心/Sub-accountICON" transform="translate(-273.000000, -485.000000)" fill="#FFFFFF" fill-rule="nonzero">
            <g id="设置" transform="translate(281.000000, 493.000000) rotate(-270.000000) translate(-281.000000, -493.000000) translate(273.000000, 485.000000)">
                <path d="M3.3714258,8.85258843 L3.3714258,0.714297706 L3.3714258,0.714297706 C3.3714258,0.319808185 3.05162855,1.09375127e-05 2.65713903,1.09375127e-05 C2.26264951,1.09375127e-05 1.94285226,0.319808185 1.94285226,0.714297706 L1.94285226,8.85258843 L1.9428523,8.85258842 C0.797255655,9.17069347 0.00325629312,10.2122244 -9.3356843e-06,11.4011695 C-9.3356843e-06,12.6160287 0.826277563,13.6331721 1.9428523,13.9474537 L1.9428523,15.2857412 L1.9428523,15.2857413 C1.94285236,15.6802308 2.26264955,16.0000281 2.65713907,16.0000281 C3.05162859,16.0000281 3.37142584,15.6802308 3.37142584,15.2857413 L3.37142584,13.9474538 L3.37142592,13.9474538 C4.51661632,13.6294628 5.3105063,12.588535 5.31428756,11.400029 L5.31428756,11.4000244 C5.31050424,10.2115106 4.51661474,9.17058435 3.37142591,8.85259961 L3.3714258,8.85258843 Z M2.65713903,12.6285928 L2.65713897,12.6285928 C1.9786163,12.5993192 1.45229694,12.0255374 1.48157041,11.3470148 C1.50907466,10.7095062 2.01963041,10.1989509 2.65713897,10.1714462 L2.65713892,10.1714462 C3.33566159,10.2007198 3.86198095,10.7745016 3.83270748,11.4530243 C3.80520338,12.0905328 3.29464748,12.6010881 2.65713892,12.6285928 L2.65713903,12.6285928 Z M8.7142867,1.08115751 L8.7142867,0.714299269 L8.7142867,0.714299269 C8.7142867,0.319809747 8.39448946,1.25000145e-05 7.99999993,1.25000145e-05 C7.60551041,1.25000145e-05 7.28571317,0.319809747 7.28571317,0.714299269 L7.28571317,1.08115751 L7.28571316,1.08115751 C6.14052277,1.3991485 5.34663278,2.44007628 5.34285153,3.62858235 C5.34285153,4.84458376 6.16913843,5.86172557 7.28571316,6.17600719 L7.28571316,15.2857365 L7.28571316,15.2857366 C7.28571322,15.6802262 7.60551041,16.0000234 7.99999993,16.0000234 C8.39448945,16.0000234 8.7142867,15.6802262 8.7142867,15.2857366 L8.7142867,6.17600729 L8.71428674,6.17600728 C9.85988339,5.85790223 10.6538828,4.81637133 10.6571485,3.62742619 L10.6571485,3.62744759 C10.6528657,2.43935871 9.85908971,1.39902312 8.71430245,1.08114775 L8.7142867,1.08115751 Z M7.99999993,4.85716244 L7.99999995,4.85716244 C7.3208476,4.8577928 6.76977352,4.30774251 6.76914173,3.6285886 C6.76851137,2.94943624 7.31856166,2.39836217 7.99771558,2.39773037 C8.67686793,2.39710001 9.22794201,2.9471503 9.22857379,3.62630422 C9.22857379,3.62706577 9.22857379,3.62782732 9.22857379,3.62858886 C9.22857379,4.30630371 8.6777148,4.85716244 7.99999995,4.85716244 L7.99999993,4.85716244 Z M16.0000093,8.48574425 L16.0000093,8.48573975 C15.9962259,7.29722587 15.2023364,6.25629965 14.0571476,5.93831491 L14.0571476,0.71430883 L14.0571476,0.71430883 C14.0571476,0.319819308 13.7373503,2.20612913e-05 13.3428608,2.20612913e-05 C12.9483713,2.20612913e-05 12.6285741,0.319819308 12.6285741,0.71430883 L12.6285741,5.93831491 L12.6285741,5.93831491 C11.4833837,6.2563059 10.6894937,7.29723368 10.6857124,8.48573975 C10.6857124,9.70174116 11.5119993,10.718883 12.6285741,11.0331646 L12.6285741,15.2857477 L12.6285741,15.2857478 C12.6285741,15.6802373 12.9483713,16.0000345 13.3428608,16.0000345 C13.7373503,16.0000345 14.0571476,15.6802373 14.0571476,15.2857478 L14.0571476,11.0331647 L14.0571476,11.0331647 C15.2027443,10.7150596 15.9967436,9.67352873 16.0000093,8.48458359 L16.0000093,8.48574425 Z M13.3428655,9.71431756 L13.3428656,9.71431756 C12.6643429,9.68504408 12.1380235,9.11126217 12.167297,8.43274106 C12.1948011,7.79523251 12.705357,7.28467723 13.3428656,7.25717251 L13.3428656,7.25717251 C14.0213882,7.28644598 14.5477076,7.8602279 14.5184341,8.538749 C14.49093,9.17625755 13.9803741,9.68681284 13.3428656,9.71431756 L13.3428655,9.71431756 Z" id="形状"></path>
            </g>
        </g>
    </g>
</svg>