<?xml version="1.0" encoding="UTF-8"?>
<svg width="27px" height="14px" viewBox="0 0 27 14" version="1.1" xmlns="http://www.w3.org/2000/svg" xmlns:xlink="http://www.w3.org/1999/xlink">
    <title>4.数据展示/8.Tag标签/Short(特殊标签)</title>
    <g id="4.数据展示/8.Tag标签/Short(特殊标签)" stroke="none" stroke-width="1" fill="none" fill-rule="evenodd">
        <g id="short">
            <rect id="矩形" fill="#F73461" x="0" y="0" width="27" height="14" rx="2"></rect>
            <path d="M6.23678462,10 C7.80952381,10 8.38619484,9.13043478 8.38619484,8.29565217 C8.38619484,6.13043478 4.93490607,6.87826087 4.93490607,5.57391304 C4.93490607,5.02608696 5.44167759,4.65217391 6.13193534,4.65217391 C6.76976846,4.65217391 7.38138925,4.86086957 7.81826125,5.34782609 L8.25513325,4.8173913 C7.76583661,4.30434783 7.07557886,4 6.19309742,4 C5.03975535,4 4.18348624,4.66086957 4.18348624,5.6173913 C4.18348624,7.68695652 7.63477501,6.85217391 7.63477501,8.34782609 C7.63477501,8.8 7.30275229,9.35652174 6.26299694,9.35652174 C5.44167759,9.35652174 4.81258191,8.95652174 4.436872,8.52173913 L4,9.07826087 C4.4805592,9.6173913 5.23197903,10 6.23678462,10 Z M10.1074705,9.89565217 L10.1074705,6.82608696 C10.3521188,6.48695652 10.8414155,6.17391304 11.348187,6.17391304 C11.924858,6.17391304 12.3005679,6.3826087 12.3005679,7.13043478 L12.3005679,9.89565217 L12.9558759,9.89565217 L12.9558759,6.93043478 C12.9558759,6.0173913 12.4927916,5.59130435 11.6103102,5.59130435 C10.9724771,5.59130435 10.395806,5.94782609 10.1074705,6.30434783 L10.1074705,4.09565217 L9.45216252,4.09565217 L9.45216252,9.89565217 L10.1074705,9.89565217 Z M16.1100917,10 C17.3944954,10 18.1983399,9.00869565 18.1983399,7.79130435 C18.1983399,6.57391304 17.3944954,5.59130435 16.1100917,5.59130435 C14.8256881,5.59130435 14.0218436,6.57391304 14.0218436,7.79130435 C14.0218436,9.00869565 14.8256881,10 16.1100917,10 Z M16.1100917,9.4173913 C15.2101354,9.4173913 14.7121014,8.65217391 14.7121014,7.79130435 C14.7121014,6.93913043 15.2101354,6.17391304 16.1100917,6.17391304 C17.0100481,6.17391304 17.5080821,6.93913043 17.5080821,7.79130435 C17.5080821,8.65217391 17.0100481,9.4173913 16.1100917,9.4173913 Z M19.9196156,9.89565217 L19.9196156,6.92173913 C20.1118392,6.5826087 20.6622979,6.25217391 21.0729576,6.25217391 C21.1690695,6.25217391 21.2477064,6.26086957 21.3263434,6.26956522 L21.3263434,5.6 C20.7496723,5.6 20.2603757,5.93043478 19.9196156,6.36521739 L19.9196156,5.69565217 L19.2643076,5.69565217 L19.2643076,9.89565217 L19.9196156,9.89565217 Z M23.2223678,10 C23.5980778,10 23.8339886,9.88695652 24,9.73043478 L23.8077763,9.23478261 C23.7204019,9.33043478 23.5543906,9.4173913 23.3621669,9.4173913 C23.0825688,9.4173913 22.9427698,9.19130435 22.9427698,8.87826087 L22.9427698,6.26956522 L23.7990389,6.26956522 L23.7990389,5.69565217 L22.9427698,5.69565217 L22.9427698,4.54782609 L22.2787243,4.54782609 L22.2787243,5.69565217 L21.5797291,5.69565217 L21.5797291,6.26956522 L22.2787243,6.26956522 L22.2787243,9.0173913 C22.2787243,9.64347826 22.5932722,10 23.2223678,10 Z" id="Short" fill="#FFFFFF" fill-rule="nonzero"></path>
        </g>
    </g>
</svg>