<?xml version="1.0" encoding="UTF-8"?>
<svg xmlns="http://www.w3.org/2000/svg" xmlns:xlink="http://www.w3.org/1999/xlink" width="27" height="14" viewBox="0 0 27 14">
<path fill-rule="evenodd" fill="rgb(96.862745%, 20.392157%, 38.039216%)" fill-opacity="1" d="M 2 0 L 25 0 C 26.105469 0 27 0.894531 27 2 L 27 12 C 27 13.105469 26.105469 14 25 14 L 2 14 C 0.894531 14 0 13.105469 0 12 L 0 2 C 0 0.894531 0.894531 0 2 0 Z M 2 0 "/>
<path fill-rule="nonzero" fill="rgb(100%, 100%, 100%)" fill-opacity="1" d="M 6.238281 10 C 7.808594 10 8.386719 9.128906 8.386719 8.296875 C 8.386719 6.128906 4.933594 6.878906 4.933594 5.574219 C 4.933594 5.027344 5.441406 4.652344 6.132812 4.652344 C 6.769531 4.652344 7.382812 4.859375 7.816406 5.347656 L 8.253906 4.816406 C 7.765625 4.304688 7.074219 4 6.191406 4 C 5.039062 4 4.183594 4.660156 4.183594 5.617188 C 4.183594 7.6875 7.636719 6.851562 7.636719 8.347656 C 7.636719 8.800781 7.304688 9.355469 6.261719 9.355469 C 5.441406 9.355469 4.8125 8.957031 4.4375 8.523438 L 4 9.078125 C 4.480469 9.617188 5.230469 10 6.238281 10 Z M 10.109375 9.894531 L 10.109375 6.824219 C 10.351562 6.488281 10.839844 6.175781 11.347656 6.175781 C 11.925781 6.175781 12.300781 6.382812 12.300781 7.128906 L 12.300781 9.894531 L 12.957031 9.894531 L 12.957031 6.929688 C 12.957031 6.015625 12.492188 5.589844 11.609375 5.589844 C 10.972656 5.589844 10.394531 5.949219 10.109375 6.304688 L 10.109375 4.09375 L 9.453125 4.09375 L 9.453125 9.894531 Z M 16.109375 10 C 17.394531 10 18.199219 9.007812 18.199219 7.792969 C 18.199219 6.574219 17.394531 5.589844 16.109375 5.589844 C 14.824219 5.589844 14.023438 6.574219 14.023438 7.792969 C 14.023438 9.007812 14.824219 10 16.109375 10 Z M 16.109375 9.417969 C 15.210938 9.417969 14.710938 8.652344 14.710938 7.792969 C 14.710938 6.9375 15.210938 6.175781 16.109375 6.175781 C 17.011719 6.175781 17.507812 6.9375 17.507812 7.792969 C 17.507812 8.652344 17.011719 9.417969 16.109375 9.417969 Z M 19.917969 9.894531 L 19.917969 6.921875 C 20.113281 6.582031 20.664062 6.253906 21.074219 6.253906 C 21.167969 6.253906 21.246094 6.261719 21.328125 6.269531 L 21.328125 5.601562 C 20.75 5.601562 20.261719 5.929688 19.917969 6.363281 L 19.917969 5.695312 L 19.265625 5.695312 L 19.265625 9.894531 Z M 23.222656 10 C 23.597656 10 23.835938 9.886719 24 9.730469 L 23.808594 9.234375 C 23.71875 9.332031 23.554688 9.417969 23.363281 9.417969 C 23.082031 9.417969 22.941406 9.191406 22.941406 8.878906 L 22.941406 6.269531 L 23.800781 6.269531 L 23.800781 5.695312 L 22.941406 5.695312 L 22.941406 4.546875 L 22.277344 4.546875 L 22.277344 5.695312 L 21.578125 5.695312 L 21.578125 6.269531 L 22.277344 6.269531 L 22.277344 9.015625 C 22.277344 9.644531 22.59375 10 23.222656 10 Z M 23.222656 10 "/>
</svg>
