<?xml version="1.0" encoding="UTF-8"?>
<svg width="18px" height="14px" viewBox="0 0 18 14" version="1.1" xmlns="http://www.w3.org/2000/svg" xmlns:xlink="http://www.w3.org/1999/xlink">
    <!-- Generator: Sketch 64 (93537) - https://sketch.com -->
    <title>查看@2x</title>
    <desc>Created with Sketch.</desc>
    <g id="Personal-center" stroke="none" stroke-width="1" fill="none" fill-rule="evenodd" fill-opacity="0.6">
        <g id="Wallet-mmanagement/Balance" transform="translate(-396.000000, -201.000000)" fill="#E5DFF5" fill-rule="nonzero">
            <g id="查看" transform="translate(396.000000, 201.000000)">
                <path d="M8.55,0 C2.44285714,0 0,6.75 0,6.75 C0,6.75 2.44285714,13.5 8.55,13.5 C14.6571429,13.5 17.1,6.75 17.1,6.75 C17.1,6.75 14.6571429,0 8.55,0 Z M8.55,10.8 C6.3140625,10.8 4.5,8.98804688 4.5,6.75 C4.5,4.51195312 6.3140625,2.7 8.55,2.7 C10.7859375,2.7 12.6,4.51195312 12.6,6.75 C12.6,8.98804688 10.7859375,10.8 8.55,10.8 Z" id="形状"></path>
                <path d="M10.8,6.75 C10.8,7.9921875 9.7921875,9 8.55,9 C7.3078125,9 6.3,7.9921875 6.3,6.75 C6.3,5.5078125 7.3078125,4.5 8.55,4.5 C9.7921875,4.5 10.8,5.5078125 10.8,6.75 Z" id="路径"></path>
            </g>
        </g>
    </g>
</svg>