<?xml version="1.0" encoding="UTF-8"?>
<svg xmlns="http://www.w3.org/2000/svg" xmlns:xlink="http://www.w3.org/1999/xlink" width="14" height="18" viewBox="0 0 14 18">
<path fill-rule="nonzero" fill="rgb(89.803922%, 87.45098%, 96.078431%)" fill-opacity="0.6" d="M 8.550781 0 C 2.441406 0 0 6.75 0 6.75 C 0 6.75 2.441406 13.5 8.550781 13.5 C 14.65625 13.5 17.101562 6.75 17.101562 6.75 C 17.101562 6.75 14.65625 0 8.550781 0 Z M 8.550781 10.800781 C 6.3125 10.800781 4.5 8.988281 4.5 6.75 C 4.5 4.511719 6.3125 2.699219 8.550781 2.699219 C 10.785156 2.699219 12.601562 4.511719 12.601562 6.75 C 12.601562 8.988281 10.785156 10.800781 8.550781 10.800781 Z M 8.550781 10.800781 "/>
<path fill-rule="nonzero" fill="rgb(89.803922%, 87.45098%, 96.078431%)" fill-opacity="0.6" d="M 10.800781 6.75 C 10.800781 7.992188 9.792969 9 8.550781 9 C 7.308594 9 6.300781 7.992188 6.300781 6.75 C 6.300781 5.507812 7.308594 4.5 8.550781 4.5 C 9.792969 4.5 10.800781 5.507812 10.800781 6.75 Z M 10.800781 6.75 "/>
</svg>
