<?xml version="1.0" encoding="UTF-8"?>
<svg xmlns="http://www.w3.org/2000/svg" xmlns:xlink="http://www.w3.org/1999/xlink" width="24" height="24" viewBox="0 0 24 24">
<defs>
<filter id="filter-remove-color" x="0%" y="0%" width="100%" height="100%">
<feColorMatrix color-interpolation-filters="sRGB" values="0 0 0 0 1 0 0 0 0 1 0 0 0 0 1 0 0 0 1 0" />
</filter>
<mask id="mask-0">
<g filter="url(#filter-remove-color)">
<rect x="-2.4" y="-2.4" width="28.8" height="28.8" fill="rgb(0%, 0%, 0%)" fill-opacity="0.4"/>
</g>
</mask>
<clipPath id="clip-0">
<rect x="0" y="0" width="24" height="24"/>
</clipPath>
<g id="source-7" clip-path="url(#clip-0)">
<path fill-rule="nonzero" fill="rgb(0%, 34.901961%, 100%)" fill-opacity="1" d="M 18.285156 4.042969 C 17.757812 3.882812 17.199219 4.183594 17.042969 4.714844 C 16.882812 5.242188 17.183594 5.800781 17.714844 5.957031 C 18.371094 6.15625 19 6.921875 19 8 C 19 9.078125 18.371094 9.84375 17.714844 10.042969 C 17.183594 10.199219 16.882812 10.757812 17.042969 11.285156 C 17.199219 11.816406 17.757812 12.117188 18.285156 11.957031 C 19.929688 11.464844 21 9.808594 21 8 C 21 6.191406 19.929688 4.535156 18.285156 4.042969 Z M 18.285156 4.042969 "/>
<path fill-rule="nonzero" fill="rgb(0%, 34.901961%, 100%)" fill-opacity="1" d="M 20.445312 13.105469 C 19.949219 12.859375 19.351562 13.0625 19.105469 13.554688 C 18.859375 14.050781 19.0625 14.648438 19.554688 14.894531 C 20.523438 15.375 21 16.046875 21 17 C 21 17.550781 21.449219 18 22 18 C 22.550781 18 23 17.550781 23 17 C 23 15.125 21.9375 13.84375 20.445312 13.105469 Z M 20.445312 13.105469 "/>
</g>
</defs>
<g mask="url(#mask-0)">
<use xlink:href="#source-7"/>
</g>
<path fill-rule="nonzero" fill="rgb(0%, 34.901961%, 100%)" fill-opacity="1" d="M 6.644531 14.898438 C 8.09375 14.253906 10.007812 14 12 14 C 13.992188 14 15.90625 14.253906 17.355469 14.898438 C 18.835938 15.554688 20 16.714844 20 18.5 C 20 18.964844 19.914062 19.496094 19.597656 20.003906 C 19.28125 20.511719 18.792969 20.894531 18.164062 21.179688 C 16.953125 21.726562 15.015625 22 12 22 C 8.984375 22 7.046875 21.726562 5.835938 21.179688 C 5.207031 20.894531 4.71875 20.511719 4.402344 20.003906 C 4.085938 19.496094 4 18.964844 4 18.5 C 4 16.714844 5.164062 15.554688 6.644531 14.898438 Z M 6.644531 14.898438 "/>
<path fill-rule="nonzero" fill="rgb(0%, 34.901961%, 100%)" fill-opacity="1" d="M 16 8 C 16 10.210938 14.210938 12 12 12 C 9.789062 12 8 10.210938 8 8 C 8 5.789062 9.789062 4 12 4 C 14.210938 4 16 5.789062 16 8 Z M 16 8 "/>
</svg>
