<svg width="24" height="24" viewBox="0 0 24 24" fill="none" xmlns="http://www.w3.org/2000/svg">
<g opacity="0.4">
<path d="M18.2865 4.04192C17.7573 3.88372 17.2001 4.18443 17.0419 4.71357C16.8837 5.24272 17.1844 5.79992 17.7136 5.95812C18.3702 6.15444 19 6.92091 19 8.00002C19 9.07912 18.3702 9.8456 17.7136 10.0419C17.1844 10.2001 16.8837 10.7573 17.0419 11.2865C17.2001 11.8156 17.7573 12.1163 18.2865 11.9581C19.9301 11.4667 21 9.80762 21 8.00002C21 6.19242 19.9301 4.53333 18.2865 4.04192Z" fill="#0059FF"/>
<path d="M20.4445 13.1042C19.9498 12.8587 19.3498 13.0608 19.1042 13.5555C18.8587 14.0502 19.0608 14.6503 19.5555 14.8958C20.525 15.3769 21 16.0458 21 17C21 17.5523 21.4477 18 22 18C22.5523 18 23 17.5523 23 17C23 15.1261 21.9384 13.8456 20.4445 13.1042Z" fill="#0059FF"/>
</g>
<path d="M6.64442 14.8986C8.09544 14.2542 10.0062 14 12 14C13.9938 14 15.9046 14.2542 17.3556 14.8986C18.8348 15.5554 20 16.7142 20 18.5C20 18.9667 19.9148 19.4978 19.5973 20.0043C19.2798 20.5106 18.7921 20.8939 18.1622 21.1789C16.9531 21.7259 15.0161 22 12 22C8.98391 22 7.04688 21.7259 5.83781 21.1789C5.20786 20.8939 4.72017 20.5106 4.40272 20.0043C4.08524 19.4978 4 18.9667 4 18.5C4 16.7142 5.16516 15.5554 6.64442 14.8986Z" fill="#0059FF"/>
<circle cx="12" cy="8" r="4" fill="#0059FF"/>
</svg>
