<?xml version="1.0" encoding="UTF-8"?>
<svg width="12px" height="12px" viewBox="0 0 12 12" version="1.1" xmlns="http://www.w3.org/2000/svg" xmlns:xlink="http://www.w3.org/1999/xlink">
    <!-- Generator: Sketch 64 (93537) - https://sketch.com -->
    <title>五角星 星型 收藏备份 2@2x</title>
    <desc>Created with Sketch.</desc>
    <g id="Personal-center" stroke="none" stroke-width="1" fill="none" fill-rule="evenodd">
        <g id="个人中心/Login-management" transform="translate(-370.000000, -477.000000)" fill="#318BF5" fill-rule="nonzero">
            <g id="编组-13" transform="translate(216.000000, 289.000000)">
                <g id="编组-5" transform="translate(0.000000, 39.000000)">
                    <g id="编组-4">
                        <g id="五角星-星型-收藏备份-2" transform="translate(154.000000, 149.000000)">
                            <path d="M11.4967666,5.10846778 L9.26462734,7.30870397 L9.79186302,10.4193215 C9.86775851,10.8589291 9.57664263,11.2772703 9.14216788,11.3542662 L9.14216796,11.3542661 C8.96741143,11.3850018 8.78739543,11.3560753 8.63106476,11.2721378 L5.86839515,9.8022536 L3.10902242,11.2691961 L3.10902244,11.2691961 C2.7209204,11.4748134 2.23961561,11.3268812 2.03399722,10.9387794 C2.03239625,10.9357576 2.03081478,10.9327254 2.02925293,10.9296832 C1.94749112,10.772026 1.91925944,10.5916371 1.94895773,10.4163799 L2.47545966,7.30576239 L0.243320392,5.10845676 L0.243320394,5.10845676 C-0.0728886979,4.79456769 -0.078926307,4.28508629 0.229754478,3.96378647 L0.229754369,3.96378658 C0.35181753,3.83690465 0.51245634,3.75400658 0.686593463,3.72803343 L3.77264536,3.27522718 L5.15122722,0.450594097 L5.1512272,0.450594127 C5.3405466,0.0556330332 5.81419864,-0.111073357 6.20915974,0.0782449283 C6.37206196,0.156329785 6.50342408,0.287690797 6.58150894,0.450594127 L7.96082343,3.27815776 L11.0457764,3.73096401 C11.4831839,3.7932937 11.7882325,4.2024692 11.7270027,4.64537595 C11.7024376,4.82099833 11.6217756,4.98378955 11.4967499,5.10844802 L11.4967666,5.10846778 Z" id="路径"></path>
                        </g>
                    </g>
                </g>
            </g>
        </g>
    </g>
</svg>