<?xml version="1.0" encoding="UTF-8"?>
<svg width="16px" height="16px" viewBox="0 0 16 16" version="1.1" xmlns="http://www.w3.org/2000/svg" xmlns:xlink="http://www.w3.org/1999/xlink">
    <!-- Generator: Sketch 64 (93537) - https://sketch.com -->
    <title>编组 8@2x</title>
    <desc>Created with Sketch.</desc>
    <g id="Personal-center" stroke="none" stroke-width="1" fill="none" fill-rule="evenodd">
        <g id="个人中心/Login-management" transform="translate(-674.000000, -512.000000)" fill="#09BB07" fill-rule="nonzero">
            <g id="编组-13" transform="translate(216.000000, 289.000000)">
                <g id="编组-5" transform="translate(0.000000, 39.000000)">
                    <g id="编组-4">
                        <g id="编组-8" transform="translate(458.000000, 184.000000)">
                            <g id="错误备份-3">
                                <path d="M15.9835496,8.19767351 C15.9835496,12.4988953 12.4988953,15.9835496 8.19767351,15.9835496 C3.89645174,15.9835496 0.411797449,12.4988953 0.411797449,8.19767351 C0.411797449,3.89645174 3.89645174,0.411797449 8.19767351,0.411797449 C12.4988953,0.411797449 15.9835496,3.89645174 15.9835496,8.19767351 L15.9835496,8.19767351 Z M8.21666346,1.58917383 C4.68453431,1.58917383 1.57018389,4.69402928 1.57018389,8.21666346 C1.57018389,11.8817222 4.54210975,14.863143 8.21666346,14.863143 C11.8912172,14.863143 14.863143,11.8912172 14.863143,8.21666346 C14.8536481,4.71301923 11.7962675,1.58917383 8.21666346,1.58917383 Z" id="形状"></path>
                            </g>
                            <path d="M12.6384982,6.57778836 L8.04116489,11.2231217 C8.03938711,11.2248995 8.03760934,11.2248995 8.03583156,11.2266772 C8.03405378,11.228455 8.03405378,11.2302328 8.032276,11.2320106 C7.99494267,11.2675661 7.95049823,11.2888995 7.90783156,11.3137884 C7.88649823,11.3262328 7.86872045,11.3440106 7.84738711,11.3528995 C7.77805378,11.3813439 7.70516489,11.3955661 7.632276,11.3955661 C7.55938711,11.3955661 7.48472045,11.3813439 7.41538711,11.3528995 C7.392276,11.3440106 7.37449823,11.324455 7.35138711,11.3120106 C7.30872045,11.2871217 7.264276,11.2657884 7.22872045,11.2302328 C7.22694267,11.228455 7.22694267,11.2266772 7.22516489,11.2248995 C7.22338711,11.2231217 7.22160934,11.2231217 7.21983156,11.2213439 L4.96205378,8.89601058 C4.74160934,8.66845503 4.74694267,8.30578836 4.97272045,8.08534392 C5.200276,7.86489947 5.56294267,7.86845503 5.78516489,8.09601058 L7.63760934,10.0000106 L11.8224982,5.77067725 C12.0447204,5.54489947 12.4091649,5.54312169 12.6349427,5.76534392 C12.8589427,5.98756614 12.8607204,6.35201058 12.6384982,6.57778836 L12.6384982,6.57778836 Z" id="路径"></path>
                        </g>
                    </g>
                </g>
            </g>
        </g>
    </g>
</svg>