<?xml version="1.0" encoding="UTF-8"?>
<svg xmlns="http://www.w3.org/2000/svg" xmlns:xlink="http://www.w3.org/1999/xlink" width="16" height="16" viewBox="0 0 16 16">
<path fill-rule="nonzero" fill="rgb(3.529412%, 73.333333%, 2.745098%)" fill-opacity="1" d="M 15.984375 8.199219 C 15.984375 12.5 12.5 15.984375 8.199219 15.984375 C 3.894531 15.984375 0.410156 12.5 0.410156 8.199219 C 0.410156 3.894531 3.894531 0.410156 8.199219 0.410156 C 12.5 0.410156 15.984375 3.894531 15.984375 8.199219 Z M 8.214844 1.589844 C 4.683594 1.589844 1.570312 4.695312 1.570312 8.214844 C 1.570312 11.882812 4.542969 14.863281 8.214844 14.863281 C 11.890625 14.863281 14.863281 11.890625 14.863281 8.214844 C 14.855469 4.714844 11.796875 1.589844 8.214844 1.589844 Z M 8.214844 1.589844 "/>
<path fill-rule="nonzero" fill="rgb(3.529412%, 73.333333%, 2.745098%)" fill-opacity="1" d="M 12.636719 6.578125 L 8.042969 11.222656 C 8.039062 11.226562 8.039062 11.226562 8.035156 11.226562 C 8.035156 11.226562 8.035156 11.230469 8.03125 11.230469 C 7.996094 11.265625 7.949219 11.289062 7.90625 11.3125 C 7.886719 11.328125 7.867188 11.34375 7.847656 11.351562 C 7.777344 11.382812 7.707031 11.394531 7.632812 11.394531 C 7.558594 11.394531 7.484375 11.382812 7.414062 11.351562 C 7.390625 11.34375 7.375 11.324219 7.351562 11.3125 C 7.308594 11.289062 7.265625 11.265625 7.230469 11.230469 C 7.226562 11.226562 7.226562 11.226562 7.226562 11.226562 C 7.222656 11.222656 7.222656 11.222656 7.21875 11.222656 L 4.960938 8.894531 C 4.742188 8.667969 4.746094 8.304688 4.972656 8.085938 C 5.199219 7.863281 5.5625 7.867188 5.785156 8.097656 L 7.636719 10 L 11.824219 5.769531 C 12.042969 5.542969 12.410156 5.542969 12.636719 5.765625 C 12.859375 5.988281 12.859375 6.351562 12.636719 6.578125 Z M 12.636719 6.578125 "/>
</svg>
