<?xml version="1.0" encoding="UTF-8"?>
<svg width="8px" height="8px" viewBox="0 0 8 8" version="1.1" xmlns="http://www.w3.org/2000/svg" xmlns:xlink="http://www.w3.org/1999/xlink">
    <title>疑问@2x</title>
    <g id="History" stroke="none" stroke-width="1" fill="none" fill-rule="evenodd" fill-opacity="0.3">
        <g id="API-management" transform="translate(-862.000000, -783.000000)" fill="#E5DFF5" fill-rule="nonzero">
            <g id="编组-21" transform="translate(240.000000, 704.000000)">
                <g id="疑问" transform="translate(622.000000, 79.000000)">
                    <path d="M4.00000465,7.42857896 C5.89355373,7.42857896 7.42857896,5.89355373 7.42857896,4.00000465 C7.42857896,2.10645558 5.89355373,0.571430352 4.00000465,0.571430352 C2.10645558,0.571430352 0.571430352,2.10645558 0.571430352,4.00000465 C0.571430352,5.89355373 2.10645558,7.42857896 4.00000465,7.42857896 Z M4,8 C1.79086146,8 0,6.20914785 0,4 C0,1.79086146 1.79086146,0 4,0 C6.20914785,0 8,1.79086146 8,4 C8,6.20914785 6.20914785,8 4,8 Z M4.76541961,5.80744426 C4.8237478,5.80744426 4.88946663,5.79753018 4.96323234,5.77770985 C5.0376543,5.75854576 5.09063092,5.74138168 5.1241544,5.7268426 L5.05979495,5.97782727 C4.86733379,6.0504836 4.71379455,6.10596023 4.59845848,6.14427277 C4.48378647,6.18191344 4.35034881,6.20106972 4.19880957,6.20106972 C3.96479368,6.20106972 3.78374659,6.14689778 3.65434019,6.03792109 C3.5242541,5.92893659 3.45988684,5.79024111 3.45988684,5.62315498 L3.45988683,5.62314097 C3.45984074,5.55639886 3.46454601,5.48973847 3.47396692,5.42366417 L3.47396695,5.42366402 C3.48565696,5.345858 3.50132596,5.26870212 3.52091231,5.19249969 L3.76230322,4.3761628 L3.76230333,4.37616239 C3.7827168,4.30277652 3.80082963,4.22877003 3.81661512,4.15425119 C3.83135732,4.08425111 3.83806045,4.02017291 3.83806045,3.96271972 C3.83806045,3.85836022 3.81594324,3.78570389 3.77100569,3.74475853 C3.72608376,3.70314911 3.64092741,3.68333658 3.51352883,3.68333658 L3.51352884,3.68333658 C3.44839994,3.68359068 3.38362478,3.692928 3.32107549,3.71107872 C3.25604417,3.72957093 3.20038785,3.74740689 3.15344248,3.76392254 L3.21781756,3.51228162 C3.37538806,3.45085186 3.52626323,3.39868774 3.67110715,3.35509394 C3.81527138,3.31083607 3.95138873,3.28903917 4.08013888,3.28903917 C4.31213915,3.28903917 4.49050654,3.34253923 4.61656919,3.44953936 C4.74195996,3.55719573 4.80499128,3.69589121 4.80499128,3.86761016 C4.80499128,3.90328207 4.80028815,3.96536808 4.79158502,4.0551885 C4.78352251,4.14434485 4.76676467,4.2262512 4.74328808,4.30087629 L4.50324093,5.11392411 C4.48446747,5.17931481 4.46636589,5.25394771 4.45093618,5.33782281 C4.43484241,5.42171353 4.4274674,5.48511204 4.4274674,5.52804178 C4.4274674,5.63570596 4.45228775,5.7096748 4.50324874,5.74798734 C4.55353786,5.78761239 4.6413739,5.80743273 4.76542092,5.80743273 L4.76541961,5.80744426 Z M5.01752928,1.95030696 C5.12486534,2.041268 5.18616228,2.17410409 5.1851701,2.31356519 C5.1864201,2.45269817 5.1250294,2.58522176 5.01753709,2.6754953 C4.90717759,2.77447979 4.76243523,2.82791735 4.61320849,2.8247611 C4.45563018,2.8247611 4.32016909,2.77455792 4.20752833,2.6754953 C4.09913758,2.58571395 4.03695782,2.45305754 4.03786195,2.31356519 C4.03711407,2.17372128 4.09923133,2.04072894 4.20752833,1.95030696 C4.31799721,1.85040059 4.46327082,1.79623647 4.61320849,1.79905678 C4.76276335,1.79610365 4.90767759,1.85030684 5.01753709,1.95030696 L5.01752928,1.95030696 Z" id="形状"></path>
                </g>
            </g>
        </g>
    </g>
</svg>