<?xml version="1.0" encoding="UTF-8"?>
<svg xmlns="http://www.w3.org/2000/svg" xmlns:xlink="http://www.w3.org/1999/xlink" width="8" height="8" viewBox="0 0 8 8">
<path fill-rule="nonzero" fill="rgb(89.803922%, 87.45098%, 96.078431%)" fill-opacity="0.3" d="M 4 7.429688 C 5.894531 7.429688 7.429688 5.894531 7.429688 4 C 7.429688 2.105469 5.894531 0.570312 4 0.570312 C 2.105469 0.570312 0.570312 2.105469 0.570312 4 C 0.570312 5.894531 2.105469 7.429688 4 7.429688 Z M 4 8 C 1.789062 8 0 6.210938 0 4 C 0 1.789062 1.789062 0 4 0 C 6.210938 0 8 1.789062 8 4 C 8 6.210938 6.210938 8 4 8 Z M 4.765625 5.808594 C 4.824219 5.808594 4.890625 5.796875 4.964844 5.777344 C 5.039062 5.757812 5.089844 5.742188 5.125 5.726562 L 5.058594 5.976562 C 4.867188 6.050781 4.714844 6.105469 4.597656 6.144531 C 4.484375 6.183594 4.351562 6.199219 4.199219 6.199219 C 3.964844 6.199219 3.785156 6.148438 3.65625 6.039062 C 3.523438 5.929688 3.460938 5.789062 3.460938 5.625 C 3.460938 5.554688 3.464844 5.488281 3.472656 5.421875 C 3.484375 5.347656 3.5 5.269531 3.519531 5.191406 L 3.761719 4.375 C 3.78125 4.304688 3.800781 4.230469 3.816406 4.152344 C 3.832031 4.085938 3.839844 4.019531 3.839844 3.960938 C 3.839844 3.859375 3.816406 3.785156 3.769531 3.746094 C 3.726562 3.703125 3.640625 3.683594 3.511719 3.683594 C 3.449219 3.683594 3.382812 3.691406 3.320312 3.710938 C 3.257812 3.730469 3.199219 3.746094 3.152344 3.765625 L 3.21875 3.511719 C 3.375 3.449219 3.527344 3.398438 3.671875 3.355469 C 3.816406 3.3125 3.953125 3.289062 4.082031 3.289062 C 4.3125 3.289062 4.492188 3.34375 4.617188 3.449219 C 4.742188 3.558594 4.804688 3.695312 4.804688 3.867188 C 4.804688 3.902344 4.800781 3.964844 4.792969 4.054688 C 4.785156 4.144531 4.765625 4.226562 4.742188 4.300781 L 4.503906 5.113281 C 4.484375 5.179688 4.464844 5.253906 4.449219 5.335938 C 4.433594 5.421875 4.425781 5.484375 4.425781 5.527344 C 4.425781 5.636719 4.453125 5.710938 4.503906 5.746094 C 4.554688 5.789062 4.640625 5.808594 4.765625 5.808594 Z M 5.015625 1.949219 C 5.125 2.042969 5.1875 2.175781 5.183594 2.3125 C 5.1875 2.453125 5.125 2.585938 5.015625 2.675781 C 4.90625 2.773438 4.761719 2.828125 4.613281 2.824219 C 4.457031 2.824219 4.320312 2.773438 4.207031 2.675781 C 4.097656 2.585938 4.035156 2.453125 4.039062 2.3125 C 4.039062 2.171875 4.097656 2.039062 4.207031 1.949219 C 4.316406 1.851562 4.464844 1.796875 4.613281 1.800781 C 4.761719 1.796875 4.90625 1.851562 5.015625 1.949219 Z M 5.015625 1.949219 "/>
</svg>
