<?xml version="1.0" encoding="UTF-8"?>
<svg xmlns="http://www.w3.org/2000/svg" xmlns:xlink="http://www.w3.org/1999/xlink" width="13" height="12" viewBox="0 0 13 12">
<path fill-rule="nonzero" fill="rgb(19.215686%, 54.509804%, 96.078431%)" fill-opacity="1" stroke-width="0.2" stroke-linecap="butt" stroke-linejoin="miter" stroke="rgb(19.215686%, 54.509804%, 96.078431%)" stroke-opacity="1" stroke-miterlimit="4" d="M 3.511719 0.296875 C 3.871094 0.296875 4.160156 0.589844 4.160156 0.949219 L 4.160156 11.097656 C 4.160156 11.457031 3.871094 11.75 3.511719 11.75 C 3.152344 11.75 2.859375 11.457031 2.859375 11.097656 L 2.859375 2.527344 L 1.328125 4.058594 C 1.074219 4.3125 0.664062 4.3125 0.410156 4.058594 C 0.15625 3.804688 0.15625 3.390625 0.410156 3.136719 L 2.996094 0.550781 C 3.113281 0.394531 3.300781 0.296875 3.511719 0.296875 Z M 3.511719 0.296875 " transform="matrix(0.000000000000000061, 1, -1, 0.000000000000000061, 12.59375, 0.40625)"/>
<path fill-rule="nonzero" fill="rgb(19.215686%, 54.509804%, 96.078431%)" fill-opacity="1" stroke-width="0.2" stroke-linecap="butt" stroke-linejoin="miter" stroke="rgb(19.215686%, 54.509804%, 96.078431%)" stroke-opacity="1" stroke-miterlimit="4" d="M 3.511719 0.296875 C 3.871094 0.296875 4.160156 0.589844 4.160156 0.949219 L 4.160156 11.097656 C 4.160156 11.457031 3.871094 11.75 3.511719 11.75 C 3.152344 11.75 2.859375 11.457031 2.859375 11.097656 L 2.859375 2.527344 L 1.328125 4.058594 C 1.074219 4.3125 0.664062 4.3125 0.410156 4.058594 C 0.15625 3.804688 0.15625 3.390625 0.410156 3.136719 L 2.996094 0.550781 C 3.113281 0.394531 3.300781 0.296875 3.511719 0.296875 Z M 3.511719 0.296875 " transform="matrix(-0.000000000000000061, -1, 1, -0.000000000000000061, 0.40625, 11.375)"/>
</svg>
