<?xml version="1.0" encoding="UTF-8"?>
<svg width="13px" height="12px" viewBox="0 0 13 12" version="1.1" xmlns="http://www.w3.org/2000/svg" xmlns:xlink="http://www.w3.org/1999/xlink">
    <title>编组 19@2x</title>
    <g id="Personal-center" stroke="none" stroke-width="1" fill="none" fill-rule="evenodd">
        <g id="Transfer" transform="translate(-548.000000, -250.000000)" fill="#318BF5" fill-rule="nonzero" stroke="#318BF5" stroke-width="0.2">
            <g id="编组-73" transform="translate(224.000000, 206.000000)">
                <g id="编组-12" transform="translate(316.000000, 36.000000)">
                    <g id="编组-19" transform="translate(8.000000, 8.000000)">
                        <g id="切换" transform="translate(6.593750, 2.906250) rotate(90.000000) translate(-6.593750, -2.906250) translate(4.093750, -3.093750)">
                            <path d="M3.51121301,0.297072707 C3.87048696,0.297072707 4.16174274,0.588328482 4.16174274,0.947602435 L4.16174274,11.0988919 C4.16174274,11.4581659 3.87048696,11.7494216 3.51121301,11.7494216 C3.15193906,11.7494216 2.86068328,11.4581659 2.86068328,11.0988919 L2.86068328,2.52568166 L1.32942707,4.05692274 C1.07537252,4.31097729 0.663481301,4.31097729 0.409441878,4.05692274 C0.155387326,3.80288331 0.155387326,3.39099209 0.409441878,3.13693754 L2.99605398,0.550295186 C3.1150404,0.396270926 3.30153064,0.297072707 3.51121301,0.297072707 Z" id="形状"></path>
                        </g>
                        <g id="切换备份" transform="translate(6.406250, 8.875000) scale(-1, -1) rotate(90.000000) translate(-6.406250, -8.875000) translate(3.906250, 2.875000)">
                            <path d="M3.51121301,0.297072707 C3.87048696,0.297072707 4.16174274,0.588328482 4.16174274,0.947602435 L4.16174274,11.0988919 C4.16174274,11.4581659 3.87048696,11.7494216 3.51121301,11.7494216 C3.15193906,11.7494216 2.86068328,11.4581659 2.86068328,11.0988919 L2.86068328,2.52568166 L1.32942707,4.05692274 C1.07537252,4.31097729 0.663481301,4.31097729 0.409441878,4.05692274 C0.155387326,3.80288331 0.155387326,3.39099209 0.409441878,3.13693754 L2.99605398,0.550295186 C3.1150404,0.396270926 3.30153064,0.297072707 3.51121301,0.297072707 Z" id="形状"></path>
                        </g>
                    </g>
                </g>
            </g>
        </g>
    </g>
</svg>