<?xml version="1.0" encoding="UTF-8"?>
<svg xmlns="http://www.w3.org/2000/svg" xmlns:xlink="http://www.w3.org/1999/xlink" width="20" height="20" viewBox="0 0 20 20">
<path fill-rule="nonzero" fill="rgb(19.215686%, 54.509804%, 96.078431%)" fill-opacity="1" d="M 18.332031 10 C 18.332031 14.601562 14.601562 18.332031 10 18.332031 C 5.398438 18.332031 1.667969 14.601562 1.667969 10 C 1.667969 5.398438 5.398438 1.667969 10 1.667969 C 14.601562 1.667969 18.332031 5.398438 18.332031 10 Z M 18.332031 10 "/>
<path fill-rule="nonzero" fill="rgb(100%, 100%, 100%)" fill-opacity="1" d="M 13.386719 7.082031 C 12.621094 7.082031 11.898438 7.386719 11.359375 7.933594 L 10.519531 8.777344 C 10.511719 8.789062 10.5 8.800781 10.496094 8.8125 C 10.492188 8.828125 10.488281 8.839844 10.488281 8.855469 C 10.488281 8.871094 10.492188 8.886719 10.496094 8.898438 C 10.5 8.914062 10.511719 8.925781 10.519531 8.9375 L 11.042969 9.472656 C 11.0625 9.492188 11.089844 9.503906 11.117188 9.503906 C 11.148438 9.503906 11.171875 9.492188 11.195312 9.472656 L 12.03125 8.628906 C 12.390625 8.261719 12.878906 8.058594 13.386719 8.058594 C 13.898438 8.058594 14.375 8.261719 14.742188 8.628906 C 14.917969 8.808594 15.058594 9.019531 15.15625 9.257812 C 15.25 9.492188 15.300781 9.746094 15.296875 10 C 15.296875 10.515625 15.097656 11.003906 14.742188 11.367188 C 14.378906 11.734375 13.890625 11.9375 13.386719 11.9375 C 12.878906 11.9375 12.390625 11.734375 12.03125 11.367188 L 8.644531 7.933594 C 8.105469 7.386719 7.375 7.082031 6.617188 7.082031 C 5.851562 7.082031 5.128906 7.386719 4.589844 7.933594 C 4.324219 8.203125 4.113281 8.523438 3.96875 8.878906 C 3.824219 9.234375 3.75 9.613281 3.75 10 C 3.75 10.382812 3.824219 10.765625 3.96875 11.117188 C 4.113281 11.472656 4.324219 11.792969 4.589844 12.0625 C 5.128906 12.613281 5.851562 12.914062 6.617188 12.914062 C 7.386719 12.914062 8.105469 12.609375 8.644531 12.0625 L 9.480469 11.21875 C 9.488281 11.210938 9.5 11.199219 9.503906 11.183594 C 9.507812 11.171875 9.511719 11.15625 9.511719 11.140625 C 9.511719 11.125 9.507812 11.109375 9.503906 11.097656 C 9.5 11.082031 9.488281 11.070312 9.480469 11.0625 L 8.957031 10.53125 C 8.9375 10.511719 8.910156 10.5 8.882812 10.5 C 8.851562 10.5 8.824219 10.511719 8.804688 10.53125 L 7.96875 11.371094 C 7.609375 11.734375 7.121094 11.941406 6.613281 11.9375 C 6.109375 11.941406 5.621094 11.734375 5.257812 11.371094 C 5.082031 11.191406 4.941406 10.976562 4.84375 10.742188 C 4.75 10.503906 4.699219 10.25 4.699219 9.996094 C 4.699219 9.480469 4.898438 8.996094 5.257812 8.628906 C 5.621094 8.265625 6.109375 8.058594 6.613281 8.0625 C 7.125 8.0625 7.605469 8.261719 7.96875 8.628906 L 11.351562 12.0625 C 11.894531 12.613281 12.621094 12.917969 13.378906 12.917969 C 14.148438 12.917969 14.867188 12.613281 15.40625 12.0625 C 15.675781 11.796875 15.886719 11.476562 16.03125 11.121094 C 16.175781 10.765625 16.25 10.386719 16.25 10 C 16.253906 9.617188 16.179688 9.234375 16.035156 8.878906 C 15.894531 8.523438 15.679688 8.203125 15.414062 7.933594 C 14.875 7.386719 14.152344 7.082031 13.386719 7.082031 Z M 13.386719 7.082031 "/>
</svg>
