<svg width="20" height="20" viewBox="0 0 20 20" fill="none" xmlns="http://www.w3.org/2000/svg">
<circle cx="9.99984" cy="10.0001" r="8.33333" fill="#318BF5"/>
<path d="M13.3877 7.08326C12.6196 7.08326 11.8999 7.38598 11.361 7.93554L10.5202 8.77676C10.51 8.78721 10.5019 8.79965 10.4963 8.81335C10.4908 8.82705 10.4879 8.84174 10.4879 8.85659C10.4879 8.87143 10.4908 8.88613 10.4963 8.89983C10.5019 8.91353 10.51 8.92597 10.5202 8.93641L11.0431 9.47154C11.0633 9.49178 11.0904 9.5031 11.1186 9.5031C11.1467 9.5031 11.1738 9.49178 11.194 9.47154L12.0294 8.62786C12.391 8.26142 12.8782 8.05698 13.385 8.05896C13.897 8.05896 14.3767 8.26067 14.7407 8.62786C14.9179 8.80675 15.0586 9.02048 15.1544 9.2564C15.2502 9.49233 15.2992 9.74567 15.2984 10.0015C15.2984 10.5172 15.099 11.0051 14.7407 11.3668C14.3791 11.7332 13.8919 11.9376 13.385 11.9357C12.8782 11.9376 12.391 11.7332 12.0294 11.3668L8.64431 7.93554C8.10366 7.38755 7.37549 7.08135 6.61754 7.08326C5.84969 7.08326 5.12976 7.38598 4.59077 7.93554C4.3239 8.20387 4.11197 8.52475 3.96755 8.87915C3.82313 9.23355 3.74915 9.61425 3.75001 9.99869C3.74942 10.3831 3.82352 10.7637 3.96793 11.1181C4.11233 11.4724 4.32412 11.7933 4.59077 12.0618C5.12976 12.6114 5.85207 12.9138 6.61754 12.9138C7.3854 12.9138 8.10533 12.6111 8.64431 12.0618L9.47972 11.2206C9.48995 11.2102 9.49806 11.1977 9.5036 11.184C9.50913 11.1703 9.51199 11.1556 9.51199 11.1408C9.51199 11.1259 9.50913 11.1113 9.5036 11.0975C9.49806 11.0838 9.48995 11.0714 9.47972 11.061L8.95681 10.5311C8.9366 10.5108 8.90953 10.4995 8.88137 10.4995C8.8532 10.4995 8.82613 10.5108 8.80592 10.5311L7.97051 11.3692C7.60896 11.7358 7.12179 11.9403 6.61487 11.9384C6.10784 11.9404 5.62055 11.7358 5.25892 11.3692C5.08168 11.1904 4.94098 10.9767 4.84514 10.7408C4.74929 10.505 4.70024 10.2517 4.70089 9.99593C4.70089 9.48014 4.9003 8.99505 5.25892 8.63062C5.62047 8.26407 6.10764 8.05952 6.61457 8.06142C7.12647 8.06142 7.60623 8.26343 7.97021 8.63062L11.3526 12.0643C11.8934 12.6124 12.6216 12.9186 13.3797 12.9166C14.1475 12.9166 14.8672 12.6139 15.4065 12.0643C15.6742 11.7965 15.8869 11.4758 16.0318 11.1213C16.1767 10.7668 16.2509 10.3859 16.2499 10.0011C16.253 9.61644 16.1805 9.23507 16.0369 8.88002C15.8932 8.52498 15.6814 8.20359 15.4142 7.93523C14.8755 7.38598 14.1529 7.08326 13.3874 7.08326H13.3877Z" fill="white"/>
</svg>
