<svg width="28" height="24" viewBox="0 0 28 24" fill="none" xmlns="http://www.w3.org/2000/svg">
<path d="M14.552 2.66667H26C26.3536 2.66667 26.6927 2.80714 26.9428 3.05719C27.1928 3.30724 27.3333 3.64638 27.3333 4V22.6667C27.3333 23.0203 27.1928 23.3594 26.9428 23.6095C26.6927 23.8595 26.3536 24 26 24H1.99996C1.64634 24 1.3072 23.8595 1.05715 23.6095C0.807102 23.3594 0.666626 23.0203 0.666626 22.6667V1.33333C0.666626 0.979711 0.807102 0.640573 1.05715 0.390524C1.3072 0.140476 1.64634 0 1.99996 0H11.8853L14.552 2.66667ZM3.33329 2.66667V21.3333H24.6666V5.33333H13.448L10.7813 2.66667H3.33329ZM15.3333 13.3333V18.6667H12.6666V13.3333H8.66663L14 8L19.3333 13.3333H15.3333Z" fill="#318BF5"/>
</svg>
