<?xml version="1.0" encoding="UTF-8"?>
<svg xmlns="http://www.w3.org/2000/svg" xmlns:xlink="http://www.w3.org/1999/xlink" width="24" height="28" viewBox="0 0 24 28">
<path fill-rule="nonzero" fill="rgb(19.215686%, 54.509804%, 96.078431%)" fill-opacity="1" d="M 14.550781 2.667969 L 26 2.667969 C 26.355469 2.667969 26.691406 2.808594 26.941406 3.058594 C 27.191406 3.308594 27.332031 3.644531 27.332031 4 L 27.332031 22.667969 C 27.332031 23.019531 27.191406 23.359375 26.941406 23.609375 C 26.691406 23.859375 26.355469 24 26 24 L 2 24 C 1.644531 24 1.308594 23.859375 1.058594 23.609375 C 0.808594 23.359375 0.667969 23.019531 0.667969 22.667969 L 0.667969 1.332031 C 0.667969 0.980469 0.808594 0.640625 1.058594 0.390625 C 1.308594 0.140625 1.644531 0 2 0 L 11.886719 0 Z M 3.332031 2.667969 L 3.332031 21.332031 L 24.667969 21.332031 L 24.667969 5.332031 L 13.449219 5.332031 L 10.78125 2.667969 Z M 15.332031 13.332031 L 15.332031 18.667969 L 12.667969 18.667969 L 12.667969 13.332031 L 8.667969 13.332031 L 14 8 L 19.332031 13.332031 Z M 15.332031 13.332031 "/>
</svg>
