<?xml version="1.0" encoding="UTF-8"?>
<svg xmlns="http://www.w3.org/2000/svg" xmlns:xlink="http://www.w3.org/1999/xlink" width="36" height="48" viewBox="0 0 36 48">
<path fill-rule="nonzero" fill="rgb(19.215686%, 54.509804%, 96.078431%)" fill-opacity="1" d="M 5.332031 35.332031 L 0.667969 35.332031 C 0.667969 27.601562 6.933594 21.332031 14.667969 21.332031 C 22.398438 21.332031 28.667969 27.601562 28.667969 35.332031 L 24 35.332031 C 24 30.179688 19.820312 26 14.667969 26 C 9.511719 26 5.332031 30.179688 5.332031 35.332031 Z M 40.332031 28.332031 L 35.667969 28.332031 L 35.667969 21.332031 L 28.667969 21.332031 L 28.667969 16.667969 L 35.667969 16.667969 L 35.667969 9.667969 L 40.332031 9.667969 L 40.332031 16.667969 L 47.332031 16.667969 L 47.332031 21.332031 L 40.332031 21.332031 Z M 14.667969 19 C 9.511719 19 5.332031 14.820312 5.332031 9.667969 C 5.332031 4.511719 9.511719 0.332031 14.667969 0.332031 C 19.820312 0.332031 24 4.511719 24 9.667969 C 23.992188 14.820312 19.820312 18.992188 14.667969 19 Z M 14.667969 5 C 12.117188 5.003906 10.042969 7.050781 10.003906 9.601562 C 9.96875 12.148438 11.984375 14.253906 14.53125 14.332031 C 17.082031 14.40625 19.21875 12.421875 19.332031 9.875 L 19.332031 10.808594 L 19.332031 9.667969 C 19.332031 7.089844 17.242188 5 14.667969 5 Z M 14.667969 5 "/>
</svg>
