<?xml version="1.0" encoding="UTF-8"?>
<svg width="48px" height="36px" viewBox="0 0 48 36" version="1.1" xmlns="http://www.w3.org/2000/svg" xmlns:xlink="http://www.w3.org/1999/xlink">
    <!-- Generator: Sketch 64 (93537) - https://sketch.com -->
    <title>user_plus@2x</title>
    <desc>Created with Sketch.</desc>
    <g id="user_plus" stroke="none" stroke-width="1" fill="none" fill-rule="evenodd">
        <g id="register_user_plus" fill-rule="nonzero">
            <g id="user_plus_g">
                <g>
              <path d="M5.33342 35.3333H0.666748C0.666748 27.6013 6.93476 21.3333 14.6667 21.3333C22.3987 21.3333 28.6667 27.6013 28.6667 35.3333H24.0001C24.0001 30.1787 19.8214 26 14.6667 26C9.51209 26 5.33342 30.1787 5.33342 35.3333ZM40.3334 28.3333H35.6668V21.3333H28.6667V16.6666H35.6668V9.66665H40.3334V16.6666H47.3334V21.3333H40.3334V28.3333ZM14.6667 19C9.51209 19 5.33342 14.8213 5.33342 9.66665C5.33342 4.51199 9.51209 0.333313 14.6667 0.333313C19.8214 0.333313 24.0001 4.51199 24.0001 9.66665C23.9937 14.8186 19.8187 18.9936 14.6667 19ZM14.6667 4.99998C12.1173 5.00256 10.0418 7.05062 10.0053 9.59977C9.96876 12.1489 11.9847 14.2556 14.533 14.3313C17.0813 14.4069 19.2187 12.4235 19.3334 9.87665V10.81V9.66665C19.3334 7.08932 17.2441 4.99998 14.6667 4.99998Z" fill="#318BF5"/>
                </g>
            </g>
        </g>
    </g>
</svg>