<?xml version="1.0" encoding="UTF-8"?>
<svg xmlns="http://www.w3.org/2000/svg" xmlns:xlink="http://www.w3.org/1999/xlink" width="16" height="16" viewBox="0 0 16 16">
<path fill-rule="nonzero" fill="rgb(21.568627%, 20.392157%, 30.588235%)" fill-opacity="0.85" d="M 8 0.125 C 3.652344 0.125 0.125 3.652344 0.125 8 C 0.125 12.347656 3.652344 15.875 8 15.875 C 12.347656 15.875 15.875 12.347656 15.875 8 C 15.875 3.652344 12.347656 0.125 8 0.125 Z M 8 14.539062 C 4.390625 14.539062 1.460938 11.609375 1.460938 8 C 1.460938 4.390625 4.390625 1.460938 8 1.460938 C 11.609375 1.460938 14.539062 4.390625 14.539062 8 C 14.539062 11.609375 11.609375 14.539062 8 14.539062 Z M 8 14.539062 "/>
<path fill-rule="nonzero" fill="rgb(21.568627%, 20.392157%, 30.588235%)" fill-opacity="0.85" d="M 7.15625 11.09375 C 7.15625 11.316406 7.246094 11.53125 7.402344 11.691406 C 7.5625 11.847656 7.777344 11.9375 8 11.9375 C 8.222656 11.9375 8.4375 11.847656 8.597656 11.691406 C 8.753906 11.53125 8.84375 11.316406 8.84375 11.09375 C 8.84375 10.871094 8.753906 10.65625 8.597656 10.496094 C 8.4375 10.339844 8.222656 10.25 8 10.25 C 7.777344 10.25 7.5625 10.339844 7.402344 10.496094 C 7.246094 10.65625 7.15625 10.871094 7.15625 11.09375 Z M 7.578125 9.125 L 8.421875 9.125 C 8.5 9.125 8.5625 9.0625 8.5625 8.984375 L 8.5625 4.203125 C 8.5625 4.125 8.5 4.0625 8.421875 4.0625 L 7.578125 4.0625 C 7.5 4.0625 7.4375 4.125 7.4375 4.203125 L 7.4375 8.984375 C 7.4375 9.0625 7.5 9.125 7.578125 9.125 Z M 7.578125 9.125 "/>
</svg>
