<?xml version="1.0" encoding="UTF-8"?>
<svg xmlns="http://www.w3.org/2000/svg" xmlns:xlink="http://www.w3.org/1999/xlink" width="12" height="14" viewBox="0 0 12 14">
<path fill-rule="nonzero" fill="rgb(95.294118%, 93.72549%, 100%)" fill-opacity="0.85" d="M 13.722656 5.597656 C 12.242188 2.476562 10 0.90625 7 0.90625 C 3.996094 0.90625 1.757812 2.476562 0.277344 5.597656 C 0.21875 5.722656 0.1875 5.863281 0.1875 6 C 0.1875 6.140625 0.21875 6.277344 0.277344 6.402344 C 1.757812 9.523438 4 11.09375 7 11.09375 C 10.003906 11.09375 12.242188 9.523438 13.722656 6.402344 C 13.84375 6.148438 13.84375 5.855469 13.722656 5.597656 Z M 7 9.96875 C 4.480469 9.96875 2.632812 8.691406 1.332031 6 C 2.632812 3.308594 4.480469 2.03125 7 2.03125 C 9.519531 2.03125 11.367188 3.308594 12.667969 6 C 11.367188 8.691406 9.523438 9.96875 7 9.96875 Z M 7 9.96875 "/>
<path fill-rule="nonzero" fill="rgb(95.294118%, 93.72549%, 100%)" fill-opacity="0.85" d="M 6.9375 3.25 C 5.417969 3.25 4.1875 4.480469 4.1875 6 C 4.1875 7.519531 5.417969 8.75 6.9375 8.75 C 8.457031 8.75 9.6875 7.519531 9.6875 6 C 9.6875 4.480469 8.457031 3.25 6.9375 3.25 Z M 6.9375 7.75 C 5.96875 7.75 5.1875 6.96875 5.1875 6 C 5.1875 5.03125 5.96875 4.25 6.9375 4.25 C 7.90625 4.25 8.6875 5.03125 8.6875 6 C 8.6875 6.96875 7.90625 7.75 6.9375 7.75 Z M 6.9375 7.75 "/>
</svg>
