<svg width="16" height="16" viewBox="0 0 16 16" fill="none" xmlns="http://www.w3.org/2000/svg">
<path d="M8 0.125C3.65117 0.125 0.125 3.65117 0.125 8C0.125 12.3488 3.65117 15.875 8 15.875C12.3488 15.875 15.875 12.3488 15.875 8C15.875 3.65117 12.3488 0.125 8 0.125ZM8 14.5391C4.38945 14.5391 1.46094 11.6105 1.46094 8C1.46094 4.38945 4.38945 1.46094 8 1.46094C11.6105 1.46094 14.5391 4.38945 14.5391 8C14.5391 11.6105 11.6105 14.5391 8 14.5391Z" fill="#37344E" fill-opacity="0.85"/>
<path d="M7.15598 11.0938C7.15598 11.3175 7.24487 11.5321 7.4031 11.6904C7.56134 11.8486 7.77595 11.9375 7.99973 11.9375C8.2235 11.9375 8.43811 11.8486 8.59635 11.6904C8.75458 11.5321 8.84348 11.3175 8.84348 11.0938C8.84348 10.87 8.75458 10.6554 8.59635 10.4971C8.43811 10.3389 8.2235 10.25 7.99973 10.25C7.77595 10.25 7.56134 10.3389 7.4031 10.4971C7.24487 10.6554 7.15598 10.87 7.15598 11.0938ZM7.57785 9.125H8.4216C8.49894 9.125 8.56223 9.06172 8.56223 8.98438V4.20312C8.56223 4.12578 8.49894 4.0625 8.4216 4.0625H7.57785C7.50051 4.0625 7.43723 4.12578 7.43723 4.20312V8.98438C7.43723 9.06172 7.50051 9.125 7.57785 9.125Z" fill="#37344E" fill-opacity="0.85"/>
</svg>
