<svg width="14" height="13" viewBox="0 0 14 13" fill="none" xmlns="http://www.w3.org/2000/svg">
<path d="M13.7219 6.59689C13.1727 5.4397 12.519 4.49595 11.761 3.76564L10.966 4.56064C11.6143 5.18017 12.179 5.99064 12.6672 7.00002C11.3672 9.69064 9.52193 10.9688 7.00005 10.9688C6.24307 10.9688 5.54584 10.8522 4.90834 10.6191L4.04693 11.4805C4.93235 11.8893 5.91672 12.0938 7.00005 12.0938C10.0032 12.0938 12.2438 10.5297 13.7219 7.40158C13.7814 7.27577 13.8122 7.13837 13.8122 6.99924C13.8122 6.8601 13.7814 6.7227 13.7219 6.59689Z" fill="#F3EFFF" fill-opacity="0.85"/>
<path d="M12.7287 1.5869L12.0626 0.920023C12.051 0.908401 12.0372 0.899181 12.022 0.89289C12.0068 0.8866 11.9906 0.883362 11.9742 0.883362C11.9577 0.883362 11.9415 0.8866 11.9263 0.89289C11.9111 0.899181 11.8973 0.908401 11.8857 0.920023L10.1768 2.62815C9.23462 2.1469 8.17571 1.90627 7.00009 1.90627C3.99697 1.90627 1.75634 3.47034 0.278215 6.59846C0.218802 6.72427 0.187988 6.86167 0.187988 7.0008C0.187988 7.13994 0.218802 7.27734 0.278215 7.40315C0.868736 8.6469 1.57967 9.64383 2.41103 10.3939L0.75759 12.0469C0.734166 12.0703 0.721008 12.1021 0.721008 12.1353C0.721008 12.1684 0.734166 12.2002 0.75759 12.2236L1.42462 12.8906C1.44806 12.9141 1.47984 12.9272 1.51298 12.9272C1.54612 12.9272 1.5779 12.9141 1.60134 12.8906L12.7287 1.76377C12.7403 1.75216 12.7495 1.73838 12.7558 1.7232C12.7621 1.70803 12.7653 1.69176 12.7653 1.67534C12.7653 1.65891 12.7621 1.64264 12.7558 1.62747C12.7495 1.61229 12.7403 1.59851 12.7287 1.5869ZM1.3329 7.00002C2.63447 4.3094 4.47978 3.03127 7.00009 3.03127C7.85228 3.03127 8.62712 3.17752 9.33009 3.47487L8.23165 4.5733C7.71145 4.29575 7.11581 4.19274 6.5326 4.27947C5.94939 4.3662 5.4095 4.63808 4.99258 5.05501C4.57565 5.47193 4.30377 6.01182 4.21704 6.59503C4.1303 7.17824 4.23331 7.77388 4.51087 8.29409L3.20743 9.59752C2.48603 8.9608 1.86415 8.09815 1.3329 7.00002ZM5.18759 7.00002C5.18786 6.7245 5.25313 6.45292 5.37808 6.20736C5.50303 5.9618 5.68414 5.74917 5.9067 5.58676C6.12926 5.42434 6.387 5.31671 6.65898 5.27262C6.93095 5.22853 7.20949 5.24921 7.47197 5.33299L5.27056 7.5344C5.21538 7.36165 5.18739 7.18137 5.18759 7.00002Z" fill="#F3EFFF" fill-opacity="0.85"/>
<path d="M6.93747 8.74993C6.88341 8.74993 6.83013 8.74743 6.77732 8.74259L5.95201 9.5679C6.4484 9.758 6.98923 9.80025 7.50911 9.68953C8.029 9.57881 8.50569 9.31987 8.88155 8.94401C9.25741 8.56815 9.51635 8.09146 9.62707 7.57158C9.73779 7.05169 9.69554 6.51086 9.50544 6.01447L8.68013 6.83978C8.68497 6.89259 8.68747 6.94587 8.68747 6.99994C8.68759 7.22978 8.64241 7.4574 8.55451 7.66978C8.46661 7.88215 8.33771 8.07512 8.17518 8.23765C8.01266 8.40017 7.81969 8.52907 7.60732 8.61697C7.39494 8.70488 7.16732 8.75006 6.93747 8.74993Z" fill="#F3EFFF" fill-opacity="0.85"/>
</svg>
