<?xml version="1.0" encoding="UTF-8"?>
<svg xmlns="http://www.w3.org/2000/svg" xmlns:xlink="http://www.w3.org/1999/xlink" width="14" height="13" viewBox="0 0 14 13">
<path fill-rule="nonzero" fill="rgb(95.294118%, 93.72549%, 100%)" fill-opacity="0.85" d="M 13.722656 6.597656 C 13.171875 5.441406 12.519531 4.496094 11.761719 3.765625 L 10.964844 4.5625 C 11.613281 5.179688 12.179688 5.992188 12.667969 7 C 11.367188 9.691406 9.523438 10.96875 7 10.96875 C 6.242188 10.96875 5.546875 10.851562 4.910156 10.617188 L 4.046875 11.480469 C 4.933594 11.890625 5.917969 12.09375 7 12.09375 C 10.003906 12.09375 12.242188 10.53125 13.722656 7.402344 C 13.78125 7.277344 13.8125 7.136719 13.8125 7 C 13.8125 6.859375 13.78125 6.722656 13.722656 6.597656 Z M 13.722656 6.597656 "/>
<path fill-rule="nonzero" fill="rgb(95.294118%, 93.72549%, 100%)" fill-opacity="0.85" d="M 12.730469 1.585938 L 12.0625 0.921875 C 12.050781 0.910156 12.039062 0.898438 12.023438 0.894531 C 12.007812 0.886719 11.992188 0.882812 11.972656 0.882812 C 11.957031 0.882812 11.941406 0.886719 11.925781 0.894531 C 11.910156 0.898438 11.898438 0.910156 11.886719 0.921875 L 10.175781 2.628906 C 9.234375 2.148438 8.175781 1.90625 7 1.90625 C 3.996094 1.90625 1.757812 3.46875 0.277344 6.597656 C 0.21875 6.722656 0.1875 6.863281 0.1875 7 C 0.1875 7.140625 0.21875 7.277344 0.277344 7.402344 C 0.867188 8.648438 1.578125 9.644531 2.410156 10.394531 L 0.757812 12.046875 C 0.734375 12.070312 0.722656 12.101562 0.722656 12.136719 C 0.722656 12.167969 0.734375 12.199219 0.757812 12.222656 L 1.425781 12.890625 C 1.449219 12.914062 1.480469 12.925781 1.511719 12.925781 C 1.546875 12.925781 1.578125 12.914062 1.601562 12.890625 L 12.730469 1.765625 C 12.742188 1.753906 12.75 1.738281 12.753906 1.722656 C 12.761719 1.707031 12.765625 1.691406 12.765625 1.675781 C 12.765625 1.660156 12.761719 1.644531 12.753906 1.628906 C 12.75 1.613281 12.742188 1.597656 12.730469 1.585938 Z M 1.332031 7 C 2.632812 4.308594 4.480469 3.03125 7 3.03125 C 7.851562 3.03125 8.628906 3.175781 9.332031 3.476562 L 8.230469 4.574219 C 7.710938 4.296875 7.117188 4.191406 6.53125 4.28125 C 5.949219 4.367188 5.410156 4.636719 4.992188 5.054688 C 4.574219 5.472656 4.304688 6.011719 4.21875 6.59375 C 4.128906 7.179688 4.234375 7.773438 4.511719 8.292969 L 3.207031 9.597656 C 2.484375 8.960938 1.863281 8.097656 1.332031 7 Z M 5.1875 7 C 5.1875 6.722656 5.253906 6.453125 5.378906 6.207031 C 5.503906 5.960938 5.683594 5.75 5.90625 5.585938 C 6.128906 5.425781 6.386719 5.316406 6.660156 5.273438 C 6.929688 5.230469 7.210938 5.25 7.472656 5.332031 L 5.269531 7.535156 C 5.214844 7.363281 5.1875 7.179688 5.1875 7 Z M 5.1875 7 "/>
<path fill-rule="nonzero" fill="rgb(95.294118%, 93.72549%, 100%)" fill-opacity="0.85" d="M 6.9375 8.75 C 6.882812 8.75 6.832031 8.746094 6.777344 8.742188 L 5.953125 9.566406 C 6.449219 9.757812 6.988281 9.800781 7.507812 9.691406 C 8.027344 9.578125 8.503906 9.320312 8.882812 8.945312 C 9.257812 8.566406 9.515625 8.089844 9.628906 7.570312 C 9.738281 7.050781 9.695312 6.511719 9.503906 6.015625 L 8.679688 6.839844 C 8.683594 6.894531 8.6875 6.945312 8.6875 7 C 8.6875 7.230469 8.640625 7.457031 8.554688 7.667969 C 8.464844 7.882812 8.335938 8.074219 8.175781 8.238281 C 8.011719 8.398438 7.820312 8.527344 7.605469 8.617188 C 7.394531 8.703125 7.167969 8.75 6.9375 8.75 Z M 6.9375 8.75 "/>
</svg>
