<?xml version="1.0" encoding="UTF-8"?>
<svg width="23px" height="19px" viewBox="0 0 23 19" version="1.1" xmlns="http://www.w3.org/2000/svg" xmlns:xlink="http://www.w3.org/1999/xlink">
    <title>形状@2x</title>
    <g id="History" stroke="none" stroke-width="1" fill="none" fill-rule="evenodd">
        <g id="登陆注册验证" transform="translate(-2020.000000, -250.000000)" fill="#333333" fill-rule="nonzero">
            <g id="编组-16" transform="translate(1994.000000, 139.000000)">
                <path d="M44.71875,130 L30.28125,130 C27.921875,130 26,128.115323 26,125.801613 L26,115.198387 C26,112.884677 27.921875,111 30.28125,111 L44.71875,111 C47.078125,111 49,112.884677 49,115.198387 L49,125.801613 C49,128.115323 47.078125,130 44.71875,130 Z M30.28125,112.96129 C29.021875,112.96129 28,113.963387 28,115.198387 L28,125.801613 C28,127.036613 29.021875,128.03871 30.28125,128.03871 L44.71875,128.03871 C45.978125,128.03871 47,127.036613 47,125.801613 L47,115.198387 C47,113.963387 45.978125,112.96129 44.71875,112.96129 L30.28125,112.96129 Z M37.5,121.532748 L26.6656189,118.020824 L27.2937439,116.157599 L37.4999817,119.467276 L47.6437195,116.157599 L48.2749695,118.020824 L37.5,121.532748 Z" id="形状"></path>
            </g>
        </g>
    </g>
</svg>