<?xml version="1.0" encoding="UTF-8"?>
<svg xmlns="http://www.w3.org/2000/svg" xmlns:xlink="http://www.w3.org/1999/xlink" width="19" height="23" viewBox="0 0 19 23">
<path fill-rule="nonzero" fill="rgb(20%, 20%, 20%)" fill-opacity="1" d="M 18.71875 19 L 4.28125 19 C 1.921875 19 0 17.117188 0 14.800781 L 0 4.199219 C 0 1.882812 1.921875 0 4.28125 0 L 18.71875 0 C 21.078125 0 23 1.882812 23 4.199219 L 23 14.800781 C 23 17.117188 21.078125 19 18.71875 19 Z M 4.28125 1.960938 C 3.023438 1.960938 2 2.964844 2 4.199219 L 2 14.800781 C 2 16.035156 3.023438 17.039062 4.28125 17.039062 L 18.71875 17.039062 C 19.976562 17.039062 21 16.035156 21 14.800781 L 21 4.199219 C 21 2.964844 19.976562 1.960938 18.71875 1.960938 Z M 11.5 10.53125 L 0.664062 7.019531 L 1.292969 5.15625 L 11.5 8.46875 L 21.644531 5.15625 L 22.273438 7.019531 Z M 11.5 10.53125 "/>
</svg>
