<?xml version="1.0" encoding="UTF-8"?>
<svg xmlns="http://www.w3.org/2000/svg" xmlns:xlink="http://www.w3.org/1999/xlink" width="20" height="20" viewBox="0 0 20 20">
<path fill-rule="evenodd" fill="rgb(19.215686%, 54.509804%, 96.078431%)" fill-opacity="1" d="M 6.488281 3.628906 C 6.5 3.632812 6.507812 3.636719 6.519531 3.644531 L 14.839844 8.082031 C 14.84375 8.082031 14.851562 8.085938 14.855469 8.089844 L 14.886719 8.105469 C 15.21875 8.28125 15.515625 8.441406 15.738281 8.589844 C 15.964844 8.738281 16.25 8.953125 16.410156 9.300781 C 16.613281 9.746094 16.613281 10.253906 16.410156 10.699219 C 16.25 11.042969 15.964844 11.261719 15.738281 11.410156 C 15.511719 11.558594 15.214844 11.71875 14.882812 11.894531 L 6.492188 16.371094 C 6.191406 16.53125 5.921875 16.675781 5.691406 16.773438 C 5.453125 16.871094 5.140625 16.976562 4.785156 16.929688 C 4.328125 16.871094 3.910156 16.621094 3.640625 16.242188 C 3.433594 15.953125 3.378906 15.628906 3.355469 15.371094 C 3.332031 15.125 3.332031 14.816406 3.332031 14.480469 L 3.332031 5.554688 C 3.332031 5.542969 3.332031 5.53125 3.332031 5.519531 C 3.332031 5.183594 3.332031 4.875 3.355469 4.628906 C 3.378906 4.371094 3.433594 4.046875 3.640625 3.757812 C 3.910156 3.378906 4.328125 3.128906 4.785156 3.070312 C 5.140625 3.023438 5.453125 3.128906 5.691406 3.226562 C 5.921875 3.324219 6.191406 3.46875 6.488281 3.628906 Z M 5.019531 4.753906 C 5.019531 4.761719 5.015625 4.769531 5.015625 4.78125 C 5 4.941406 5 5.171875 5 5.554688 L 5 14.445312 C 5 14.828125 5 15.058594 5.015625 15.21875 C 5.015625 15.230469 5.019531 15.238281 5.019531 15.246094 C 5.027344 15.242188 5.035156 15.242188 5.042969 15.238281 C 5.195312 15.171875 5.398438 15.066406 5.734375 14.886719 L 14.066406 10.441406 C 14.441406 10.242188 14.667969 10.121094 14.824219 10.019531 C 14.832031 10.011719 14.84375 10.003906 14.851562 10 C 14.84375 9.992188 14.832031 9.988281 14.824219 9.980469 C 14.671875 9.882812 14.449219 9.761719 14.085938 9.566406 C 14.082031 9.566406 14.074219 9.5625 14.066406 9.558594 L 5.734375 5.113281 C 5.398438 4.933594 5.195312 4.828125 5.042969 4.761719 C 5.035156 4.757812 5.027344 4.757812 5.019531 4.753906 Z M 5.019531 4.753906 "/>
</svg>
