<svg width="20" height="20" viewBox="0 0 20 20" fill="none" xmlns="http://www.w3.org/2000/svg">
<path fill-rule="evenodd" clip-rule="evenodd" d="M6.48876 3.62746C6.49892 3.63287 6.5091 3.63831 6.51932 3.64376L14.838 8.08036C14.8439 8.08335 14.8498 8.08641 14.8557 8.08954L14.8875 8.10652C15.2173 8.28236 15.5139 8.44051 15.7394 8.58875C15.9651 8.73705 16.2491 8.9548 16.4089 9.3011C16.6133 9.7442 16.6133 10.2552 16.4089 10.6983C16.249 11.0447 15.9648 11.2627 15.7387 11.4114C15.512 11.5604 15.2138 11.7194 14.8819 11.8964L6.49153 16.3713C6.1933 16.5304 5.92096 16.6756 5.68981 16.7729C5.45365 16.8722 5.14035 16.9761 4.78684 16.9305C4.32668 16.8711 3.91144 16.6228 3.64186 16.2437C3.43508 15.953 3.37951 15.6273 3.35614 15.3724C3.33332 15.1235 3.33335 14.816 3.33338 14.4794L3.33338 5.55581C3.33338 5.54422 3.33338 5.53267 3.33338 5.52115C3.33335 5.18452 3.33332 4.87684 3.35613 4.62788C3.37948 4.37302 3.43498 4.04696 3.64186 3.75608C3.91141 3.37711 4.32663 3.12868 4.78684 3.06933C5.14079 3.02367 5.45454 3.12812 5.69031 3.2274C5.92063 3.32439 6.19196 3.46913 6.48876 3.62746ZM5.01853 4.75318C5.01762 4.76145 5.01673 4.77036 5.01585 4.77993C5.00088 4.94335 5.00004 5.173 5.00004 5.55581V14.4447C5.00004 14.8275 5.00088 15.057 5.01584 15.2202C5.01672 15.2297 5.01762 15.2386 5.01852 15.2469C5.02632 15.2437 5.03471 15.2403 5.04368 15.2365C5.19457 15.1731 5.39737 15.066 5.735 14.8859L14.0683 10.4414C14.4409 10.2427 14.669 10.1201 14.8231 10.0187C14.8333 10.012 14.8427 10.0057 14.8513 9.99981C14.843 9.99411 14.8339 9.98803 14.8241 9.98157C14.6724 9.8819 14.4491 9.76162 14.086 9.56796C14.0801 9.56497 14.0742 9.56192 14.0683 9.55879L5.735 5.11434C5.39746 4.93432 5.19459 4.82707 5.04346 4.76343C5.03458 4.75968 5.02627 4.75628 5.01853 4.75318Z" fill="#318BF5"/>
</svg>
