<?xml version="1.0" encoding="UTF-8"?>
<svg xmlns="http://www.w3.org/2000/svg" xmlns:xlink="http://www.w3.org/1999/xlink" width="27" height="18" viewBox="0 0 27 18">
<path fill-rule="nonzero" fill="rgb(100%, 100%, 100%)" fill-opacity="1" d="M 20.800781 8.949219 C 20.800781 6.863281 19.082031 5.15625 16.9375 5.066406 L 16.9375 0.78125 C 16.9375 0.328125 16.546875 0 16.121094 0 C 16 0 15.871094 0.0273438 15.75 0.0898438 L 6.816406 4.554688 L 6.816406 4.574219 L 4.550781 4.574219 C 2.039062 4.574219 0 6.53125 0 8.949219 C 0 11.164062 1.710938 12.996094 3.933594 13.285156 C 3.914062 13.367188 3.902344 13.449219 3.902344 13.535156 L 3.902344 16.660156 C 3.902344 17.265625 4.414062 17.757812 5.039062 17.757812 C 5.667969 17.757812 6.179688 17.265625 6.179688 16.660156 L 6.179688 13.535156 C 6.179688 13.464844 6.171875 13.394531 6.15625 13.328125 L 6.851562 13.328125 L 15.746094 17.808594 C 15.867188 17.871094 15.996094 17.898438 16.121094 17.898438 C 16.546875 17.898438 16.9375 17.570312 16.9375 17.117188 L 16.9375 12.832031 C 19.082031 12.742188 20.800781 11.035156 20.800781 8.949219 Z M 6.644531 10.960938 L 4.550781 10.960938 C 3.992188 10.960938 3.46875 10.753906 3.070312 10.371094 C 2.675781 9.992188 2.457031 9.488281 2.457031 8.949219 C 2.457031 8.410156 2.675781 7.90625 3.070312 7.527344 C 3.46875 7.144531 3.992188 6.9375 4.550781 6.9375 L 6.644531 6.9375 Z M 14.660156 14.792969 L 9.105469 11.992188 L 9.105469 5.878906 L 14.660156 3.101562 Z M 16.9375 10.636719 L 16.9375 7.261719 C 17.828125 7.347656 18.523438 8.070312 18.523438 8.949219 C 18.523438 9.828125 17.828125 10.550781 16.9375 10.636719 Z M 16.9375 10.636719 "/>
<path fill="none" stroke-width="2" stroke-linecap="round" stroke-linejoin="miter" stroke="rgb(100%, 100%, 100%)" stroke-opacity="1" stroke-miterlimit="4" d="M 22.359375 2.5 L 24.179688 1.527344 "/>
<path fill="none" stroke-width="2" stroke-linecap="round" stroke-linejoin="miter" stroke="rgb(100%, 100%, 100%)" stroke-opacity="1" stroke-miterlimit="4" d="M 22.359375 15.471287 L 24.179688 14.498631 " transform="matrix(1, 0, 0, -1, 0, 29.971287)"/>
</svg>
