<?xml version="1.0" encoding="UTF-8"?>
<svg width="27px" height="18px" viewBox="0 0 27 18" version="1.1" xmlns="http://www.w3.org/2000/svg" xmlns:xlink="http://www.w3.org/1999/xlink">
    <title>编组 7@2x</title>
    <g id="Transfer" stroke="none" stroke-width="1" fill="none" fill-rule="evenodd">
        <g id="Deposit-20201105" transform="translate(-240.000000, -94.000000)">
            <g id="编组-10" transform="translate(216.000000, 80.000000)">
                <g id="编组-7" transform="translate(24.000000, 14.000000)">
                    <path d="M20.8,8.94958986 C20.8,6.86420494 19.0823134,5.15748357 16.9360688,5.06819087 L16.9360688,0.782532413 C16.9360688,0.328644176 16.5487612,-0.000195214851 16.1226417,8.69478196e-08 C15.9982806,8.69478196e-08 15.870465,0.0281361646 15.748136,0.0892928664 L6.81649082,4.55588138 L6.81649082,4.57307559 L4.55177804,4.57307559 C2.03793669,4.57307559 0,6.53263011 0,8.94978525 C0,11.1651037 1.71179367,12.9957016 3.93281751,13.2860494 C3.91310668,13.3663542 3.90233685,13.4499806 3.90233685,13.5357563 L3.90233685,16.6619775 C3.90233685,17.2637751 4.41441188,17.7561549 5.04028136,17.7561549 C5.66615084,17.7561549 6.17822587,17.2637751 6.17822587,16.6619775 L6.17822587,13.5357563 C6.17822587,13.464244 6.17070731,13.3942948 6.15688941,13.3264949 L6.85062915,13.3264949 L15.7459007,17.8091053 C15.8688394,17.8710436 15.9974678,17.8995703 16.1226417,17.8995703 C16.548558,17.8995703 16.9360688,17.5709263 16.9360688,17.1170381 L16.9360688,12.8309888 C19.0823134,12.7416961 20.8,11.0349748 20.8,8.94958986 Z M6.64539273,10.9626809 L4.55177804,10.9626809 C3.99255959,10.9626809 3.46686987,10.7532241 3.07143415,10.3729974 C2.67599844,9.99277079 2.45816335,9.4872999 2.45816335,8.94958986 C2.45816335,8.41187981 2.67599844,7.90640893 3.07143415,7.52618228 C3.46686987,7.14595563 3.99255959,6.93649881 4.55177804,6.93649881 L6.64539273,6.93649881 L6.64539273,10.9626809 Z M14.6601798,14.7911295 L9.10355608,11.9910123 L9.10355608,5.87846833 L14.6601798,3.09984386 L14.6601798,14.7911295 L14.6601798,14.7911295 Z M16.9360688,10.6381401 L16.9360688,7.26123503 C17.8265104,7.34681534 18.524111,8.07131709 18.524111,8.94958986 C18.524111,9.82805801 17.8265104,10.5525598 16.9360688,10.6381401 L16.9360688,10.6381401 Z" id="形状" fill="#FFFFFF" fill-rule="nonzero"></path>
                    <line x1="22.36" y1="2.5" x2="24.1782471" y2="1.52871414" id="直线-2" stroke="#FFFFFF" stroke-width="2" stroke-linecap="round"></line>
                    <line x1="22.36" y1="15.4712859" x2="24.1782471" y2="14.5" id="直线-2备份-2" stroke="#FFFFFF" stroke-width="2" stroke-linecap="round" transform="translate(23.269124, 14.985643) scale(1, -1) translate(-23.269124, -14.985643) "></line>
                    <line x1="23.4" y1="8.5" x2="25.48" y2="8.5" id="直线-5" stroke="#FFFFFF" stroke-width="2" stroke-linecap="round"></line>
                </g>
            </g>
        </g>
    </g>
</svg>