<?xml version="1.0" encoding="UTF-8"?>
<svg xmlns="http://www.w3.org/2000/svg" xmlns:xlink="http://www.w3.org/1999/xlink" width="19" height="18" viewBox="0 0 19 18">
<path fill-rule="nonzero" fill="rgb(89.803922%, 87.45098%, 96.078431%)" fill-opacity="1" stroke-width="0.5" stroke-linecap="butt" stroke-linejoin="miter" stroke="rgb(14.509804%, 14.509804%, 27.843137%)" stroke-opacity="1" stroke-miterlimit="4" d="M 15.917969 3.917969 L 15 3.917969 L 15 3 C 15 1.480469 13.769531 0.25 12.25 0.25 L 3.082031 0.25 C 1.566406 0.25 0.332031 1.480469 0.332031 3 L 0.332031 14 C 0.332031 15.519531 1.566406 16.75 3.082031 16.75 L 15.917969 16.75 C 17.433594 16.75 18.667969 15.519531 18.667969 14 L 18.667969 6.667969 C 18.667969 5.148438 17.433594 3.917969 15.917969 3.917969 Z M 3.082031 2.082031 L 12.25 2.082031 C 12.757812 2.082031 13.167969 2.492188 13.167969 3 L 13.167969 3.917969 L 3.082031 3.917969 C 2.578125 3.917969 2.167969 3.507812 2.167969 3 C 2.167969 2.492188 2.578125 2.082031 3.082031 2.082031 Z M 16.832031 11.25 L 15.917969 11.25 C 15.410156 11.25 15 10.839844 15 10.332031 C 15 9.828125 15.410156 9.417969 15.917969 9.417969 L 16.832031 9.417969 Z M 16.832031 7.582031 L 15.917969 7.582031 C 14.398438 7.582031 13.167969 8.816406 13.167969 10.332031 C 13.167969 11.851562 14.398438 13.082031 15.917969 13.082031 L 16.832031 13.082031 L 16.832031 14 C 16.832031 14.507812 16.421875 14.917969 15.917969 14.917969 L 3.082031 14.917969 C 2.578125 14.917969 2.167969 14.507812 2.167969 14 L 2.167969 5.59375 C 2.460938 5.699219 2.769531 5.75 3.082031 5.75 L 15.917969 5.75 C 16.421875 5.75 16.832031 6.160156 16.832031 6.667969 Z M 16.832031 7.582031 "/>
</svg>
