<?xml version="1.0" encoding="UTF-8"?>
<svg width="19px" height="18px" viewBox="0 0 19 18" version="1.1" xmlns="http://www.w3.org/2000/svg" xmlns:xlink="http://www.w3.org/1999/xlink">
    <!-- Generator: Sketch 64 (93537) - https://sketch.com -->
    <title>wallet@2x</title>
    <desc>Created with Sketch.</desc>
    <g id="Personal-center" stroke="none" stroke-width="1" fill="none" fill-rule="evenodd">
        <g id="Wallet-mmanagement/Balance-数据隐藏" transform="translate(-15.000000, -84.000000)" fill="#E5DFF5" fill-rule="nonzero" stroke="#252547" stroke-width="0.5">
            <g id="编组" transform="translate(0.000000, 84.000000)">
                <g id="wallet" transform="translate(15.000000, 0.000000)">
                    <path d="M15.9166941,3.91668129 L15.0000256,3.91668129 L15.0000256,3.00001285 L15.0000256,3.00001285 C15.0000256,1.48122905 13.7688062,0.250009645 12.2500224,0.250009645 L3.08333795,0.250009645 L3.08333783,0.250009645 C1.56455403,0.250009645 0.33333463,1.48122905 0.33333463,3.00001285 C0.33333463,3.00001285 0.33333463,3.00001285 0.33333463,3.00001285 L0.33333463,14.0000256 L0.33333463,14.0000261 C0.33333463,15.5188099 1.56455403,16.7500293 3.08333783,16.7500293 L15.9166789,16.7500293 L15.9166788,16.7500293 C17.4354626,16.7500293 18.666682,15.518812 18.666682,14.0000261 L18.666682,6.66669136 L18.666682,6.66669136 C18.666682,5.14790756 17.4354626,3.91668816 15.9166788,3.91668816 L15.9166941,3.91668129 Z M3.08335299,2.08334654 L12.2500375,2.08334654 L12.2500374,2.08334654 C12.756298,2.08334654 13.1666995,2.4937523 13.1666995,3.00001499 L13.1666995,3.91668344 L3.08336799,3.91668344 L3.08336796,3.91668344 C2.57710741,3.91668344 2.16669951,3.50627769 2.16669951,3.00001499 C2.16669951,2.49375444 2.57710527,2.08334654 3.08336796,2.08334654 L3.08335299,2.08334654 Z M16.833369,11.250031 L15.9167005,11.250031 L15.9167005,11.250031 C15.41044,11.2499535 15.0000965,10.8394856 15.0001739,10.3332229 C15.0002514,9.82707196 15.4105495,9.41677363 15.9167005,9.41669629 L16.833369,9.41669629 L16.833369,11.250031 Z M16.833369,7.58335294 L15.9167005,7.58335294 L15.9167004,7.58335294 C14.3979166,7.58335301 13.1666908,8.81457235 13.1666908,10.3333561 C13.1666908,11.8521399 14.3979166,13.0833593 15.9167004,13.0833593 L16.833369,13.0833593 L16.833369,14.0000278 L16.833369,14.0000278 C16.833369,14.5062883 16.4229631,14.9166962 15.9167004,14.9166962 L3.08335931,14.9166962 L3.0833593,14.9166962 C2.57709875,14.9166962 2.16669085,14.5062905 2.16669085,14.0000278 L2.16669085,5.59419184 L2.16669085,5.59419184 C2.4611862,5.69779094 2.77117172,5.75048852 3.08335938,5.75002531 L15.9167005,5.75002531 L15.9167005,5.75002531 C16.4229611,5.75002535 16.833369,6.16043107 16.833369,6.66669376 L16.833369,7.58335294 Z" id="形状"></path>
                </g>
            </g>
        </g>
    </g>
</svg>