<?xml version="1.0" encoding="UTF-8"?>
<svg xmlns="http://www.w3.org/2000/svg" xmlns:xlink="http://www.w3.org/1999/xlink" width="12" height="12" viewBox="0 0 12 12">
<path fill-rule="nonzero" fill="rgb(19.215686%, 54.509804%, 96.078431%)" fill-opacity="1" d="M 11.496094 5.109375 L 9.265625 7.308594 L 9.792969 10.417969 C 9.867188 10.859375 9.578125 11.277344 9.140625 11.355469 C 8.96875 11.386719 8.789062 11.355469 8.632812 11.273438 L 5.867188 9.800781 L 3.109375 11.269531 C 2.722656 11.476562 2.238281 11.328125 2.035156 10.9375 C 2.03125 10.9375 2.03125 10.933594 2.027344 10.929688 C 1.949219 10.773438 1.917969 10.589844 1.949219 10.417969 L 2.476562 7.304688 L 0.242188 5.109375 C -0.0742188 4.792969 -0.078125 4.285156 0.230469 3.964844 C 0.351562 3.835938 0.511719 3.753906 0.6875 3.726562 L 3.773438 3.273438 L 5.152344 0.449219 C 5.339844 0.0546875 5.8125 -0.109375 6.210938 0.078125 C 6.371094 0.15625 6.503906 0.289062 6.582031 0.449219 L 7.960938 3.277344 L 11.046875 3.730469 C 11.484375 3.792969 11.789062 4.203125 11.726562 4.644531 C 11.703125 4.820312 11.621094 4.984375 11.496094 5.109375 Z M 11.496094 5.109375 "/>
</svg>
