<?xml version="1.0" encoding="UTF-8"?>
<svg xmlns="http://www.w3.org/2000/svg" xmlns:xlink="http://www.w3.org/1999/xlink" width="21" height="15" viewBox="0 0 21 15">
<path fill-rule="nonzero" fill="rgb(89.803922%, 87.45098%, 96.078431%)" fill-opacity="0.6" d="M 2.800781 14.054688 L 16.839844 0.015625 L 17.769531 0.941406 L 3.730469 14.980469 Z M 10.277344 4.875 C 10.511719 4.875 10.742188 4.90625 10.960938 4.964844 L 11.980469 3.949219 C 11.464844 3.703125 10.886719 3.5625 10.277344 3.5625 C 8.105469 3.5625 6.34375 5.324219 6.34375 7.496094 C 6.34375 8.105469 6.480469 8.683594 6.730469 9.199219 L 7.746094 8.183594 C 7.6875 7.960938 7.65625 7.730469 7.65625 7.496094 C 7.65625 6.796875 7.929688 6.136719 8.425781 5.640625 C 8.917969 5.148438 9.574219 4.875 10.277344 4.875 Z M 10.277344 10.121094 C 10.046875 10.121094 9.820312 10.09375 9.605469 10.035156 L 8.585938 11.054688 C 9.097656 11.296875 9.671875 11.433594 10.277344 11.433594 C 12.449219 11.433594 14.210938 9.671875 14.210938 7.5 C 14.210938 6.894531 14.074219 6.324219 13.828125 5.808594 L 12.8125 6.828125 C 12.867188 7.046875 12.898438 7.269531 12.898438 7.5 C 12.898438 8.199219 12.625 8.859375 12.128906 9.355469 C 11.632812 9.847656 10.976562 10.121094 10.277344 10.121094 Z M 10.277344 10.121094 "/>
<path fill-rule="nonzero" fill="rgb(89.803922%, 87.45098%, 96.078431%)" fill-opacity="0.6" d="M 5.082031 10.847656 C 4.949219 10.753906 4.816406 10.660156 4.683594 10.5625 C 3.242188 9.488281 2.117188 8.277344 1.457031 7.5 C 2.117188 6.71875 3.242188 5.507812 4.679688 4.433594 C 5.578125 3.769531 6.476562 3.246094 7.351562 2.878906 C 8.351562 2.464844 9.335938 2.253906 10.273438 2.253906 C 11.179688 2.253906 12.125 2.449219 13.089844 2.835938 L 14.085938 1.839844 C 12.90625 1.296875 11.621094 0.941406 10.277344 0.941406 C 5.476562 0.941406 1.433594 5.4375 0.183594 6.984375 C -0.0585938 7.285156 -0.0585938 7.714844 0.183594 8.015625 C 0.839844 8.820312 2.25 10.433594 4.140625 11.789062 Z M 20.367188 6.984375 C 19.714844 6.175781 18.304688 4.570312 16.421875 3.214844 L 15.480469 4.15625 C 15.613281 4.246094 15.742188 4.335938 15.871094 4.433594 C 17.308594 5.507812 18.433594 6.71875 19.09375 7.5 C 18.433594 8.277344 17.308594 9.488281 15.871094 10.5625 C 14.972656 11.230469 14.074219 11.75 13.199219 12.117188 C 12.199219 12.53125 11.214844 12.742188 10.277344 12.742188 C 9.378906 12.742188 8.433594 12.546875 7.476562 12.164062 L 6.472656 13.164062 C 7.652344 13.703125 8.933594 14.054688 10.277344 14.054688 C 15.074219 14.054688 19.117188 9.558594 20.367188 8.011719 C 20.609375 7.714844 20.609375 7.285156 20.367188 6.984375 Z M 20.367188 6.984375 "/>
</svg>
