<?xml version="1.0" encoding="UTF-8"?>
<svg xmlns="http://www.w3.org/2000/svg" xmlns:xlink="http://www.w3.org/1999/xlink" width="20" height="14" viewBox="0 0 20 14">
<path fill-rule="nonzero" fill="rgb(89.803922%, 87.45098%, 96.078431%)" fill-opacity="0.6" d="M 19.054688 5.980469 C 19.054688 5.980469 15.039062 0 9.605469 0 C 4.175781 0 0.160156 5.980469 0.160156 5.980469 C -0.0546875 6.296875 -0.0546875 6.8125 0.160156 7.128906 C 0.160156 7.128906 4.175781 13.113281 9.605469 13.113281 C 15.039062 13.113281 19.054688 7.128906 19.054688 7.128906 C 19.269531 6.8125 19.269531 6.296875 19.054688 5.980469 Z M 9.605469 11.730469 C 5.503906 11.730469 2.164062 7.523438 1.445312 6.554688 C 2.164062 5.582031 5.503906 1.382812 9.605469 1.382812 C 13.710938 1.382812 17.050781 5.585938 17.765625 6.554688 C 17.050781 7.527344 13.710938 11.730469 9.605469 11.730469 Z M 9.605469 11.730469 "/>
<path fill-rule="nonzero" fill="rgb(89.803922%, 87.45098%, 96.078431%)" fill-opacity="0.6" d="M 9.5 3 C 7.566406 3 6 4.566406 6 6.5 C 6 8.433594 7.566406 10 9.5 10 C 11.433594 10 13 8.433594 13 6.5 C 13 4.566406 11.433594 3 9.5 3 Z M 9.5 8.832031 C 8.214844 8.832031 7.167969 7.785156 7.167969 6.5 C 7.167969 5.214844 8.214844 4.167969 9.5 4.167969 C 10.785156 4.167969 11.832031 5.214844 11.832031 6.5 C 11.832031 7.785156 10.785156 8.832031 9.5 8.832031 Z M 9.5 8.832031 "/>
</svg>
