<?xml version="1.0" encoding="UTF-8"?>
<svg width="20px" height="14px" viewBox="0 0 20 14" version="1.1" xmlns="http://www.w3.org/2000/svg" xmlns:xlink="http://www.w3.org/1999/xlink">
    <title>yincang_1@2x</title>
    <g id="Deposit" stroke="none" stroke-width="1" fill="none" fill-rule="evenodd" fill-opacity="0.6">
        <g id="Balances" transform="translate(-220.000000, -130.000000)" fill="#E5DFF5" fill-rule="nonzero">
            <g id="yincang_1" transform="translate(220.000000, 130.000000)">
                <path d="M19.0556709,5.98229895 C19.0556709,5.98229895 15.0381884,0 9.60724432,0 C4.17630026,0 0.158817745,5.98229895 0.158817745,5.98229895 C-0.0529392483,6.29763986 -0.0529392483,6.81424825 0.158817745,7.12958916 C0.158817745,7.12958916 4.17630026,13.1118881 9.60724432,13.1118881 C15.0381884,13.1118881 19.0556709,7.12958916 19.0556709,7.12958916 C19.2680835,6.81424825 19.2680835,6.29763986 19.0556709,5.98229895 Z M9.60724432,11.7298951 C5.50322334,11.7298951 2.16231425,7.52491259 1.44706075,6.55594406 C2.16493663,5.58369755 5.50453453,1.38199301 9.60724432,1.38199301 C13.7112653,1.38199301 17.0521744,5.58697552 17.7674279,6.55594406 C17.049552,7.52819056 13.7099541,11.7298951 9.60724432,11.7298951 Z" id="形状"></path>
                <path d="M9.5,3 C7.56683333,3 6,4.56683333 6,6.5 C6,8.43316667 7.56683333,10 9.5,10 C11.4331667,10 13,8.43316667 13,6.5 C13,4.56683333 11.4331667,3 9.5,3 Z M9.5,8.83333333 C8.21316667,8.83333333 7.16666667,7.78683333 7.16666667,6.5 C7.16666667,5.21316667 8.21316667,4.16666667 9.5,4.16666667 C10.7868333,4.16666667 11.8333333,5.21316667 11.8333333,6.5 C11.8333333,7.78683333 10.7868333,8.83333333 9.5,8.83333333 Z" id="形状"></path>
            </g>
        </g>
    </g>
</svg>