<?xml version="1.0" encoding="UTF-8"?>
<svg width="21px" height="15px" viewBox="0 0 21 15" version="1.1" xmlns="http://www.w3.org/2000/svg" xmlns:xlink="http://www.w3.org/1999/xlink">
    <title>yincang@2x</title>
    <g id="Deposit" stroke="none" stroke-width="1" fill="none" fill-rule="evenodd" fill-opacity="0.6">
        <g id="Balances--隐藏数据" transform="translate(-220.000000, -129.000000)" fill="#E5DFF5" fill-rule="nonzero">
            <g id="yincang" transform="translate(220.000000, 129.000000)">
                <path d="M2.80217439,14.053547 L16.841114,0.0146074628 L17.7682679,0.941740876 L3.7293078,14.9806805 L2.80217439,14.053547 Z M10.2764423,4.87598339 C10.5120465,4.87598339 10.7415046,4.90671438 10.9627677,4.96612762 L11.978939,3.94995629 C11.4647072,3.70205966 10.8869646,3.56274585 10.2764423,3.56274585 C8.10478584,3.56274585 6.34287587,5.32465581 6.34287587,7.49631228 C6.34287587,8.10683457 6.48218969,8.68252841 6.73008632,9.198809 L7.74625765,8.18263767 C7.68684441,7.96137456 7.65611342,7.73191652 7.65611342,7.49631228 C7.65611342,6.79564576 7.92859484,6.13800262 8.42438811,5.64220935 C8.91608392,5.14846482 9.57577579,4.87598339 10.2764423,4.87598339 Z M10.2764423,10.1207386 C10.0469843,10.1207386 9.82162369,10.0920564 9.60445804,10.0346919 L8.58623798,11.0529119 C9.09842111,11.2967111 9.67001748,11.4339762 10.2764423,11.4339762 C12.4480988,11.4339762 14.2100087,9.67206622 14.2100087,7.50040975 C14.2100087,6.89603365 14.0727437,6.32238855 13.8289445,5.81020542 L12.8107244,6.82842548 C12.8680889,7.04559113 12.8967712,7.2709517 12.8967712,7.50040975 C12.8967712,8.20107627 12.6242898,8.85871941 12.1284965,9.35451267 C11.634752,9.84825721 10.9750601,10.1207386 10.2764423,10.1207386 Z" id="形状"></path>
                <path d="M5.08085664,10.8480387 C4.94768903,10.7558457 4.81657015,10.661604 4.68340253,10.5612161 C3.24314358,9.48972902 2.11634069,8.27687937 1.45869755,7.49836101 C2.11634069,6.71984266 3.24314358,5.50699301 4.6813538,4.4355059 C5.57869865,3.7676191 6.47604349,3.24519231 7.35085227,2.88051792 C8.35268247,2.46462522 9.33607408,2.25360577 10.2723448,2.25360577 C11.1778846,2.25360577 12.124399,2.45028409 13.0893521,2.83749454 L14.0870848,1.8397618 C12.9070149,1.29684768 11.6204108,0.942416958 10.2764423,0.942416958 C5.47831075,0.942416958 1.43411276,5.4373361 0.184385927,6.98412915 C-0.0594127249,7.28437489 -0.0594127249,7.71439587 0.184385927,8.01464161 C0.8379316,8.82184222 2.25155704,10.4341947 4.14048842,11.7904556 L5.08085664,10.8480387 Z M20.36645,6.98412915 C19.714953,6.17692854 18.3033763,4.56867351 16.4226399,3.21446132 L15.4822716,4.15482955 C15.6113418,4.24497378 15.7404119,4.33716674 15.8694821,4.43345717 C17.3076923,5.50699301 18.4344952,6.71984266 19.0921383,7.49836101 C18.4344952,8.27687937 17.3076923,9.48972902 15.8694821,10.5612161 C14.9721372,11.2291029 14.0747924,11.7515297 13.1999836,12.1162041 C12.1981534,12.5320968 11.2147618,12.7431163 10.278491,12.7431163 C9.37704873,12.7431163 8.43463177,12.5484867 7.47582496,12.1653737 L6.47399476,13.1631064 C7.65201595,13.7019231 8.93452251,14.0543051 10.2764423,14.0543051 C15.0725251,14.0543051 19.1187719,9.55938593 20.3684987,8.01259288 C20.6102491,7.71347793 20.6102491,7.2832441 20.36645,6.98412915 Z" id="形状"></path>
            </g>
        </g>
    </g>
</svg>